<?xml version="1.0" encoding="iso-8859-1"?>
<!-- Generator: Adobe Illustrator 19.0.0, SVG Export Plug-In . SVG Version: 6.00 Build 0)  -->
<svg version="1.1" id="Layer_1" xmlns="http://www.w3.org/2000/svg" xmlns:xlink="http://www.w3.org/1999/xlink" x="0px" y="0px"
	 viewBox="0 0 496.2 496.2" style="enable-background:new 0 0 496.2 496.2;" xml:space="preserve">
<path style="fill:#FFEFD6;" d="M0,248.1C0,111.1,111.1,0,248.1,0s248.1,111.1,248.1,248.1S385.1,496.2,248.1,496.2S0,385.1,0,248.1z
	"/>
<path style="fill:#E2A379;" d="M335.7,236.7c0-1.9-14.5-5.2-22.7-3c-3.3,0.9-8.6,0.7-8.6,0.7c-29.3-0.1-45.8-3.6-45.8-3.6
	c-20.6-2.9-60-15.1-67.8-14s-7.4,17.1,0.6,18c8.3,2.6,14.4,3.9,25,4.7c20.4,3.2,34.9,3.6,41.8,4.2c11.3,0.9,46.5-0.9,46.5-0.9
	s3.9,1.4,6.4,1.3c4.6-0.2,8.2-1,12.1-2.7C328.8,239.2,335.7,238.6,335.7,236.7z"/>
<path style="fill:#B3233B;" d="M222.2,244.5c-2-12.1-12.7-13.1-21.9-24.6c-1.1-1.4-9.5-4.3-13.4-3.6c-4.3,0.8-8.6,2.4-11.2,6.6
	c-2,3.3-5.3,12.9,2.5,35.6c1.9,5.8,16,25.8,30.5,47c8.2,12,11.6,22.2,11.6,22.2l28.4-29.9c-5.4-5.7-28.4-31.2-29-43.6
	C219.7,254.2,222.8,247.9,222.2,244.5z"/>
<path style="fill:#E2A379;" d="M190.3,217.9c-0.9-0.6-4.7-0.1-11.3-13.3l-12.7,4.3c5.5,6.3,7.9,17,7.9,17c6.1-3.4,10.7-3.7,14.3-3.9
	c0.5,0,2.2,0.3,3-1.7C191.9,219.3,191.2,218.5,190.3,217.9z"/>
<path style="fill:#F4B382;" d="M179.9,183.5c-0.4-6.4-5.6-8.7-8.9-9.8c-10.1-3.3-15.2-0.1-21,5c-7.7,6.7,7,29.4,10.6,32.2
	c9.4,7.3,24.7,0.2,29.8-4c5.6-4.6,2.6-5.3,0.5-7.4c-0.1-0.1-0.1-0.6-0.1-0.6c-0.6-0.8-1.6-1.7-2-3.2c0,0-0.8-0.5-1.1-0.9
	c-0.2-0.2-0.3-0.4-0.1-0.7c0.5-1,1.1-1.9,1.1-2.5C188.9,189.6,180.1,186.5,179.9,183.5z"/>
<path style="fill:#D6876B;" d="M186.5,199.5c0,0,0.8-0.1,3.3-2.3c0.2-0.4,0.4-1.2-0.6-1.5C188.4,195.4,188.1,197.7,186.5,199.5z"/>
<path style="fill:#CC785E;" d="M186.5,199.5c0,0,1.6,0.8,4.4-0.6c0.3-0.3,0.3-0.8,0.2-1c-0.3-1-1.3-0.7-1.3-0.7
	C187.3,199.3,186.5,199.5,186.5,199.5z"/>
<path style="fill:#602F0F;" d="M148.4,177.9c-9.4,8.1-10.1,32.4,16.5,37.2c1.8,0.3,4.8-0.1,5.8-4.8c0.7-3.3,0.3-6.6,0.3-6.6
	c-0.1-1-0.3-2-0.4-3.2c-0.2-1.2-4.8-5.3-4-6.3c7.9-9.4,7.6-17.7,5.5-20.1C165.9,169.2,158.4,169.2,148.4,177.9z"/>
<path style="fill:#F4B382;" d="M167.1,202.4c5,2.9,6.9,1.6,9.2-0.7l-7-5.2l-3.5-1.5C163.5,197.3,162.1,199.4,167.1,202.4z"/>
<path style="fill:#4C230C;" d="M146.1,204.8c-3.8,0-6.7-5.4-6.5-12c0.2-6.7,3.5-12.1,7.3-12.2c3.8,0,5.5,4.5,5.3,11.2
	C152,198.5,149.9,204.8,146.1,204.8z"/>
<g>
	<path style="fill:#602F0F;" d="M168.4,194.4c-0.8-0.6-1.4-1.3-1.8-1.9c-0.7-0.8-1-1.4-1-1.4l-1.9,3.3c0.3,0.4,0.7,0.8,1,1.2
		c0,0,0.2-0.3,0.6-1v0.1c0.9,0.3,2.2,0.8,3.8,1.8C169.1,196.6,170.8,196.4,168.4,194.4z"/>
	<path style="fill:#602F0F;" d="M144.3,205.9c-4,0-7.1-5.9-6.8-13.2c0.2-7.3,3.7-13.3,7.7-13.3s5.8,4.9,5.6,12.2
		C150.5,199,148.4,205.9,144.3,205.9z"/>
</g>
<path style="fill:#4C230C;" d="M138.7,196.3c-0.4,0-0.7-1.8-0.7-4c0.1-2.2,0.5-4.1,0.9-4.1s0.6,1.5,0.5,3.8
	C139.4,194.1,139.1,196.2,138.7,196.3z"/>
<path style="fill:#3D3C3C;" d="M220.4,327.7c7.1,13.4,25.5,12.8,34.4,9.2c27.8-11.3,0.2-53.4-4.7-48.1c-4,4.4-7.7,8.3-11,11.7
	C235.1,304.5,220.4,327.7,220.4,327.7z"/>
<path style="fill:#F4B382;" d="M374.6,160.7c-1,4.7-6.8,14.3-7.3,20.4c-0.3,3.6-1.1,10.6-3.4,13.2c-3.8,4.4-8,4-9.2,5
	c-7.9,6.3-20,31.7-24,36.2c-6.6,7.4-18.8-8.6-16.4-11.3c19.3-22.1,29.9-31.8,33.8-35.3c0,0,17.4-25.2,19.9-28
	C369.6,159.3,375.4,156.7,374.6,160.7z"/>
<path style="fill:#3D3C3C;" d="M308.3,260.3c8.4-8,15.8-16.1,21.8-24c-6.2-0.5-14.3-8.1-15.8-12c-2.5,2.6-22.7,21.9-22.7,21.9
	c-6.4,6.1-44.5,41.6-52.9,55.5c-2.3,3.5-4,6.8-5.3,9.6c-2.5,5.5,24.8,23.5,30.9,18.1c10.3-14.4,24.2-44.7,28.5-51.6
	C297,270.9,308.3,260.3,308.3,260.3z"/>
<path style="fill:#F4B382;" d="M329.7,248.6c0-1.9-14.5-5.2-22.7-3c-3.3,0.9-8.6,0.7-8.6,0.7c-29.3-0.1-45.8-3.6-45.8-3.6
	c-20.6-2.9-60-15.1-67.8-14s-7.4,17.1,0.6,18c8.3,2.6,14.4,3.9,25,4.7c20.4,3.2,34.9,3.6,41.8,4.2c11.3,0.9,46.5-0.9,46.5-0.9
	s3.9,1.4,6.4,1.3c4.6-0.2,8.2-1,12.1-2.7C322.9,251.1,329.7,250.5,329.7,248.6z"/>
<g>
</g>
<g>
</g>
<g>
</g>
<g>
</g>
<g>
</g>
<g>
</g>
<g>
</g>
<g>
</g>
<g>
</g>
<g>
</g>
<g>
</g>
<g>
</g>
<g>
</g>
<g>
</g>
<g>
</g>
</svg>
