<?xml version="1.0" encoding="iso-8859-1"?>
<!-- Generator: Adobe Illustrator 19.0.0, SVG Export Plug-In . SVG Version: 6.00 Build 0)  -->
<svg version="1.1" id="Layer_1" xmlns="http://www.w3.org/2000/svg" xmlns:xlink="http://www.w3.org/1999/xlink" x="0px" y="0px"
	 viewBox="0 0 496.2 496.2" style="enable-background:new 0 0 496.2 496.2;" xml:space="preserve">
<path style="fill:#FFEFD6;" d="M0,248.1C0,111.1,111.1,0,248.1,0s248.1,111.1,248.1,248.1S385.1,496.2,248.1,496.2S0,385.1,0,248.1z
	"/>
<path style="fill:#E2A379;" d="M359.6,325.7c-6.1-2.1-15.4-2-15.5-4.6c-0.8-20.8-2.5-52-2.5-52c1.5-20.7,12.3-60.7,10.6-68.5
	c-1.7-7.7-17.6-6.1-17.9,1.8c-1,9.3-2.2,13.7-3.2,23.3c-1.5,11.9-3.3,36.9-2.3,43.8c0.1,0.9,6.8,47,6.8,47s0.2,5.7,1,8.8
	c0.9,3.5,3.2,2.7,10.2,3.5C352,329.5,363.9,327.2,359.6,325.7z"/>
<path style="fill:#3D3C3C;" d="M257.6,226.9c0,0-8.6-1.1-15.3,0.3c-13.8,2.9-19.1,13.5-19.1,13.5s4.1,31.4,11.1,29.7
	c13.3-3.1,23.9-5.2,30.4-6.5c4.4-0.9,2.4-22.3,2.4-22.3L257.6,226.9z"/>
<path style="fill:#B3233B;" d="M332.9,244.6c11.6-4.1,13.6-16,23.3-27c1.2-1.4,2.5-10.1,1.1-13.8c-1.5-4.1-3.8-8.1-8.5-9.9
	c-3.6-1.4-13.5-3-33.3,9.5c-9.5,5.1-44.7,24.6-58,23.6c0,0,6.3,12.3,7.4,20.4c1.1,8.2-0.2,16.6-0.2,16.6
	c35.7-11.2,46.1-17.3,58.2-20.1C322.9,243.9,329.7,245.8,332.9,244.6z"/>
<path style="fill:#F4B382;" d="M349.7,327.6c-4.2-2.6-15.8-3.9-15.6-6.5c1.5-20.8,7.5-52,7.5-52c1.5-20.7,12.3-60.7,10.6-68.5
	c-1.7-7.7-17.6-6.1-17.9,1.8c-1,9.3-2.2,13.7-3.2,23.3c-1.5,11.9-3.3,36.9-2.3,43.8c0.1,0.9-3,52.7-2.2,55.8
	c0.9,3.5,3.2,2.7,10.2,3.5C342,329.5,353.6,330,349.7,327.6z"/>
<path style="fill:#E2A379;" d="M360,212.7c0,0,4-1.4,11.3-3V193c-6.4,5.4-15.9,6.5-15.9,6.5c5,9.8,0.9,14.5,0.9,18.1L360,212.7z"/>
<path style="fill:#F4B382;" d="M393.3,211.4c6.1,1.7,10.1-2.4,12.2-5.1c6.5-8.4,5.1-14.3,2.3-21.5c-3.8-9.4-30.1-3.1-33.9-0.6
	c-10,6.5-8.3,23.2-6,29.5c2.5,6.9,4.2,4.2,6.8,2.9c0.1-0.1,0.6,0.1,0.6,0.1c0.9-0.4,2.2-0.9,3.7-0.8c0,0,0.7-0.6,1.2-0.8
	c0.3-0.1,0.5-0.2,0.8,0.1c0.7,0.8,1.4,1.7,2,1.9C384.5,217.8,390.4,210.6,393.3,211.4z"/>
<path style="fill:#D6876B;" d="M376,212.3c0,0-0.1,0.8,1.1,3.9c0.3,0.3,1,0.8,1.6-0.1C379.2,215.4,377.2,214.4,376,212.3z"/>
<path style="fill:#CC785E;" d="M376,212.3c0,0-1.3,1.2-0.9,4.4c0.2,0.4,0.7,0.6,0.9,0.6c1.1,0,1.1-1,1.1-1
	C375.9,213.1,376,212.3,376,212.3z"/>
<path style="fill:#602F0F;" d="M409,183.5c-4.6-11.5-27.3-20.3-40.6,3.2c-0.9,1.6-1.5,4.6,2.6,7.1c2.9,1.8,6.1,2.5,6.1,2.5
	c1,0.2,2,0.4,3.1,0.6c1.2,0.2,6.6-2.8,7.3-1.7c6.3,10.6,14.2,13,17.2,11.8C411.4,202.9,413.9,195.8,409,183.5z"/>
<path style="fill:#F4B382;" d="M379.7,193.1c-4.4,3.8-3.8,6-2.3,8.9l7.3-4.9l2.6-2.8C385.7,191.4,384.1,189.3,379.7,193.1z"/>
<path style="fill:#4C230C;" d="M384.3,172.4c1.2-3.6,7.3-4.6,13.5-2.2c6.2,2.4,10.3,7.3,9.1,10.9c-1.2,3.6-6.1,3.7-12.3,1.3
	C388.4,180,383.1,176,384.3,172.4z"/>
<g>
	<path style="fill:#602F0F;" d="M386.8,196.9c0.9-0.5,1.7-0.9,2.4-1.1c1-0.4,1.7-0.5,1.7-0.5l-2.5-2.9c-0.5,0.2-1,0.4-1.5,0.6
		c0,0,0.3,0.3,0.7,0.9c0,0,0,0-0.1-0.1c-0.6,0.8-1.5,1.8-3,3C384.5,196.9,384.1,198.6,386.8,196.9z"/>
	<path style="fill:#602F0F;" d="M383.9,170.4c1.3-3.8,7.9-4.7,14.7-2.1c6.8,2.6,11.3,7.9,10,11.7s-6.6,3.8-13.4,1.2
		C388.4,178.5,382.6,174.2,383.9,170.4z"/>
</g>
<path style="fill:#4C230C;" d="M394.9,168.2c0.1-0.4,2-0.1,4,0.7c2.1,0.8,3.7,1.8,3.5,2.2c-0.1,0.4-1.6,0.1-3.7-0.7
	C396.6,169.6,394.7,168.7,394.9,168.2z"/>
<path style="fill:#F4B382;" d="M92.5,325.6c-0.6-4.1-6.8-17.1-7.3-18.5c-1.2-3.4-0.7-7.4,2.7-8c2.6-0.5,5.2-0.2,6.7-0.9
	c7.4-3.8,30.7-12.5,39.8-17c2.1-1,4.3-2,6.5-3c9.1-4,11.4,17.1,8,18.2c-13.8,4.3-47.8,10.7-52.9,11.7c0,0,6,18.4,2.4,19.4
	C96.1,328.1,93.1,329.7,92.5,325.6z"/>
<path style="fill:#3D3C3C;" d="M171.6,267.7c-11.2,2.9-21.6,6.4-30.7,10.4c2.4,2.6,7.7,15,8,18.2c3.4-1.1,30.5-8.1,30.5-8.1
	c8.6-2.2,59.1-14.8,73.2-22.8c3.7-1.9,6.8-4,9.3-5.9c4.9-3.6-10.3-32.6-18.3-30.8c-16,7.6-42.9,27.3-50,31.3
	C186.6,264,171.6,267.7,171.6,267.7z"/>
<g>
</g>
<g>
</g>
<g>
</g>
<g>
</g>
<g>
</g>
<g>
</g>
<g>
</g>
<g>
</g>
<g>
</g>
<g>
</g>
<g>
</g>
<g>
</g>
<g>
</g>
<g>
</g>
<g>
</g>
</svg>
