<?xml version="1.0" encoding="iso-8859-1"?>
<!-- Generator: Adobe Illustrator 19.0.0, SVG Export Plug-In . SVG Version: 6.00 Build 0)  -->
<svg version="1.1" id="Layer_1" xmlns="http://www.w3.org/2000/svg" xmlns:xlink="http://www.w3.org/1999/xlink" x="0px" y="0px"
	 viewBox="0 0 496.2 496.2" style="enable-background:new 0 0 496.2 496.2;" xml:space="preserve">
<path style="fill:#FFEFD6;" d="M0,248.1C0,111.1,111.1,0,248.1,0s248.1,111.1,248.1,248.1S385.1,496.2,248.1,496.2S0,385.1,0,248.1z
	"/>
<path style="fill:#E2A379;" d="M274.6,106.4c-4,0.9-15,5.2-29.2,6.5c-1.6,0.1-2.8,2.8-3,6.3c-0.2,4.6,3.4,7.2,3.2,8.8
	c-0.8,8.3-8.2,30.1-9,40.1c-0.2,2.3-0.3,2.8-0.4,5.3c-0.3,9.9,21.5,6.3,21.5,2.7c0.2-14.4-1.5-47.7-2.5-52.9c0,0,16.7-4.8,20.5-10.8
	C276.9,110.5,278.6,105.4,274.6,106.4z"/>
<g>
	<path style="fill:#F4B382;" d="M266.1,107.5c-3.5,1.5,4.4,15.3,5.3,20.1l4.6,4.2c11.2,32.9,19.8,46.9,19.8,46.9
		c5.8,20,21.1,53.9,25.4,60.6c2.5,4.1,21.2-5.5,19-10.9c-4.2-8-6.8-9.8-10.5-16.9c-3.1-7.3-18.6-31.5-21.9-37.6
		c-0.5-0.8-23.8-45.3-23.8-45.3s-0.7-1.9-0.9-5.4c-0.3-4.8-3.3-11.1-6.4-13.9C274,107,269.5,106.1,266.1,107.5z"/>
	<path style="fill:#F4B382;" d="M271.1,122.7c0,0-1.5-4.8-4.2-4.2c-2.2,0.5-2.9,0.9,4.6,9.3C271.5,127.8,272.8,127,271.1,122.7z"/>
	<path style="fill:#F4B382;" d="M353.9,388.2c-4.2-2.6-15.8-3.9-15.6-6.5c1.5-20.8,7.5-52,7.5-52c1.5-20.7,9.6-51.7,9.6-59.3
		c-1.7-7.7-16.6-15.4-16.9-7.4c-1,9.3-2.2,13.7-3.2,23.3c-1.5,11.9-3.3,36.9-2.3,43.8c0.1,0.9-3,52.7-2.2,55.8
		c0.9,3.5,3.2,2.7,10.2,3.5C346.1,390.1,357.7,390.6,353.9,388.2z"/>
</g>
<path style="fill:#3D3C3C;" d="M246.4,259.9l-14.3,6c0,0-1.7,24.3,1.2,30.9s16.8,21.5,16.8,21.5l19-7.2L246.4,259.9z"/>
<path style="fill:#B3233B;" d="M328.9,282.8c3.9-1.3,5.5-2.3,9.4-4.1c7.9-3.7,17.1-8.2,17.1-8.2c-1-4.5-2.3-8.9-3.5-12.3l-4.2-11.8
	c-1.2-3.4-5.4-13.5-7.4-17.6c0,0-18.7,1.2-31.6,5.5c-13.1,4.4-48.4,21.9-62.3,25.5l11.5,26l0,0l11.2,25.3
	c21.3-18.2,35.6-25.6,48.4-27.1C321.8,283.6,325.9,283.8,328.9,282.8z"/>
<path style="fill:#E2A379;" d="M362.1,252l-5.8-15.9c-6.6,5.2-10.8,4.2-10.8,4.2s-4.7,2.3-2.1,9.5c2.7,7.3,7.7,5.9,7.7,5.9
	S353.7,252.3,362.1,252z"/>
<path style="fill:#F4B382;" d="M386.3,254.4c19.7-4.2,22.5-12.7,20.5-22.1c-2-9.4-8.1-16-27.8-11.8c-6.6,1.4-11.6,3.7-15.2,6.4
	c-8,5.8-9.7,13.2-9,16.5s5.2,9.4,14.9,11.4C374.2,255.8,379.7,255.9,386.3,254.4z"/>
<path style="fill:#D6876B;" d="M364,246.5c0,0-1.6-1.9-2.1-4.5c-0.6-2.6,0.1-5,0.1-5c0.3-0.1,2.4,1.1,2.7,2.1c0.2,0.6,0,2.4,0,2.4
	s1,1.5,1,2.1C365.7,244.5,364,246.5,364,246.5z"/>
<path style="fill:#CC785E;" d="M364,246.5c0,0-2.4-1.7-3-4.4c-0.6-2.6,0.9-5.2,0.9-5.2s0.7,0.4,1.5,3.1c0.1,0.5-0.1,1.2,0,1.6
	c0.1,0.4,0.6,0.8,0.6,1.2C364.5,245.8,364,246.5,364,246.5z"/>
<ellipse transform="matrix(-0.978 0.2084 -0.2084 -0.978 851.3702 375.4672)" style="fill:#4C230C;" cx="405.905" cy="232.584" rx="6.2" ry="9.1"/>
<path style="fill:#602F0F;" d="M385.6,255.2c19.7-4.2,23.8-10.7,21.2-22.9c-2.6-12.2-9.1-16.4-28.7-12.3c0,0,11.2,24.9,18.3,23.4
	C389.3,245,385.6,255.2,385.6,255.2z"/>
<g>
	<path style="fill:#F4B382;" d="M371.8,220.4c-5.2,2.1-5.2,3.2-4.5,4.8l11.3-4.2C378,219.4,377,218.3,371.8,220.4z"/>
	<path style="fill:#F4B382;" d="M385.7,254.3l-12,0.7c0.1,1.7,0.6,2.8,6.1,2.5C385.3,257.3,385.8,256,385.7,254.3z"/>
</g>
<g>
	<path style="fill:#602F0F;" d="M377.7,222.2c0.6-0.2,1.1-0.3,1.5-0.4c0.6-0.1,1-0.1,1-0.1l-1.2-1.8c-0.3,0.1-0.6,0.1-0.9,0.2
		c0,0,0.1,0.2,0.3,0.6l0,0c-0.4,0.4-1.1,0.9-2,1.4C376.4,222,376,222.9,377.7,222.2z"/>
	<path style="fill:#602F0F;" d="M385.9,253.2c-0.4,0.1-0.9,0.2-1.5,0.2c-1.8,0.1-1.1,0.8-1.1,0.8c1.1,0.1,1.9,0.3,2.4,0.5
		c0,0.4-0.1,0.6-0.1,0.6c0.3-0.1,0.6-0.1,0.9-0.2l0.3-2.1C386.9,252.9,386.5,253.1,385.9,253.2"/>
</g>
<path style="fill:#333333;" d="M235.8,205.1c-0.5-11.6-0.6-20.6,0.4-31.7c3.1,1.5,18.4,3.4,21.5,2.7c-0.1,3.6-0.7,30.1-0.7,30.1
	c0.8,5,3.5,54.9,0,81.8c-1.5,3.9-3.2,7.2-4.8,9.9c-1.8,3-17.8,5.3-24.5-1.8c-6.7-7-4.3-18.8-3.7-26
	C225.3,256,235.8,205.1,235.8,205.1z"/>
<path style="fill:#F4B382;" d="M88.4,385.4c-3-2.9-5.1-7.1-4.3-8.4c1.4-2.6,9.6-3.2,12.5-5.8c1.8-1.7,8.9-4,10.3-4.8
	c7.3-4.1,20.7-13.1,29.5-18c2-1.1,4.2-2.2,6.4-3.3c8.9-4.4,12.2,16.5,8.8,17.8c-13.5,5-37.8,12.2-42.9,13.4c0,0-8.7,6.5-11.8,8.7
	C94.9,386.4,91.9,388.9,88.4,385.4z"/>
<path style="fill:#3D3C3C;" d="M172.9,333.4c-11.1,3.4-21.3,7.3-30.2,11.7c2.5,2.5,8.4,14.7,8.8,17.8c3.4-1.2,6.1-2.3,7.8-3
	c8.3-3.5,20.9-9.5,20.9-9.5c7.6-2.8,60.7-21.3,71.3-27.5c10.6-6.2,17.3-11.7,17.3-11.7l-11.5-26.4c-24.1,10.3-57.2,32.6-64.2,36.9
	C186.3,326,172.9,333.4,172.9,333.4z"/>
<g>
</g>
<g>
</g>
<g>
</g>
<g>
</g>
<g>
</g>
<g>
</g>
<g>
</g>
<g>
</g>
<g>
</g>
<g>
</g>
<g>
</g>
<g>
</g>
<g>
</g>
<g>
</g>
<g>
</g>
</svg>
