<?xml version="1.0" encoding="iso-8859-1"?>
<!-- Generator: Adobe Illustrator 19.0.0, SVG Export Plug-In . SVG Version: 6.00 Build 0)  -->
<svg version="1.1" id="Layer_1" xmlns="http://www.w3.org/2000/svg" xmlns:xlink="http://www.w3.org/1999/xlink" x="0px" y="0px"
	 viewBox="0 0 496.2 496.2" style="enable-background:new 0 0 496.2 496.2;" xml:space="preserve">
<path style="fill:#FFEFD6;" d="M0,248.1C0,111.1,111.1,0,248.1,0s248.1,111.1,248.1,248.1S385.1,496.2,248.1,496.2S0,385.1,0,248.1z
	"/>
<g>
	<path style="fill:#E2A379;" d="M189.1,204.8c-1.7,3.3,13.2,8.9,17,11.9l6.2,0.3c29.8,17.9,45.9,22.9,45.9,22.9
		c17.3,11.5,52,28.3,59.5,30.7c7.5,2.4,14-12.3,7.2-16.5s-13.2-7.1-20.3-10.7c-7-3.6-34-12.4-40.5-14.9
		c-0.9-0.3-47.9-19.1-47.9-19.1s-1.8-1-4.2-3.5c-3.3-3.5-9.7-6.4-13.8-6.5C194.7,199.3,190.8,201.5,189.1,204.8z"/>
	<path style="fill:#E2A379;" d="M202.5,213.1c0,0-4.3-2.7-5.9-0.5c-1.4,1.8-1.7,2.5,9.5,4.2C206.1,216.7,206.6,215.3,202.5,213.1z"
		/>
</g>
<path style="fill:#D89D75;" d="M240.7,175.1c2.7,3.1-8.7,16.3-9.4,19.4c-0.3,1.5,0.6,4-1.3,6.9c-2.5,3.8-7,3.8-7.8,5.2
	c-4.3,7.2-14.6,21.8-19.9,30.4c-1.2,2-2.5,4-3.9,6c-5.6,8.2-18.8-8.4-16.4-11.1c9.3-11.1,31.4-31.2,35.2-34.8
	c0,0,9.5-12.8,12.1-15.6C230.9,179.9,238,172,240.7,175.1z"/>
<path style="fill:#333333;" d="M175.7,270.6c7.9-8.4,17.1-19.3,22.8-27.5c-3.4-0.9-14.5-8.6-16.4-11.1c-2.3,2.8-38.4,34.5-37.8,45.3
	c0.7,11.3,54.9,33.3,66.6,37.7s16.5,5.6,41.4,6.6c2.1-6.2,10-1.8,5.1-19.3C251.3,280.8,175.7,270.6,175.7,270.6z"/>
<path style="fill:#3D3C3C;" d="M257.2,288.6c-2.1-1.1-10.2-5.7-14.8-6.7c-13.6-2.9-23.7,7.8-23.7,7.8s-10.3,25.2-3.7,28.1
	c10.7,4.7,32.4,3.9,39,4c4.5,0,10.6-18.4,10.6-18.4S259.3,289.6,257.2,288.6z"/>
<path style="fill:#E2A379;" d="M230.1,175.1c2.7,3.1-8.7,16.3-9.4,19.4c-0.3,1.5,0.6,4-1.3,6.9c-2.5,3.8-7,3.8-7.8,5.2
	c-4.3,7.2-14.6,21.8-19.9,30.4c-1.2,2-2.5,4-3.9,6c-5.6,8.2-18.8-8.4-16.4-11.1c9.3-11.1,31.4-31.2,35.2-34.8
	c0,0,9.5-12.8,12.1-15.6C220.2,179.9,227.4,172,230.1,175.1z"/>
<path style="fill:#3D3C3C;" d="M165.1,270.6c7.9-8.4,17.1-19.3,22.8-27.5c-3.4-0.9-14.5-8.6-16.4-11.1c-2.3,2.8-38.4,34.5-37.8,45.3
	c0.7,11.3,54.9,33.3,66.6,37.7s16.5,5.6,41.4,6.6c2.1-6.2,10-1.8,5.1-19.3C240.6,280.8,165.1,270.6,165.1,270.6z"/>
<path style="fill:#B3233B;" d="M336.6,290.6c6.4-10.5-2.1-21.1-5.2-36.2c-0.6-1.7-7-7.1-10.9-7.7c-4.4-0.7-9.1-0.2-12.2,3.1
	c-2.9,2.4-6.4,8.6-17.2,29c-5.4,10.2-23.4,12.2-33.8,9.6c0,0,0.3,8.5-0.4,16.7c-0.7,8.3-2.8,16.5-2.8,16.5
	c44.1-0.7,60.4-6.7,71-25.4C325,296.4,334.5,294.1,336.6,290.6z"/>
<path style="fill:#E2A379;" d="M333.4,255.2c0,0,2.2-8.6,6.9-15.2l-11-7.8c-1.9,8.2-11.7,14.5-11.7,14.5c11.4,5.4,13,11.5,15.1,14.4
	L333.4,255.2z"/>
<path style="fill:#F4B382;" d="M357.5,231.4c5.5-3.3,5.2-9,4.6-12.4c-1.7-10.5-6.9-13.6-14-16.4c-9.4-3.8-22.9,19.7-23.8,24.2
	c-2.2,11.7,11.2,22,17.2,24.6c6.7,2.9,5.9-0.1,6.8-2.9c0-0.1,0.5-0.4,0.5-0.4c0.4-0.9,0.8-2.2,2-3.2c0,0,0.1-0.9,0.2-1.4
	c0.1-0.3,0.2-0.5,0.6-0.5c1.1,0,2.2,0.1,2.7-0.2C356.2,242.1,355,232.9,357.5,231.4z"/>
<path style="fill:#D6876B;" d="M346.3,244.5c0,0,0.5,0.7,3.6,1.9c0.5,0,1.3-0.2,1.1-1.2C350.8,244.4,348.6,245.1,346.3,244.5z"/>
<path style="fill:#CC785E;" d="M346.3,244.5c0,0,0,1.8,2.6,3.6c0.4,0.1,0.9-0.1,1-0.2c0.7-0.8,0-1.5,0-1.5
	C346.8,245.2,346.3,244.5,346.3,244.5z"/>
<path style="fill:#602F0F;" d="M348.1,200.8c-11.5-4.6-33.5,5.9-25.6,31.7c0.5,1.7,2.3,4.2,7,3c3.3-0.9,6-2.7,6-2.7
	c0.8-0.6,1.7-1.2,2.6-1.8c1-0.7,2.5-6.7,3.8-6.4c12,2.7,19.2-1.3,20.4-4.4C363.8,212.3,360.4,205.7,348.1,200.8z"/>
<path style="fill:#F4B382;" d="M334.9,228.6c-0.3,5.8,1.7,6.9,4.9,7.8l1.4-8.6l-0.3-3.8C337.8,223.1,335.2,222.8,334.9,228.6z"/>
<path style="fill:#4C230C;" d="M323.1,211.1c-1.8-3.4,1.7-8.4,7.7-11.3c6-2.9,12.4-2.5,14.1,0.9c1.8,3.4-1.5,6.9-7.5,9.8
	C331.4,213.4,324.8,214.5,323.1,211.1z"/>
<g>
	<path style="fill:#602F0F;" d="M342.6,226.1c0.2-1,0.5-1.8,0.8-2.5c0.4-1,0.8-1.5,0.8-1.5l-3.8-0.1c-0.2,0.5-0.4,1-0.6,1.5
		c0,0,0.4,0,1.1,0.1h-0.1c0.2,0.9,0.3,2.3,0.2,4.2C341,227.8,341.9,229.2,342.6,226.1z"/>
	<path style="fill:#602F0F;" d="M321.3,210c-1.9-3.6,2-9,8.6-12.1s13.5-2.8,15.4,0.7s-1.7,7.4-8.3,10.5
		C330.3,212.3,323.2,213.6,321.3,210z"/>
</g>
<path style="fill:#4C230C;" d="M327.3,200.6c-0.2-0.4,1.3-1.5,3.3-2.5s3.8-1.4,4-1s-1.1,1.2-3.1,2.2
	C329.5,200.2,327.5,200.9,327.3,200.6z"/>
<g>
	<path style="fill:#F4B382;" d="M177.7,217.1c-1.3,3.5,14.3,7.1,18.4,9.7l6.2-0.5c31.8,14,47.9,17.3,47.9,17.3
		c18.6,9.3,55.6,21.2,63.4,22.6s12.4-13.9,5.1-17.2c-7.2-3.3-14-5.4-21.4-8c-7.4-2.7-35.8-7.7-42.5-9.4
		c-0.9-0.2-49.4-13.2-49.4-13.2s-1.9-0.7-4.6-3c-3.8-3.1-10.4-5.1-14.5-4.7C182.7,210.9,179,213.5,177.7,217.1z"/>
	<path style="fill:#F4B382;" d="M192.1,223.6c0,0-4.6-2.1-5.9,0.2c-1.1,1.9-1.3,2.7,9.9,2.9C196.1,226.8,196.5,225.3,192.1,223.6z"
		/>
</g>
<g>
</g>
<g>
</g>
<g>
</g>
<g>
</g>
<g>
</g>
<g>
</g>
<g>
</g>
<g>
</g>
<g>
</g>
<g>
</g>
<g>
</g>
<g>
</g>
<g>
</g>
<g>
</g>
<g>
</g>
</svg>
