<?xml version="1.0" encoding="iso-8859-1"?>
<!-- Generator: Adobe Illustrator 19.0.0, SVG Export Plug-In . SVG Version: 6.00 Build 0)  -->
<svg version="1.1" id="Layer_1" xmlns="http://www.w3.org/2000/svg" xmlns:xlink="http://www.w3.org/1999/xlink" x="0px" y="0px"
	 viewBox="0 0 496.2 496.2" style="enable-background:new 0 0 496.2 496.2;" xml:space="preserve">
<path style="fill:#FFEFD6;" d="M0,248.1C0,111.1,111.1,0,248.1,0s248.1,111.1,248.1,248.1S385.1,496.2,248.1,496.2S0,385.1,0,248.1z
	"/>
<path style="fill:#3D3C3C;" d="M262.5,223.4c0.4,1.6,1.8,3.6,2.2,4.2c8.8,13.6,21.2,10.4,23.8,12.3c2.7,2.1,22.4-28.8,17.6-33.7
	c-9.3-9.6-12.9-11.1-21.4-15c-3.1-1.4-8.1-2.2-11.2-2.6C271.5,188.3,260.3,215.1,262.5,223.4z"/>
<path style="fill:#E2A379;" d="M194.7,300.6c1.1-4,19.9-3,22.8-4.1c1.5-0.6,3-2.7,6.5-2.7c4.6,0,7,3.4,8.6,3.7
	c8.7,1.6,37.8-11.8,42.7-12.4c9.9-1.2,4,21.7,0.4,21.6c-14.1-0.7-43.3,0.4-48.3,0.2c0,0-17.3,0.4-21-0.3
	C204.1,306.3,193.6,304.6,194.7,300.6z"/>
<path style="fill:#3D3C3C;" d="M310.7,285.4c-14-0.3-21.5-3.1-35.5-0.2c2.7,8.3,1.5,16.8,0.9,21.5c17.8,0.5,62.3,1.8,64.9-8.8
	c2.7-11-19.5-74-35-91.5c0,0-19.9,20.4-17.7,33.5C292.3,263,310.7,285.4,310.7,285.4z"/>
<path style="fill:#B3233B;" d="M188.2,215.8c-9.8,7.4-10.7,17.2-10.3,29.7c0.1,3.9,2.7,9.8,5.8,12.2c2.5,2,5.3,3.3,8.6,4
	c6.9,1.4,47.2-39.9,53.2-40.7c5.9-0.8,10-0.3,16.9,2.4l10.9-34.8c-51-3.3-66.1,16.6-74.8,25C198.6,213.6,191.9,213.1,188.2,215.8z"
	/>
<path style="fill:#E2A379;" d="M180.6,253.6c0,0-2.7,6.1-6.4,12.5l12.2,11.4c0.4-8.4,6-15.8,6-15.8
	C182.7,259.3,181.1,253.7,180.6,253.6z"/>
<path style="fill:#F4B382;" d="M158,284.5c-3.2,5.5-0.2,10.4,1.9,13.1c6.6,8.3,12.6,8.5,20.2,7.5c10.1-1.3,10.5-28.3,9-32.7
	c-3.8-11.3-20.4-13.8-27-13.2c-7.3,0.7-5.1,3-4.5,5.8c0,0.1-0.3,0.6-0.3,0.6c0.1,1,0.4,2.3-0.1,3.8c0,0,0.4,0.9,0.5,1.3
	c0.1,0.3,0.1,0.5-0.3,0.7c-1,0.5-2,1-2.3,1.5C154,274.5,159.5,282,158,284.5z"/>
<path style="fill:#D6876B;" d="M161.4,267.6c0,0-0.7-0.3-4,0.1c-0.4,0.2-1,0.8-0.3,1.6C157.6,269.9,159.1,268.2,161.4,267.6z"/>
<path style="fill:#CC785E;" d="M161.4,267.6c0,0-0.9-1.6-4-1.9c-0.4,0.1-0.7,0.5-0.8,0.7c-0.3,1,0.7,1.3,0.7,1.3
	C160.6,267.3,161.4,267.6,161.4,267.6z"/>
<path style="fill:#602F0F;" d="M181.1,306.7c12.3-1.6,26.4-21.4,7-40.1c-1.3-1.2-4.1-2.6-7.5,0.8c-2.4,2.4-3.9,5.3-3.9,5.3
	c-0.4,0.9-0.9,1.8-1.4,2.9s1,7.1-0.2,7.5c-11.8,3.4-16.1,10.5-15.7,13.7C161.7,304.2,168,308.4,181.1,306.7z"/>
<path style="fill:#F4B382;" d="M179.1,275.9c-2.5-5.2-4.8-5.2-8.1-4.5l2.9,8.2l2.1,3.2C179.3,282.2,181.6,281.2,179.1,275.9z"/>
<path style="fill:#4C230C;" d="M197.9,285.5c3.2,2.1,2.6,8.2-1.3,13.6c-3.9,5.4-9.6,8.2-12.8,6.1s-2.1-6.8,1.8-12.2
	C189.6,287.6,194.8,283.5,197.9,285.5z"/>
<g>
	<path style="fill:#602F0F;" d="M173.6,281.8c0.3,1,0.4,1.9,0.5,2.6c0.1,1,0,1.7,0,1.7l3.4-1.7c-0.1-0.5-0.1-1.1-0.2-1.6
		c0,0-0.4,0.2-1,0.5h0.1c-0.6-0.7-1.4-1.9-2.2-3.6C174.2,279.7,172.7,278.8,173.6,281.8z"/>
	<path style="fill:#602F0F;" d="M200,285.6c3.4,2.2,2.6,8.8-1.6,14.8c-4.3,6-10.4,9-13.8,6.8c-3.4-2.2-2.1-7.3,2.2-13.3
		C191,288,196.6,283.4,200,285.6z"/>
</g>
<path style="fill:#4C230C;" d="M199.4,296.8c0.4,0.2-0.4,1.9-1.7,3.7c-1.3,1.8-2.7,3.1-3,2.9c-0.4-0.2,0.3-1.6,1.6-3.4
	C197.6,298.2,199,296.6,199.4,296.8z"/>
<g>
	<path style="fill:#F4B382;" d="M325,299c1.6-3.4-13.4-8.6-17.3-11.6l-6.2-0.2c-30.1-17.3-46.5-18.3-46.5-18.3
		c-17.6-11.2-52.4-30.8-60-33.1c-7.6-2.2-13.8,12.6-6.9,16.6c6.9,4,13.4,6.8,20.5,10.2c7.1,3.4,34.1,15.3,40.6,17.7
		c0.9,0.3,48.5,14.4,48.5,14.4s1.8,0.9,4.3,3.4c3.4,3.4,9.8,6.2,13.9,6.2C319.5,304.7,323.4,302.4,325,299z"/>
	<path style="fill:#F4B382;" d="M311.4,291c0,0,4.3,2.6,5.9,0.4c1.3-1.8,1.6-2.6-9.6-4C307.8,287.5,307.2,288.9,311.4,291z"/>
</g>
<g>
</g>
<g>
</g>
<g>
</g>
<g>
</g>
<g>
</g>
<g>
</g>
<g>
</g>
<g>
</g>
<g>
</g>
<g>
</g>
<g>
</g>
<g>
</g>
<g>
</g>
<g>
</g>
<g>
</g>
</svg>
