<?xml version="1.0" encoding="iso-8859-1"?>
<!-- Generator: Adobe Illustrator 19.0.0, SVG Export Plug-In . SVG Version: 6.00 Build 0)  -->
<svg version="1.1" id="Layer_1" xmlns="http://www.w3.org/2000/svg" xmlns:xlink="http://www.w3.org/1999/xlink" x="0px" y="0px"
	 viewBox="0 0 496.2 496.2" style="enable-background:new 0 0 496.2 496.2;" xml:space="preserve">
<path style="fill:#FFEFD6;" d="M0,248.1C0,111.1,111.1,0,248.1,0s248.1,111.1,248.1,248.1S385.1,496.2,248.1,496.2S0,385.1,0,248.1z
	"/>
<g>
	<path style="fill:#E2A379;" d="M270.6,327c3.7,0.6,4.4-15.3,6.1-19.9l-1.6-6c7.9-33.8,4.2-49.8,4.2-49.8
		c5.6-20,15.4-52.3,15.4-60.2c-0.1-7.9-16-9.6-17.9-1.8c-1.9,7.7-3.6,8-4.8,15.8c-1.3,7.8-4.9,37.1-5.3,44c-0.1,1,0.1,50.6,0.1,50.6
		s-0.4,2-2.1,5.1c-2.3,4.3-3.1,11.1-2,15.1C263.6,323.3,266.9,326.4,270.6,327z"/>
	<path style="fill:#E2A379;" d="M274.4,311.6c0,0-1.2,4.9,1.3,5.8c2.1,0.8,2.9,0.8,1.1-10.3C276.8,307.1,275.3,307,274.4,311.6z"/>
</g>
<path style="fill:#B3233B;" d="M271.8,227.3c12.3,0.2,15.2-10.2,28.1-17.1c1.6-0.9,5.9-8.6,5.9-12.5c0-4.4-0.8-8.9-4.5-12.2
	c-2.8-2.5-11.6-7.5-34.5-2.8c-10.7,1.5-74.8,12.7-74.8,12.7l9.6,35.7c7.3-3,48.9-9.5,61.1-8C262.7,223,268.3,227.2,271.8,227.3z"/>
<path style="fill:#E2A379;" d="M301.3,203.9c0,0,9.2-1.9,17.4-2.8l2.8-13.1c-8.2,1.5-18.7-1.9-18.7-1.9c-0.4,12.6-5.4,17.1-7.2,20.2
	L301.3,203.9z"/>
<path style="fill:#F4B382;" d="M337.6,190.1c6-2.3,6.7-7.9,6.8-11.3c0.2-10.6-4.4-14.6-10.9-18.6c-8.6-5.4-26.1,15.3-27.7,19.6
	c-4.3,11.2,7.1,23.6,12.6,27.3c6.1,4,5.9,0.9,7.2-1.6c0.1-0.1,0.6-0.3,0.6-0.3c0.6-0.8,1.2-2,2.5-2.8c0,0,0.3-0.9,0.5-1.3
	c0.1-0.3,0.3-0.4,0.7-0.4c1.1,0.2,2.1,0.5,2.7,0.3C334.4,200.5,334.9,191.2,337.6,190.1z"/>
<path style="fill:#D6876B;" d="M324.3,201.1c0,0,0.4,0.7,3.2,2.5c0.4,0.1,1.3,0.1,1.3-1C328.7,201.8,326.4,202.1,324.3,201.1z"/>
<path style="fill:#CC785E;" d="M324.3,201.1c0,0-0.3,1.8,1.9,4c0.4,0.2,0.9,0.1,1-0.1c0.9-0.6,0.3-1.5,0.3-1.5
	C324.7,201.8,324.3,201.1,324.3,201.1z"/>
<path style="fill:#602F0F;" d="M333.8,158.4c-10.5-6.6-34-0.2-30.8,26.6c0.2,1.8,1.5,4.6,6.3,4.2c3.4-0.3,6.4-1.6,6.4-1.6
	c0.9-0.4,1.9-0.9,2.9-1.3c1.1-0.5,3.7-6.1,4.9-5.6c11.3,4.8,19.1,2.1,20.8-0.7C347.2,172.5,345,165.4,333.8,158.4z"/>
<path style="fill:#F4B382;" d="M315.8,183.4c-1.3,5.6,0.5,7.1,3.4,8.6l3-8.2l0.4-3.8C319.7,178.5,317.2,177.8,315.8,183.4z"/>
<path style="fill:#4C230C;" d="M307.4,164.1c-1.1-3.6,3.2-8,9.6-9.7c6.5-1.8,12.6-0.2,13.8,3.4c1.1,3.6-2.7,6.6-9.1,8.3
	C315.1,167.8,308.5,167.7,307.4,164.1z"/>
<g>
	<path style="fill:#602F0F;" d="M323.9,182.4c0.4-0.9,0.9-1.7,1.3-2.3c0.6-0.9,1.1-1.4,1.1-1.4l-3.7-0.8c-0.3,0.4-0.6,0.9-0.9,1.4
		c0,0,0.4,0.1,1.1,0.3h-0.1c0,0.9-0.1,2.3-0.6,4.2C322,183.7,322.6,185.2,323.9,182.4z"/>
	<path style="fill:#602F0F;" d="M305.8,162.7c-1.2-3.8,3.5-8.5,10.6-10.4s13.8-0.4,15,3.5c1.2,3.8-3,7-10.1,8.9
		C314.3,166.6,307,166.5,305.8,162.7z"/>
</g>
<path style="fill:#4C230C;" d="M313.4,154.5c-0.1-0.4,1.5-1.2,3.7-1.8s4-0.7,4.2-0.3c0.1,0.4-1.3,1-3.4,1.6
	C315.6,154.5,313.5,154.9,313.4,154.5z"/>
<path style="fill:#3D3C3C;" d="M192,195.3c-21.7,5-31.2,18.2-31.2,30.3c0,14.1,11.6,19.5,11.6,19.5s31.6,5,30.6-2.2
	c-0.8-5.9-1.5-11.2-2-16C200.5,221.4,192,195.3,192,195.3z"/>
<path style="fill:#E2A379;" d="M232.2,326.5c-4.6-1.1-17.6-0.3-19.1-0.6c-3.5-0.9-6.5-3.6-5.1-6.7c1.1-2.4,2.7-4.4,3-6
	c2.9-19.1,5.2-33,7.9-40.9c3.2-9.4,24.1-2.4,22.3,0.7c-8.3,14.9-19.2,39.8-21.2,44.6c0,0,21.6,2.2,20.4,5.7
	C239.6,325.4,236.2,327.4,232.2,326.5z"/>
<path style="fill:#333333;" d="M238.9,246.2c-0.2,0-9.3,2.6-9.5,2.6c-3.4,7.2-6.2,11.3-10.5,23.4c3.4-0.5,19.6-0.8,22.3,0.7
	c1.4-2.9,5.8-14.9,9-23.8C248.3,249.6,243.4,247.8,238.9,246.2z"/>
<path style="fill:#F4B382;" d="M241.9,332.7c-4.7-0.9-17.6,0.6-19.1,0.3c-3.6-0.7-6.7-3.2-5.4-6.5c1-2.5,2.5-4.6,2.7-6.2
	c1.9-19.2,3.6-33.2,5.9-41.2c2.8-9.6,23.9-3.6,22.4-0.3c-7.6,15.3-17.3,40.6-19.1,45.6c0,0,21.7,1.1,20.6,4.8
	C249.3,331.3,246,333.5,241.9,332.7z"/>
<path style="fill:#3D3C3C;" d="M235.7,254.6c-3.2,7.7-5.8,11.8-9.7,24.5c3.4-0.7,19.5-1.7,22.3-0.3c2-4.8,10.9-34.3,10.9-34.3
	c-4.1-20.3-58.9-18.5-58.9-18.5c-1.2-4-2.7-7.4-4.1-10.2c-2.7-5.4-34,4.2-33.6,12.3c1.6,6,2.5,13.1,9.7,17.1
	C189.7,254.6,235.7,254.6,235.7,254.6z"/>
<g>
	<path style="fill:#F4B382;" d="M293.4,334.4c3.7,0.1,2.4-15.8,3.6-20.5l-2.4-5.8c3.6-34.6-2.1-49.9-2.1-49.9
		c3.1-20.6,6.9-60.4,5.9-68.3c-1.1-7.8-17.1-7.5-18,0.4s-0.8,15-1.1,22.9c-0.3,7.9-0.1,37.4,0.3,44.3c0.1,1,6.5,50.2,6.5,50.2
		s-0.1,2-1.4,5.3c-1.8,4.5-1.7,11.4,0,15.3C286,331.6,289.6,334.3,293.4,334.4z"/>
	<path style="fill:#F4B382;" d="M295.2,318.7c0,0-0.6,5,2,5.6c2.2,0.5,3,0.4-0.3-10.3C297,313.9,295.4,314,295.2,318.7z"/>
</g>
<g>
</g>
<g>
</g>
<g>
</g>
<g>
</g>
<g>
</g>
<g>
</g>
<g>
</g>
<g>
</g>
<g>
</g>
<g>
</g>
<g>
</g>
<g>
</g>
<g>
</g>
<g>
</g>
<g>
</g>
</svg>
