<?xml version="1.0" encoding="iso-8859-1"?>
<!-- Generator: Adobe Illustrator 19.0.0, SVG Export Plug-In . SVG Version: 6.00 Build 0)  -->
<svg version="1.1" id="Layer_1" xmlns="http://www.w3.org/2000/svg" xmlns:xlink="http://www.w3.org/1999/xlink" x="0px" y="0px"
	 viewBox="0 0 496.2 496.2" style="enable-background:new 0 0 496.2 496.2;" xml:space="preserve">
<path style="fill:#FFEFD6;" d="M0,248.1C0,111.1,111.1,0,248.1,0s248.1,111.1,248.1,248.1S385.1,496.2,248.1,496.2S0,385.1,0,248.1z
	"/>
<path style="fill:#B3233B;" d="M230.9,229.1c6.7,10.3,16.9,7,29.9,13.9c1.6,0.9,10.4,0.1,13.7-2.1c3.7-2.5,7-5.6,7.7-10.5
	c0.5-3.8-0.2-13.9-16.9-30.3c-7.2-8-20.1-30.5-32.4-40.2c-14.5-11.5-22.9-13.2-22.9-13.2l-16.3,21.2c19.1,32.2,30.2,40.2,35.7,51.3
	C229.4,219.2,229,226.1,230.9,229.1z"/>
<path style="fill:#E2A379;" d="M266.4,245.5c0,0,7.7,5.4,13.9,10.8l11.5-6.9c-6.7-5-11.4-14.9-11.4-14.9c-9.5,8.3-16.2,7.7-19.7,8.5
	L266.4,245.5z"/>
<path style="fill:#F4B382;" d="M284,277.1c1.8,6.1,7.3,7.3,10.8,7.7c10.6,1.1,14.9-3.2,19.5-9.3c6.1-8.2-13.1-27.2-17.3-29.2
	c-10.8-5.1-24.1,5.1-28.2,10.3c-4.5,5.7-1.4,5.8,1.1,7.3c0.1,0.1,0.2,0.6,0.2,0.6c0.8,0.6,1.9,1.4,2.6,2.7c0,0,0.9,0.3,1.3,0.6
	c0.3,0.2,0.4,0.3,0.3,0.7c-0.3,1.1-0.7,2.1-0.6,2.7C273.9,273,283.2,274.2,284,277.1z"/>
<path style="fill:#D6876B;" d="M274.1,262.9c0,0-0.8,0.3-2.8,3c-0.1,0.4-0.2,1.3,0.9,1.3C273.1,267.3,273,265,274.1,262.9z"/>
<path style="fill:#CC785E;" d="M274.1,262.9c0,0-1.7-0.5-4.2,1.5c-0.2,0.4-0.1,0.9,0,1c0.6,0.9,1.5,0.4,1.5,0.4
	C273.4,263.2,274.1,262.9,274.1,262.9z"/>
<path style="fill:#602F0F;" d="M316,275.8c7.4-10,2.9-33.9-24.1-32.8c-1.8,0.1-4.7,1.1-4.7,6c0,3.4,1.1,6.5,1.1,6.5
	c0.3,0.9,0.7,1.9,1.1,3c0.4,1.2,5.8,4.2,5.2,5.3c-5.7,10.9-3.6,18.9-1,20.8C300.8,288.1,308.1,286.5,316,275.8z"/>
<path style="fill:#F4B382;" d="M292.4,255.9c-5.5-1.8-7.1-0.1-8.8,2.7l8,3.6l3.7,0.7C297,260.1,298,257.7,292.4,255.9z"/>
<path style="fill:#4C230C;" d="M312.4,249c3.7-0.8,7.7,3.8,8.9,10.4c1.2,6.6-0.8,12.6-4.5,13.4s-6.3-3.2-7.6-9.8
	C308.1,256.5,308.7,249.9,312.4,249z"/>
<g>
	<path style="fill:#602F0F;" d="M292.9,264c0.9,0.5,1.6,1,2.2,1.4c0.8,0.7,1.3,1.2,1.3,1.2l1.1-3.7c-0.4-0.3-0.8-0.6-1.3-1
		c0,0-0.1,0.4-0.4,1.1v-0.1c-0.9-0.1-2.3-0.3-4.1-0.9C291.7,262,290.1,262.6,292.9,264z"/>
	<path style="fill:#602F0F;" d="M313.9,247.6c3.9-0.9,8.2,4.2,9.5,11.4c1.3,7.2-0.7,13.8-4.7,14.7c-3.9,0.9-6.7-3.6-8.1-10.8
		C309.4,255.7,310,248.5,313.9,247.6z"/>
</g>
<path style="fill:#4C230C;" d="M321.5,255.8c0.4-0.1,1.1,1.6,1.5,3.8c0.4,2.2,0.4,4.1,0,4.2s-0.9-1.3-1.3-3.5
	C321.3,258,321.1,255.9,321.5,255.8z"/>
<path style="fill:#E2A379;" d="M281.9,345.7c-6.1-2.1-15.4-2-15.5-4.6c-0.8-20.8-2.5-52-2.5-52c1.5-20.7,12.3-60.7,10.6-68.5
	c-1.7-7.7-17.6-6.1-17.9,1.8c-1,9.3-2.2,13.7-3.2,23.3c-1.5,11.9-3.3,36.9-2.3,43.8c0.1,0.9,6.8,47,6.8,47s0.2,5.7,1,8.8
	c0.9,3.5,3.2,2.7,10.2,3.5C274.3,349.4,286.2,347.1,281.9,345.7z"/>
<path style="fill:#F4B382;" d="M272,347.6c-4.2-2.6-15.8-3.9-15.6-6.5c1.5-20.8,7.5-52,7.5-52c1.5-20.7,12.3-60.7,10.6-68.5
	c-1.7-7.7-17.6-6.1-17.9,1.8c-1,9.3-2.2,13.7-3.2,23.3c-1.5,11.9-3.3,36.9-2.3,43.8c0.1,0.9-3,52.7-2.2,55.8
	c0.9,3.5,3.2,2.7,10.2,3.5C264.3,349.4,275.9,349.9,272,347.6z"/>
<path style="fill:#3D3C3C;" d="M210,146.7c-22.3,0.7-27.4,7.1-32.4,14.6c0,0-4.5,7.4-5.1,14.2c-1.2,14,7.5,22.2,7.5,22.2
	s31.2,5.1,31.7-2.1c0.3-5.9,0.7-11.3,1.1-16.1C213.2,173.9,210,146.7,210,146.7z"/>
<path style="fill:#E2A379;" d="M210.5,346.4c-4-0.9-15.4,0-16.9-0.1c-3.6-0.1-7.1-2.1-6.4-5.5c0.5-2.6,1.8-4.9,1.6-6.5
	c-0.8-8.3-4.5-33.2-5.3-43.2c-0.2-2.3-0.3-4.7-0.4-7.2c-0.3-9.9,20.1-4.3,19.8-0.7c-1,14.4-3.4,48.4-4.4,53.6c0,0,19.3,1.2,18.9,4.9
	C217.2,343.9,214.5,347.3,210.5,346.4z"/>
<path style="fill:#F4B382;" d="M206,349.4c-4-0.9-15.4,0-16.9-0.1c-3.6-0.1-7.1-2.1-6.4-5.5c0.5-2.6,1.8-4.9,1.6-6.5
	c-0.8-8.3-0.3-33.2-1.1-43.2c-0.2-2.3-0.3-4.7-0.4-7.2c-0.3-9.9,20.1-4.3,19.8-0.7c-1,14.4-7.6,48.4-8.6,53.6c0,0,19.3,1.2,18.9,4.9
	C212.7,346.9,210,350.3,206,349.4z"/>
<path style="fill:#3D3C3C;" d="M184.5,254.4c-1.4,11.5-2,22.4-1.7,32.4c3.3-1.2,16.8-1.6,19.8-0.7c0.2-3.6,3.8-31.3,3.8-31.3
	c1.1-8.8,8.2-60.4,5.9-76.5c-0.4-4.1-1.2-7.8-2-10.8c-1.6-5.9-34.1-2.5-35.4,5.6c1.1,17.6,9.5,49.9,10.6,58
	C186.5,239.1,184.5,254.4,184.5,254.4z"/>
<g>
</g>
<g>
</g>
<g>
</g>
<g>
</g>
<g>
</g>
<g>
</g>
<g>
</g>
<g>
</g>
<g>
</g>
<g>
</g>
<g>
</g>
<g>
</g>
<g>
</g>
<g>
</g>
<g>
</g>
</svg>
