<?xml version="1.0" encoding="iso-8859-1"?>
<!-- Generator: Adobe Illustrator 19.0.0, SVG Export Plug-In . SVG Version: 6.00 Build 0)  -->
<svg version="1.1" id="Layer_1" xmlns="http://www.w3.org/2000/svg" xmlns:xlink="http://www.w3.org/1999/xlink" x="0px" y="0px"
	 viewBox="0 0 496.2 496.2" style="enable-background:new 0 0 496.2 496.2;" xml:space="preserve">
<path style="fill:#FFEFD6;" d="M0,248.1C0,111.1,111.1,0,248.1,0s248.1,111.1,248.1,248.1S385.1,496.2,248.1,496.2S0,385.1,0,248.1z
	"/>
<path style="fill:#F4B382;" d="M380.4,151.1c0.4-3.7-15.5-3.6-20.1-5.1l-5.9,1.9c-34.2-6.2-50-1.7-50-1.7
	c-20.3-4.6-59.7-11.5-67.6-11c-7.9,0.5-8.8,16.4-0.9,17.9c7.8,1.5,14.9,1.9,22.7,2.8c7.8,0.9,37.3,3,44.2,3c1,0,50.5-2.6,50.5-2.6
	s2,0.3,5.2,1.8c4.4,2.1,11.3,2.5,15.2,1.2C377,158.3,379.9,154.9,380.4,151.1z"/>
<path style="fill:#E2A379;" d="M375.1,146.6c1.3,3.9,9.5,15.8,10.3,17.1c1.8,3.2,1.9,7.2-1.4,8.4c-2.5,0.9-5.1,1-6.4,2
	c-6.7,5-28.2,17.5-36.4,23.4c-1.9,1.4-3.9,2.7-5.9,4.1c-8.3,5.4-14.1-14.9-10.9-16.6c12.8-6.6,45.3-18.6,50.2-20.5
	c0,0-9-17.1-5.6-18.7C371.1,144.7,373.8,142.6,375.1,146.6z"/>
<path style="fill:#F4B382;" d="M364.8,148.2c0,0,4.9,1,5.7-1.6c0.7-2.1,0.7-2.9-10.3-0.5C360.2,146,360.2,147.5,364.8,148.2z"/>
<path style="fill:#333333;" d="M306.7,216.8c10.6-4.7,20.2-9.9,28.6-15.3c-2.7-2.1-10.1-13.5-10.9-16.6
	c-3.2,1.7-28.7,13.1-28.7,13.1c-8.1,3.6-55.9,24.4-68.4,34.7c-3.3,2.5,7.4,37.8,14.9,34.6c14.5-10.1,37.7-34.1,44.1-39.2
	C292.6,223,306.7,216.8,306.7,216.8z"/>
<path style="fill:#3D3C3C;" d="M225,232.5c0,0-4.2,7.6-5.3,14.3c-2.4,13.9,5.5,22.8,5.5,22.8s30.7,7.8,31.7,0.7
	c2-13.5,4-24.1,5.2-30.7c0.8-4.4-19.8-10.5-19.8-10.5L225,232.5z"/>
<path style="fill:#B3233B;" d="M269.3,169c0.4-12.3-9.8-18.6-16.5-31.7c-0.8-1.6-8.4-6.1-12.4-6.2c-4.4-0.1-8.9,0.6-12.3,4.2
	c-2.6,2.8-7.8,11.5-3.5,34.5c1.3,10.7,6.3,50.7,0.4,62.6c0,0,13.7-1.3,21.7,0.7s15.3,6.3,15.3,6.3c2.8-37.3,1-49.2,2.8-61.5
	C264.9,178,269.2,172.5,269.3,169z"/>
<path style="fill:#E2A379;" d="M249.6,132.1c0,0,0.2-4.3,1.4-11.6l-15.5-6.2c2.6,8,0.1,17.2,0.1,17.2c11-1,13.8,4.5,17.1,5.9
	L249.6,132.1z"/>
<path style="fill:#F4B382;" d="M260.7,100.7c3.9-5.1,1.5-10.3-0.3-13.2c-5.4-9.1-11.4-10-19.1-10c-10.2,0-14,26.8-13.1,31.3
	c2.3,11.7,18.5,16.3,25.1,16.5c7.3,0.2,5.5-2.3,5.2-5.2c0-0.1,0.4-0.5,0.4-0.5c0-1-0.1-2.4,0.6-3.7c0,0-0.3-0.9-0.3-1.4
	c0-0.3,0-0.5,0.4-0.7c1.1-0.4,2.1-0.7,2.5-1.1C263.4,111.2,258.9,103,260.7,100.7z"/>
<path style="fill:#D6876B;" d="M255.2,117c0,0,0.7,0.4,4,0.4c0.4-0.2,1.1-0.6,0.5-1.5C259.3,115.2,257.6,116.7,255.2,117z"/>
<path style="fill:#CC785E;" d="M255.2,117c0,0,0.7,1.7,3.7,2.4c0.4-0.1,0.8-0.4,0.8-0.6c0.4-1-0.6-1.4-0.6-1.4
	C255.9,117.4,255.2,117,255.2,117z"/>
<path style="fill:#602F0F;" d="M240.6,75.7c-12.4,0-28.9,17.9-12,38.9c1.1,1.4,3.7,3.1,7.6,0.2c2.7-2,4.6-4.7,4.6-4.7
	c0.5-0.8,1.1-1.7,1.7-2.7c0.7-1.1-0.1-7.2,1.1-7.4c12.2-1.9,17.3-8.3,17.3-11.6C259.5,80.7,253.9,75.7,240.6,75.7z"/>
<path style="fill:#F4B382;" d="M238.7,106.5c1.8,5.5,4.1,5.8,7.4,5.5l-1.8-8.5l-1.7-3.4C239.3,100.3,236.8,101,238.7,106.5z"/>
<path style="fill:#4C230C;" d="M221.2,94.6c-2.9-2.5-1.5-8.5,3-13.4s10.6-6.9,13.5-4.4s1.2,7-3.4,11.9
	C229.8,93.6,224.1,97,221.2,94.6z"/>
<g>
	<path style="fill:#602F0F;" d="M244.9,101.3c-0.2-1-0.2-1.9-0.2-2.6c0-1,0.2-1.7,0.2-1.7l-3.6,1.3c0,0.5,0,1.1,0,1.6
		c0,0,0.4-0.1,1.1-0.3h-0.1c0.5,0.8,1.1,2,1.7,3.9C244,103.4,245.4,104.4,244.9,101.3z"/>
	<path style="fill:#602F0F;" d="M219.2,94.2c-3-2.6-1.5-9.1,3.5-14.5s11.5-7.6,14.5-5s1.1,7.5-3.8,12.9
		C228.4,93,222.2,96.8,219.2,94.2z"/>
</g>
<path style="fill:#4C230C;" d="M221.2,83.2c-0.3-0.3,0.6-1.9,2.1-3.5s3-2.7,3.4-2.4c0.3,0.3-0.5,1.5-2.1,3.2S221.6,83.5,221.2,83.2z
	"/>
<path style="fill:#F4B382;" d="M255.6,422.4c-4-0.9-18.4,0-19.9-0.1c-3.6-0.1-7.1-2.1-6.4-5.5c0.5-2.6,1.8-4.9,1.6-6.5
	c-0.8-8.3-0.3-33.2-1.1-43.2c-0.2-2.3-0.3-4.7-0.4-7.2c-0.3-9.9,20.1-4.3,19.8-0.7c-1,14.4-7.6,48.4-8.6,53.6c0,0,19.3,1.2,18.9,4.9
	C259.2,419.9,259.6,423.3,255.6,422.4z"/>
<path style="fill:#3D3C3C;" d="M231.1,327.4c-1.4,11.5-2,22.4-1.7,32.4c3.3-1.2,16.8-1.6,19.8-0.7c0.2-3.6,3.8-31.3,3.8-31.3
	c1.1-8.8,8.2-60.4,5.9-76.5c-0.4-4.1-1.2-7.8-2-10.8c-1.6-5.9-34.1-2.5-35.4,5.6c1.1,17.6,9.5,49.9,10.6,58
	C233.1,312.1,231.1,327.4,231.1,327.4z"/>
<g>
	<path style="fill:#F4B382;" d="M243.9,285.8c3.7,0.1,2.3-15.8,3.5-20.5l-2.4-5.7c3.5-34.6-2.3-49.9-2.3-49.9
		c3-20.6,6.7-60.4,5.7-68.3c-1.1-7.8-17.1-7.4-18,0.5s-0.7,15-1,22.9c-0.2,7.9,0,37.4,0.5,44.3c0.1,1,6.6,50.1,6.6,50.1
		s-0.1,2-1.4,5.3c-1.8,4.5-1.6,11.5,0,15.3C236.5,283,240.1,285.6,243.9,285.8z"/>
	<path style="fill:#F4B382;" d="M245.6,270c0,0-0.6,5,2,5.6c2.2,0.5,3,0.4-0.3-10.3C247.4,265.3,245.9,265.4,245.6,270z"/>
</g>
<g>
</g>
<g>
</g>
<g>
</g>
<g>
</g>
<g>
</g>
<g>
</g>
<g>
</g>
<g>
</g>
<g>
</g>
<g>
</g>
<g>
</g>
<g>
</g>
<g>
</g>
<g>
</g>
<g>
</g>
</svg>
