<?xml version="1.0" encoding="iso-8859-1"?>
<!-- Generator: Adobe Illustrator 19.0.0, SVG Export Plug-In . SVG Version: 6.00 Build 0)  -->
<svg version="1.1" id="Layer_1" xmlns="http://www.w3.org/2000/svg" xmlns:xlink="http://www.w3.org/1999/xlink" x="0px" y="0px"
	 viewBox="0 0 496.2 496.2" style="enable-background:new 0 0 496.2 496.2;" xml:space="preserve">
<path style="fill:#FFEFD6;" d="M0,248.1C0,111.1,111.1,0,248.1,0s248.1,111.1,248.1,248.1S385.1,496.2,248.1,496.2S0,385.1,0,248.1z
	"/>
<path style="fill:#3D3C3C;" d="M265.1,234.6c0,0-8.1-3-14.9-3.1c-14.1-0.3-21.7,8.8-21.7,8.8s-3.2,31.5,4.1,31.5
	c13.6-0.1,24.5,0.3,31.1,0.5c4.5,0.1,7.4-21.2,7.4-21.2L265.1,234.6z"/>
<path style="fill:#E2A379;" d="M361.3,287.2c-4.5-2.2-14.7-3-16.1-5.1c-15.4-23.1-17.3-26.2-17.3-26.2
	c21.1-14.8,31.5-12.7,32.5-24.5c-2.3-7.6-13.9-6.2-21.4,0.2c-12.3,5.9-32,18.1-30.4,24.9c0.2,0.9,28.4,27.4,29.5,30.5
	c1.2,3.4,3.4,2.4,10.5,2.7C353.7,289.7,365.3,289.2,361.3,287.2z"/>
<path style="fill:#B3233B;" d="M334.4,268.9c12.2-1.4,16.9-12.5,28.8-21.1c1.5-1.1,4.8-9.3,4.2-13.2c-0.6-4.4-1.9-8.7-6-11.5
	c-3.2-2.1-12.5-6-34.6,1.7c-10.4,2.8-49.2,13.8-61.8,9.8c0,0,3.3,13.4,2.5,21.6c-0.8,8.2-4,16.1-4,16.1c37.3-2.8,48.8-6.4,61.2-6.4
	C324.9,265.9,331,269.3,334.4,268.9z"/>
<path style="fill:#F4B382;" d="M352.1,296.6c-4.2-2.6-14.4-4.2-15.6-6.5c-13.3-24.4-17.7-29.4-17.7-29.4
	c22.3-13,39.7-16.6,41.7-28.3c-1.7-7.7-13.3-7.3-21.3-1.7c-12.8,4.8-38,23.8-37,30.7c0.1,0.9,26,29.7,26.8,32.9
	c0.9,3.5,3.2,2.7,10.2,3.5C344.3,298.4,355.9,298.9,352.1,296.6z"/>
<path style="fill:#E2A379;" d="M368,243.9c0,0,4.2-0.4,11.7-0.4l3.8-16.2c-7.5,3.8-17,2.7-17,2.7c2.6,10.7-2.4,14.4-3.2,17.8
	L368,243.9z"/>
<path style="fill:#F4B382;" d="M407,238.6c6.2-1.4,7.8-6.8,8.4-10.2c1.8-10.5-2.2-15.1-8-20c-7.7-6.6-28,11.3-30.3,15.3
	c-5.9,10.4,3.5,24.4,8.4,28.9c5.4,4.9,5.7,1.8,7.4-0.6c0.1-0.1,0.6-0.2,0.6-0.2c0.7-0.8,1.5-1.8,2.9-2.4c0,0,0.4-0.9,0.7-1.2
	c0.2-0.3,0.3-0.4,0.7-0.3c1.1,0.4,2,0.8,2.6,0.7C402.3,248.4,404.1,239.2,407,238.6z"/>
<path style="fill:#D6876B;" d="M392.2,247.5c0,0,0.3,0.8,2.8,2.9c0.4,0.1,1.3,0.2,1.4-0.8C396.5,248.8,394.2,248.8,392.2,247.5z"/>
<path style="fill:#CC785E;" d="M392.2,247.5c0,0-0.6,1.7,1.3,4.3c0.4,0.2,0.9,0.2,1,0.1c0.9-0.5,0.5-1.4,0.5-1.4
	C392.5,248.3,392.2,247.5,392.2,247.5z"/>
<path style="fill:#602F0F;" d="M407.9,206.6c-9.4-8-33.6-5.2-34.4,21.8c-0.1,1.8,0.8,4.7,5.6,5c3.4,0.2,6.6-0.6,6.6-0.6
	c0.9-0.3,2-0.6,3.1-0.9c1.2-0.4,4.6-5.5,5.6-4.9c10.5,6.4,18.6,4.9,20.7,2.4C419.1,222.6,418,215.2,407.9,206.6z"/>
<path style="fill:#F4B382;" d="M386.5,228.8c-2.2,5.4-0.6,7.1,2.1,9l4.1-7.7l1-3.7C391,224.5,388.6,223.4,386.5,228.8z"/>
<path style="fill:#4C230C;" d="M380.9,208.4c-0.6-3.8,4.3-7.4,10.9-8.2s12.5,1.6,13.1,5.4c0.6,3.8-3.6,6.1-10.3,6.9
	C388.1,213.2,381.5,212.1,380.9,208.4z"/>
<g>
	<path style="fill:#602F0F;" d="M394.6,228.9c0.5-0.9,1.1-1.6,1.6-2.1c0.7-0.8,1.3-1.2,1.3-1.2l-3.6-1.4c-0.3,0.4-0.7,0.8-1,1.2
		c0,0,0.4,0.2,1,0.4h-0.1c-0.2,0.9-0.5,2.3-1.2,4.1C392.5,229.9,392.9,231.6,394.6,228.9z"/>
	<path style="fill:#602F0F;" d="M379.6,206.8c-0.6-4,4.8-7.9,12-8.7c7.3-0.9,13.7,1.7,14.3,5.6c0.6,4-4,6.5-11.3,7.3
		C387.4,211.9,380.2,210.8,379.6,206.8z"/>
</g>
<path style="fill:#4C230C;" d="M388.3,199.7c-0.1-0.4,1.7-1,3.9-1.3c2.2-0.3,4.1-0.1,4.2,0.3c0.1,0.4-1.4,0.8-3.6,1.1
	C390.5,200.1,388.4,200.2,388.3,199.7z"/>
<path style="fill:#F4B382;" d="M81.9,293.2c0.3-4.1-2.7-18.2-2.9-19.7c-0.4-3.6,1-7.4,4.5-7.2c2.6,0.1,5.1,1,6.7,0.6
	c8.1-2,32.8-5.2,42.6-7.6c2.3-0.5,4.6-1,7-1.5c9.8-1.8,7.3,19.2,3.7,19.5c-14.4,1.2-49-0.3-54.2-0.5c0,0,1.7,19.3-2.1,19.4
	C84.9,296.5,81.6,297.3,81.9,293.2z"/>
<path style="fill:#3D3C3C;" d="M172.1,254.8c-11.6,0.3-22.5,1.3-32.3,3.1c1.7,3,4.1,16.4,3.7,19.5c3.6-0.3,31.5-1,31.5-1
	c8.8-0.2,60.9-1,76.5-5.6c4-1.1,7.5-2.3,10.4-3.6c5.6-2.4-2.6-34.1-10.8-34.1c-17.3,3.8-47.9,16.9-55.7,19.1
	C187.5,254.5,172.1,254.8,172.1,254.8z"/>
<g>
</g>
<g>
</g>
<g>
</g>
<g>
</g>
<g>
</g>
<g>
</g>
<g>
</g>
<g>
</g>
<g>
</g>
<g>
</g>
<g>
</g>
<g>
</g>
<g>
</g>
<g>
</g>
<g>
</g>
</svg>
