<?xml version="1.0" encoding="iso-8859-1"?>
<!-- Generator: Adobe Illustrator 19.0.0, SVG Export Plug-In . SVG Version: 6.00 Build 0)  -->
<svg version="1.1" id="Layer_1" xmlns="http://www.w3.org/2000/svg" xmlns:xlink="http://www.w3.org/1999/xlink" x="0px" y="0px"
	 viewBox="0 0 496.2 496.2" style="enable-background:new 0 0 496.2 496.2;" xml:space="preserve">
<path style="fill:#FFEFD6;" d="M0,248.1C0,111.1,111.1,0,248.1,0s248.1,111.1,248.1,248.1S385.1,496.2,248.1,496.2S0,385.1,0,248.1z
	"/>
<path style="fill:#F4B382;" d="M433,275c0,4.1-16,7.5-18.5,9.4c-1.2,1-2.6,5.1-5.9,6.1c-4.4,1.3-8.5-3.9-10-3.4
	c-7.9,2.7-33.2,1.1-43.3,0.6c-2.3-0.1-4.7-0.1-7.2-0.5c-3.1-0.5-2.1-20.9,0.4-20.5c14.2,2.4,47.1,10.3,52.4,10
	c0,0,15.5-3.6,19.3-4.1C422.4,272.3,432.9,270.9,433,275z"/>
<path style="fill:#E2A379;" d="M87.6,150.6c4.7,0.7,7.7,4.5,13.9,4.6c3.6,0.1,10.6,0.4,13.4,2.6c4.6,3.5,4.5,7.7,5.6,8.9
	c6.7,7.5,29.2,22.6,33.9,26.3c7.8,6.1-6.7,19.6-9.2,17c-19.8-20.8-29.2-34.9-32.9-38.5c0,0-21-12-23.9-14.4
	C86.5,155.6,83.5,150,87.6,150.6z"/>
<path style="fill:#333333;" d="M179.3,214.6c-8.8-7.5-16.5-16.4-25-21.6c-0.8,3.4-6.8,15-9.2,17c2.9,2.2,21.9,22.7,21.9,22.7
	c6.7,5.7,39.8,44.4,54.4,51.3c3.7,1.9,7.2,3.3,10.1,4.3c5.7,1.9,20.9-27.1,14.8-32.6c-15.4-8.8-40.8-23.8-48.1-27.4
	C191,224.7,179.3,214.6,179.3,214.6z"/>
<path style="fill:#3D3C3C;" d="M222,289.9c0,0,7.9,1.8,14.7,1.8c18.7,0,21.4-5.3,21.4-5.3s8.8-27.3,1.6-28.4
	c-13.5-2-24.1-4-30.7-5.2c-4.4-0.8-10.5,19.8-10.5,19.8L222,289.9z"/>
<path style="fill:#B3233B;" d="M158.6,245.6c-12.3-0.4-18.6,9.8-31.7,16.5c-1.6,0.8-6.1,8.4-6.2,12.4c-0.1,4.4,0.6,8.9,4.2,12.3
	c2.8,2.6,11.5,7.8,34.5,3.5c10.7-1.3,50.7-6.3,62.6-0.4c0,0-1.3-13.7,0.7-21.7s6.3-15.3,6.3-15.3c-37.3-2.8-49.2-1-61.5-2.8
	C167.6,250,162.1,245.7,158.6,245.6z"/>
<path style="fill:#E2A379;" d="M121.6,265.2c0,0-4.3-0.2-11.6-1.4l-6.2,15.5c8-2.6,17.2-0.1,17.2-0.1c-1-11,4.5-13.8,5.9-17.1
	L121.6,265.2z"/>
<path style="fill:#F4B382;" d="M90.2,254.1c-5.1-3.9-10.3-1.5-13.2,0.3c-9.1,5.4-10,11.4-10,19.1c0,10.2,26.8,14,31.3,13.1
	c11.7-2.3,16.3-18.5,16.5-25.1c0.2-7.3-2.3-5.5-5.2-5.2c-0.1,0-0.5-0.4-0.5-0.4c-1,0-2.4,0.1-3.7-0.6c0,0-0.9,0.3-1.4,0.3
	c-0.3,0-0.5,0-0.7-0.4c-0.4-1.1-0.7-2.1-1.1-2.5C100.7,251.4,92.6,255.9,90.2,254.1z"/>
<path style="fill:#D6876B;" d="M106.6,259.6c0,0,0.4-0.7,0.5-4c-0.2-0.4-0.6-1.1-1.5-0.5C104.8,255.5,106.3,257.3,106.6,259.6z"/>
<path style="fill:#CC785E;" d="M106.6,259.6c0,0,1.7-0.7,2.4-3.7c-0.1-0.4-0.4-0.8-0.6-0.8c-1-0.4-1.4,0.6-1.4,0.6
	C107,258.9,106.6,259.6,106.6,259.6z"/>
<path style="fill:#602F0F;" d="M65.3,274.2c0,12.4,17.9,28.9,38.9,12c1.4-1.1,3.1-3.7,0.2-7.6c-2-2.7-4.7-4.6-4.7-4.6
	c-0.8-0.5-1.7-1.1-2.7-1.7c-1.1-0.7-7.2,0.1-7.4-1.1c-1.9-12.2-8.3-17.3-11.6-17.3C70.2,255.3,65.3,261,65.3,274.2z"/>
<path style="fill:#F4B382;" d="M96.1,276.1c5.5-1.8,5.8-4.1,5.5-7.4l-8.5,1.8l-3.4,1.7C89.8,275.5,90.6,278,96.1,276.1z"/>
<path style="fill:#4C230C;" d="M84.1,293.6c-2.5,2.9-8.5,1.5-13.4-3s-6.9-10.6-4.4-13.5s7-1.2,11.9,3.4
	C83.2,285,86.6,290.7,84.1,293.6z"/>
<g>
	<path style="fill:#602F0F;" d="M90.9,269.9c-1,0.2-1.9,0.2-2.6,0.2c-1.1,0-1.7-0.2-1.7-0.2l1.3,3.6c0.5,0,1.1,0,1.6,0
		c0,0-0.1-0.4-0.3-1.1v0.1c0.8-0.5,2-1.1,3.9-1.7C93,270.8,94,269.4,90.9,269.9z"/>
	<path style="fill:#602F0F;" d="M83.8,295.6c-2.6,3-9.1,1.5-14.5-3.5s-7.6-11.5-5-14.5s7.5-1.1,12.9,3.8
		C82.6,286.4,86.4,292.6,83.8,295.6z"/>
</g>
<path style="fill:#4C230C;" d="M72.8,293.6c-0.3,0.3-1.9-0.6-3.5-2.1s-2.7-3-2.4-3.4c0.3-0.3,1.5,0.5,3.2,2.1S73.1,293.3,72.8,293.6
	z"/>
<path style="fill:#3D3C3C;" d="M317,283.7c11.5,1.4,21.3,3.3,32.3,3.6c-1.2-3.3-1.5-17.7-0.6-20.7c-3.6-0.2-31.3-4.8-31.3-4.8
	c-8.8-1.1-60.4-8.2-76.5-5.9c-4.1,0.4-7.8,1.2-10.8,2c-5.9,1.6,14,27.8,22.1,29.1c17.6-1.1,33.4-3.3,41.5-4.3
	C301.7,281.7,317,283.7,317,283.7z"/>
<g>
	<path style="fill:#F4B382;" d="M182.9,217.4c0,0,7.2,5.5,13.9,12.2c0,0,1.4,0.4,1.9,1.1s0.8,2.2,0.8,2.2
		c1.6,13.2,6.1,25.5,6.1,25.5c-47.5,1.2-58.8,3.6-66.3,8.4s-6,13.5-3.5,16s11,3.5,16.5,1c16-4.5,66.5-13.3,68.8-19.9
		c1.8-5-13.3-28.8-13.3-28.8s-1.8-8.3-2.2-9.6c-0.4-1.4-2.6-4-4.4-4.4c-4.8-1-9-1.6-11.2-2.2C186.7,218.1,184.3,217,182.9,217.4z"/>
	<path style="fill:#F4B382;" d="M194.1,225.2c0,0-3.5-3.6-5.6-2c-1.8,1.4-2.2,2,8.2,6.3C196.7,229.6,197.6,228.4,194.1,225.2z"/>
</g>
<g>
</g>
<g>
</g>
<g>
</g>
<g>
</g>
<g>
</g>
<g>
</g>
<g>
</g>
<g>
</g>
<g>
</g>
<g>
</g>
<g>
</g>
<g>
</g>
<g>
</g>
<g>
</g>
<g>
</g>
</svg>
