<?xml version="1.0" encoding="iso-8859-1"?>
<!-- Generator: Adobe Illustrator 19.0.0, SVG Export Plug-In . SVG Version: 6.00 Build 0)  -->
<svg version="1.1" id="Layer_1" xmlns="http://www.w3.org/2000/svg" xmlns:xlink="http://www.w3.org/1999/xlink" x="0px" y="0px"
	 viewBox="0 0 496.2 496.2" style="enable-background:new 0 0 496.2 496.2;" xml:space="preserve">
<path style="fill:#FFEFD6;" d="M0,248.1C0,111.1,111.1,0,248.1,0s248.1,111.1,248.1,248.1S385.1,496.2,248.1,496.2S0,385.1,0,248.1z
	"/>
<path style="fill:#E2A379;" d="M364.4,325.1c-6.1-2.1-15.4-2-15.5-4.6c-0.8-20.8-2.5-52-2.5-52c1.5-20.7,12.3-60.7,10.6-68.5
	c-1.7-7.7-17.6-6.1-17.9,1.8c-1,9.3-2.2,13.7-3.2,23.3c-1.5,11.9-3.3,36.9-2.3,43.8c0.1,0.9,6.8,47,6.8,47s0.2,5.7,1,8.8
	c0.9,3.5,3.2,2.7,10.2,3.5C356.7,328.9,368.6,326.6,364.4,325.1z"/>
<path style="fill:#3D3C3C;" d="M268.1,234.7c0,0-8.6-1.1-15.3,0.3c-13.8,2.9-19.1,13.5-19.1,13.5s4.1,31.4,11.1,29.7
	c13.3-3.1,23.9-5.2,30.4-6.5c4.4-0.9,2.4-22.3,2.4-22.3L268.1,234.7z"/>
<path style="fill:#B3233B;" d="M337.7,244c11.6-4.1,13.6-16,23.3-27c1.2-1.4,2.5-10.1,1.1-13.8c-1.5-4.1-3.8-8.1-8.5-9.9
	c-3.6-1.4-13.5-3-33.3,9.5c-9.5,5.1-39,33-52.2,31.9c0,0,6.3,12.3,7.4,20.4c1.1,8.2-0.2,16.6-0.2,16.6
	c35.7-11.2,40.4-25.6,52.4-28.5C327.7,243.3,334.4,245.2,337.7,244z"/>
<path style="fill:#F4B382;" d="M354.5,327c-4.2-2.6-15.8-3.9-15.6-6.5c1.5-20.8,7.5-52,7.5-52c1.5-20.7,12.3-60.7,10.6-68.5
	c-1.7-7.7-17.6-6.1-17.9,1.8c-1,9.3-2.2,13.7-3.2,23.3c-1.5,11.9-3.3,36.9-2.3,43.8c0.1,0.9-3,52.7-2.2,55.8
	c0.9,3.5,3.2,2.7,10.2,3.5C346.7,328.9,358.3,329.4,354.5,327z"/>
<path style="fill:#E2A379;" d="M364.8,212.1c0,0,4-1.4,11.3-3v-16.7c-6.4,5.4-15.9,6.5-15.9,6.5c5,9.8,0.9,14.5,0.9,18.1
	L364.8,212.1z"/>
<path style="fill:#F4B382;" d="M398,210.8c6.1,1.7,10.1-2.4,12.2-5.1c6.5-8.4,5.1-14.3,2.3-21.5c-3.8-9.4-30.1-3.1-33.9-0.6
	c-10,6.5-8.3,23.2-6,29.5c2.5,6.9,4.2,4.2,6.8,2.9c0.1-0.1,0.6,0.1,0.6,0.1c0.9-0.4,2.2-0.9,3.7-0.8c0,0,0.7-0.6,1.2-0.8
	c0.3-0.1,0.5-0.2,0.8,0.1c0.7,0.8,1.4,1.7,2,1.9C389.3,217.2,395.2,210,398,210.8z"/>
<path style="fill:#D6876B;" d="M380.8,211.7c0,0-0.1,0.8,1.1,3.9c0.3,0.3,1,0.8,1.6-0.1C384,214.8,381.9,213.8,380.8,211.7z"/>
<path style="fill:#CC785E;" d="M380.8,211.7c0,0-1.3,1.2-0.9,4.4c0.2,0.4,0.7,0.6,0.9,0.6c1.1,0,1.1-1,1.1-1
	C380.7,212.5,380.8,211.7,380.8,211.7z"/>
<path style="fill:#602F0F;" d="M413.8,182.9c-4.6-11.5-27.3-20.3-40.6,3.2c-0.9,1.6-1.5,4.6,2.6,7.1c2.9,1.8,6.1,2.5,6.1,2.5
	c1,0.2,2,0.4,3.1,0.6c1.2,0.2,6.6-2.8,7.3-1.7c6.3,10.6,14.2,13,17.2,11.8C416.2,202.3,418.7,195.2,413.8,182.9z"/>
<path style="fill:#F4B382;" d="M384.5,192.5c-4.4,3.8-3.8,6-2.3,8.9l7.3-4.9l2.6-2.8C390.5,190.8,388.9,188.7,384.5,192.5z"/>
<path style="fill:#4C230C;" d="M389.1,171.8c1.2-3.6,7.3-4.6,13.5-2.2c6.2,2.4,10.3,7.3,9.1,10.9c-1.2,3.6-6.1,3.7-12.3,1.3
	C393.1,179.5,387.9,175.4,389.1,171.8z"/>
<g>
	<path style="fill:#602F0F;" d="M391.6,196.3c0.9-0.5,1.7-0.9,2.4-1.1c1-0.4,1.7-0.5,1.7-0.5l-2.5-2.9c-0.5,0.2-1,0.4-1.5,0.6
		c0,0,0.3,0.3,0.7,0.9c0,0,0,0-0.1-0.1c-0.6,0.8-1.5,1.8-3,3C389.3,196.3,388.9,198,391.6,196.3z"/>
	<path style="fill:#602F0F;" d="M388.7,169.8c1.3-3.8,7.9-4.7,14.7-2.1c6.8,2.6,11.3,7.9,10,11.7s-6.6,3.8-13.4,1.2
		C393.2,177.9,387.4,173.6,388.7,169.8z"/>
</g>
<path style="fill:#4C230C;" d="M399.6,167.6c0.1-0.4,2-0.1,4,0.7c2.1,0.8,3.7,1.8,3.5,2.2c-0.1,0.4-1.6,0.1-3.7-0.7
	C401.4,169,399.5,168.1,399.6,167.6z"/>
<path style="fill:#F4B382;" d="M79.9,326.3c0.4-4.1,17.8-5.1,20.5-6.8c1.3-0.8,2.4-3.2,5.8-3.8c4.5-0.8,7.6,2.4,9.2,2
	c8.1-1.9,30.6-4.6,40.5-6.8c2.3-0.5,4.6-1,7-1.4c9.8-1.7,7,19.3,3.4,19.6c-14.4,1-49-1-54.2-1.2c0,0-15.8,2-19.6,2.1
	C90.1,330,79.5,330.4,79.9,326.3z"/>
<path style="fill:#3D3C3C;" d="M195.2,306.8c-11.6,0.1-22.5,1-32.3,2.7c1.7,3.1,3.9,16.4,3.4,19.5c3.6-0.2,31.5-0.5,31.5-0.5
	c8.8-0.1,51.3-47.3,65.3-55.4c3.7-1.9,6.8-4,9.3-5.9c4.9-3.6-10.3-32.6-18.3-30.8c-5.9,2.8-15.9,5.7-20.5,11.9
	C224.7,260.3,195.2,306.8,195.2,306.8z"/>
<g>
</g>
<g>
</g>
<g>
</g>
<g>
</g>
<g>
</g>
<g>
</g>
<g>
</g>
<g>
</g>
<g>
</g>
<g>
</g>
<g>
</g>
<g>
</g>
<g>
</g>
<g>
</g>
<g>
</g>
</svg>
