<?xml version="1.0" encoding="iso-8859-1"?>
<!-- Generator: Adobe Illustrator 19.0.0, SVG Export Plug-In . SVG Version: 6.00 Build 0)  -->
<svg version="1.1" id="Layer_1" xmlns="http://www.w3.org/2000/svg" xmlns:xlink="http://www.w3.org/1999/xlink" x="0px" y="0px"
	 viewBox="0 0 496.2 496.2" style="enable-background:new 0 0 496.2 496.2;" xml:space="preserve">
<path style="fill:#FFEFD6;" d="M0,248.1C0,111.1,111.1,0,248.1,0s248.1,111.1,248.1,248.1S385.1,496.2,248.1,496.2S0,385.1,0,248.1z
	"/>
<g>
	<path style="fill:#F4B382;" d="M301.2,97.5c3.7,0.5-0.2,15.9,0.1,20.8l-3.3,5.3c-2.2,34.7-6.7,50.5-6.7,50.5
		c-0.4,20.8-6.2,57.6-8.5,65.2c-1.3,4.6-21.3-2.3-20.6-8.1c2-8.8,4.1-13,5.1-16.5c1.1-7.8,9.7-35.3,11.3-42.1c0.2-0.9,11-50,11-50
		s0.2-2-0.5-5.5c-1-4.8,0.3-11.6,2.5-15.1C293.4,99,297.5,97,301.2,97.5z"/>
	<path style="fill:#F4B382;" d="M300.4,113.3c0,0,0.2-5,2.9-5.2c2.2-0.1,3,0.1-2,10.2C301.3,118.3,299.9,117.9,300.4,113.3z"/>
	<path style="fill:#F4B382;" d="M209.3,398.6c-4-0.9-15.4,0-16.9-0.1c-3.6-0.1-7.1-2.1-6.4-5.5c0.5-2.6,1.3-4.9,1.6-6.5
		c1.9-9.4-1.9-48-1.9-50.4c-0.3-9.9,22.4-4.3,22.2-0.7c-1,14.4-9.6,48.4-10.5,53.6c0,0,19.3,1.2,18.9,4.9
		C216,396.2,213.3,399.6,209.3,398.6z"/>
</g>
<g>
	<path style="fill:#E2A379;" d="M191.2,383.7c-3.3-1.8,6-14.8,7.5-19.4l5-3.7c14.7-31.5,24.7-44.6,24.7-44.6
		c7.9-19.2,26.8-51.4,31.7-57.6c2.9-3.8,19,9.9,16.3,15c-5,7.5-8.6,10.6-10.8,13.5c-3.8,6.9-21.9,29.4-25.8,35.1
		c-0.5,0.8-28.5,42.5-28.5,42.5s-0.9,1.8-1.5,5.3c-0.8,4.8-4.5,10.7-7.8,13.1C199,385.1,194.5,385.6,191.2,383.7z"/>
	<path style="fill:#E2A379;" d="M197.7,369.4c0,0-2,4.6-4.6,3.8c-2.1-0.7-2.8-1.2,5.5-8.8C198.7,364.4,199.9,365.3,197.7,369.4z"/>
</g>
<path style="fill:#A31937;" d="M242.9,275.3c10.9,3.9,33.3-1.5,33.3-1.5c1.4-4.4,2.4-8.9,3.1-12.4l2.3-12.3
	c0.6-3.5,1.3-8.1,1.5-12.6c0,0-18.9-13.1-30.5-13.3c-10.9-0.2-26.8-0.1-65.9-13.4l-5.1,27.2l0,0l-3.8,15.1
	C217.1,260.4,232.6,271.6,242.9,275.3z"/>
<path style="fill:#B3233B;" d="M242.9,275.3c10.9,3.9,33.3-1.5,33.3-1.5c1.4-4.4,2.4-8.9,3.1-12.4l2.3-12.3
	c0.6-3.5,1.3-8.1,1.5-12.6c0,0-18.9-13.1-30.5-13.3c-10.9-0.2-60.4,15.5-65.5,19.4c-5.1,4-9.3,9.4-9.3,9.4
	C217.1,260.4,232.6,271.6,242.9,275.3z"/>
<path style="fill:#E2A379;" d="M290.1,265.7l3.1-16.6c-8.3,1.1-11.4-1.9-11.4-1.9s-5.2-0.5-6.6,7.2c-1.4,7.6,3.6,9,3.6,9
	S282.8,261.7,290.1,265.7z"/>
<path style="fill:#F4B382;" d="M311.4,278.7c19.8,3.7,25.7-3.1,27.4-12.5c1.7-9.4-1.4-17.9-21.1-21.6c-6.7-1.2-12.1-1-16.5,0
	c-9.6,2.3-14,8.5-14.6,11.8s1.2,10.7,9.4,16.3C299.7,275.3,304.7,277.5,311.4,278.7z"/>
<path style="fill:#D6876B;" d="M293.8,262.8c0,0-0.7-2.4-0.2-5c0.5-2.7,2-4.6,2-4.6c0.3,0.1,1.8,1.9,1.7,3c0,0.7-1,2.2-1,2.2
	s0.3,1.7,0.1,2.3C296.1,261.6,293.8,262.8,293.8,262.8z"/>
<path style="fill:#CC785E;" d="M293.8,262.8c0,0-1.5-2.5-1.1-5.2c0.5-2.7,2.8-4.5,2.8-4.5s0.5,0.6,0.2,3.5c-0.1,0.5-0.5,1-0.6,1.4
	s0.2,1,0.1,1.4C294.5,262.3,293.8,262.8,293.8,262.8z"/>
<ellipse transform="matrix(-0.9832 -0.1825 0.1825 -0.9832 621.4404 589.2759)" style="fill:#4C230C;" cx="337.834" cy="266.044" rx="6.2" ry="9.1"/>
<path style="fill:#602F0F;" d="M310.4,279.2c19.8,3.7,26.1-0.8,28.4-13c2.3-12.3-2.1-18.7-21.8-22.3c0,0,0.8,27.3,8,28.6
	C317.8,271.1,310.4,279.2,310.4,279.2z"/>
<g>
	<path style="fill:#F4B382;" d="M311,241.7c-5.6-0.1-6,1-6,2.7l12,0.4C317.1,243.1,316.6,241.8,311,241.7z"/>
	<path style="fill:#F4B382;" d="M310.8,278.3l-11.4-3.9c-0.6,1.6-0.5,2.8,4.7,4.7C309.3,281,310.2,279.9,310.8,278.3z"/>
</g>
<g>
	<path style="fill:#602F0F;" d="M315.7,245.7c0.6,0,1.1,0.1,1.5,0.2c0.6,0.1,1,0.3,1,0.3l-0.4-2.1c-0.3-0.1-0.6-0.1-0.9-0.2
		c0,0,0,0.2,0.1,0.6c0,0,0,0,0-0.1c-0.5,0.2-1.3,0.4-2.4,0.5C314.6,245,313.9,245.6,315.7,245.7z"/>
	<path style="fill:#602F0F;" d="M311.4,277.4c-0.4-0.1-0.9-0.2-1.5-0.4c-1.7-0.6-1.3,0.3-1.3,0.3c1,0.5,1.7,1,2.1,1.4
		c-0.2,0.3-0.3,0.5-0.3,0.5c0.3,0.1,0.6,0.1,0.9,0.2l1.1-1.9C312.5,277.5,312.1,277.5,311.4,277.4"/>
</g>
<g>
	<path style="fill:#3D3C3C;" d="M186.6,209.8c-22.3,0.7-30.3,7.1-33.6,20.4c-3.4,13.7,2.6,23.9,4.6,28.1c3.5,7.5,30.2,7.6,30.7,0.4
		c0.3-5.9,0.7-11.3,1.1-16.1c0-0.3,1.9-1.6,2-1.9C193.9,230.6,186.6,209.8,186.6,209.8z"/>
	<path style="fill:#3D3C3C;" d="M190.7,308c-4.2,10.3-5.3,18.1-5,28.1c3.3-1.2,19.2-1.6,22.2-0.7c0.2-3.6,4.7-27,4.7-27
		c1.1-8.8-21.3-50.9-23.6-66.9c-0.4-4.1-1.2-7.8-2-10.8c-1.6-5.9-32.6,4.8-33.9,12.9c3.3,17.7,13.8,31.5,21.5,43.2
		C179,293.5,190.7,308,190.7,308z"/>
</g>
<g>
</g>
<g>
</g>
<g>
</g>
<g>
</g>
<g>
</g>
<g>
</g>
<g>
</g>
<g>
</g>
<g>
</g>
<g>
</g>
<g>
</g>
<g>
</g>
<g>
</g>
<g>
</g>
<g>
</g>
</svg>
