<?xml version="1.0" encoding="iso-8859-1"?>
<!-- Generator: Adobe Illustrator 19.0.0, SVG Export Plug-In . SVG Version: 6.00 Build 0)  -->
<svg version="1.1" id="Layer_1" xmlns="http://www.w3.org/2000/svg" xmlns:xlink="http://www.w3.org/1999/xlink" x="0px" y="0px"
	 viewBox="0 0 496.2 496.2" style="enable-background:new 0 0 496.2 496.2;" xml:space="preserve">
<path style="fill:#FFEFD6;" d="M0,248.1C0,111.1,111.1,0,248.1,0s248.1,111.1,248.1,248.1S385.1,496.2,248.1,496.2S0,385.1,0,248.1z
	"/>
<path style="fill:#3D3C3C;" d="M247,241.8c-13.6,3.1-22.2,9.5-26.8,16.8c-2.8,4.4-5.1,11.9-4,18.7c1.5,9.4,7.9,13,7.9,13
	s35.1,6.3,34.1-0.9c-0.8-5.9-1.5-11.2-2-16C255.5,268,247,241.8,247,241.8z"/>
<path style="fill:#E2A379;" d="M247.7,390.2c-3.2-2.3-2.4-12-1.7-19.2c0.2-2-1.1-6.5,0.3-8.5c2.3-3.3,5.5-2.7,6-4.2
	c6.3-18.3,8.4-23.4,12.5-30.6c4.9-8.7,24.1,2,21.8,4.8c-10.8,13.2-24.1,29.7-27,34.1c0,0-1,6.8-2.3,16.8c-0.2,1.1,5.3,3.9,5.3,6.3
	C262.7,392.2,249.4,391.4,247.7,390.2z"/>
<path style="fill:#333333;" d="M290.2,307.1c-0.2,0-9.7,0.4-9.9,0.3c-4.9,6.2-8.6,9.6-15.6,20.4c3.5,0.3,19.2,3.7,21.6,5.8
	c2-2.5,9-13.2,14.2-21.2C298.6,312.6,294.2,309.7,290.2,307.1z"/>
<path style="fill:#F4B382;" d="M251.7,392.7c-3.2-2.3-2.4-12-1.7-19.2c0.2-2-1.1-6.5,0.3-8.5c2.3-3.3,5.5-2.7,6-4.2
	c6.3-18.3,8.4-23.4,12.5-30.6c4.9-8.7,24.1,2,21.8,4.8c-10.8,13.2-24.1,29.7-27,34.1c0,0-1,6.8-2.3,16.8c-0.2,1.1,5.3,3.9,5.3,6.3
	C266.7,394.7,253.4,393.9,251.7,392.7z"/>
<path style="fill:#3D3C3C;" d="M284,308.5c-4.9,6.8-8.4,10.2-15.1,21.6c3.5,0.1,19.4,2.8,21.8,4.8c3-4.2,21.5-25,18.6-30.9
	c-10-20-53-31.6-53-31.6c-0.3-4.2-44.3,3.5-34.4,15.5C231.8,300,284,308.5,284,308.5z"/>
<path style="fill:#E2A379;" d="M375.4,186.2c0-1.9-14.4-5.4-22.7-3.4c-3.3,0.8-8.6,0.5-8.6,0.5c-29.3-0.6-45.8-4.5-45.8-4.5
	c-20.5-3.3-59.7-16.2-67.6-15.3c-7.8,1-7.7,17,0.2,18c8.3,2.8,14.3,4.2,24.9,5.2c20.3,3.6,34.8,4.3,41.7,5c11.3,1.1,46.5,0,46.5,0
	s3.9,1.5,6.4,1.5c4.6-0.1,8.2-0.8,12.1-2.4C368.6,188.6,375.4,188.1,375.4,186.2z"/>
<path style="fill:#3D3C3C;" d="M220.2,258.6c0,0,30.8,44.9,31.9,37.7c1.4-9.7,2.8-17.6,4-23.9l0.7-6.9c0,0-6.9-8.6-17.2-9.7
	C229.4,254.8,220.2,258.6,220.2,258.6z"/>
<path style="fill:#B3233B;" d="M264.5,197.7c0.4-12.3-9.8-18.6-16.5-31.7c-0.8-1.6-8.4-6.1-12.4-6.2c-4.4-0.1-8.9,0.6-12.3,4.2
	c-2.6,2.8-7.8,11.5-3.5,34.5c1.3,10.7,6.3,48.2,0.4,60.1c0,0,13.7-1.3,21.7,0.7s14.9,6.2,14.9,6.2c2.8-37.3,1.5-46.6,3.3-58.9
	C260.1,206.7,264.4,201.2,264.5,197.7z"/>
<path style="fill:#E2A379;" d="M244.9,160.7c0,0,0.2-4.3,1.4-11.6l-15.5-6.2c2.6,8,0.1,17.2,0.1,17.2c11-1,13.8,4.5,17.1,5.9
	L244.9,160.7z"/>
<path style="fill:#F4B382;" d="M255.9,129.3c3.9-5.1,1.5-10.3-0.3-13.2c-5.4-9.1-11.4-10-19.1-10c-10.2,0-14,26.8-13.1,31.3
	c2.3,11.7,18.5,16.3,25.1,16.5c7.3,0.2,5.5-2.3,5.2-5.2c0-0.1,0.4-0.5,0.4-0.5c0-1-0.1-2.4,0.6-3.7c0,0-0.3-0.9-0.3-1.4
	c0-0.3,0-0.5,0.4-0.7c1.1-0.4,2.1-0.7,2.5-1.1C258.7,139.8,254.1,131.7,255.9,129.3z"/>
<path style="fill:#D6876B;" d="M250.4,145.7c0,0,0.7,0.4,4,0.4c0.4-0.2,1.1-0.6,0.5-1.5C254.5,143.9,252.8,145.4,250.4,145.7z"/>
<path style="fill:#CC785E;" d="M250.4,145.7c0,0,0.7,1.7,3.7,2.4c0.4-0.1,0.8-0.4,0.8-0.6c0.4-1-0.6-1.4-0.6-1.4
	C251.1,146.1,250.4,145.7,250.4,145.7z"/>
<path style="fill:#602F0F;" d="M235.8,104.4c-12.4,0-28.9,17.9-12,38.9c1.1,1.4,3.7,3.1,7.6,0.2c2.7-2,4.6-4.7,4.6-4.7
	c0.5-0.8,1.1-1.7,1.7-2.7c0.7-1.1-0.1-7.2,1.1-7.4c12.2-1.9,17.3-8.3,17.3-11.6C254.7,109.3,249.1,104.4,235.8,104.4z"/>
<path style="fill:#F4B382;" d="M233.9,135.2c1.8,5.5,4.1,5.8,7.4,5.5l-1.8-8.5l-1.7-3.4C234.5,129,232,129.7,233.9,135.2z"/>
<path style="fill:#4C230C;" d="M216.4,123.2c-2.9-2.5-1.5-8.5,3-13.4s10.6-6.9,13.5-4.4s1.2,7-3.4,11.9
	C225,122.3,219.3,125.7,216.4,123.2z"/>
<g>
	<path style="fill:#602F0F;" d="M240.1,130c-0.2-1-0.2-1.9-0.2-2.6c0-1,0.2-1.7,0.2-1.7l-3.6,1.3c0,0.5,0,1.1,0,1.6
		c0,0,0.4-0.1,1.1-0.3h-0.1c0.5,0.8,1.1,2,1.7,3.9C239.2,132.1,240.6,133.1,240.1,130z"/>
	<path style="fill:#602F0F;" d="M214.4,122.9c-3-2.6-1.5-9.1,3.5-14.5s11.5-7.6,14.5-5s1.1,7.5-3.8,12.9S217.4,125.5,214.4,122.9z"
		/>
</g>
<path style="fill:#4C230C;" d="M216.4,111.9c-0.3-0.3,0.6-1.9,2.1-3.5s3-2.7,3.4-2.4c0.3,0.3-0.5,1.5-2.1,3.2
	C218.4,110.8,216.8,112.2,216.4,111.9z"/>
<path style="fill:#F4B382;" d="M377.3,186.2c0-1.9-14.5-5.2-22.7-3c-3.3,0.9-8.6,0.7-8.6,0.7c-29.3-0.1-45.8-3.6-45.8-3.6
	c-20.6-2.9-60-15.1-67.8-14s-7.4,17.1,0.6,18c8.3,2.6,14.4,3.9,25,4.7c20.4,3.2,34.9,3.6,41.8,4.2c11.3,0.9,46.5-0.9,46.5-0.9
	s3.9,1.4,6.4,1.3c4.6-0.2,8.2-1,12.1-2.7C370.5,188.7,377.3,188.1,377.3,186.2z"/>
<g>
</g>
<g>
</g>
<g>
</g>
<g>
</g>
<g>
</g>
<g>
</g>
<g>
</g>
<g>
</g>
<g>
</g>
<g>
</g>
<g>
</g>
<g>
</g>
<g>
</g>
<g>
</g>
<g>
</g>
</svg>
