<?xml version="1.0" encoding="iso-8859-1"?>
<!-- Generator: Adobe Illustrator 19.0.0, SVG Export Plug-In . SVG Version: 6.00 Build 0)  -->
<svg version="1.1" id="Layer_1" xmlns="http://www.w3.org/2000/svg" xmlns:xlink="http://www.w3.org/1999/xlink" x="0px" y="0px"
	 viewBox="0 0 496.2 496.2" style="enable-background:new 0 0 496.2 496.2;" xml:space="preserve">
<path style="fill:#FFEFD6;" d="M0,248.1C0,111.1,111.1,0,248.1,0s248.1,111.1,248.1,248.1S385.1,496.2,248.1,496.2S0,385.1,0,248.1z
	"/>
<path style="fill:#3D3C3C;" d="M178,257.9c-6.9,7.6-15.4,16.9-12.4,29c1.6,6.4,37.2,7,36.4,0.3c-0.5-3.8,1-5.7,1.7-6.2
	c3.6-2.7-3.9-17.8-3.9-17.8S181.3,254.4,178,257.9z"/>
<g>
	<path style="fill:#E2A379;" d="M276.8,231.6c0,0,5.4-10.4,14.6-9.6l-14.2-9c-4.6,5.4-14.4,4.4-14.4,4.4
		C269.7,222.3,276.8,231.6,276.8,231.6z"/>
	<path style="fill:#E2A379;" d="M259.5,328.6c-0.2-3.7-16.9-3.4-16.3-5.9c5-21.3,12.8-46.4,12.8-46.4c2.8-14.3,10.6-32.5,14.9-44.8
		c1.8-5.3-16.5-6.9-17.2-4.6c-1.3,4.7-2.6,8.7-4.1,15c-2.9,11.6-3.6,22.9-6.4,33.2c-0.2,0.9-9.4,51.9-8.9,55.1
		C234.8,333.9,259.7,333.1,259.5,328.6z"/>
</g>
<path style="fill:#B3233B;" d="M256.9,257.1c9.3-4.5,11.9-5.2,17.8-15.2c3.1-5.2,3.9-8.8,3.3-13.7c-0.6-4.5-5.8-10.3-10.5-11.7
	c-5.7-1.6-9.8-1.8-25.4,4.6c-28,11.5-51.9,25-64,36.8l25.7,23.2c15.8-13.9,24-23.2,36-26.8C239.7,254.3,245.9,262.4,256.9,257.1z"/>
<path style="fill:#F4B382;" d="M301.3,195.8c2.3-5.9-1.4-10.3-3.9-12.6c-7.7-7.3-13.7-6.5-21.1-4.4c-9.8,2.8-6.1,29.6-4,33.7
	c5.4,10.6,22.3,10.6,28.7,9c7.1-1.8,4.6-3.7,3.6-6.4c0-0.1,0.2-0.6,0.2-0.6c-0.3-1-0.7-2.3-0.4-3.7c0,0-0.5-0.8-0.7-1.3
	c-0.1-0.3-0.1-0.5,0.2-0.7c0.9-0.7,1.8-1.3,2.1-1.8C306.8,205.1,300.3,198.5,301.3,195.8z"/>
<path style="fill:#D6876B;" d="M300.5,213c0,0,0.8,0.2,4-0.7c0.3-0.3,0.9-0.9,0.1-1.6C304,210.2,302.7,212.1,300.5,213z"/>
<path style="fill:#CC785E;" d="M300.5,213c0,0,1.1,1.4,4.3,1.3c0.4-0.2,0.6-0.6,0.6-0.8c0.1-1.1-0.9-1.2-0.9-1.2
	C301.3,213.2,300.5,213,300.5,213z"/>
<path style="fill:#602F0F;" d="M275.2,177.3c-11.9,3.4-22.9,25.1-0.9,40.7c1.5,1,4.4,1.9,7.3-1.9c2.1-2.7,3.1-5.8,3.1-5.8
	c0.3-0.9,0.6-2,0.9-3c0.4-1.2-2.1-6.9-0.9-7.4c11.2-5.2,14.4-12.8,13.5-15.9C294.7,176.8,287.9,173.7,275.2,177.3z"/>
<path style="fill:#F4B382;" d="M281.7,207.4c3.3,4.8,5.6,4.4,8.6,3.2l-4.1-7.7l-2.5-2.8C280.7,201.3,278.5,202.6,281.7,207.4z"/>
<path style="fill:#4C230C;" d="M261.7,200.7c-3.5-1.6-3.8-7.7-0.8-13.7s8.3-9.5,11.7-7.9c3.5,1.6,3.1,6.4,0,12.4
	C269.7,197.5,265.2,202.3,261.7,200.7z"/>
<g>
	<path style="fill:#602F0F;" d="M286.3,200.8c-0.4-0.9-0.7-1.8-0.9-2.5c-0.3-1-0.3-1.7-0.3-1.7l-3.1,2.2c0.1,0.5,0.3,1,0.4,1.5
		c0,0,0.3-0.2,0.9-0.6c0,0-0.1,0-0.1,0.1c0.7,0.6,1.6,1.7,2.7,3.3C286,203,287.6,203.6,286.3,200.8z"/>
	<path style="fill:#602F0F;" d="M259.6,201c-3.6-1.7-3.9-8.3-0.6-14.9c3.3-6.5,9-10.5,12.6-8.8s3.2,6.9-0.2,13.4
		C268.2,197.3,263.3,202.6,259.6,201z"/>
</g>
<path style="fill:#4C230C;" d="M258.6,189.8c-0.4-0.2,0.1-2,1.1-4s2.2-3.5,2.6-3.3s-0.1,1.6-1.1,3.6
	C260.1,188.2,259,190,258.6,189.8z"/>
<g>
	<path style="fill:#F4B382;" d="M254.5,335.2c0-3.7-16.7-4.2-16-6.7c6-21,15.1-45.7,15.1-45.7c5-20.2,20.7-47.9,20.4-55.8
		c-0.3-7.9-16.3-9.1-17.9-1.2c-2.5,9-4.5,13.1-7.1,22.4c-3.5,11.5-4.8,22.7-8.1,32.9c-0.3,0.9-11.9,51.4-11.6,54.6
		C229.5,339.2,254.5,339.7,254.5,335.2z"/>
	<path style="fill:#F4B382;" d="M354.6,206.8c-2.8,3.9-12,10.3-14.9,15.8c-1.7,3.2-5.3,9.2-8.4,10.7c-5.2,2.4-8.9,0.5-10.5,0.9
		c-9.8,2.5-30.9,20.6-36.4,23.1c-9.1,4.1-14.1-14.5-10.8-16c26.6-12.4,40.4-17.6,45.4-19.3c0,0,26.1-16,29.5-17.5
		C350.7,203.5,357,203.4,354.6,206.8z"/>
</g>
<path style="fill:#3D3C3C;" d="M254.9,270.3c10.9-3.9,20.9-8.3,29.6-13.1c-2.6-2.3-8.8-13.7-9.3-16.8c-3.3,1.4-29.9,10.3-29.9,10.3
	c-8.3,3-57.6,20.1-70.8,29.4c-3.5,2.3-6.6,4.8-8.9,6.9c0,0,1.5,7.8,8.4,13.7c5.3,4.5,11.9,5.7,18.9,3.4c6.9-2.3,34.1-19.4,40.8-23.9
	C240.4,275.5,254.9,270.3,254.9,270.3z"/>
<g>
</g>
<g>
</g>
<g>
</g>
<g>
</g>
<g>
</g>
<g>
</g>
<g>
</g>
<g>
</g>
<g>
</g>
<g>
</g>
<g>
</g>
<g>
</g>
<g>
</g>
<g>
</g>
<g>
</g>
</svg>
