<?xml version="1.0" encoding="iso-8859-1"?>
<!-- Generator: Adobe Illustrator 19.0.0, SVG Export Plug-In . SVG Version: 6.00 Build 0)  -->
<svg version="1.1" id="Layer_1" xmlns="http://www.w3.org/2000/svg" xmlns:xlink="http://www.w3.org/1999/xlink" x="0px" y="0px"
	 viewBox="0 0 496.2 496.2" style="enable-background:new 0 0 496.2 496.2;" xml:space="preserve">
<path style="fill:#FFEFD6;" d="M0,248.1C0,111.1,111.1,0,248.1,0s248.1,111.1,248.1,248.1S385.1,496.2,248.1,496.2S0,385.1,0,248.1z
	"/>
<path style="fill:#3D3C3C;" d="M222.9,231.6c0,0-4.2,7.6-5.3,14.3c-2.4,13.9,5.5,22.8,5.5,22.8s30.7,7.8,31.7,0.7
	c2-13.5,4-24.1,5.2-30.7c0.8-4.4-19.8-10.5-19.8-10.5L222.9,231.6z"/>
<path style="fill:#E2A379;" d="M286.5,167.6l-6.8,20.5c0,0-3.7,0.7-7.5,0.7c0,0-14.1-1.1-20.8-1.7c-3.5-0.3-7.5,9.5-8.5,8.9
	s-1.8-3.9-3.3-7.7c-3.7-9.1-11.1-32.2-8.6-42.2c1.7-6.8,11.2-6.5,16-2.3c3.2,2.7,3.5,8.8,3,13c-0.3,2.6-0.3-9.8,0.1,0.4
	c0.5,6.2,0.1,10.4,0.6,17.2c0,0,23,6,23.8,6.2l9.8-13.6L286.5,167.6z"/>
<path style="fill:#B3233B;" d="M267.2,165c0.4-12.3-9.8-15.4-16.5-28.5c-0.8-1.6-8.4-6.1-12.4-6.2c-4.4-0.1-8.9,0.6-12.3,4.2
	c-2.6,2.8-7.8,11.5-3.5,34.5c1.3,10.7,6.3,50.7,0.4,62.6c0,0,13.7-1.3,21.7,0.7s15.3,6.3,15.3,6.3c2.8-37.3,1-52.4,2.8-64.7
	C262.8,174,267.1,168.4,267.2,165z"/>
<path style="fill:#E2A379;" d="M246.9,131.1c0,0-2.5-8.8-4.5-16.8l-13.4-0.9c2.6,8,0.7,18.6,0.7,18.6c12.5-1.3,17.7,3.2,21,4.5
	L246.9,131.1z"/>
<path style="fill:#F4B382;" d="M253.7,96.4c2.9-5.7-0.4-10.4-2.7-12.9c-7-8-13-7.8-20.6-6.4c-10,1.8-8.9,28.9-7.2,33.1
	c4.4,11.1,21.2,12.7,27.7,11.7c7.2-1.1,4.9-3.3,4.2-6.1c0-0.1,0.2-0.6,0.2-0.6c-0.2-1-0.5-2.3-0.1-3.8c0,0-0.4-0.8-0.5-1.3
	c-0.1-0.3-0.1-0.5,0.3-0.7c1-0.6,1.9-1.1,2.2-1.6C258.3,106.2,252.4,99,253.7,96.4z"/>
<path style="fill:#D6876B;" d="M251.3,113.4c0,0,0.8,0.3,4-0.3c0.4-0.3,1-0.8,0.2-1.6C254.9,111,253.5,112.7,251.3,113.4z"/>
<path style="fill:#CC785E;" d="M251.3,113.4c0,0,1,1.5,4.1,1.7c0.4-0.1,0.7-0.5,0.7-0.7c0.2-1-0.8-1.3-0.8-1.3
	C252,113.7,251.3,113.4,251.3,113.4z"/>
<path style="fill:#602F0F;" d="M229.4,75.5c-12.2,2.2-25.2,22.8-4.8,40.4c1.4,1.2,4.2,2.4,7.5-1.2c2.3-2.5,3.7-5.5,3.7-5.5
	c0.4-0.9,0.8-1.9,1.2-2.9c0.5-1.2-1.4-7-0.2-7.5c11.6-4.1,15.5-11.4,14.9-14.5C248.9,76.9,242.4,73.1,229.4,75.5z"/>
<path style="fill:#F4B382;" d="M233.1,106.1c2.8,5.1,5.1,4.9,8.3,4L238,102l-2.3-3.1C232.6,99.9,230.3,101,233.1,106.1z"/>
<path style="fill:#4C230C;" d="M213.8,97.5c-3.3-1.9-3.1-8,0.5-13.7c3.6-5.6,9.2-8.7,12.4-6.8c3.3,1.9,2.4,6.7-1.1,12.3
	C222,95,217.1,99.4,213.8,97.5z"/>
<g>
	<path style="fill:#602F0F;" d="M238.3,99.9c-0.3-0.9-0.5-1.8-0.6-2.6c-0.2-1-0.1-1.7-0.1-1.7l-3.3,1.9c0.1,0.5,0.2,1,0.3,1.6
		c0,0,0.4-0.2,1-0.5h-0.1c0.6,0.7,1.5,1.8,2.4,3.5C237.8,102.1,239.3,102.9,238.3,99.9z"/>
	<path style="fill:#602F0F;" d="M211.7,97.6c-3.5-2-3.1-8.7,0.8-14.8c3.9-6.2,9.9-9.6,13.4-7.6s2.5,7.2-1.4,13.4
		C220.5,94.7,215.2,99.6,211.7,97.6z"/>
</g>
<path style="fill:#4C230C;" d="M211.7,86.4c-0.4-0.2,0.3-1.9,1.5-3.8s2.5-3.2,2.9-3s-0.2,1.6-1.4,3.5
	C213.4,84.9,212.1,86.6,211.7,86.4z"/>
<path style="fill:#F4B382;" d="M253.5,421.5c-4-0.9-18.4,0-19.9-0.1c-3.6-0.1-7.1-2.1-6.4-5.5c0.5-2.6,1.8-4.9,1.6-6.5
	c-0.8-8.3-0.3-33.2-1.1-43.2c-0.2-2.3-0.3-4.7-0.4-7.2c-0.3-9.9,20.1-4.3,19.8-0.7c-1,14.4-7.6,48.4-8.6,53.6c0,0,19.3,1.2,18.9,4.9
	C257.1,419,257.5,422.4,253.5,421.5z"/>
<path style="fill:#3D3C3C;" d="M229,326.5c-1.4,11.5-2,22.4-1.7,32.4c3.3-1.2,16.8-1.6,19.8-0.7c0.2-3.6,3.8-31.3,3.8-31.3
	c1.1-8.8,8.2-60.4,5.9-76.5c-0.4-4.1-1.2-7.8-2-10.8c-1.6-5.9-34.1-2.5-35.4,5.6c1.1,17.6,9.5,49.9,10.6,58
	C231,311.2,229,326.5,229,326.5z"/>
<path style="fill:#F4B382;" d="M286.5,167.6l0.4,23.8c0,0-30,15.1-36.1,18.2c-3.1,1.6-6.8,2.4-7.9,1.9c-1-0.6-1.8-3.9-3.3-7.7
	c-3.7-9.1-11.1-47.7-8.6-57.7c1.7-6.8,11.2-6.5,16-2.3c3.2,2.7,3.5,8.8,3,13c-0.3,2.6-0.3,5.7,0.1,15.9c0.5,6.2,0.5,15.3,1,22.2
	c0,0,10-3.1,29.5-9.6l3.7-18.3L286.5,167.6z"/>
<g>
</g>
<g>
</g>
<g>
</g>
<g>
</g>
<g>
</g>
<g>
</g>
<g>
</g>
<g>
</g>
<g>
</g>
<g>
</g>
<g>
</g>
<g>
</g>
<g>
</g>
<g>
</g>
<g>
</g>
</svg>
