<?xml version="1.0" encoding="iso-8859-1"?>
<!-- Generator: Adobe Illustrator 19.0.0, SVG Export Plug-In . SVG Version: 6.00 Build 0)  -->
<svg version="1.1" id="Layer_1" xmlns="http://www.w3.org/2000/svg" xmlns:xlink="http://www.w3.org/1999/xlink" x="0px" y="0px"
	 viewBox="0 0 496.2 496.2" style="enable-background:new 0 0 496.2 496.2;" xml:space="preserve">
<path style="fill:#FFEFD6;" d="M0,248.1C0,111.1,111.1,0,248.1,0s248.1,111.1,248.1,248.1S385.1,496.2,248.1,496.2S0,385.1,0,248.1z
	"/>
<g>
	<path style="fill:#E2A379;" d="M204.9,326.9c3.6,1.1,6.2-14.7,8.5-19l-0.9-6.2c11.9-32.6,13.8-49.4,13.8-49.4
		c8-19.2,17.9-56.4,18.8-64.3c0.9-7.9-14.7-11.4-17.5-4s-4.4,14.3-6.6,21.9c-2.2,7.6-5.7,35.8-6.9,42.6c-0.2,0.9-9.7,50.7-9.7,50.7
		s-0.6,1.9-2.7,4.8c-2.8,3.9-4.4,10.7-3.8,14.8C198.4,322.4,201.3,325.9,204.9,326.9z"/>
	<path style="fill:#E2A379;" d="M210.5,312.1c0,0-1.8,4.7,0.6,5.9c2,1,2.8,1.2,2.3-10.1C213.4,307.9,211.9,307.7,210.5,312.1z"/>
</g>
<path style="fill:#D89D75;" d="M165.5,323.2c0.4-4.1,17.8-5.1,20.5-6.8c1.3-0.8,2.4-3.2,5.8-3.8c4.5-0.8,7.6,2.4,9.2,2
	c8.1-1.9,25.8-4.6,35.7-6.8c2.3-0.5,4.6-1,7-1.4c9.8-1.7,7,19.3,3.4,19.6c-14.4,1-44.3-1-49.5-1.2c0,0-15.8,2-19.6,2.1
	C175.8,327,165.1,327.3,165.5,323.2z"/>
<path style="fill:#333333;" d="M279.3,303.7c-11.6,0.1-25.8,1-35.6,2.7c1.7,3.1,3.9,16.4,3.4,19.5c3.6-0.2,46.7,3.7,54-4.3
	c7.7-8.3,26.7-74.8,27.1-77.9c1.4-11.5-9.4-31.9-17.4-30.1c0,0-12,7.9-16.4,20.4C286.7,256.3,279.3,303.7,279.3,303.7z"/>
<path style="fill:#3D3C3C;" d="M326.2,212.1c0,0-32-0.5-34.3,7.8c-0.3,1-1.3,2.8-1.6,3.4c-7.4,14.4,1.2,23.2,0.7,26.5
	c-0.5,3.4,34.5,8.5,36.4,1.9c3.6-12.9,3.7-16.2,3.2-25.6C330.2,220.8,326.2,212.1,326.2,212.1z"/>
<path style="fill:#E2A379;" d="M165.5,327.2c0.4-4.1,17.8-5.1,20.5-6.8c1.3-0.8,2.4-3.2,5.8-3.8c4.5-0.8,7.6,2.4,9.2,2
	c8.1-1.9,25.8-4.6,35.7-6.8c2.3-0.5,4.6-1,7-1.4c9.8-1.7,7,19.3,3.4,19.6c-14.4,1-44.3-1-49.5-1.2c0,0-15.8,2-19.6,2.1
	C175.8,331,165.1,331.3,165.5,327.2z"/>
<path style="fill:#3D3C3C;" d="M279.3,307.7c-11.6,0.1-25.8,1-35.6,2.7c1.7,3.1,3.9,16.4,3.4,19.5c3.6-0.2,46.7,3.7,54-4.3
	c7.7-8.3,26.7-74.8,27.1-77.9c1.4-11.5-9.4-31.9-17.4-30.1c0,0-12,7.9-16.4,20.4C286.7,260.3,279.3,307.7,279.3,307.7z"/>
<path style="fill:#B3233B;" d="M249.7,165c-12.2-1.2-15.2,2.8-28.3,9.6c-1.6,0.9-6,8.5-6,12.5c-0.1,4.4,1,8.6,4.3,12.3
	c6.4,7.2,33.9,0.5,47,5.6c9.2,2.5,27,10.5,25.2,15.2l34.3-7.8c-27-43-55.1-41.1-67.4-42.8C258.8,169.3,253.2,165.3,249.7,165z"/>
<path style="fill:#E2A379;" d="M214.2,184.6c0,0-4,1.5-11.2,3.4l0.6,16.6c6.2-5.6,15-6.9,15-6.9c-5.3-9.7-0.7-14.6-0.8-18.1
	L214.2,184.6z"/>
<path style="fill:#F4B382;" d="M183.2,209c-4,5-1.8,10.2-0.1,13.2c5.2,9.3,11.1,10.4,18.8,10.6c10.2,0.3,14.8-26.4,14-30.9
	c-2-11.8-18-16.8-24.7-17.2c-7.3-0.4-5.5,2.2-5.4,5.1c0,0.1-0.4,0.5-0.4,0.5c-0.1,1,0,2.4-0.7,3.7c0,0,0.2,0.9,0.3,1.4
	c0,0.3,0,0.5-0.4,0.6c-1.1,0.4-2.1,0.7-2.5,1.1C180.8,198.4,185.1,206.7,183.2,209z"/>
<path style="fill:#D6876B;" d="M189.2,192.8c0,0-0.7-0.4-4-0.6c-0.4,0.2-1.1,0.6-0.6,1.5C185.1,194.5,186.8,193,189.2,192.8z"/>
<path style="fill:#CC785E;" d="M189.2,192.8c0,0-0.6-1.7-3.7-2.5c-0.4,0-0.8,0.4-0.9,0.6c-0.4,1,0.5,1.4,0.5,1.4
	C188.5,192.4,189.2,192.8,189.2,192.8z"/>
<path style="fill:#602F0F;" d="M202.6,234.5c12.4,0.3,29.4-17,13.1-38.6c-1.1-1.4-3.6-3.2-7.6-0.4c-2.8,2-4.7,4.6-4.7,4.6
	c-0.6,0.8-1.2,1.7-1.8,2.6c-0.7,1-0.1,7.2-1.3,7.3c-12.2,1.6-17.6,7.9-17.6,11.1C183.9,229,189.4,234.1,202.6,234.5z"/>
<path style="fill:#F4B382;" d="M205.4,203.8c-1.7-5.6-4-5.9-7.3-5.7l1.6,8.6l1.6,3.5C204.6,210,207.1,209.3,205.4,203.8z"/>
<path style="fill:#4C230C;" d="M222.5,216.2c2.8,2.6,1.3,8.5-3.4,13.3s-10.8,6.6-13.6,4s-1-7,3.7-11.8
	C213.9,216.9,219.7,213.6,222.5,216.2z"/>
<g>
	<path style="fill:#602F0F;" d="M199.1,208.8c0.1,1,0.1,1.9,0.1,2.6c-0.1,1-0.2,1.7-0.2,1.7l3.6-1.2c0-0.5,0-1.1,0.1-1.6
		c0,0-0.4,0.1-1.1,0.3h0.1c-0.5-0.8-1.1-2.1-1.6-3.9C200,206.7,198.6,205.7,199.1,208.8z"/>
	<path style="fill:#602F0F;" d="M224.6,216.6c3,2.7,1.2,9.1-3.9,14.3c-5.1,5.2-11.7,7.3-14.7,4.6s-0.9-7.5,4.2-12.8
		C215.3,217.5,221.6,213.9,224.6,216.6z"/>
</g>
<path style="fill:#4C230C;" d="M222.2,227.5c0.3,0.3-0.7,1.8-2.2,3.4c-1.6,1.6-3.1,2.7-3.4,2.4c-0.3-0.3,0.6-1.5,2.1-3.1
	C220.3,228.6,221.9,227.2,222.2,227.5z"/>
<g>
	<path style="fill:#F4B382;" d="M195.2,331.3c3.5,1.3,7.1-14.3,9.7-18.4l-0.5-6.2c14-31.8,17.3-47.9,17.3-47.9
		c9.2-18.6,21.2-55.6,22.6-63.4c1.4-7.8-13.9-12.4-17.2-5.1c-3.3,7.2-5.4,14-8,21.4c-2.7,7.4-7.7,35.8-9.4,42.5
		c-0.2,0.9-13.2,49.4-13.2,49.4s-0.7,1.9-3,4.6c-3.1,3.8-5.1,10.4-4.7,14.5C189,326.4,191.7,330.1,195.2,331.3z"/>
	<path style="fill:#F4B382;" d="M201.8,316.9c0,0-2.1,4.6,0.2,5.9c1.9,1.1,2.7,1.3,2.9-9.9C204.9,312.9,203.4,312.6,201.8,316.9z"/>
</g>
<g>
</g>
<g>
</g>
<g>
</g>
<g>
</g>
<g>
</g>
<g>
</g>
<g>
</g>
<g>
</g>
<g>
</g>
<g>
</g>
<g>
</g>
<g>
</g>
<g>
</g>
<g>
</g>
<g>
</g>
</svg>
