<?xml version="1.0" encoding="iso-8859-1"?>
<!-- Generator: Adobe Illustrator 19.0.0, SVG Export Plug-In . SVG Version: 6.00 Build 0)  -->
<svg version="1.1" id="Layer_1" xmlns="http://www.w3.org/2000/svg" xmlns:xlink="http://www.w3.org/1999/xlink" x="0px" y="0px"
	 viewBox="0 0 496.2 496.2" style="enable-background:new 0 0 496.2 496.2;" xml:space="preserve">
<path style="fill:#FFEFD6;" d="M0,248.1C0,111.1,111.1,0,248.1,0s248.1,111.1,248.1,248.1S385.1,496.2,248.1,496.2S0,385.1,0,248.1z
	"/>
<path style="fill:#B3233B;" d="M233.1,232.2c3.8,11.2,8.4,12.3,20.5,19.9c3.3,2.1,20.9,5.5,23.4,3.2c0.8-0.7,1.6-1.6,2.2-2.7
	c2-3.2,5.4-12.8-3.2-34.5c-3.3-10.3-6.1-36-13.4-49.9c-8.6-16.3-15.7-21.3-15.7-21.3l-11,6l-12.5,6.8c4.5,37.2,11.4,49,12,61.3
	C235.5,221.1,232,228.9,233.1,232.2z"/>
<path style="fill:#E2A379;" d="M259.2,255.9c0,0,1.7,6.7,2.5,14.9l13.1,2.9c-1.4-8.3,2.3-18.6,2.3-18.6c-12.6-0.6-14.6-3.1-26.1-4.6
	L259.2,255.9z"/>
<path style="fill:#F4B382;" d="M250,285.7c-3.7,5.2-1.1,10.3,0.8,13.2c5.8,8.9,11.8,9.6,19.5,9.3c10.2-0.4,13-27.3,12-31.7
	c-2.7-11.6-19.1-15.6-25.7-15.6c-7.3,0.1-5.4,2.5-5,5.4c0,0.1-0.3,0.5-0.3,0.5c0,1,0.1,2.4-0.5,3.7c0,0,0.3,0.9,0.3,1.4
	c0,0.3,0,0.5-0.3,0.7c-1,0.4-2,0.8-2.4,1.2C246.8,275.3,251.7,283.3,250,285.7z"/>
<path style="fill:#D6876B;" d="M254.9,269.1c0,0-0.7-0.4-4-0.3c-0.4,0.2-1.1,0.7-0.5,1.6C250.9,271.1,252.5,269.5,254.9,269.1z"/>
<path style="fill:#CC785E;" d="M254.9,269.1c0,0-0.7-1.7-3.8-2.3c-0.4,0.1-0.8,0.4-0.8,0.6c-0.4,1,0.6,1.4,0.6,1.4
	C254.2,268.7,254.9,269.1,254.9,269.1z"/>
<path style="fill:#602F0F;" d="M270.9,309.9c12.4-0.5,28.2-18.9,10.6-39.3c-1.2-1.4-3.8-2.9-7.6,0.1c-2.6,2.1-4.4,4.9-4.4,4.9
	c-0.5,0.8-1.1,1.7-1.6,2.7c-0.6,1.1,0.4,7.2-0.9,7.4c-12.1,2.4-17,9-16.9,12.2C251.9,305.6,257.7,310.4,270.9,309.9z"/>
<path style="fill:#F4B382;" d="M271.8,279.1c-2-5.4-4.3-5.6-7.6-5.2l2.1,8.5l1.8,3.4C271.4,285.3,273.8,284.5,271.8,279.1z"/>
<path style="fill:#4C230C;" d="M289.6,290.3c3,2.4,1.9,8.4-2.5,13.5s-10.3,7.3-13.3,4.9s-1.4-6.9,2.9-12
	C281.1,291.6,286.7,288,289.6,290.3z"/>
<g>
	<path style="fill:#602F0F;" d="M265.7,284.4c0.2,1,0.3,1.9,0.3,2.6c0,1.1-0.1,1.7-0.1,1.7l3.6-1.4c0-0.5,0-1.1-0.1-1.6
		c0,0-0.4,0.1-1.1,0.4h0.1c-0.5-0.8-1.2-2-1.8-3.8C266.6,282.3,265.1,281.4,265.7,284.4z"/>
	<path style="fill:#602F0F;" d="M291.7,290.6c3.1,2.5,1.8,9-3,14.6c-4.8,5.5-11.2,8-14.3,5.5c-3.1-2.5-1.4-7.5,3.4-13
		C282.5,292.1,288.6,288.1,291.7,290.6z"/>
</g>
<path style="fill:#4C230C;" d="M290.1,301.7c0.3,0.3-0.6,1.9-2,3.6c-1.5,1.7-2.9,2.8-3.3,2.6c-0.3-0.3,0.5-1.6,1.9-3.3
	C288.2,302.9,289.7,301.4,290.1,301.7z"/>
<path style="fill:#3D3C3C;" d="M240.6,146.7c-22.3,0.7-27.4,7.1-32.4,14.6c0,0-4.5,7.4-5.1,14.2c-1.2,14,7.5,22.2,7.5,22.2
	s31.2,5.1,31.7-2.1c0.3-5.9,0.7-11.3,1.1-16.1c0.4-4.3,3.7-32.4,3.7-32.4C246.1,146.7,240.6,146.7,240.6,146.7z"/>
<path style="fill:#E2A379;" d="M241.1,346.4c-4-0.9-15.4,0-16.9-0.1c-3.6-0.1-7.1-2.1-6.4-5.5c0.5-2.6,1.8-4.9,1.6-6.5
	c-0.8-8.3-4.5-33.2-5.3-43.2c-0.2-2.3-0.3-4.7-0.4-7.2c-0.3-9.9,20.1-4.3,19.8-0.7c-1,14.4-3.4,48.4-4.4,53.6c0,0,19.3,1.2,18.9,4.9
	C247.8,343.9,245.1,347.3,241.1,346.4z"/>
<path style="fill:#F4B382;" d="M236.6,349.4c-4-0.9-15.4,0-16.9-0.1c-3.6-0.1-7.1-2.1-6.4-5.5c0.5-2.6,1.8-4.9,1.6-6.5
	c-0.8-8.3-0.3-33.2-1.1-43.2c-0.2-2.3-0.3-4.7-0.4-7.2c-0.3-9.9,20.1-4.3,19.8-0.7c-1,14.4-7.6,48.4-8.6,53.6c0,0,19.3,1.2,18.9,4.9
	C243.3,346.9,240.6,350.3,236.6,349.4z"/>
<path style="fill:#3D3C3C;" d="M215.1,254.4c-1.4,11.5-2,22.4-1.7,32.4c3.3-1.2,16.8-1.6,19.8-0.7c0.2-3.6,3.8-31.3,3.8-31.3
	c1.1-8.8,8.2-60.4,5.9-76.5c-0.4-4.1-1.2-7.8-2-10.8c-1.6-5.9-34.1-2.5-35.4,5.6c1.1,17.6,9.5,49.9,10.6,58
	C217.1,239.1,215.1,254.4,215.1,254.4z"/>
<path style="fill:#F4B382;" d="M202.8,211.9c0.9-3.2,8.6-3,8.6-3l0.9,4.3l-1,0.2l6.1,14c9.2,3.5,48.5-2.3,55.8,4.9
	c3.5,3.5,8,13,4.1,15.8c-3.4,2.4-10.6,8-22.9-6.9c-1.7-2-34,1.5-39.7-0.5C214.7,240.4,202,215.1,202.8,211.9z"/>
<g>
</g>
<g>
</g>
<g>
</g>
<g>
</g>
<g>
</g>
<g>
</g>
<g>
</g>
<g>
</g>
<g>
</g>
<g>
</g>
<g>
</g>
<g>
</g>
<g>
</g>
<g>
</g>
<g>
</g>
</svg>
