<?xml version="1.0" encoding="iso-8859-1"?>
<!-- Generator: Adobe Illustrator 19.0.0, SVG Export Plug-In . SVG Version: 6.00 Build 0)  -->
<svg version="1.1" id="Layer_1" xmlns="http://www.w3.org/2000/svg" xmlns:xlink="http://www.w3.org/1999/xlink" x="0px" y="0px"
	 viewBox="0 0 496.2 496.2" style="enable-background:new 0 0 496.2 496.2;" xml:space="preserve">
<path style="fill:#FFEFD6;" d="M0,248.1C0,111.1,111.1,0,248.1,0s248.1,111.1,248.1,248.1S385.1,496.2,248.1,496.2S0,385.1,0,248.1z
	"/>
<path style="fill:#E2A379;" d="M227.1,452.3c4.2-2.6,15.8-2.5,15.6-5c-1.5-20.8,0.3-52,0.3-52c-1.5-20.7-12.3-60.7-10.6-68.5
	c1.7-7.7,17.6-6.1,17.9,1.8c1,9.3,2.2,13.7,3.2,23.3c1.5,11.9,3.3,36.9,2.3,43.8c-0.1,0.9-4.8,52.7-5.6,55.8
	c-0.9,3.5-3.1,2.6-10.2,2.6C233.6,454,223.2,454.6,227.1,452.3z"/>
<path style="fill:#3D3C3C;" d="M251.8,251.6c0,0,4.2-7.6,5.3-14.3c2.4-13.9-5.5-22.8-5.5-22.8s-30.7-7.8-31.7-0.7
	c-2,13.5-4,24.1-5.2,30.7c-0.8,4.4,19.8,10.5,19.8,10.5L251.8,251.6z"/>
<path style="fill:#B3233B;" d="M213.1,318.2c-0.4,12.3,9.8,15.4,16.5,28.5c0.8,1.6,8.4,6.1,12.4,6.2c4.4,0.1,8.9-0.6,12.3-4.2
	c2.6-2.8,7.8-11.5,3.5-34.5c-1.3-10.7-12-50.7-6.1-62.6c0,0-13.7,1.3-21.7-0.7s-15.3-6.3-15.3-6.3c-2.8,37.3,4.6,52.4,2.8,64.7
	C217.5,309.2,213.2,314.7,213.1,318.2z"/>
<path style="fill:#E2A379;" d="M232.7,352c0,0,3.2,8.9,5.2,16.9l13.4,0.9c-2.6-8-0.7-18.8-0.7-18.8c-12.5,1.3-17.7-3-21-4.3
	L232.7,352z"/>
<path style="fill:#F4B382;" d="M243.7,396.4c3.2,5.5,8.9,5.3,12.3,4.8c10.5-1.5,13.6-6.7,16.6-13.8c3.9-9.4-19.4-23.2-23.9-24.1
	c-11.7-2.4-22.1,10.9-24.9,16.9c-3,6.7,0,5.9,2.8,6.8c0.1,0,0.4,0.5,0.4,0.5c0.9,0.4,2.2,0.9,3.2,2c0,0,0.9,0.1,1.4,0.3
	c0.3,0.1,0.5,0.2,0.5,0.6c-0.1,1.1-0.1,2.2,0.1,2.7C233,395,242.2,393.9,243.7,396.4z"/>
<path style="fill:#D6876B;" d="M230.7,385.1c0,0-0.7,0.5-1.9,3.5c0,0.5,0.2,1.3,1.2,1.1C230.8,389.6,230.1,387.4,230.7,385.1z"/>
<path style="fill:#CC785E;" d="M230.7,385.1c0,0-1.8,0-3.7,2.5c-0.1,0.4,0.1,0.9,0.2,1c0.8,0.7,1.5,0,1.5,0
	C230.1,385.6,230.7,385.1,230.7,385.1z"/>
<path style="fill:#602F0F;" d="M274.5,387.4c4.7-11.5-5.5-33.5-31.4-26c-1.7,0.5-4.3,2.3-3.1,6.9c0.8,3.3,2.6,6.1,2.6,6.1
	c0.5,0.8,1.1,1.7,1.8,2.6c0.7,1,6.7,2.6,6.4,3.9c-2.9,12,1.1,19.2,4.1,20.4C262.7,403,269.4,399.6,274.5,387.4z"/>
<path style="fill:#F4B382;" d="M246.8,373.8c-5.8-0.4-6.9,1.6-7.9,4.8l8.6,1.6l3.8-0.2C252.3,376.8,252.6,374.2,246.8,373.8z"/>
<path style="fill:#4C230C;" d="M264.5,362.3c3.4-1.7,8.4,1.8,11.2,7.9s2.3,12.4-1.1,14.1s-6.9-1.6-9.7-7.6
	C262.1,370.6,261.1,364,264.5,362.3z"/>
<g>
	<path style="fill:#602F0F;" d="M249.2,381.6c1,0.2,1.8,0.6,2.5,0.9c1,0.4,1.5,0.8,1.5,0.8l0.2-3.8c-0.5-0.2-1-0.4-1.5-0.6
		c0,0,0,0.4-0.1,1.1v-0.1c-0.9,0.1-2.3,0.2-4.2,0.1C247.6,379.9,246.1,380.9,249.2,381.6z"/>
	<path style="fill:#602F0F;" d="M265.6,360.5c3.6-1.8,9,2.1,12,8.7c3.1,6.7,2.6,13.5-0.9,15.3c-3.6,1.8-7.4-1.8-10.4-8.5
		C263.1,369.5,262,362.3,265.6,360.5z"/>
</g>
<path style="fill:#4C230C;" d="M274.9,366.6c0.4-0.2,1.5,1.3,2.4,3.3s1.4,3.8,1,4s-1.2-1.1-2.2-3.1S274.5,366.8,274.9,366.6z"/>
<g>
	<path style="fill:#F4B382;" d="M230.1,455.8c4.2-2.6,15.8-2.5,15.6-5c-1.5-20.8-3-52-3-52c-1.5-20.7-12.3-60.7-10.6-68.5
		c1.7-7.7,17.6-6.1,17.9,1.8c1,9.3,2.2,13.7,3.2,23.3c1.5,11.9,3.3,36.9,2.3,43.8c-0.1,0.9-1.5,52.7-2.3,55.8
		c-0.9,3.5-3.1,2.6-10.2,2.6C236.6,457.5,226.2,458.1,230.1,455.8z"/>
	<path style="fill:#F4B382;" d="M244.4,38.7c4,1,2.1,18.4,3.3,21.3c0.6,1.5,2.8,2.9,2.8,6.4c0.1,4.6-3.6,7.1-3.5,8.7
		c0.6,8.3,5.2,31.4,5.7,41.4c0.1,2.3,0.2,5.2,0.2,7.7c0,9.9-20.2,4.3-19.8,0.7c1.4-14.4,3.3-49.7,4.4-54.8c0,0,0.6-15.9,1.1-19.7
		C239.1,48.2,240.4,37.6,244.4,38.7z"/>
</g>
<path style="fill:#3D3C3C;" d="M251.3,156.6c1.4-11.5,2-22.4,1.7-32.4c-3.3,1.2-16.8,1.6-19.8,0.7c-0.2,3.6-3.8,31.3-3.8,31.3
	c-1.1,8.8-13.8,60.4-11.5,76.5c0.4,4.2,1.2,7.8,2,10.8c1.6,5.9,34.1,2.5,35.4-5.6c-1.1-17.6-3.9-49.9-4.9-58
	C249.3,171.9,251.3,156.6,251.3,156.6z"/>
<g>
</g>
<g>
</g>
<g>
</g>
<g>
</g>
<g>
</g>
<g>
</g>
<g>
</g>
<g>
</g>
<g>
</g>
<g>
</g>
<g>
</g>
<g>
</g>
<g>
</g>
<g>
</g>
<g>
</g>
</svg>
