<?xml version="1.0" encoding="iso-8859-1"?>
<!-- Generator: Adobe Illustrator 19.0.0, SVG Export Plug-In . SVG Version: 6.00 Build 0)  -->
<svg version="1.1" id="Layer_1" xmlns="http://www.w3.org/2000/svg" xmlns:xlink="http://www.w3.org/1999/xlink" x="0px" y="0px"
	 viewBox="0 0 496.2 496.2" style="enable-background:new 0 0 496.2 496.2;" xml:space="preserve">
<path style="fill:#FFEFD6;" d="M0,248.1C0,111.1,111.1,0,248.1,0s248.1,111.1,248.1,248.1S385.1,496.2,248.1,496.2S0,385.1,0,248.1z
	"/>
<g>
	<path style="fill:#F4B382;" d="M250.4,39.2c1.8,10,4.5,28.1,4.5,28.1c6.3,6.8,13.1,13.6,19.3,20.5c6.3,6.8,12.3,13.8,18.5,20.7
		l2,2.3l-0.6,3.7c-1.2,7.8-2.2,15.6-3.3,23.5c-1,7.8-2.4,15.6-4.3,23.2c-1.9,7.6-4.2,15.2-6.7,22.7s-5.4,15-8.7,22.2l-6.4-1.1
		c-0.3-8.3,0.1-16.1,0.7-24.1c0.6-7.9,1.6-15.8,2.8-23.6c1.3-7.8,3.1-15.4,5.3-23.1c1.9-6.7,3.9-13.3,5.6-20.1
		c0.2-0.9-8.5-11.9-13.7-19.6c-5.2-7.6-10.9-15.3-16.1-23l-0.7-1.1v-0.8c-0.1-10.1-0.1-20.3,0-30.4L250.4,39.2z"/>
	<path style="fill:#F4B382;" d="M247.5,39.4c0.1,10.1,0.1,20.3,0,30.4v0.8l-0.7,1.1c-5.1,7.7-10.8,15.4-16,23
		c-4.5,6.6-9.1,13.1-13.7,19.7c-0.7,1,3.4,12.3,5.6,19.9c2.2,7.6,4,15.3,5.3,23.1c1.2,7.8,2.2,15.6,2.8,23.6s1,15.8,0.7,24.1
		l-6.4,1.1c-3.3-7.2-6.2-14.8-8.7-22.2c-2.5-7.5-4.8-15.1-6.7-22.7c-1.9-7.6-3.3-15.4-4.3-23.2s-2-15.7-3.3-23.5l-0.6-3.7l2-2.3
		c6.2-6.9,12.2-13.9,18.5-20.7c6.2-6.9,12.9-13.7,19.2-20.5c0,0,2.7-18.1,4.5-28.1L247.5,39.4z"/>
</g>
<path style="fill:#3D3C3C;" d="M220.4,265.7l1.2,20.3c0,0,19.2,6.7,26.5,6.7c7.3,0,26.5-6.7,26.5-6.7l1.2-20.3H220.4z"/>
<path style="fill:#F4B382;" d="M277.8,456.8c-4-1-13.5-8.7-14.8-9.3c-2.2-1.1-5.5-2.1-5.5-5.6c0-2.5,0.4-4.9,0.2-6.5
	c-0.6-8.3-4.2-24.3-4.8-34.4c-0.1-2.3-0.2-4.7-0.3-7.2c-0.1-9.9,20.2-3.9,19.8-0.3c-1.2,14.4-4,39.4-5.1,44.5
	c0,0,14.8,10.4,14.3,14.2C281.5,454.4,281.8,457.8,277.8,456.8z"/>
<path style="fill:#3D3C3C;" d="M255,361.5c-1.7,11.4-2.4,22.4-2.3,32.3c3.3-1.2,16.8-1.3,19.8-0.3c0.3-3.6,0.5-6.5,0.6-8.3
	c0.3-9,0.3-23,0.3-23c0.7-8.1,6.6-64,5.6-76.2s-3.2-20.2-3.2-20.2h-13c-2.7,8-12.5,6.2-13.9,14.3c0.8,17.7,3.2,50.1,4.1,58.2
	C254,346.2,255,361.5,255,361.5z"/>
<path style="fill:#F4B382;" d="M218.5,456.8c4-1,13.5-8.7,14.8-9.3c2.2-1.1,5.5-2.1,5.5-5.6c0-2.5-0.4-4.9-0.2-6.5
	c0.6-8.3,4.2-24.3,4.8-34.4c0.1-2.3,0.2-4.7,0.3-7.2c0.1-9.9-20.2-3.9-19.8-0.3c1.2,14.4,4,39.4,5.1,44.5c0,0-14.8,10.4-14.3,14.2
	C214.8,454.4,214.5,457.8,218.5,456.8z"/>
<path style="fill:#3D3C3C;" d="M241.3,361.5c1.7,11.4,2.4,22.4,2.3,32.3c-3.3-1.2-16.8-1.3-19.8-0.3c-0.3-3.6-0.5-6.5-0.6-8.3
	c-0.3-9-0.3-23-0.3-23c-0.7-8.1-6.6-64-5.6-76.2s3.2-20.2,3.2-20.2h13c2.7,8,12.5,6.2,13.9,14.3c-0.8,17.7-3.2,50.1-4.1,58.2
	C242.3,346.2,241.3,361.5,241.3,361.5z"/>
<path style="fill:#B3233B;" d="M274.6,198.4c1.9-11.5-7.5-32.4-7.5-32.4c-4.5-0.6-9.2-0.8-12.7-0.8h-12.6c-3.6,0-8.2,0.2-12.7,0.8
	c0,0-9.4,21-7.5,32.4c1.8,10.7,4.8,26.4-1.2,67.3h27.7l0,0h27.7C269.8,224.8,272.8,209.1,274.6,198.4z"/>
<path style="fill:#E2A379;" d="M256.5,153.7h-16.9c2.6,8,0.2,11.6,0.2,11.6s0.5,5.2,8.3,5.2c7.8,0,8.2-5.2,8.2-5.2
	S253.9,161.6,256.5,153.7z"/>
<path style="fill:#F4B382;" d="M265.4,130.4c0-20.1-7.8-24.7-17.3-24.7s-17.3,4.6-17.3,24.7c0,6.8,1.2,12.1,3,16.2
	c4,9,10.9,12.2,14.3,12.2s10.3-3.2,14.3-12.2C264.2,142.5,265.4,137.2,265.4,130.4z"/>
<path style="fill:#D6876B;" d="M253,150.6c0,0-2.2,1.1-4.9,1.1s-4.9-1.1-4.9-1.1c0-0.3,1.6-2.1,2.6-2.2c0.6-0.1,2.3,0.5,2.3,0.5
	s1.6-0.6,2.3-0.5C251.4,148.5,253,150.6,253,150.6z"/>
<path style="fill:#CC785E;" d="M253,150.6c0,0-2.2,2-4.9,2s-4.9-2-4.9-2s0.5-0.6,3.4-0.8c0.5,0,1.1,0.4,1.5,0.4s0.9-0.4,1.3-0.4
	C252.4,150,253,150.6,253,150.6z"/>
<ellipse style="fill:#4C230C;" cx="248.1" cy="106.7" rx="9.1" ry="6.2"/>
<path style="fill:#602F0F;" d="M266.1,131.3c0-20.1-5.5-25.5-18-25.5s-18,5.5-18,25.5c0,0,26.7-5.8,26.7-13.1
	C256.8,125.5,266.1,131.3,266.1,131.3z"/>
<g>
	<path style="fill:#F4B382;" d="M229.1,137.5c0.9,5.5,2.1,5.7,3.8,5.4l-1.8-11.9C229.4,131.3,228.1,132,229.1,137.5z"/>
	<path style="fill:#F4B382;" d="M265.1,131l-1.8,11.9c1.7,0.3,2.8,0,3.8-5.4C268.1,132,266.8,131.3,265.1,131z"/>
</g>
<g>
	<path style="fill:#602F0F;" d="M232.1,132.1c-0.1-0.6-0.1-1.1-0.1-1.6c0-0.6,0.1-1,0.1-1l-2,0.8c0,0.3,0,0.6,0,0.9
		c0,0,0.2-0.1,0.6-0.2c0,0,0,0-0.1,0c0.3,0.5,0.6,1.2,1,2.3C231.6,133.4,232.4,134,232.1,132.1z"/>
	<path style="fill:#602F0F;" d="M264.1,130.6c0,0.4,0,1-0.1,1.5c-0.3,1.8,0.5,1.2,0.5,1.2c0.3-1.1,0.7-1.8,1-2.3
		c0.3,0.1,0.6,0.2,0.6,0.2c0-0.3,0-0.6,0-0.9l-2-0.8C264,129.6,264.1,130,264.1,130.6"/>
</g>
<g>
</g>
<g>
</g>
<g>
</g>
<g>
</g>
<g>
</g>
<g>
</g>
<g>
</g>
<g>
</g>
<g>
</g>
<g>
</g>
<g>
</g>
<g>
</g>
<g>
</g>
<g>
</g>
<g>
</g>
</svg>
