<?xml version="1.0" encoding="iso-8859-1"?>
<!-- Generator: Adobe Illustrator 19.0.0, SVG Export Plug-In . SVG Version: 6.00 Build 0)  -->
<svg version="1.1" id="Layer_1" xmlns="http://www.w3.org/2000/svg" xmlns:xlink="http://www.w3.org/1999/xlink" x="0px" y="0px"
	 viewBox="0 0 496.2 496.2" style="enable-background:new 0 0 496.2 496.2;" xml:space="preserve">
<path style="fill:#FFEFD6;" d="M0,248.1C0,111.1,111.1,0,248.1,0s248.1,111.1,248.1,248.1S385.1,496.2,248.1,496.2S0,385.1,0,248.1z
	"/>
<path style="fill:#3D3C3C;" d="M248.7,299.4c-21-5.2-36.6-12.8-39.8-1.1c-3.9,14.2,0.5,23.4,0.5,23.4s23.8,16.8,26.9,10.2
	c2.5-5.4,4.8-10.3,6.9-14.5C245.6,312.4,248.7,299.4,248.7,299.4z"/>
<path style="fill:#F4B382;" d="M184.3,347.9c0.5-4.1,18-4.4,20.7-6c1.4-0.8,2.5-3.1,6-3.6c4.5-0.7,7.5,2.6,9.1,2.3
	c8.2-1.6,30.7-3.5,40.7-5.4c2.3-0.4,4.6-1.2,7.1-1.1c3.3,0.1,3.6,19.7,2.7,19.7c-14.4-0.5-48.9-2.7-54.2-3.1c0,0-15.9,1.4-19.7,1.4
	C194.4,352.1,183.8,352,184.3,347.9z"/>
<path style="fill:#3D3C3C;" d="M270.2,340.4l-2.6,13.3c11.9,0.8,48.9-1.4,48.5-14.8c-0.7-27.6-67-34.8-67-34.8l-0.4-5.7
	c0.7-6-42.3,15.2-39.3,23.3c3.3,8.8,9.7,14.9,23,16.1C248.9,339.2,270.2,340.4,270.2,340.4z"/>
<path style="fill:#333333;" d="M270.2,340.4h25.9C296.1,340.4,279.6,344,270.2,340.4z"/>
<path style="fill:#B3233B;" d="M254,235c1.4-12.2-8.6-16.1-14.2-29.7c-0.7-1.7-7.9-6.7-11.9-7.1c-4.4-0.4-9-0.1-12.6,3.2
	c-2.8,2.6-8.7,10.8-6.2,34.1c1.5,40-0.4,64.5-0.4,64.5c18.4,6.7,40-1.7,40-1.7c-1.1-35.8-2.5-42.6,0.3-54.7
	C248.9,243.7,253.6,238.5,254,235z"/>
<path style="fill:#E2A379;" d="M237.1,199.8c0,0-0.4-6.7-1.8-14.8l-13.3-2c2,8.1-2.8,16-2.8,16c12.6-0.4,17.4,4.7,20.5,6.3
	L237.1,199.8z"/>
<path style="fill:#F4B382;" d="M243.7,166c3.3-5.5,0.3-10.4-1.8-13.1c-6.4-8.4-12.5-8.7-20.1-7.8c-10.1,1.2-10.9,28.2-9.5,32.6
	c3.6,11.4,20.2,14.1,26.8,13.5c7.3-0.6,5.2-2.9,4.6-5.8c0-0.1,0.3-0.6,0.3-0.6c-0.1-1-0.3-2.3,0.2-3.7c0,0-0.4-0.9-0.4-1.3
	c-0.1-0.3-0.1-0.5,0.3-0.7c1-0.5,2-1,2.3-1.4C247.6,176.2,242.2,168.6,243.7,166z"/>
<path style="fill:#D6876B;" d="M240.1,182.9c0,0,0.7,0.3,4,0c0.4-0.2,1-0.8,0.3-1.6C244,180.7,242.4,182.3,240.1,182.9z"/>
<path style="fill:#CC785E;" d="M240.1,182.9c0,0,0.8,1.6,4,2c0.4-0.1,0.7-0.5,0.8-0.7c0.3-1-0.7-1.3-0.7-1.3
	C240.9,183.2,240.1,182.9,240.1,182.9z"/>
<path style="fill:#602F0F;" d="M221,143.5c-12.3,1.4-26.7,21-7.5,40c1.3,1.3,4,2.6,7.5-0.7c2.5-2.3,4-5.2,4-5.2
	c0.5-0.9,0.9-1.8,1.4-2.9c0.5-1.1-0.9-7.1,0.3-7.4c11.9-3.3,16.3-10.3,15.9-13.5C240.3,146.3,234.1,142,221,143.5z"/>
<path style="fill:#F4B382;" d="M222.5,174.3c2.5,5.3,4.8,5.2,8,4.6l-2.8-8.3l-2-3.2C222.4,168.1,220.1,169.1,222.5,174.3z"/>
<path style="fill:#4C230C;" d="M203.8,164.5c-3.2-2.1-2.5-8.2,1.5-13.6c4-5.4,9.7-8,12.9-5.9s2,6.8-2,12.2
	C212.2,162.5,207,166.6,203.8,164.5z"/>
<g>
	<path style="fill:#602F0F;" d="M228.1,168.5c-0.3-1-0.4-1.9-0.5-2.6c-0.1-1,0-1.7,0-1.7l-3.4,1.7c0.1,0.5,0.1,1.1,0.2,1.6
		c0,0,0.4-0.2,1-0.5h-0.1c0.6,0.7,1.3,1.9,2.1,3.7C227.4,170.7,229,171.5,228.1,168.5z"/>
	<path style="fill:#602F0F;" d="M201.8,164.3c-3.3-2.2-2.5-8.9,1.8-14.8c4.3-5.9,10.5-8.9,13.9-6.6c3.3,2.2,2,7.3-2.4,13.2
		C210.8,162.1,205.1,166.6,201.8,164.3z"/>
</g>
<path style="fill:#4C230C;" d="M202.5,153.2c-0.4-0.3,0.4-1.9,1.7-3.7s2.7-3.1,3.1-2.8s-0.4,1.6-1.7,3.4
	C204.3,151.8,202.9,153.4,202.5,153.2z"/>
<path style="fill:#F4B382;" d="M314.9,322.6c1-2.8-8.6-6.9-18.3-11c-3.4-1.4-9.5-4.7-9.5-4.7c-21.8-21.9-30-36.6-30-36.6
	c-9.2-18.7-21.3-58.1-26.6-63.9c-5.3-5.8-18.3,3.5-14.5,10.6c2.5,8.4,4.9,14.1,10.2,23.3c8.8,18.6,16.7,30.8,20.1,36.9
	c5.6,9.9,30.1,33.3,30.1,33.3s7.2,7.3,10.1,9.3c3,2.1,7.2,4.2,11.7,4.2C301.7,324,313.6,326.1,314.9,322.6z"/>
<g>
</g>
<g>
</g>
<g>
</g>
<g>
</g>
<g>
</g>
<g>
</g>
<g>
</g>
<g>
</g>
<g>
</g>
<g>
</g>
<g>
</g>
<g>
</g>
<g>
</g>
<g>
</g>
<g>
</g>
</svg>
