<?xml version="1.0" encoding="iso-8859-1"?>
<!-- Generator: Adobe Illustrator 19.0.0, SVG Export Plug-In . SVG Version: 6.00 Build 0)  -->
<svg version="1.1" id="Layer_1" xmlns="http://www.w3.org/2000/svg" xmlns:xlink="http://www.w3.org/1999/xlink" x="0px" y="0px"
	 viewBox="0 0 496.2 496.2" style="enable-background:new 0 0 496.2 496.2;" xml:space="preserve">
<path style="fill:#FFEFD6;" d="M0,248.1C0,111.1,111.1,0,248.1,0s248.1,111.1,248.1,248.1S385.1,496.2,248.1,496.2S0,385.1,0,248.1z
	"/>
<path style="fill:#B3233B;" d="M275.9,266.7c12,2.4,18.8-4,21.9-12.6c1.9-5.2,2.5-10.6,1.9-11.9c-8.8-18.5-60.1-30.6-79.7-29.6
	c0,0-3.7,13.4-7,21c-3.2,7.6-8.7,14.1-8.7,14.1c36.4,8.7,51.6,9.4,63.4,13.1C267.7,260.9,272.5,266,275.9,266.7z"/>
<path style="fill:#E2A379;" d="M297.9,260c0,0,7.4,0.5,15.6-0.2l3-13.1c-8.3,1.3-16.7-4.5-16.7-4.5c-0.7,12.6-5.6,17.5-7.4,20.5
	L297.9,260z"/>
<path style="fill:#F4B382;" d="M317.5,280.9c4.9,4,10.2,1.8,13.2,0.2c9.3-5.1,10.4-11.1,10.7-18.8c0.3-10.2-26.3-14.9-30.8-14.2
	c-11.8,1.9-16.9,17.9-17.3,24.6c-0.5,7.3,2.1,5.5,5,5.4c0.1,0,0.5,0.4,0.5,0.4c1,0.1,2.4,0,3.7,0.7c0,0,0.9-0.2,1.4-0.2
	c0.3,0,0.5,0,0.6,0.4c0.3,1.1,0.7,2.1,1.1,2.5C307,283.3,315.2,279,317.5,280.9z"/>
<path style="fill:#D6876B;" d="M301.4,274.8c0,0-0.4,0.7-0.6,4c0.2,0.4,0.6,1.1,1.5,0.6C303,279,301.6,277.2,301.4,274.8z"/>
<path style="fill:#CC785E;" d="M301.4,274.8c0,0-1.7,0.6-2.6,3.7c0,0.4,0.4,0.8,0.6,0.9c1,0.4,1.4-0.5,1.4-0.5
	C300.9,275.5,301.4,274.8,301.4,274.8z"/>
<path style="fill:#602F0F;" d="M343.1,261.7c0.4-12.4-16.9-29.5-38.5-13.3c-1.4,1.1-3.2,3.6-0.4,7.5c1.9,2.8,4.6,4.7,4.6,4.7
	c0.8,0.6,1.7,1.2,2.6,1.8c1,0.7,7.2,0.1,7.3,1.4c1.5,12.2,7.8,17.6,11,17.7C337.6,280.4,342.7,274.9,343.1,261.7z"/>
<path style="fill:#F4B382;" d="M312.4,258.7c-5.6,1.7-5.9,3.9-5.7,7.2l8.6-1.6l3.5-1.6C318.6,259.5,318,257,312.4,258.7z"/>
<path style="fill:#4C230C;" d="M324.9,241.6c2.6-2.8,8.5-1.3,13.3,3.4c4.7,4.7,6.5,10.8,3.9,13.6s-7,1-11.8-3.7
	C325.6,250.2,322.4,244.4,324.9,241.6z"/>
<g>
	<path style="fill:#602F0F;" d="M317.4,265.1c1-0.1,1.9-0.1,2.6-0.1c1,0.1,1.7,0.2,1.7,0.2l-1.2-3.6c-0.5,0-1.1,0-1.6-0.1
		c0,0,0.1,0.4,0.3,1.1v-0.1c-0.8,0.5-2.1,1-3.9,1.6C315.3,264.1,314.3,265.5,317.4,265.1z"/>
	<path style="fill:#602F0F;" d="M325.4,239.6c2.7-3,9.1-1.2,14.3,4c5.2,5.2,7.2,11.7,4.5,14.7s-7.5,0.9-12.8-4.3
		C326.3,248.9,322.7,242.6,325.4,239.6z"/>
</g>
<path style="fill:#4C230C;" d="M336.3,242c0.3-0.3,1.8,0.7,3.4,2.3s2.6,3.1,2.3,3.4c-0.3,0.3-1.5-0.6-3.1-2.2
	C337.4,244,336,242.4,336.3,242z"/>
<path style="fill:#3D3C3C;" d="M220,212.7c-24.7,2.3-34.2,8.9-41,19c-7.9,11.6-3.1,22-3.1,22s23.4,17.4,26.6,10.9
	c2.6-5.3,5.1-10.1,7.3-14.3C212.4,245.2,220,212.7,220,212.7z"/>
<path style="fill:#E2A379;" d="M150.9,279c0.4-4.1,17.8-5.1,20.5-6.8c1.3-0.8,2.4-3.2,5.8-3.8c4.5-0.8,7.6,2.4,9.2,2
	c8.1-1.9,30.6-4.6,40.5-6.8c2.3-0.5,4.6-1.4,7-1.4c3.3,0,4.3,19.6,3.4,19.6c-14.4,0-49-1-54.2-1.2c0,0-15.8,2-19.6,2.1
	C161.2,282.8,150.5,283.1,150.9,279z"/>
<path style="fill:#3D3C3C;" d="M236.2,268.5l-2.9,13.3c11.9,1.2,48.9-0.1,48.9-13.5c0-27.7-71-27.3-71-27.3c0.5-4.7,1-8.1,1-8.1
	c0.8-6-39.1,12.9-36.3,21.1c3,8.9,9.3,15.2,22.6,16.7C214.9,272.5,236.2,268.5,236.2,268.5z"/>
<path style="fill:#F4B382;" d="M150.8,282.7c0.8,3.7,25.7-5.1,25.7-5.1c34.4-4.8,48-14,48-14c20.7-1.9,60.3-7.7,67.7-10.6
	s3.2-18.4-4.7-17.3c-7.9,1-14.7,2.8-22.5,4.4c-7.7,1.6-36.4,8.8-43,10.9c-0.9,0.3-47.2,18.3-47.2,18.3s-2,0.4-5.5-0.1
	C164.6,268.5,150.1,279,150.8,282.7z"/>
<g>
</g>
<g>
</g>
<g>
</g>
<g>
</g>
<g>
</g>
<g>
</g>
<g>
</g>
<g>
</g>
<g>
</g>
<g>
</g>
<g>
</g>
<g>
</g>
<g>
</g>
<g>
</g>
<g>
</g>
</svg>
