<?xml version="1.0" encoding="iso-8859-1"?>
<!-- Generator: Adobe Illustrator 19.0.0, SVG Export Plug-In . SVG Version: 6.00 Build 0)  -->
<svg version="1.1" id="Layer_1" xmlns="http://www.w3.org/2000/svg" xmlns:xlink="http://www.w3.org/1999/xlink" x="0px" y="0px"
	 viewBox="0 0 496.2 496.2" style="enable-background:new 0 0 496.2 496.2;" xml:space="preserve">
<path style="fill:#FFEFD6;" d="M0,248.1C0,111.1,111.1,0,248.1,0s248.1,111.1,248.1,248.1S385.1,496.2,248.1,496.2S0,385.1,0,248.1z
	"/>
<path style="fill:#E2A379;" d="M60,280.7c4.1-2.5,15-4.9,19.8-8.8c2.8-2.3,8.4-6.5,11.9-6.6c5.8-0.2,8.4,3,10,3.2
	c10,1.4,36.5-7.1,42.5-7.3c9.9-0.3,7.4,18.8,3.8,18.9c-29.3,1.1-44.1,0.6-49.3,0.3c0,0-30.2,4.7-34,4.7
	C62.5,285.3,56.5,282.9,60,280.7z"/>
<path style="fill:#333333;" d="M176.5,260.7c-11.5-0.6-22.5-0.4-32.4,0.6c1.5,3.2,2.8,16.1,2.1,19.1c3.6,0,31.5,2.1,31.5,2.1
	c8.8,0.4,60.8,3.7,76.7,0.3c4.1-0.7,7.7-1.8,10.7-2.8c5.7-2-15-28.8-15-28.8c-15.4,0.2-42.3,7.1-50.2,8.7
	C191.9,261.5,176.5,260.7,176.5,260.7z"/>
<path style="fill:#3D3C3C;" d="M223.2,260.4c-0.7,10.9,2.7,17.1,7.2,20.3c6.3,4.7,30.1,6.1,30.1-0.5c0-13.6-4.9-45.5-15.8-43.6
	c-5,0.9-9.5,2.4-13.1,5.5C226.1,246.6,223.7,252.4,223.2,260.4z"/>
<path style="fill:#E2A379;" d="M436,272.4c-4.3,2.1-15.4,3.5-20.6,6.9c-3,2-9,5.7-12.5,5.5c-5.8-0.3-8.1-3.8-9.7-4.1
	c-9.8-2.3-37,3.7-43,3.4c-9.9-0.6-5.7-19.4-2.1-19.2c29.3,1.5,44,3.4,49.1,4.2c0,0,30.5-2,34.3-1.6C434,267.6,439.7,270.5,436,272.4
	z"/>
<path style="fill:#B3233B;" d="M314.4,269.7c12.3,0.4,15.4-9.8,28.5-16.5c1.6-0.8,6.1-8.4,6.2-12.4c0.1-4.4-0.6-8.9-4.2-12.3
	c-2.8-2.6-11.1-5.9-34.1-1.7c-7,0.8-24.1,4.2-41,7.3c-8.8,1.6-21.8,2-24.8,2.4c0,0,4.1,8.3,2.1,16.3s-6.3,15.3-6.3,15.3
	c37.3,2.8,52.4-4.7,64.7-2.9C305.4,265.3,310.9,269.6,314.4,269.7z"/>
<path style="fill:#E2A379;" d="M348.6,250.1c0,0,8.9-3.2,16.9-5.2l0.9-13.4c-8,2.6-18.8,0.7-18.8,0.7c1.3,12.5-3,17.7-4.3,21
	L348.6,250.1z"/>
<path style="fill:#F4B382;" d="M392.9,240.5c6.2-1.3,7.8-6.8,8.4-10.1c1.9-10.4-2-15.1-7.8-20.1c-7.7-6.7-28.1,11-30.4,15
	c-5.9,10.4,3.3,24.4,8.2,28.9c5.4,4.9,5.6,1.8,7.4-0.5c0.1-0.1,0.6-0.2,0.6-0.2c0.7-0.7,1.5-1.8,2.9-2.4c0,0,0.4-0.9,0.7-1.2
	c0.2-0.3,0.3-0.4,0.7-0.2c1.1,0.4,2,0.8,2.6,0.8C388.1,250.3,390.1,241.1,392.9,240.5z"/>
<path style="fill:#D6876B;" d="M378.1,249.3c0,0,0.3,0.8,2.7,3c0.4,0.1,1.3,0.3,1.4-0.8C382.3,250.6,380,250.6,378.1,249.3z"/>
<path style="fill:#CC785E;" d="M378.1,249.3c0,0-0.6,1.7,1.2,4.3c0.4,0.3,0.9,0.2,1,0.1c0.9-0.5,0.5-1.4,0.5-1.4
	C378.3,250.1,378.1,249.3,378.1,249.3z"/>
<path style="fill:#602F0F;" d="M394.1,208.5c-9.4-8.1-33.5-5.5-34.6,21.5c-0.1,1.8,0.8,4.8,5.6,5.1c3.4,0.2,6.6-0.6,6.6-0.6
	c0.9-0.3,2-0.5,3.1-0.9c1.2-0.4,4.6-5.5,5.7-4.8c10.4,6.5,18.6,5,20.7,2.6C405.2,224.6,404.1,217.2,394.1,208.5z"/>
<path style="fill:#F4B382;" d="M372.5,230.5c-2.2,5.4-0.6,7.1,2,9l4.2-7.7l1-3.7C377.1,226.2,374.7,225.1,372.5,230.5z"/>
<path style="fill:#4C230C;" d="M367.1,210.1c-0.6-3.8,4.4-7.4,11-8.1c6.6-0.7,12.5,1.7,13.1,5.5s-3.7,6.1-10.3,6.8
	C374.2,215,367.7,213.8,367.1,210.1z"/>
<g>
	<path style="fill:#602F0F;" d="M380.6,230.7c0.5-0.9,1.1-1.6,1.6-2.1c0.7-0.8,1.3-1.2,1.3-1.2l-3.6-1.4c-0.4,0.4-0.7,0.8-1.1,1.2
		c0,0,0.4,0.2,1,0.4h-0.1c-0.2,0.9-0.5,2.3-1.3,4C378.5,231.7,378.9,233.4,380.6,230.7z"/>
	<path style="fill:#602F0F;" d="M365.8,208.5c-0.6-4,4.8-7.8,12.1-8.6c7.3-0.8,13.7,1.8,14.3,5.7c0.6,4-4.1,6.4-11.3,7.2
		C373.6,213.6,366.4,212.4,365.8,208.5z"/>
</g>
<path style="fill:#4C230C;" d="M374.6,201.5c-0.1-0.4,1.7-1,3.9-1.2s4.1-0.1,4.1,0.4c0.1,0.4-1.4,0.8-3.6,1.1
	S374.6,201.9,374.6,201.5z"/>
<path style="fill:#3D3C3C;" d="M318.2,281.7c11.4,1.7,22.4,2.4,32.3,2.3c-1.2-3.3-1.3-16.2-0.4-19.2c-3.6-0.3-31.2-4.9-31.2-4.9
	c-8.8-1.3-60.2-9.3-76.3-7.3c-4.2,0.4-7.8,1-10.9,1.8c-5.9,1.5,12.3,30,12.3,30c15.3,1.2,42.7-3.2,50.8-4.1
	C302.9,279.4,318.2,281.7,318.2,281.7z"/>
<g>
	<path style="fill:#F4B382;" d="M395.1,279c-21.6,4.2-28.6,3.7-34.5,3.3c-5.9-0.3-12.8,1-13.9,1.1c-0.2,0.8-0.4,1.5-0.5,2.2
		c-0.7,4,0.3,6.3,0.9,7.3c0,0,1.9,3.3,5.4,3.6c6.9,0.6,45.9-9.7,45.9-9.7L395.1,279z"/>
	<path style="fill:#F4B382;" d="M358.1,292.6c-1.1-5.1-3.7-13.2-3.7-13.2c-1.8-6.6-3.7-15.6-5.4-21.6c-2.5-9.9-3-13-3.3-15.6
		c-0.4-4.2-1.9-10.1-5.5-12.1c-5.6-3.1-14.9-1.6-15.3,5.4c-0.5,10.2,14.5,46.4,19.9,54.6c2.2,3.4,4.3,5.5,5.4,5.8
		c1.1,0.4,3.9-0.1,6.7-2.2C357.3,293.4,357.7,293,358.1,292.6z"/>
	<path style="fill:#F4B382;" d="M395.1,279c-0.2,0.1-0.1,1.4,2.9,7.8c0,0,1.9-0.7,5.4-0.7c4.9-0.1,11.2-2.8,14.1-5.8
		c2.5-2.5,3.6-6.9,2.2-10.4c-1.3-3.5-15.5,3.8-20.3,4.5L395.1,279z"/>
	<path style="fill:#F4B382;" d="M404.6,274.2c0,0,4.8-1.3,4.4-4c-0.4-2.2-0.7-2.9-9.5,4.2C399.5,274.5,400.2,275.8,404.6,274.2z"/>
</g>
<g>
</g>
<g>
</g>
<g>
</g>
<g>
</g>
<g>
</g>
<g>
</g>
<g>
</g>
<g>
</g>
<g>
</g>
<g>
</g>
<g>
</g>
<g>
</g>
<g>
</g>
<g>
</g>
<g>
</g>
</svg>
