<?xml version="1.0" encoding="iso-8859-1"?>
<!-- Generator: Adobe Illustrator 19.0.0, SVG Export Plug-In . SVG Version: 6.00 Build 0)  -->
<svg version="1.1" id="Layer_1" xmlns="http://www.w3.org/2000/svg" xmlns:xlink="http://www.w3.org/1999/xlink" x="0px" y="0px"
	 viewBox="0 0 496.2 496.2" style="enable-background:new 0 0 496.2 496.2;" xml:space="preserve">
<path style="fill:#FFEFD6;" d="M0,248.1C0,111.1,111.1,0,248.1,0s248.1,111.1,248.1,248.1S385.1,496.2,248.1,496.2S0,385.1,0,248.1z
	"/>
<path style="fill:#E2A379;" d="M250.1,203.2c-1.4-1.3-13.6,7.2-17.5,14.8c-1.6,3-5.3,6.8-5.3,6.8c-19.8,21.6-33.5,31.5-33.5,31.5
	c-16,13.2-51.6,34.2-56,40.7c-4.5,6.5,7.7,17,13.7,11.7c7.6-4.4,12.6-8,20.3-15.3c16.1-12.9,26.1-23.3,31.2-28.1
	c8.3-7.7,30.7-35,30.7-35s3.7-1.9,5.3-3.9c2.9-3.5,4.8-6.8,6.1-10.7C247.3,210,251.5,204.5,250.1,203.2z"/>
<path style="fill:#B3233B;" d="M174.8,276.1c-11.2-5.1-38,8.7-43.3,15.6c-1.8,4-1.2,11.5,0.9,16c3,3.1,11.3,7.5,23.1,7.5
	c9.2,0,24.3-4.3,50-5.3c16.5-0.7,28.2,11.4,28.2,11.4l7.5-35.4c-12.6-3.5-33.4-10.7-59.7-2.2C181.4,283.6,177.9,277.5,174.8,276.1z"
	/>
<path style="fill:#E2A379;" d="M130.6,295.2c-0.9,0.7-4.1,0.5-14-2.5l-0.3,18c7.9-2.9,20.9,0.3,20.9,0.3
	C129.7,302.7,130.6,295.2,130.6,295.2z"/>
<path style="fill:#F4B382;" d="M87.6,300.1c-5.5,3.2-5.4,8.8-4.9,12.2c1.4,10.5,6.6,13.7,13.6,16.7c9.3,4,23.4-19.1,24.3-23.6
	c2.5-11.7-10.6-22.3-16.7-25c-6.6-3-5.9,0-6.9,2.7c0,0.1-0.5,0.4-0.5,0.4c-0.4,0.9-0.9,2.2-2,3.2c0,0-0.1,0.9-0.3,1.4
	c-0.1,0.3-0.2,0.5-0.6,0.5c-1.1-0.1-2.2-0.1-2.7,0.1C89.2,289.4,90.1,298.6,87.6,300.1z"/>
<path style="fill:#D6876B;" d="M99,287.2c0,0-0.5-0.7-3.5-2c-0.4,0-1.3,0.1-1.1,1.2C94.6,287.2,96.8,286.5,99,287.2z"/>
<path style="fill:#CC785E;" d="M99,287.2c0,0,0.1-1.8-2.5-3.7c-0.4-0.1-0.9,0.1-1,0.2c-0.8,0.8,0,1.5,0,1.5
	C98.6,286.5,99,287.2,99,287.2z"/>
<path style="fill:#602F0F;" d="M96.3,330.9c11.4,4.9,33.6-5.1,26.3-31.1c-0.5-1.7-2.2-4.3-6.9-3.1c-3.3,0.8-6.1,2.6-6.1,2.6
	c-0.8,0.5-1.7,1.1-2.7,1.8c-1,0.7-2.7,6.6-3.9,6.3c-11.9-3-19.2,0.9-20.5,3.9C80.8,319,84.1,325.7,96.3,330.9z"/>
<path style="fill:#F4B382;" d="M110.1,303.3c0.5-5.8-1.6-6.9-4.7-7.9l-1.7,8.6l0.2,3.8C107.1,308.8,109.7,309.1,110.1,303.3z"/>
<path style="fill:#4C230C;" d="M121.5,321.2c1.7,3.4-1.9,8.4-8,11.1s-12.4,2.2-14.1-1.2c-1.7-3.4,1.6-6.9,7.7-9.6
	C113.2,318.7,119.8,317.7,121.5,321.2z"/>
<g>
	<path style="fill:#602F0F;" d="M102.4,305.7c-0.2,1-0.6,1.8-0.9,2.5c-0.4,1-0.9,1.5-0.9,1.5l3.8,0.2c0.2-0.5,0.4-1,0.6-1.5
		c0,0-0.4,0-1.1-0.1h0.1c-0.1-0.9-0.2-2.3-0.1-4.2C104,304.1,103.1,302.6,102.4,305.7z"/>
	<path style="fill:#602F0F;" d="M123.2,322.3c1.8,3.6-2.2,8.9-8.9,11.9c-6.7,3-13.5,2.5-15.3-1.1s1.9-7.4,8.6-10.4
		C114.3,319.8,121.5,318.7,123.2,322.3z"/>
</g>
<path style="fill:#4C230C;" d="M117.1,331.6c0.2,0.4-1.3,1.5-3.3,2.4s-3.9,1.3-4.1,0.9s1.1-1.2,3.1-2.1S116.9,331.2,117.1,331.6z"/>
<path style="fill:#3D3C3C;" d="M233.6,321.2c8.6,12.5,27.5,9.6,35.3,4c24.4-17.6-14-42-16.3-39.1c-1,1.3-11.6-0.4-11.6-0.4
	C237.7,290.2,233.6,321.2,233.6,321.2z"/>
<path style="fill:#F4B382;" d="M427.9,176.9c-2.1,4.3-10.2,12-12.3,17.9c-1.2,3.4-3.8,9.9-6.7,11.9c-4.8,3.2-8.7,1.8-10.2,2.5
	c-9.2,4-27.5,25.5-32.5,28.8c-8.3,5.5-15.9-13.1-13-15.1c24.4-16.4,37.1-23,41.7-25.5c0,0,23.2-19.9,26.5-21.9
	C423.4,174.3,429.7,173.2,427.9,176.9z"/>
<path style="fill:#3D3C3C;" d="M338.2,256.1c10.1-5.6,19.4-11.5,27.2-17.6c-5.8-2.1-11.8-11.6-12.2-15.6
	c-3.1,1.9-27.6,15.3-27.6,15.3c-7.7,4.3-53.7,28.8-65.4,40c-3.1,2.8-5.6,5.5-7.6,8c-3.8,4.7,24,29.1,24,29.1
	c0.8-2.5,36.1-40.7,42.1-46.2C324.6,263.4,338.2,256.1,338.2,256.1z"/>
<path style="fill:#F4B382;" d="M251.8,205c-1.4-1.3-13.6,7.2-17.5,14.8c-1.6,3-5.3,6.8-5.3,6.8c-19.8,21.6-33.5,31.5-33.5,31.5
	c-16,13.2-51.6,34.2-56,40.7c-4.4,6.5,7.7,17,13.7,11.7c7.6-4.4,12.6-8,20.3-15.3c16.1-12.9,26.1-23.3,31.2-28.1
	c8.3-7.7,30.7-35,30.7-35s3.7-1.9,5.3-3.9c2.9-3.5,4.8-6.7,6.1-10.7C249,211.8,253.2,206.3,251.8,205z"/>
<g>
</g>
<g>
</g>
<g>
</g>
<g>
</g>
<g>
</g>
<g>
</g>
<g>
</g>
<g>
</g>
<g>
</g>
<g>
</g>
<g>
</g>
<g>
</g>
<g>
</g>
<g>
</g>
<g>
</g>
</svg>
