<?xml version="1.0" encoding="iso-8859-1"?>
<!-- Generator: Adobe Illustrator 19.0.0, SVG Export Plug-In . SVG Version: 6.00 Build 0)  -->
<svg version="1.1" id="Layer_1" xmlns="http://www.w3.org/2000/svg" xmlns:xlink="http://www.w3.org/1999/xlink" x="0px" y="0px"
	 viewBox="0 0 496.2 496.2" style="enable-background:new 0 0 496.2 496.2;" xml:space="preserve">
<path style="fill:#FFEFD6;" d="M0,248.1C0,111.1,111.1,0,248.1,0s248.1,111.1,248.1,248.1S385.1,496.2,248.1,496.2S0,385.1,0,248.1z
	"/>
<path style="fill:#B3233B;" d="M255.8,228.4c12,2.5,16.9-7,30.9-11.3c1.8-0.5,7.5-7.3,8.2-11.1c0.9-4.3,1-8.9-2-12.9
	c-2.3-3-9.9-9.7-33.3-9.5c-10.8-0.6-75.9-2.2-75.9-2.2l2.4,36.9c7.7-1.5,49.8,0.2,61.5,4.1C247.7,222.5,252.3,227.7,255.8,228.4z"/>
<path style="fill:#E2A379;" d="M190.2,126.8c2.8-1.1,7.1,8.8,11.2,18.1c1.5,3.4,4.8,9.4,4.8,9.4c11.3,9.1,19.3,14.3,19.3,14.3
	c18.8,9,53.9,21.2,59.8,26.5s-3.3,18.3-10.4,14.6c-7-3.7-14-7.1-20.6-11.3c-11.9-4.9-29.4-15.5-35.4-18.8
	c-9.9-5.5-16.1-14.4-16.1-14.4s-7.4-7.1-9.4-10c-2.1-3-4.2-7.2-4.4-11.7C188.9,140,186.7,128.1,190.2,126.8z"/>
<path style="fill:#F4B382;" d="M168.2,112c2.8-1.1,7,8.5,11.2,18.1c1.5,3.4,4.8,9.4,4.8,9.4c22.1,21.6,36.9,29.6,36.9,29.6
	c18.8,9,58.3,20.6,64.2,25.9c5.9,5.3-3.3,18.3-10.4,14.6c-8.4-2.4-14.1-4.7-23.4-9.9c-18.7-8.6-31-16.3-37.1-19.7
	c-9.9-5.5-33.7-29.7-33.7-29.7s-7.4-7.1-9.4-10c-2.1-3-4.2-7.2-4.4-11.7C166.9,125.2,164.7,113.3,168.2,112z"/>
<path style="fill:#E2A379;" d="M292.4,214.9c0,0,9.3-1.6,17.5-2.2l3.2-13c-8.3,1.2-18.6-2.5-18.6-2.5c-0.9,12.5-6,16.9-7.9,19.9
	L292.4,214.9z"/>
<path style="fill:#F4B382;" d="M327.2,224.8c5.6,3.1,10.4,0,13-2.2c8.2-6.7,8.3-12.8,7.1-20.4c-1.5-10-28.5-9.9-32.9-8.4
	c-11.3,4-13.4,20.7-12.7,27.3c0.9,7.2,3.1,5.1,5.9,4.4c0.1,0,0.6,0.3,0.6,0.3c1-0.1,2.3-0.4,3.8,0.1c0,0,0.9-0.4,1.3-0.5
	c0.3-0.1,0.5-0.1,0.7,0.3c0.5,1,1,1.9,1.5,2.3C317.3,229.1,324.6,223.4,327.2,224.8z"/>
<path style="fill:#D6876B;" d="M310.3,221.8c0,0-0.3,0.8,0.1,4c0.2,0.4,0.8,1,1.6,0.3C312.6,225.5,310.9,224,310.3,221.8z"/>
<path style="fill:#CC785E;" d="M310.3,221.8c0,0-1.6,0.9-1.9,4c0.1,0.4,0.5,0.7,0.7,0.7c1,0.2,1.3-0.8,1.3-0.8
	C309.9,222.5,310.3,221.8,310.3,221.8z"/>
<path style="fill:#602F0F;" d="M349,201.3c-1.8-12.3-21.9-26-40.2-6.2c-1.2,1.3-2.5,4.1,0.9,7.5c2.4,2.4,5.4,3.8,5.4,3.8
	c0.9,0.4,1.9,0.9,2.9,1.3c1.1,0.5,7.1-1.2,7.5,0c3.7,11.7,10.8,15.9,14,15.4C346.9,220.7,350.9,214.4,349,201.3z"/>
<path style="fill:#F4B382;" d="M318.2,203.9c-5.2,2.6-5.1,4.9-4.3,8.1l8.2-3.1l3.1-2.2C324.5,203.6,323.4,201.2,318.2,203.9z"/>
<path style="fill:#4C230C;" d="M327.5,184.9c2-3.2,8.1-2.8,13.7,1c5.5,3.8,8.3,9.5,6.3,12.7s-6.7,2.2-12.3-1.6
	C329.7,193.2,325.5,188.1,327.5,184.9z"/>
<g>
	<path style="fill:#602F0F;" d="M324.3,209.3c1-0.3,1.9-0.5,2.6-0.5c1-0.1,1.7-0.1,1.7-0.1l-1.8-3.4c-0.5,0.1-1,0.1-1.6,0.2
		c0,0,0.2,0.4,0.5,1v-0.1c-0.7,0.6-1.9,1.4-3.6,2.3C322.1,208.7,321.3,210.2,324.3,209.3z"/>
	<path style="fill:#602F0F;" d="M327.5,182.8c2.1-3.4,8.8-2.8,14.8,1.3s9.2,10.2,7.1,13.6c-2.1,3.4-7.3,2.2-13.3-1.9
		S325.4,186.2,327.5,182.8z"/>
</g>
<path style="fill:#4C230C;" d="M338.7,183.2c0.2-0.4,1.9,0.3,3.8,1.6c1.8,1.3,3.2,2.6,2.9,3c-0.2,0.4-1.6-0.3-3.4-1.6
	C340.1,185,338.5,183.6,338.7,183.2z"/>
<path style="fill:#3D3C3C;" d="M183.7,181.4c-22.3,0.7-27.4,7.1-32.4,14.6c0,0-4.5,7.4-5.1,14.2c-1.2,14,7.5,22.2,7.5,22.2
	s31.2,5.1,31.7-2.1c0.3-5.9,0.7-11.3,1.1-16.1C186.9,208.7,183.7,181.4,183.7,181.4z"/>
<path style="fill:#E2A379;" d="M184.8,381.1c-4-0.9-15.9,0-17.4-0.1c-3.6-0.1-7.1-2.1-6.4-5.5c0.5-2.6,1.8-4.9,1.6-6.5
	c-0.8-8.3-4.5-33.2-5.3-43.2c-0.2-2.3-0.3-4.7-0.4-7.2c-0.3-9.9,20.1-4.3,19.8-0.7c-1,14.4-3.4,48.4-4.4,53.6c0,0,19.3,1.2,18.9,4.9
	C190.9,378.7,188.8,382,184.8,381.1z"/>
<path style="fill:#F4B382;" d="M180.3,384.1c-4-0.9-15.9,0-17.4-0.1c-3.6-0.1-7.1-2.1-6.4-5.5c0.5-2.6,1.8-4.9,1.6-6.5
	c-0.8-8.3-0.3-33.2-1.1-43.2c-0.2-2.3-0.3-4.7-0.4-7.2c-0.3-9.9,20.1-4.3,19.8-0.7c-1,14.4-7.6,48.4-8.6,53.6c0,0,19.3,1.2,18.9,4.9
	C186.4,381.7,184.3,385,180.3,384.1z"/>
<path style="fill:#3D3C3C;" d="M158.3,289.2c-1.4,11.5-2,22.4-1.7,32.4c3.3-1.2,16.8-1.6,19.8-0.7c0.2-3.6,3.8-31.3,3.8-31.3
	c1.1-8.8,8.2-60.4,5.9-76.5c-0.4-4.1-1.2-7.8-2-10.8c-1.6-5.9-34.1-2.5-35.4,5.6c1.1,17.6,9.5,49.9,10.6,58
	C160.3,273.9,158.3,289.2,158.3,289.2z"/>
<g>
</g>
<g>
</g>
<g>
</g>
<g>
</g>
<g>
</g>
<g>
</g>
<g>
</g>
<g>
</g>
<g>
</g>
<g>
</g>
<g>
</g>
<g>
</g>
<g>
</g>
<g>
</g>
<g>
</g>
</svg>
