<?xml version="1.0" encoding="iso-8859-1"?>
<!-- Generator: Adobe Illustrator 19.0.0, SVG Export Plug-In . SVG Version: 6.00 Build 0)  -->
<svg version="1.1" id="Layer_1" xmlns="http://www.w3.org/2000/svg" xmlns:xlink="http://www.w3.org/1999/xlink" x="0px" y="0px"
	 viewBox="0 0 496.2 496.2" style="enable-background:new 0 0 496.2 496.2;" xml:space="preserve">
<path style="fill:#FFEFD6;" d="M0,248.1C0,111.1,111.1,0,248.1,0s248.1,111.1,248.1,248.1S385.1,496.2,248.1,496.2S0,385.1,0,248.1z
	"/>
<path style="fill:#E2A379;" d="M334.9,311.9c-6.1-2.1-15.4-2-15.5-4.6c-0.8-20.8-2.5-52-2.5-52c1.5-20.7,12.3-50.7,10.6-58.5
	c-1.7-7.7-17.6-6.1-17.9,1.8c-1,9.3-2.2,13.7-3.2,23.3c-1.5,11.9-3.3,26.9-2.3,33.8c0.1,0.9,6.8,47,6.8,47s0.2,5.7,1,8.8
	c0.9,3.5,3.2,2.7,10.2,3.5C327.2,315.6,339.1,313.3,334.9,311.9z"/>
<path style="fill:#3D3C3C;" d="M236.5,195c0,0-10.3,4.4-15.4,9.3c-11.7,11.3-12.3,23.3-12.3,23.3s-0.4,17.3,6.6,15.7
	c11.4-2.7,28.2,1.6,29-5.1c0.5-3.8,2.4-5.2,3.2-5.6c4.2-1.7,0.6-18.2,0.6-18.2L236.5,195z"/>
<path style="fill:#E2A379;" d="M323.4,217.7c0,0,5.4,2.9,6.3,10.1l14.2-8.6c-6.5-2.8-11-18.3-11-18.3c-2.7,8-12.4,14.5-15.4,16.3
	L323.4,217.7z"/>
<path style="fill:#B3233B;" d="M305.1,222.7c10.1-2.1,15.5-0.7,24-8.5c1.1-1,2.2-2.7,2.8-4.4c1-2.8,2.1-6.1,0.7-9.8
	c-1.5-4.1-4.3-10.7-8.5-13.3c-5.1-3-14.3-9-31-6.7c-30,4.2-43.3,9-56.6,15c0,0,8.4,17,9.5,25.2s1.6,12.5,1.6,12.5
	c18.8-9.5,29-16.5,41.5-17C289.1,215.7,293.1,225.1,305.1,222.7z"/>
<path style="fill:#F4B382;" d="M329.8,246c-0.5,6.4,4.3,9.4,7.3,11c9.5,4.7,15,2.3,21.5-1.8c8.6-5.5-2.6-30.1-5.8-33.4
	c-8.3-8.6-24.4-3.8-30.1-0.4c-6.3,3.8-3.4,4.9-1.6,7.2c0.1,0.1,0,0.6,0,0.6c0.5,0.9,1.3,2,1.5,3.5c0,0,0.7,0.6,1,1
	c0.2,0.3,0.3,0.4,0,0.8c-0.7,0.9-1.4,1.7-1.5,2.3C321.9,238.6,330.1,243,329.8,246z"/>
<path style="fill:#D6876B;" d="M325.6,229.3c0,0-0.8,0-3.6,1.8c-0.2,0.4-0.6,1.1,0.4,1.6C323.2,233,323.8,230.8,325.6,229.3z"/>
<path style="fill:#CC785E;" d="M325.6,229.3c0,0-1.5-1.1-4.5,0c-0.3,0.3-0.4,0.8-0.4,1c0.2,1,1.2,0.9,1.2,0.9
	C324.8,229.3,325.6,229.3,325.6,229.3z"/>
<path style="fill:#602F0F;" d="M360.2,256.2c10.4-6.7,14.7-30.6-10.8-39.3c-1.7-0.6-4.8-0.6-6.5,3.9c-1.2,3.2-1.3,6.5-1.3,6.5
	c0,1,0,2,0,3.2s4,6,3,6.8c-9.2,8.2-10.1,16.4-8.3,19.1C341.6,262.2,349,263.3,360.2,256.2z"/>
<path style="fill:#F4B382;" d="M345.2,229.2c-4.5-3.6-6.6-2.6-9.2-0.6l6.2,6.2l3.3,2C348,234.8,349.8,232.9,345.2,229.2z"/>
<path style="fill:#4C230C;" d="M366.4,229.9c3.8,0.5,5.9,6.3,4.7,12.9c-1.2,6.6-5.2,11.5-9,11s-4.8-5.3-3.6-11.8
	C359.7,235.3,362.6,229.3,366.4,229.9z"/>
<g>
	<path style="fill:#602F0F;" d="M342.8,236.9c0.7,0.7,1.2,1.5,1.6,2.1c0.5,0.9,0.8,1.6,0.8,1.6l2.3-3c-0.3-0.4-0.6-0.9-0.9-1.3
		c0,0-0.3,0.3-0.7,0.9c0,0,0-0.1,0.1-0.1c-0.9-0.4-2-1.1-3.5-2.3C342.4,234.7,340.7,234.6,342.8,236.9z"/>
	<path style="fill:#602F0F;" d="M368.3,229.1c4,0.6,6.1,6.8,4.8,14.1c-1.3,7.2-5.6,12.6-9.6,12s-5-5.7-3.7-12.9
		C361.1,235,364.3,228.5,368.3,229.1z"/>
</g>
<path style="fill:#4C230C;" d="M372.5,239.4c0.4,0.1,0.5,1.9,0.1,4.1c-0.4,2.2-1.1,3.9-1.5,3.9c-0.4-0.1-0.4-1.6,0-3.8
	C371.4,241.4,372,239.4,372.5,239.4z"/>
<g>
	<path style="fill:#F4B382;" d="M325,313.8c-4.2-2.6-15.8-3.9-15.6-6.5c1.5-20.8,7.5-52,7.5-52c1.5-20.7,12.3-50.7,10.6-58.5
		c-1.7-7.7-17.6-6.1-17.9,1.8c-1,9.3-2.2,13.7-3.2,23.3c-1.5,11.9-3.3,26.9-2.3,33.8c0.1,0.9-3,52.7-2.2,55.8
		c0.9,3.5,3.2,2.7,10.2,3.5C317.2,315.6,328.8,316.1,325,313.8z"/>
	<path style="fill:#F4B382;" d="M117.4,313c0.4-4.1,17.8-5.1,20.5-6.8c1.3-0.8,2.4-3.2,5.8-3.8c4.5-0.8,7.6,2.4,9.2,2
		c8.1-1.9,25.8-4.6,35.7-6.8c2.3-0.5,4.6-1,7-1.4c9.8-1.7,7,19.3,3.4,19.6c-14.4,1-44.3-1-49.5-1.2c0,0-15.8,2-19.6,2.1
		C127.7,316.7,117,317.1,117.4,313z"/>
</g>
<path style="fill:#3D3C3C;" d="M231.3,293.5c-11.6,0.1-25.8,1-35.6,2.7c1.7,3.1,3.9,16.4,3.4,19.5c3.6-0.2,51.5,3.7,58.8-4.3
	c7.7-8.3-16.3-74.8-13.8-76.7c4.9-3.6-9.4-35.7-17.4-33.8c0,0-10.8,8.4-16.4,20.4C200.8,241.7,231.3,293.5,231.3,293.5z"/>
<g>
</g>
<g>
</g>
<g>
</g>
<g>
</g>
<g>
</g>
<g>
</g>
<g>
</g>
<g>
</g>
<g>
</g>
<g>
</g>
<g>
</g>
<g>
</g>
<g>
</g>
<g>
</g>
<g>
</g>
</svg>
