<?xml version="1.0" encoding="iso-8859-1"?>
<!-- Generator: Adobe Illustrator 19.0.0, SVG Export Plug-In . SVG Version: 6.00 Build 0)  -->
<svg version="1.1" id="Layer_1" xmlns="http://www.w3.org/2000/svg" xmlns:xlink="http://www.w3.org/1999/xlink" x="0px" y="0px"
	 viewBox="0 0 496.2 496.2" style="enable-background:new 0 0 496.2 496.2;" xml:space="preserve">
<path style="fill:#FFEFD6;" d="M0,248.1C0,111.1,111.1,0,248.1,0s248.1,111.1,248.1,248.1S385.1,496.2,248.1,496.2S0,385.1,0,248.1z
	"/>
<g>
	<path style="fill:#D89D75;" d="M284.6,234.3c-2.3-4.7-6.7-12.2-6.7-12.2c-3.3-6-4.7-12.1-7.7-17.5c-4.7-9.1-6-11.9-6.8-14.4
		c-1.4-4-4.2-9.4-8.2-10.5c-6.2-1.7-14.9,2-13.6,8.9c1.9,10.1,22.4,39.7,29.6,46.5c3,2.8,5.5,4.3,6.6,4.4c1.2,0.1,3.8-1,5.9-3.8
		C284.1,235.2,284.3,234.8,284.6,234.3z"/>
	<path style="fill:#D89D75;" d="M310.9,252.6c-8-4.8-12-11.2-18-16.8c-4.3-4-11-7.8-12-8.3c-0.6,0.6-1.1,1.1-1.5,1.6
		c-2.8,3-3,5.5-3.1,6.7c0,0-0.1,3.8,2.7,5.9c5.5,4.1,30.3,19.1,30.3,19.1L310.9,252.6z"/>
	<path style="fill:#D89D75;" d="M310.9,252.6c-0.2,0-0.8,1.1-1.6,8.2c0,0,2,0.5,5,2.3c4.2,2.5,11,3.5,15,2.5c3.4-0.8,6.7-4,7.4-7.7
		c0.7-3.7-15.2-4.9-19.6-6.9L310.9,252.6z"/>
	<path style="fill:#D89D75;" d="M321.5,253.6c0,0,4.8,1.4,5.8-1.1c0.8-2.1,0.9-2.9-10.3-1.4C317.1,251.1,316.9,252.6,321.5,253.6z"
		/>
</g>
<path style="fill:#E2A379;" d="M334.6,361.7c-4.1-0.2-20.3,0.1-21.8,0.3c-3.6,0.5-7.4-0.9-7.3-4.3c0.1-2.6-0.2-5.2,0.5-6.7
	c4.1-9.3,4.6-31.1,7.1-46.1c0.6-3.4,24.9-6.7,23.8-3.2c-6.5,19.8-18.2,42.8-20.8,50.1c0,0,21.4,0.9,21.6,4.7
	C337.8,358.6,338.7,361.9,334.6,361.7z"/>
<path style="fill:#333333;" d="M319.3,285.9c-1.7,4.3-3.3,6.4-6.2,18.9c3.1-1.5,20.7-3.9,23.8-3.2c1.5-6,10.5-33,3-40.8
	c-7.9-8.2-80.2,9.8-81.9,7.2c0,0-36.4,24.6-21.3,34.8C255.3,315.2,319.3,285.9,319.3,285.9z"/>
<path style="fill:#F4B382;" d="M74.1,358.2c0.4-4.1,17.8-5.1,20.5-6.8c1.3-0.8,2.4-3.2,5.8-3.8c4.5-0.8,7.6,2.4,9.2,2
	c8.1-1.9,30.6-4.6,40.5-6.8c2.3-0.5,4.6-1,7-1.4c9.8-1.7,7,19.3,3.4,19.6c-14.4,1-49-1-54.2-1.2c0,0-15.8,2-19.6,2.1
	C84.4,361.9,73.8,362.3,74.1,358.2z"/>
<path style="fill:#3D3C3C;" d="M188.9,338.9c-11.6,0.1-22.5,1-32.3,2.7c1.7,3.1,3.9,16.4,3.4,19.5c3.6-0.2,31.5-0.5,31.5-0.5
	c7.8-0.1,55.5-46.7,75-70c1.5-1.7,4-6,6.4-10.6c0,0-31.1-18.9-34.6-18.2c-5.8,3-11.5,8.9-13.8,16.4c-1.3,4.1-1,11.5-2.4,13.6
	C209.1,310.3,188.9,338.9,188.9,338.9z"/>
<path style="fill:#B3233B;" d="M280.5,206.1c0.4-12.3-9.8-15.4-16.5-28.5c-0.8-1.6-8.4-6.1-12.4-6.2c-4.4-0.1-8.9,0.6-12.3,4.2
	c-2.6,2.8-7.8,11.5-3.5,34.5c1,8.9,8.8,45.6,1.9,52c0,0,12.2,9.3,20.2,11.3s15.3,6.3,15.3,6.3c8.4-19.7,1-52.4,2.8-64.7
	C276.1,215.1,280.4,209.5,280.5,206.1z"/>
<path style="fill:#E2A379;" d="M260.6,172.5c0,0-3.2-8.9-5.2-16.9l-13.4-0.9c2.6,8,0.7,18.8,0.7,18.8c12.5-1.3,17.7,3,21,4.3
	L260.6,172.5z"/>
<path style="fill:#F4B382;" d="M265.8,136.6c2.4-5.9-1.2-10.3-3.6-12.7c-7.6-7.4-13.6-6.8-21-4.8c-9.8,2.6-6.7,29.5-4.7,33.6
	c5.2,10.8,22.1,11,28.5,9.5c7.1-1.7,4.7-3.6,3.7-6.4c0-0.1,0.2-0.6,0.2-0.6c-0.2-1-0.7-2.3-0.3-3.7c0,0-0.5-0.8-0.6-1.3
	c-0.1-0.3-0.1-0.5,0.2-0.7c0.9-0.6,1.8-1.2,2.1-1.7C271.2,146.1,264.7,139.4,265.8,136.6z"/>
<path style="fill:#D6876B;" d="M264.7,153.8c0,0,0.8,0.2,4-0.6c0.3-0.3,0.9-0.9,0.1-1.6C268.2,151.1,266.9,153,264.7,153.8z"/>
<path style="fill:#CC785E;" d="M264.7,153.8c0,0,1.1,1.5,4.2,1.4c0.4-0.2,0.6-0.6,0.7-0.8c0.1-1.1-0.9-1.2-0.9-1.2
	C265.5,154.1,264.7,153.8,264.7,153.8z"/>
<path style="fill:#602F0F;" d="M240.1,117.6c-12,3.2-23.4,24.7-1.7,40.7c1.4,1.1,4.4,2,7.4-1.7c2.1-2.7,3.2-5.8,3.2-5.8
	c0.3-0.9,0.7-1.9,1-3c0.4-1.2-2-6.9-0.8-7.4c11.3-5,14.6-12.5,13.8-15.6C259.6,117.6,252.8,114.3,240.1,117.6z"/>
<path style="fill:#F4B382;" d="M246,147.9c3.2,4.8,5.5,4.5,8.6,3.4l-4-7.8l-2.5-2.9C245.1,141.7,242.8,143,246,147.9z"/>
<path style="fill:#4C230C;" d="M226.1,140.8c-3.4-1.7-3.7-7.8-0.5-13.7c3.1-5.9,8.5-9.4,11.9-7.7c3.4,1.7,2.9,6.5-0.2,12.4
	C234.2,137.7,229.5,142.5,226.1,140.8z"/>
<g>
	<path style="fill:#602F0F;" d="M250.7,141.3c-0.4-0.9-0.7-1.8-0.8-2.5c-0.2-1-0.3-1.7-0.3-1.7l-3.2,2.2c0.1,0.5,0.3,1,0.4,1.5
		c0,0,0.3-0.2,0.9-0.6c0,0-0.1,0-0.1,0.1c0.7,0.7,1.6,1.7,2.6,3.3C250.4,143.6,252,144.2,250.7,141.3z"/>
	<path style="fill:#602F0F;" d="M224.1,141c-3.6-1.7-3.8-8.4-0.3-14.9c3.4-6.5,9.2-10.3,12.8-8.5c3.6,1.7,3,7-0.4,13.4
		C232.7,137.5,227.7,142.7,224.1,141z"/>
</g>
<path style="fill:#4C230C;" d="M223.2,129.8c-0.4-0.2,0.1-2,1.2-3.9c1.1-2,2.2-3.4,2.6-3.2c0.4,0.2-0.1,1.6-1.2,3.6
	C224.8,128.3,223.6,130,223.2,129.8z"/>
<g>
	<path style="fill:#F4B382;" d="M272.5,245.7c-0.9-5.1-3.2-13.3-3.2-13.3c-1.6-6.7-3.2-15.7-4.6-21.7c-2.1-10-2.6-13.1-2.7-15.7
		c-0.2-4.2-1.5-10.2-5.1-12.3c-5.5-3.3-14.9-2.1-15.4,4.9c-0.8,10.2,12.9,46.8,18,55.3c2.1,3.5,4.1,5.6,5.2,6s3.9,0.1,6.7-2
		C271.7,246.4,272.1,246.1,272.5,245.7z"/>
	<path style="fill:#F4B382;" d="M309.4,256.2c-20.5-7.9-26.2-12-31.1-15.4c-4.8-3.4-11.4-5.9-12.3-6.4c-0.6,0.6-1.1,1.1-1.5,1.6
		c-2.8,3-3,5.5-3.1,6.7c0,0-0.1,3.8,2.7,5.9c5.5,4.1,44.2,16,44.2,16L309.4,256.2z"/>
	<path style="fill:#F4B382;" d="M309.4,256.2c-0.2,0-0.8,1.1-1.6,8.2c0,0,2,0.5,5,2.3c4.2,2.5,11,3.5,15,2.5c3.4-0.8,6.7-4,7.4-7.7
		c0.7-3.7-15.2-4.9-19.6-6.9L309.4,256.2z"/>
	<path style="fill:#F4B382;" d="M320,257.1c0,0,4.8,1.4,5.8-1.1c0.8-2.1,0.9-2.9-10.3-1.4C315.6,254.6,315.5,256.1,320,257.1z"/>
</g>
<g>
</g>
<g>
</g>
<g>
</g>
<g>
</g>
<g>
</g>
<g>
</g>
<g>
</g>
<g>
</g>
<g>
</g>
<g>
</g>
<g>
</g>
<g>
</g>
<g>
</g>
<g>
</g>
<g>
</g>
</svg>
