<?xml version="1.0" encoding="iso-8859-1"?>
<!-- Generator: Adobe Illustrator 19.0.0, SVG Export Plug-In . SVG Version: 6.00 Build 0)  -->
<svg version="1.1" id="Layer_1" xmlns="http://www.w3.org/2000/svg" xmlns:xlink="http://www.w3.org/1999/xlink" x="0px" y="0px"
	 viewBox="0 0 496.2 496.2" style="enable-background:new 0 0 496.2 496.2;" xml:space="preserve">
<path style="fill:#FFEFD6;" d="M0,248.1C0,111.1,111.1,0,248.1,0s248.1,111.1,248.1,248.1S385.1,496.2,248.1,496.2S0,385.1,0,248.1z
	"/>
<path style="fill:#E2A379;" d="M216.3,309.9c-4.8-4.2-4.9-13-5.9-13.8c-3.8-3-2.6-6.9,0.1-9c2.1-1.6,3.3-1.6,4.2-3
	c4.7-6.9,12.7-23.1,18.5-31.3c1.3-1.9,2.8-3.8,4.3-5.7c6.2-7.8,22.5,4.8,20,7.4c-10,10.4-32.3,32.3-36.3,35.7
	c3.5,11.3,3.5,16,3.7,17s3.8,3,2,4.6C225,313.2,219.6,312.8,216.3,309.9z"/>
<path style="fill:#333333;" d="M237.5,247c3.3,1.1,18.3,4.8,20,7.4c2.5-2.6-0.5-17.7-0.5-17.7c-1-10.2-11.8-42.7-13.3-51.7
	c0,0-22-7.4-28.2-2C215.4,183.1,236.1,246.7,237.5,247z"/>
<path style="fill:#E2A379;" d="M384,297.8c0.3-3-10.3-4.7-20.3-6.3c-3.7-0.6-10.3-2.3-10.3-2.3c-11.6-8.7-18.6-15.2-18.6-15.2
	c-13.3-16-33.9-47-40.5-51.4s-16.9,7.8-11.6,13.7s10.4,11.8,16.1,17.2c7.7,10.3,22.2,24.6,27,29.7c7.8,8.3,17.9,12,17.9,12
	s8.7,5.4,12,6.7c3.4,1.3,8,2.3,12.4,1.3C371.5,302.3,383.6,301.5,384,297.8z"/>
<path style="fill:#B3233B;" d="M259,245.1c8.6,8.8,17.9,3.5,32,7.8c1.8,0.5,10.2-1.9,13-4.7c3.1-3.1,5.8-6.9,5.5-11.8
	c-0.2-3.8-2.9-13.6-22.5-26.4c-8.6-6.5-22.3-19-39.6-33.1c-6.3-1.1-22.8-10.4-22.8-10.4c-8.1-1.7-14.2,25.9-14.2,25.9
	c25,27.8,37.5,33.5,45.1,43.3C255.5,235.7,256.5,242.6,259,245.1z"/>
<path style="fill:#E2A379;" d="M297,254.2c0,0,8.6,3.8,15.8,7.9l9.9-9.1c-7.6-3.6-14.1-12.4-14.1-12.4c-7.7,10-14.4,10.7-17.6,12.2
	L297,254.2z"/>
<path style="fill:#F4B382;" d="M335.9,278.3c5.4,3.4,10.3,0.5,13.1-1.5c8.6-6.3,8.9-12.3,8.2-20c-1-10.1-28-11.5-32.4-10.1
	c-11.5,3.4-14.5,19.9-14.1,26.6c0.5,7.3,2.8,5.2,5.7,4.7c0.1,0,0.6,0.3,0.6,0.3c1-0.1,2.4-0.3,3.7,0.3c0,0,0.9-0.3,1.4-0.4
	c0.3-0.1,0.5,0,0.7,0.3c0.5,1,0.9,2,1.4,2.4C325.7,282,333.4,276.7,335.9,278.3z"/>
<path style="fill:#D6876B;" d="M319.1,274.3c0,0-0.4,0.7-0.1,4c0.2,0.4,0.7,1.1,1.6,0.4C321.3,278.2,319.6,276.6,319.1,274.3z"/>
<path style="fill:#CC785E;" d="M319.1,274.3c0,0-1.6,0.8-2.1,3.9c0.1,0.4,0.5,0.7,0.7,0.8c1,0.3,1.3-0.7,1.3-0.7
	C318.8,275.1,319.1,274.3,319.1,274.3z"/>
<path style="fill:#602F0F;" d="M358.9,256c-1.2-12.3-20.5-27.1-39.9-8.3c-1.3,1.3-2.7,4,0.5,7.5c2.3,2.5,5.2,4.1,5.2,4.1
	c0.9,0.5,1.8,1,2.8,1.5c1.1,0.6,7.1-0.8,7.4,0.4c3,11.9,9.9,16.5,13.2,16.2C355.7,275.2,360.1,269.1,358.9,256z"/>
<path style="fill:#F4B382;" d="M328.1,256.9c-5.3,2.4-5.3,4.7-4.8,7.9l8.3-2.6l3.3-2C334.3,256.9,333.4,254.5,328.1,256.9z"/>
<path style="fill:#4C230C;" d="M338.3,238.4c2.2-3.1,8.3-2.3,13.6,1.7c5.3,4.1,7.8,9.9,5.6,13c-2.2,3.1-6.9,1.8-12.2-2.2
	C340,246.8,336.1,241.5,338.3,238.4z"/>
<g>
	<path style="fill:#602F0F;" d="M333.8,262.6c1-0.3,1.9-0.4,2.6-0.4c1-0.1,1.7,0,1.7,0l-1.6-3.5c-0.5,0-1.1,0.1-1.6,0.1
		c0,0,0.2,0.4,0.4,1v-0.1c-0.8,0.6-1.9,1.3-3.7,2.1C331.6,261.9,330.7,263.4,333.8,262.6z"/>
	<path style="fill:#602F0F;" d="M338.5,236.3c2.3-3.3,8.9-2.3,14.7,2.1c5.8,4.5,8.7,10.7,6.3,14c-2.3,3.3-7.4,1.8-13.2-2.6
		C340.5,245.4,336.1,239.6,338.5,236.3z"/>
</g>
<path style="fill:#4C230C;" d="M349.6,237.3c0.3-0.4,1.9,0.4,3.7,1.8c1.8,1.4,3,2.8,2.8,3.1c-0.3,0.4-1.6-0.4-3.4-1.7
	C350.9,239.2,349.3,237.7,349.6,237.3z"/>
<g>
	<path style="fill:#F4B382;" d="M403.8,315.4c0.3-3-10-4.7-20.3-6.3c-3.7-0.6-10.3-2.3-10.3-2.3c-26.4-16.1-37.8-28.4-37.8-28.4
		c-13.3-16-34.4-51.4-41-55.8c-6.6-4.4-16.9,7.8-11.6,13.7c4.4,7.5,8.1,12.5,15.4,20.2c13,16,23.5,26,28.2,31.1
		c7.8,8.3,37.1,25.3,37.1,25.3s8.7,5.4,12,6.7c3.4,1.3,8,2.3,12.4,1.3C391.3,320,403.4,319.2,403.8,315.4z"/>
	<path style="fill:#F4B382;" d="M161.1,318.6c-2-3-3.6-7.4-0.9-9.5c2.1-1.6,4.5-2.6,5.4-4c4.7-6.9,19.1-23.1,24.9-31.3
		c1.3-1.9,2.8-3.8,4.3-5.7c6.2-7.8,18.1,9.6,15.6,12.2c-10,10.4-34.4,27.5-38.4,30.8c0,0,3.2,16.5,3.8,17.8c0.6,1.2,4.8,4.3,2.7,5.7
		c-2.8,1.7-5.8,0.5-9.2-1C161.6,330.3,161.7,319.4,161.1,318.6z"/>
</g>
<g>
	<path style="fill:#3D3C3C;" d="M209.6,252.1c0,0-16.1,15.6-14.7,15.9c3.3,1.1,13.9,9.6,15.6,12.2c15.4-16,7.7-7.3,19.1-17.6
		c2-1.9-6.3-56.8-7.8-65.8l-31.7-5.1C193.1,214.6,209.6,252.1,209.6,252.1z"/>
	<path style="fill:#3D3C3C;" d="M247.3,176.9c-16.2-15.2-24.4-14.4-33.3-12.6c0,0-8.4,2-13.6,6.4c-10.7,9.1-10.4,21-10.4,21
		s18.5,25.7,23.9,20.9c4.4-3.9,8.5-7.5,12.2-10.6C230.3,198.4,247.3,176.9,247.3,176.9z"/>
</g>
<g>
</g>
<g>
</g>
<g>
</g>
<g>
</g>
<g>
</g>
<g>
</g>
<g>
</g>
<g>
</g>
<g>
</g>
<g>
</g>
<g>
</g>
<g>
</g>
<g>
</g>
<g>
</g>
<g>
</g>
</svg>
