<?xml version="1.0" encoding="iso-8859-1"?>
<!-- Generator: Adobe Illustrator 19.0.0, SVG Export Plug-In . SVG Version: 6.00 Build 0)  -->
<svg version="1.1" id="Layer_1" xmlns="http://www.w3.org/2000/svg" xmlns:xlink="http://www.w3.org/1999/xlink" x="0px" y="0px"
	 viewBox="0 0 496.2 496.2" style="enable-background:new 0 0 496.2 496.2;" xml:space="preserve">
<path style="fill:#FFEFD6;" d="M0,248.1C0,111.1,111.1,0,248.1,0s248.1,111.1,248.1,248.1S385.1,496.2,248.1,496.2S0,385.1,0,248.1z
	"/>
<g>
	<path style="fill:#E2A379;" d="M38.5,255.4c0.1,3.7,15.9,1.4,20.7,2.3l5.6-2.7c34.7,1.4,49.7-5.3,49.7-5.3
		c20.7,1.8,60.7,3.1,68.5,1.5s6.4-17.5-1.6-17.9c-7.9-0.4-15,0.2-22.9,0.4s-37.3,2.2-44.2,3.1c-0.9,0.1-49.6,9.6-49.6,9.6
		s-2,0-5.4-1.1c-4.6-1.5-11.5-0.9-15.2,0.9C40.8,247.8,38.3,251.6,38.5,255.4z"/>
	<path style="fill:#E2A379;" d="M54.3,256.2c0,0-5-0.3-5.4,2.4c-0.4,2.2-0.2,3,10.3-0.9C59.1,257.6,58.9,256.1,54.3,256.2z"/>
</g>
<path style="fill:#3D3C3C;" d="M254.6,259.8c0,0,6.9,3.6,17.1,3.6c14.5,0,20-4.4,20-4.4s7.3-30.8,0.1-31.7
	c-13.5-1.8-24.2-3.6-30.7-4.7c-4.5-0.7-10.2,20-10.2,20L254.6,259.8z"/>
<path style="fill:#B3233B;" d="M187.2,216.6c-12.3-0.2-15.2,10.1-28.2,17c-1.6,0.9-5.9,8.5-6,12.5c0,4.4,0.7,8.9,4.4,12.2
	c2.8,2.5,11.6,7.6,34.5,3c10.7-1.4,50.6-7.2,62.6-1.5c0,0-1.5-13.7,0.4-21.7s6.1-15.4,6.1-15.4c-37.4-2.2-52.4-0.1-64.7-1.7
	C196.3,220.9,190.7,216.7,187.2,216.6z"/>
<path style="fill:#E2A379;" d="M153.8,236.8c0,0-8.8,3.3-16.8,5.5l-0.7,13.4c7.9-2.8,18.7-1,18.7-1c-1.5-12.5,2.7-17.8,4-21.1
	L153.8,236.8z"/>
<path style="fill:#F4B382;" d="M123.2,223.3c-5.2-3.7-10.3-1.2-13.2,0.6c-9,5.7-9.7,11.7-9.5,19.4c0.3,10.2,27.1,13.3,31.6,12.3
	c11.7-2.6,15.8-18.9,15.8-25.6c0-7.3-2.5-5.4-5.4-5.1c-0.1,0-0.5-0.3-0.5-0.3c-1,0-2.4,0.1-3.7-0.5c0,0-0.9,0.3-1.4,0.3
	c-0.3,0-0.5,0-0.7-0.4c-0.4-1.1-0.8-2.1-1.2-2.4C133.6,220.3,125.6,225,123.2,223.3z"/>
<path style="fill:#D6876B;" d="M139.7,228.4c0,0,0.4-0.7,0.3-4c-0.2-0.4-0.7-1.1-1.6-0.5C137.8,224.3,139.4,226,139.7,228.4z"/>
<path style="fill:#CC785E;" d="M139.7,228.4c0,0,1.7-0.7,2.3-3.8c-0.1-0.4-0.4-0.8-0.6-0.8c-1-0.4-1.4,0.6-1.4,0.6
	C140.1,227.6,139.7,228.4,139.7,228.4z"/>
<path style="fill:#602F0F;" d="M98.8,244.1c0.3,12.4,18.6,28.4,39.2,11c1.4-1.2,3-3.8,0-7.6c-2.1-2.7-4.9-4.5-4.9-4.5
	c-0.8-0.5-1.7-1.1-2.7-1.7c-1.1-0.6-7.2,0.3-7.4-0.9c-2.2-12.1-8.8-17.1-12.1-17C103.2,225,98.5,230.8,98.8,244.1z"/>
<path style="fill:#F4B382;" d="M129.7,245.2c5.4-2,5.6-4.3,5.3-7.6l-8.5,2.1l-3.4,1.8C123.4,244.7,124.2,247.2,129.7,245.2z"/>
<path style="fill:#4C230C;" d="M118.2,262.9c-2.4,3-8.4,1.8-13.4-2.6s-7.2-10.4-4.8-13.3c2.4-3,7-1.4,12,3
	C117,254.4,120.6,260,118.2,262.9z"/>
<g>
	<path style="fill:#602F0F;" d="M124.3,239.1c-1,0.2-1.9,0.2-2.6,0.2c-1.1,0-1.7-0.1-1.7-0.1l1.4,3.6c0.5,0,1.1,0,1.6,0
		c0,0-0.1-0.4-0.4-1.1v0.1c0.8-0.5,2-1.2,3.8-1.8C126.4,239.9,127.4,238.5,124.3,239.1z"/>
	<path style="fill:#602F0F;" d="M117.9,265c-2.5,3.1-9,1.7-14.5-3.1c-5.5-4.8-7.9-11.3-5.4-14.4s7.5-1.3,13,3.5
		C116.5,255.8,120.4,261.9,117.9,265z"/>
</g>
<path style="fill:#4C230C;" d="M106.9,263.2c-0.3,0.3-1.9-0.6-3.6-2c-1.7-1.5-2.8-3-2.5-3.3s1.6,0.5,3.2,2
	C105.7,261.3,107.1,262.9,106.9,263.2z"/>
<path style="fill:#F4B382;" d="M441.2,236.8c-1.2,4-1.1,18.4-1.2,19.9c-0.4,3.6-2.5,7-5.9,6.1c-2.6-0.7-4.8-1.8-6.4-2
	c-8.7-1-23.7-1.2-43.2,0.6c-2.3,0.2-3.6,0.3-6.1,0.2c-9.9-0.3-4.2-22.2-0.6-21.5c16.8,3.5,42.3,9.4,53,11.1c0,0,2.3-19.2,6-18.6
	C438.9,233,442.3,232.9,441.2,236.8z"/>
<path style="fill:#3D3C3C;" d="M347.9,256.3c8.2,2.3,20.4,5.8,30.4,5.3c-1.3-3.2-1.1-18.4-0.3-21.5c-4.4-1.3-28.6-6.3-28.6-6.3
	c-8.8-0.9-60.5-10.6-76.5-8.1c-4.1,0.5-7.8,1.3-10.8,2.2c-5.8,1.7,16.4,34.1,22.3,33.2c16.7-2.7,35.7-7.4,41.7-7.7
	C334.1,252.9,339.8,253.9,347.9,256.3z"/>
<g>
	<path style="fill:#F4B382;" d="M33.6,261c0.1,3.7,15.9,1.4,20.7,2.3l5.6-2.7c34.7,1.4,49.7-5.3,49.7-5.3
		c20.7,1.8,60.7,3.1,68.5,1.5s6.4-17.5-1.6-17.9c-7.9-0.4-15,0.2-22.9,0.4s-37.3,2.2-44.2,3.1c-0.9,0.1-49.6,9.6-49.6,9.6
		s-2,0-5.4-1.1c-4.6-1.5-11.5-0.9-15.2,0.9C35.9,253.5,33.5,257.3,33.6,261z"/>
	<path style="fill:#F4B382;" d="M49.4,261.8c0,0-5-0.3-5.4,2.4c-0.4,2.2-0.2,3,10.3-0.9C54.3,263.3,54.1,261.8,49.4,261.8z"/>
</g>
<g>
</g>
<g>
</g>
<g>
</g>
<g>
</g>
<g>
</g>
<g>
</g>
<g>
</g>
<g>
</g>
<g>
</g>
<g>
</g>
<g>
</g>
<g>
</g>
<g>
</g>
<g>
</g>
<g>
</g>
</svg>
