<?xml version="1.0" encoding="iso-8859-1"?>
<!-- Generator: Adobe Illustrator 19.0.0, SVG Export Plug-In . SVG Version: 6.00 Build 0)  -->
<svg version="1.1" id="Layer_1" xmlns="http://www.w3.org/2000/svg" xmlns:xlink="http://www.w3.org/1999/xlink" x="0px" y="0px"
	 viewBox="0 0 496.2 496.2" style="enable-background:new 0 0 496.2 496.2;" xml:space="preserve">
<path style="fill:#FFEFD6;" d="M0,248.1C0,111.1,111.1,0,248.1,0s248.1,111.1,248.1,248.1S385.1,496.2,248.1,496.2S0,385.1,0,248.1z
	"/>
<path style="fill:#E2A379;" d="M92,109.7c3.5-2.1,14.6,11.4,17.5,12.6c1.5,0.6,4,0.1,6.5,2.5c3.3,3.1,2.5,7.5,3.8,8.6
	c6.3,5.4,21.8,22,29.4,28.7c1.7,1.5,3.5,3.2,5.3,4.9c7.1,6.9-10.3,18-12.6,15.3c-9.3-11.1-29.3-41.1-32.2-45.5
	c0,0-10.9-11.6-13.3-14.6C95.1,120.2,88.5,111.8,92,109.7z"/>
<path style="fill:#333333;" d="M173.7,189.3c-7.7-8.6-12.2-14.8-20.5-23.8c-1.2,3.3-9.8,13.7-12.5,15.4c2.5,2.5,18.4,24.6,18.4,24.6
	c2.9,4.2,46.4,54.4,56.9,58.7c3.8,1.7,7.3,3,10.3,3.8c5.8,1.6,19.6-28.1,13.2-33.2c-15.8-8-41.2-27.3-48.3-32.6
	C184.8,197.4,173.7,189.3,173.7,189.3z"/>
<path style="fill:#E2A379;" d="M385.4,363.3c0.3-3-10.3-4.7-20.3-6.3c-3.7-0.6-10.3-2.3-10.3-2.3c-11.6-8.7-18.6-15.2-18.6-15.2
	c-13.3-16-33.9-47-40.5-51.4s-16.9,7.8-11.6,13.7c5.3,5.9,10.4,11.8,16.1,17.2c7.7,10.3,22.2,24.6,27,29.7c7.8,8.3,17.9,12,17.9,12
	s8.7,5.4,12,6.7c3.4,1.3,8,2.3,12.4,1.3C373,367.9,385,367.1,385.4,363.3z"/>
<path style="fill:#B3233B;" d="M260.4,310.6c8.6,8.8,17.9,3.5,32,7.8c1.8,0.5,10.2-1.9,13-4.7c3.1-3.1,5.8-6.9,5.5-11.8
	c-0.2-3.8-2.9-13.6-22.5-26.4c-8.6-6.5-22.3-19-39.6-33.1C242.5,241.3,226,232,226,232c-8.1-1.7-14.2,25.9-14.2,25.9
	c25,27.8,37.5,33.5,45.1,43.3C256.9,301.2,257.9,308.1,260.4,310.6z"/>
<path style="fill:#E2A379;" d="M298.4,319.8c0,0,8.6,3.8,15.8,7.9l9.9-9.1c-7.6-3.6-14.1-12.4-14.1-12.4
	c-7.7,10-14.4,10.7-17.6,12.2L298.4,319.8z"/>
<path style="fill:#F4B382;" d="M337.3,343.8c5.4,3.4,10.3,0.5,13.1-1.5c8.6-6.3,8.9-12.3,8.2-20c-1-10.1-28-11.5-32.4-10.1
	c-11.5,3.4-14.5,19.9-14.1,26.6c0.5,7.3,2.8,5.2,5.7,4.7c0.1,0,0.6,0.3,0.6,0.3c1-0.1,2.4-0.3,3.7,0.3c0,0,0.9-0.3,1.4-0.4
	c0.3-0.1,0.5,0,0.7,0.3c0.5,1,0.9,2,1.4,2.4C327.1,347.5,334.8,342.3,337.3,343.8z"/>
<path style="fill:#D6876B;" d="M320.5,339.9c0,0-0.4,0.7-0.1,4c0.2,0.4,0.7,1.1,1.6,0.4C322.7,343.8,321,342.2,320.5,339.9z"/>
<path style="fill:#CC785E;" d="M320.5,339.9c0,0-1.6,0.8-2.1,3.9c0.1,0.4,0.5,0.7,0.7,0.8c1,0.3,1.3-0.7,1.3-0.7
	C320.2,340.6,320.5,339.9,320.5,339.9z"/>
<path style="fill:#602F0F;" d="M360.3,321.5c-1.2-12.3-20.5-27.1-39.9-8.3c-1.3,1.3-2.7,4,0.5,7.5c2.3,2.5,5.2,4.1,5.2,4.1
	c0.9,0.5,1.8,1,2.8,1.5c1.1,0.6,7.1-0.8,7.4,0.4c3,11.9,9.9,16.5,13.2,16.2C357.1,340.8,361.5,334.7,360.3,321.5z"/>
<path style="fill:#F4B382;" d="M329.5,322.4c-5.3,2.4-5.3,4.7-4.8,7.9l8.3-2.6l3.3-2C335.7,322.5,334.8,320.1,329.5,322.4z"/>
<path style="fill:#4C230C;" d="M339.7,304c2.2-3.1,8.3-2.3,13.6,1.7c5.3,4.1,7.8,9.9,5.6,13c-2.2,3.1-6.9,1.8-12.2-2.2
	C341.5,312.4,337.5,307.1,339.7,304z"/>
<g>
	<path style="fill:#602F0F;" d="M335.2,328.1c1-0.3,1.9-0.4,2.6-0.4c1-0.1,1.7,0,1.7,0l-1.6-3.5c-0.5,0-1.1,0.1-1.6,0.1
		c0,0,0.2,0.4,0.4,1v-0.1c-0.8,0.6-1.9,1.3-3.7,2.1C333,327.5,332.1,328.9,335.2,328.1z"/>
	<path style="fill:#602F0F;" d="M339.9,301.9c2.3-3.3,8.9-2.3,14.7,2.1c5.8,4.5,8.7,10.7,6.3,14c-2.3,3.3-7.4,1.8-13.2-2.6
		C341.9,310.9,337.5,305.2,339.9,301.9z"/>
</g>
<path style="fill:#4C230C;" d="M351,302.9c0.3-0.4,1.9,0.4,3.7,1.8c1.8,1.4,3,2.8,2.8,3.1c-0.3,0.4-1.6-0.4-3.4-1.7
	C352.3,304.7,350.8,303.3,351,302.9z"/>
<g>
	<path style="fill:#F4B382;" d="M405.2,381c0.3-3-10-4.7-20.3-6.3c-3.7-0.6-10.3-2.3-10.3-2.3c-26.4-16.1-37.8-28.4-37.8-28.4
		c-13.3-16-34.4-51.4-41-55.8s-16.9,7.8-11.6,13.7c4.4,7.5,8.1,12.5,15.4,20.2c13,16,23.5,26,28.2,31.1c7.8,8.3,37.1,25.3,37.1,25.3
		s8.7,5.4,12,6.7c3.4,1.3,8,2.3,12.4,1.3C392.7,385.5,404.8,384.7,405.2,381z"/>
	<path style="fill:#F4B382;" d="M121.5,385.7c-3.4-0.1-5.8-1.5-10-2c-5.2-0.7-13.9,0.1-14.7-1c-2-3,0.4-7.9,3.1-10
		c2.1-1.6,4.5-2.6,5.4-4c4.7-6.9,21.1-25.6,26.9-33.8c1.3-1.9,2.8-3.8,4.3-5.7c6.2-7.8,18.1,9.6,15.6,12.2
		c-10,10.4-36.4,30-40.4,33.3c0,0,24.1,6.1,21.3,8.7C131.5,384.9,125.6,385.7,121.5,385.7z"/>
</g>
<g>
	<path style="fill:#3D3C3C;" d="M158.8,305.4c-8.5,7.9-16,15.9-22.1,23.7c3.3,1.1,13.9,9.6,15.6,12.2c2.5-2.6,23-21.6,23-21.6
		c6.5-6,45.1-41,53.6-54.8c2.3-3.5,4.1-6.7,5.4-9.6c2.6-5.5-24.5-23.9-30.7-18.5c-10.5,14.2-24.8,44.4-29.2,51.2
		C170.2,295,158.8,305.4,158.8,305.4z"/>
	<path style="fill:#3D3C3C;" d="M248.8,242.4c-16.2-15.2-24.4-14.4-33.3-12.6c0,0-8.4,2-13.6,6.4c-10.7,9.1-10.4,21-10.4,21
		s18.5,25.7,23.9,20.9c4.4-3.9,8.5-7.5,12.2-10.6C231.8,264,248.8,242.4,248.8,242.4z"/>
</g>
<g>
</g>
<g>
</g>
<g>
</g>
<g>
</g>
<g>
</g>
<g>
</g>
<g>
</g>
<g>
</g>
<g>
</g>
<g>
</g>
<g>
</g>
<g>
</g>
<g>
</g>
<g>
</g>
<g>
</g>
</svg>
