<?xml version="1.0" encoding="iso-8859-1"?>
<!-- Generator: Adobe Illustrator 19.0.0, SVG Export Plug-In . SVG Version: 6.00 Build 0)  -->
<svg version="1.1" id="Layer_1" xmlns="http://www.w3.org/2000/svg" xmlns:xlink="http://www.w3.org/1999/xlink" x="0px" y="0px"
	 viewBox="0 0 496.2 496.2" style="enable-background:new 0 0 496.2 496.2;" xml:space="preserve">
<path style="fill:#FFEFD6;" d="M0,248.1C0,111.1,111.1,0,248.1,0s248.1,111.1,248.1,248.1S385.1,496.2,248.1,496.2S0,385.1,0,248.1z
	"/>
<g>
	<path style="fill:#F4B382;" d="M333.5,82.4c-3.7-0.2-2.8,15.7-4.1,20.4l2.2,5.8c-4.4,34.5-3,50.8-3,50.8
		c-3.6,20.5-4.8,57.7-3.9,65.6c0.4,4.8,21.4,4.4,21.8-1.4c-0.3-9-1.8-11.8-2-19.8c0.4-7.9-2.8-36.5-3.1-43.4c0-1-1.4-51.2-1.4-51.2
		s0.2-2,1.5-5.3c1.9-4.5,1.9-11.4,0.4-15.3C340.8,85.4,337.2,82.7,333.5,82.4z"/>
	<path style="fill:#F4B382;" d="M331.3,98.1c0,0,0.7-5-1.9-5.6c-2.2-0.6-3-0.5,0,10.4C329.4,102.8,330.9,102.7,331.3,98.1z"/>
	<path style="fill:#F4B382;" d="M357.9,376.5c-4.2-2.6-15.8-3.9-15.6-6.5c1.5-20.8,7.5-52,7.5-52c1.5-20.7,9.6-51.7,9.6-59.3
		c-1.7-7.7-16.6-15.4-16.9-7.4c-1,9.3-2.2,13.7-3.2,23.3c-1.5,11.9-3.3,36.9-2.3,43.8c0.1,0.9-3,52.7-2.2,55.8
		c0.9,3.5,3.2,2.7,10.2,3.5C350.2,378.4,361.8,378.9,357.9,376.5z"/>
</g>
<path style="fill:#3D3C3C;" d="M250.5,248.1l-14.3,6c0,0-1.7,24.3,1.2,30.9s16.8,21.5,16.8,21.5l19-7.2L250.5,248.1z"/>
<path style="fill:#B3233B;" d="M333,271.1c3.9-1.3,5.5-2.3,9.4-4.1c7.9-3.7,17.1-8.2,17.1-8.2c-1-4.5-2.3-8.9-3.5-12.3l-4.2-11.8
	c-1.2-3.4-2.9-7.6-5-11.7c0,0-21.2-4.7-34.1-0.3c-13.1,4.4-48.4,21.9-62.3,25.5l11.5,26l0,0l11.2,25.3
	c21.3-18.2,35.6-25.6,48.4-27.1C325.9,271.9,330,272.1,333,271.1z"/>
<path style="fill:#F4B382;" d="M82.2,353.9c0.6,4.2,2.8,8.3,4.3,8.4c2.9,0.4,8.2-6,12-6.8c2.4-0.5,8.4-4.9,9.8-5.6
	c7.6-3.5,22.7-9.2,31.8-13.5c2.1-1,4.2-2.1,6.4-3.3c8.8-4.7-6.4-19.5-9.4-17.5c-12,8.1-31.9,23.7-35.9,27.1c0,0-10.4,3.3-13.9,4.5
	C85.2,348,81.5,349,82.2,353.9z"/>
<path style="fill:#3D3C3C;" d="M173.7,315.4c-9.2,7-18.3,13-27.1,17.8c-0.6-3.4-7.1-15.3-9.4-17.5c3-2,5.4-3.6,7-4.6
	c7.7-4.7,19.9-11.5,19.9-11.5c6.7-4.5,52.7-37,63.9-42s19.1-7.7,19.1-7.8l6.4,12c-5.7,6.2,0.7,14-5.7,19.1
	c-15.8,7.9-45.3,21.6-52.8,24.7C187.6,308.8,173.7,315.4,173.7,315.4z"/>
<path style="fill:#F4B382;" d="M92.4,373.7c-3-2.9-5.1-7.1-4.3-8.4c1.4-2.6,9.6-3.2,12.5-5.8c1.8-1.7,8.9-4,10.3-4.8
	c7.3-4.1,20.7-13.1,29.5-18c2-1.1,4.2-2.2,6.4-3.3c8.9-4.4,12.2,16.5,8.8,17.8c-13.5,5-37.8,12.2-42.9,13.4c0,0-8.7,6.5-11.8,8.7
	C98.9,374.7,96,377.2,92.4,373.7z"/>
<path style="fill:#3D3C3C;" d="M177,321.7c-11.1,3.4-21.3,7.3-30.2,11.7c2.5,2.5,8.4,14.7,8.8,17.8c3.4-1.2,6.1-2.3,7.8-3
	c8.3-3.5,20.9-9.5,20.9-9.5c7.6-2.8,60.7-21.3,71.3-27.5s17.3-11.7,17.3-11.7l-5.9-11.6c-8.4,1-11-8.7-18.9-6.5
	c-15.6,8.3-43.9,24.3-50.8,28.6C190.4,314.2,177,321.7,177,321.7z"/>
<path style="fill:#E2A379;" d="M367.2,243l-5.5-16c-6.7,5.1-10.9,3.9-10.9,3.9s-4.8,2.2-2.3,9.5s7.6,6.1,7.6,6.1
	S358.8,243,367.2,243z"/>
<path style="fill:#F4B382;" d="M384.1,214.7c5.4-3.5,10.3-0.7,13.1,1.3c8.7,6.1,9.1,12.1,8.6,19.8c-0.8,10.1-27.8,11.9-32.2,10.7
	c-11.5-3.2-14.9-19.7-14.5-26.3c0.3-7.3,2.7-5.3,5.6-4.8c0.1,0,0.6-0.3,0.6-0.3c1,0.1,2.4,0.2,3.7-0.3c0,0,0.9,0.3,1.4,0.4
	c0.3,0,0.5,0,0.7-0.3c0.5-1,0.9-2,1.3-2.4C373.9,211.2,381.7,216.3,384.1,214.7z"/>
<path style="fill:#D6876B;" d="M367.4,218.9c0,0-0.4-0.7-0.1-4c0.2-0.4,0.7-1.1,1.6-0.4C369.5,215,367.9,216.6,367.4,218.9z"/>
<path style="fill:#CC785E;" d="M367.4,218.9c0,0-1.6-0.8-2.2-3.9c0.1-0.4,0.5-0.7,0.7-0.8c1-0.3,1.4,0.7,1.4,0.7
	C367.1,218.2,367.4,218.9,367.4,218.9z"/>
<path style="fill:#602F0F;" d="M407.5,236.6c-0.9,12.4-20,27.5-39.7,9c-1.3-1.2-2.8-3.9,0.4-7.6c2.2-2.6,5.1-4.2,5.1-4.2
	c0.9-0.5,1.8-1,2.8-1.5c1.1-0.6,7.1,0.7,7.4-0.6c2.8-12,9.6-16.6,12.9-16.4C404,217.4,408.5,223.4,407.5,236.6z"/>
<path style="fill:#F4B382;" d="M376.7,236.2c-5.3-2.3-5.4-4.6-4.9-7.8l8.4,2.5l3.3,1.9C382.9,236,382,238.5,376.7,236.2z"/>
<path style="fill:#4C230C;" d="M387.2,254.5c2.2,3.1,8.3,2.2,13.6-2c5.2-4.2,7.7-10,5.4-13.1c-2.2-3.1-6.9-1.7-12.1,2.4
	C388.8,246,385,251.4,387.2,254.5z"/>
<g>
	<path style="fill:#602F0F;" d="M380.1,231.1c1.8,0.7,3,1.4,3.7,2V233c-0.3,0.7-0.4,1-0.4,1c0.5,0,1.1,0.1,1.6,0.1l1.6-3.5
		c0,0-0.7,0.1-1.7,0.1c-0.7,0-1.6-0.1-2.6-0.4C379.2,229.7,380.1,231.1,380.1,231.1z"/>
	<path style="fill:#602F0F;" d="M387.4,256.6c2.4,3.2,8.9,2.2,14.7-2.4c5.7-4.6,8.5-10.9,6.1-14.1c-2.4-3.2-7.4-1.7-13.1,2.9
		C389.3,247.5,385,253.3,387.4,256.6z"/>
</g>
<path style="fill:#4C230C;" d="M398.5,255.4c0.3,0.4,1.9-0.5,3.6-1.9c1.8-1.4,3-2.8,2.7-3.2c-0.3-0.4-1.6,0.4-3.3,1.8
	C399.8,253.5,398.3,255,398.5,255.4z"/>
<g>
</g>
<g>
</g>
<g>
</g>
<g>
</g>
<g>
</g>
<g>
</g>
<g>
</g>
<g>
</g>
<g>
</g>
<g>
</g>
<g>
</g>
<g>
</g>
<g>
</g>
<g>
</g>
<g>
</g>
</svg>
