<?xml version="1.0" encoding="iso-8859-1"?>
<!-- Generator: Adobe Illustrator 19.0.0, SVG Export Plug-In . SVG Version: 6.00 Build 0)  -->
<svg version="1.1" id="Layer_1" xmlns="http://www.w3.org/2000/svg" xmlns:xlink="http://www.w3.org/1999/xlink" x="0px" y="0px"
	 viewBox="0 0 496.2 496.2" style="enable-background:new 0 0 496.2 496.2;" xml:space="preserve">
<path style="fill:#FFEFD6;" d="M0,248.1C0,111.1,111.1,0,248.1,0s248.1,111.1,248.1,248.1S385.1,496.2,248.1,496.2S0,385.1,0,248.1z
	"/>
<path style="fill:#F4B382;" d="M250.4,115.9c1.8,10,4.5,28.1,4.5,28.1c6.3,6.8,13.1,13.6,19.3,20.5c6.3,6.8,12.3,13.8,18.5,20.7
	l2,2.3l-0.6,3.7c-1.2,7.8-2.2,15.6-3.3,23.5c-1,7.8-2.4,15.6-4.3,23.2c-1.9,7.6-4.2,15.2-6.7,22.7s-5.4,15-8.7,22.2l-6.4-1.1
	c-0.3-8.3,0.1-16.1,0.7-24.1c0.6-7.9,1.6-15.8,2.8-23.6c1.3-7.8,3.1-15.4,5.3-23.1c1.9-6.7,3.9-13.3,5.6-20.1
	c0.2-0.9-8.5-11.9-13.7-19.6c-5.2-7.6-10.9-15.3-16.1-23l-0.7-1.1v-0.8c-0.1-10.1-0.1-20.3,0-30.4L250.4,115.9z"/>
<polygon style="fill:#302F2F;" points="220.4,341.8 221.6,352.1 248.1,358.8 274.6,352.1 275.8,341.8 "/>
<g>
	<path style="fill:#F4B382;" d="M247.6,116.1c0.1,10.1,0.1,20.3,0,30.4v0.8l-0.7,1.1c-5.1,7.7-10.8,15.4-16,23
		c-4.5,6.6-9.1,13.1-13.7,19.7c-0.7,1,3.4,12.3,5.6,19.9c2.2,7.6,4,15.3,5.3,23.1c1.2,7.8,2.2,15.6,2.8,23.6s1,15.8,0.7,24.1
		l-6.4,1.1c-3.3-7.2-6.2-14.8-8.7-22.2c-2.5-7.5-4.8-15.1-6.7-22.7c-1.9-7.6-3.3-15.4-4.3-23.2s-2-15.7-3.3-23.5l-0.6-3.7l2-2.3
		c6.2-6.9,12.2-13.9,18.5-20.7c6.2-6.9,12.9-13.7,19.2-20.5c0,0,2.7-18.1,4.5-28.1L247.6,116.1z"/>
	<path style="fill:#F4B382;" d="M232.7,348.6c13.8,7.7,29.3,16.2,33.3,16.9c16.8,3,29.1,11.3,27.8,14.7c0,0-39.6-5.7-68.7-11.6
		C213.8,366.4,222,342.7,232.7,348.6z"/>
</g>
<path style="fill:#3D3C3C;" d="M232.7,348.6c-10.7-6-20.2-11.4-22.5-12.2c-8.4-3.2-28.2-10.6-32.6,4.1
	c-4.4,14.6,10.6,17.5,21.3,21.6c5.2,2,14.9,4.3,26.1,6.6C226.7,361.6,229.2,354.9,232.7,348.6z"/>
<path style="fill:#F4B382;" d="M263.5,348.6c-13.8,7.7-29.3,16.2-33.3,16.9c-16.8,3-29.1,11.3-27.8,14.7c0,0,39.6-5.7,68.7-11.6
	C282.4,366.4,274.2,342.7,263.5,348.6z"/>
<path style="fill:#3D3C3C;" d="M263.5,348.6c10.7-6,20.2-11.4,22.5-12.2c8.4-3.2,28.2-10.6,32.6,4.1c4.4,14.6-10.6,17.5-21.3,21.6
	c-5.2,2-14.9,4.3-26.1,6.6C269.5,361.6,267,354.9,263.5,348.6z"/>
<path style="fill:#B3233B;" d="M274.6,274.5c1.9-11.5-7.5-32.4-7.5-32.4c-4.5-0.6-9.2-0.8-12.7-0.8h-12.6c-3.6,0-8.2,0.2-12.7,0.8
	c0,0-9.4,21-7.5,32.4c1.8,10.7,4.8,26.4-1.2,67.3h27.7l0,0h27.7C269.8,300.9,272.8,285.2,274.6,274.5z"/>
<path style="fill:#E2A379;" d="M256.5,229.8h-16.9c2.6,8,0.2,11.6,0.2,11.6s0.5,5.2,8.3,5.2c7.7,0,8.2-5.2,8.2-5.2
	S253.9,237.7,256.5,229.8z"/>
<path style="fill:#F4B382;" d="M265.4,206.5c0-20.1-7.8-24.7-17.3-24.7c-9.6,0-17.3,4.6-17.3,24.7c0,6.8,1.2,12.1,3,16.2
	c4,9,10.9,12.2,14.3,12.2s10.3-3.2,14.3-12.2C264.2,218.6,265.4,213.3,265.4,206.5z"/>
<path style="fill:#D6876B;" d="M253,226.7c0,0-2.2,1.1-4.9,1.1c-2.7,0-4.9-1.1-4.9-1.1c0-0.3,1.6-2.1,2.6-2.2
	c0.6-0.1,2.3,0.5,2.3,0.5s1.6-0.6,2.3-0.5C251.4,224.6,253,226.7,253,226.7z"/>
<path style="fill:#CC785E;" d="M253,226.7c0,0-2.2,2-4.9,2c-2.7,0-4.9-2-4.9-2s0.5-0.6,3.4-0.8c0.5,0,1.1,0.4,1.5,0.4
	s0.9-0.4,1.3-0.4C252.4,226.1,253,226.7,253,226.7z"/>
<ellipse style="fill:#4C230C;" cx="248.1" cy="182.8" rx="9.1" ry="6.2"/>
<path style="fill:#602F0F;" d="M266.1,207.4c0-20.1-5.5-25.5-18-25.5s-18,5.5-18,25.5c0,0,26.7-5.8,26.7-13.1
	C256.8,201.6,266.1,207.4,266.1,207.4z"/>
<g>
	<path style="fill:#F4B382;" d="M229.1,213.6c0.9,5.5,2.1,5.7,3.8,5.4l-1.8-11.9C229.4,207.4,228.1,208.1,229.1,213.6z"/>
	<path style="fill:#F4B382;" d="M265.1,207.1l-1.8,11.9c1.7,0.3,2.8,0,3.8-5.4C268.1,208.1,266.8,207.4,265.1,207.1z"/>
</g>
<g>
	<path style="fill:#602F0F;" d="M232.1,208.2c-0.1-0.6-0.1-1.1-0.1-1.6c0-0.6,0.1-1,0.1-1l-2,0.8c0,0.3,0,0.6,0,0.9
		c0,0,0.2-0.1,0.6-0.2c0,0,0,0-0.1,0c0.3,0.5,0.6,1.2,1,2.3C231.6,209.5,232.4,210.1,232.1,208.2z"/>
	<path style="fill:#602F0F;" d="M264.1,206.7c0,0.4,0,1-0.1,1.5c-0.3,1.8,0.5,1.2,0.5,1.2c0.3-1.1,0.7-1.8,1-2.3
		c0.4,0.1,0.6,0.2,0.6,0.2c0-0.3,0-0.6,0-0.9l-2-0.8C264,205.7,264.1,206.1,264.1,206.7"/>
</g>
<g>
</g>
<g>
</g>
<g>
</g>
<g>
</g>
<g>
</g>
<g>
</g>
<g>
</g>
<g>
</g>
<g>
</g>
<g>
</g>
<g>
</g>
<g>
</g>
<g>
</g>
<g>
</g>
<g>
</g>
</svg>
