<?xml version="1.0" encoding="iso-8859-1"?>
<!-- Generator: Adobe Illustrator 19.0.0, SVG Export Plug-In . SVG Version: 6.00 Build 0)  -->
<svg version="1.1" id="Layer_1" xmlns="http://www.w3.org/2000/svg" xmlns:xlink="http://www.w3.org/1999/xlink" x="0px" y="0px"
	 viewBox="0 0 496.2 496.2" style="enable-background:new 0 0 496.2 496.2;" xml:space="preserve">
<path style="fill:#FFEFD6;" d="M0,248.1C0,111.1,111.1,0,248.1,0s248.1,111.1,248.1,248.1S385.1,496.2,248.1,496.2S0,385.1,0,248.1z
	"/>
<path style="fill:#E2A379;" d="M96.7,381.7c-1.5-3.8,13.7-12.5,15.3-15.2c0.8-1.3,0.7-3.9,3.5-6c3.7-2.8,7.8-1.3,9.1-2.3
	c6.4-5.3,22.4-22.6,30.2-28.9c1.8-1.5,4.1-3.2,6.1-4.7c8-5.9,15.3,13.8,12.2,15.6c-12.5,7.3-42.2,26.5-47,28.6
	c0,0-13.3,8.9-16.6,10.6C107.6,380.4,98.2,385.5,96.7,381.7z"/>
<path style="fill:#333333;" d="M188.2,306.9c-10.1,5.6-19.4,11.5-27.2,17.6c2.9,1.9,11.2,12.7,12.2,15.6c3-1.9,27.5-15.3,27.5-15.3
	c6.2-3.4,33.7-20,52.8-32c4.9-3.1,9-5.1,13-7.6c3.1-2.8,5.2-6,7.2-8.4c3.8-4.7-21.4-27.5-25.1-24.3c-12.4,11.5-34.9,36-40.9,41.5
	C201.8,299.6,188.2,306.9,188.2,306.9z"/>
<path style="fill:#3D3C3C;" d="M275.3,280.6c0,0,4.2-7.6,5.3-14.3c2.4-13.9-5.5-22.8-5.5-22.8s-30.7-7.8-31.7-0.7
	c-2,13.5-4,24.1-5.2,30.7C237.4,277.9,258,284,258,284L275.3,280.6z"/>
<path style="fill:#B3233B;" d="M233.9,344.3c-0.4,12.3,0.4,19,11.4,30.3c1.3,1.3,4.5,3.7,7.7,3.7s10.6,0,14-3.7
	c2.6-2.8,13.1-8.4,8.8-31.4c-1.3-10.7-6.3-50.7-0.4-62.6c0,0-13.7,1.3-21.7-0.7s-15.3-6.3-15.3-6.3c-2.8,37.3,1.8,49.5,0,61.8
	C238.3,335.3,234,340.9,233.9,344.3z"/>
<path style="fill:#E2A379;" d="M235.1,359.3c-1.7,0.8-2.3,0.2-3.5-1.8l-7.3,14.7c8.4-0.5,21,2.5,21,2.5s-3.2-3.1-6.2-7.5
	S235.1,359.3,235.1,359.3z"/>
<path style="fill:#F4B382;" d="M207.9,342.6c-5.3-3.6-10.3-0.9-13.2,1c-8.8,6-9.4,12-8.9,19.6c0.6,10.1,27.5,12.4,32,11.3
	c11.6-3,15.2-19.4,15-26.1c-0.2-7.3-2.6-5.3-5.5-4.9c-0.1,0-0.6-0.3-0.6-0.3c-1,0-2.4,0.2-3.7-0.4c0,0-0.9,0.3-1.4,0.4
	c-0.3,0-0.5,0-0.7-0.3c-0.4-1-0.8-2-1.3-2.4C218.2,339.2,210.3,344.2,207.9,342.6z"/>
<path style="fill:#D6876B;" d="M224.5,347.1c0,0,0.4-0.7,0.2-4c-0.2-0.4-0.7-1.1-1.6-0.4C222.5,343.1,224.1,344.8,224.5,347.1z"/>
<path style="fill:#CC785E;" d="M224.5,347.1c0,0,1.6-0.8,2.2-3.9c-0.1-0.4-0.5-0.7-0.6-0.8c-1-0.3-1.4,0.6-1.4,0.6
	C224.9,346.4,224.5,347.1,224.5,347.1z"/>
<path style="fill:#602F0F;" d="M184.1,364c0.7,12.4,19.5,27.8,39.5,9.7c1.3-1.2,2.9-3.9-0.2-7.6c-2.2-2.6-5-4.3-5-4.3
	c-0.8-0.5-1.8-1-2.8-1.6c-1.1-0.6-7.2,0.5-7.4-0.7c-2.6-12-9.3-16.8-12.6-16.6C187.9,344.9,183.4,350.8,184.1,364z"/>
<path style="fill:#F4B382;" d="M215,364.2c5.4-2.2,5.5-4.5,5-7.7l-8.4,2.3l-3.3,1.9C208.7,363.9,209.6,366.4,215,364.2z"/>
<path style="fill:#4C230C;" d="M204.1,382.3c-2.3,3-8.4,2-13.5-2.2s-7.5-10.2-5.2-13.2s6.9-1.6,12.1,2.7
	C202.6,373.8,206.4,379.3,204.1,382.3z"/>
<g>
	<path style="fill:#602F0F;" d="M209.5,358.3c-1,0.2-1.9,0.3-2.6,0.3c-1.1,0-1.7-0.1-1.7-0.1l1.5,3.5c0.5,0,1.1-0.1,1.6-0.1
		c0,0-0.1-0.4-0.4-1v0.1c0.8-0.5,2-1.2,3.8-1.9C211.6,359.1,212.5,357.6,209.5,358.3z"/>
	<path style="fill:#602F0F;" d="M203.8,384.4c-2.4,3.2-9,2-14.6-2.6c-5.7-4.7-8.3-11-5.8-14.2c2.4-3.2,7.4-1.6,13.1,3.1
		C202.1,375.2,206.3,381.2,203.8,384.4z"/>
</g>
<path style="fill:#4C230C;" d="M192.7,383c-0.3,0.4-1.9-0.5-3.6-1.9c-1.7-1.4-2.9-2.9-2.6-3.2c0.3-0.4,1.6,0.4,3.3,1.9
	C191.5,381.1,193,382.6,192.7,383z"/>
<g>
	<path style="fill:#F4B382;" d="M326.6,367.5c-5.1-1.2-13.5-2.5-13.5-2.5c-6.8-1.3-17-3.5-23.2-4.6c-10-2.1-26.7-6.1-31.5-4.1
		c-5.9,2.5-7.9,12.7-1.8,16.1c2.5,1.3,6.9,2.8,13.2,2.9c17.1,0.5,41.7,3.8,48.8,2.9c4.1-0.5,6.8-1.5,7.6-2.4c0.8-0.9,1.6-3.5,0.9-7
		C326.9,368.6,326.8,368.1,326.6,367.5z"/>
	<path style="fill:#F4B382;" d="M273.7,336.1c4.3,8.9,31.1,24.8,34.8,29.4c3.7,4.6,10.6,11.4,11.4,12.1c0.7-0.4,1.4-0.7,1.9-1.1
		c3.5-2.1,4.5-4.4,4.8-5.5c0,0,0.7-1.5,0.1-3.2c-2.7-8.2-44.6-31.7-44.6-31.7H273.7z"/>
	<path style="fill:#F4B382;" d="M273.7,336.1c0,0.2,2.4,0.8,9.5,0.6c0,0-0.7-0.4-1.1-1c-0.7-0.9-1.4-9.9-1.6-12.1
		c-0.2-2-2.5-4.7-3.1-6.1c-1.2-2.8-2.3-4.7-3.4-6.7c-0.2-0.3-0.8-1.9-1.1-1.9c0,0,0.4,8.9,0.6,14.7c0.1,1.9-1.3,2.2-1.3,2.2
		c-0.2,1.8-0.4,3.3-0.7,4.3L273.7,336.1z"/>
	<path style="fill:#F4B382;" d="M272,325.8c0,0-0.9-5-3.6-4.8c-2.2,0.2-3,0.4,3.2,9.8C271.6,330.9,273.1,330.3,272,325.8z"/>
	<path style="fill:#F4B382;" d="M262.4,67.7c4,1,2.1,18.4,3.3,21.3c0.6,1.5,2.8,2.9,2.8,6.4c0.1,4.6-3.6,7.1-3.5,8.7
		c0.6,8.3,5.2,31.4,5.7,41.4c0.1,2.3,0.2,5.2,0.2,7.7c0,9.9-20.2,4.3-19.8,0.7c1.4-14.4,3.3-49.7,4.4-54.8c0,0,0.6-15.9,1.1-19.7
		C257,77.2,258.4,66.6,262.4,67.7z"/>
</g>
<path style="fill:#3D3C3C;" d="M269.2,185.6c1.4-11.5,2-22.4,1.7-32.4c-3.3,1.2-16.8,1.6-19.8,0.7c-0.2,3.6-3.8,31.3-3.8,31.3
	c-1.1,8.8-8.2,60.4-5.9,76.5c0.4,4.2,1.2,7.8,2,10.8c1.6,5.9,34.1,2.5,35.4-5.6c-1.1-17.6-9.5-49.9-10.6-58
	C267.2,200.9,269.2,185.6,269.2,185.6z"/>
<g>
</g>
<g>
</g>
<g>
</g>
<g>
</g>
<g>
</g>
<g>
</g>
<g>
</g>
<g>
</g>
<g>
</g>
<g>
</g>
<g>
</g>
<g>
</g>
<g>
</g>
<g>
</g>
<g>
</g>
</svg>
