<?xml version="1.0" encoding="iso-8859-1"?>
<!-- Generator: Adobe Illustrator 19.0.0, SVG Export Plug-In . SVG Version: 6.00 Build 0)  -->
<svg version="1.1" id="Layer_1" xmlns="http://www.w3.org/2000/svg" xmlns:xlink="http://www.w3.org/1999/xlink" x="0px" y="0px"
	 viewBox="0 0 496.2 496.2" style="enable-background:new 0 0 496.2 496.2;" xml:space="preserve">
<path style="fill:#FFEFD6;" d="M0,248.1C0,111.1,111.1,0,248.1,0s248.1,111.1,248.1,248.1S385.1,496.2,248.1,496.2S0,385.1,0,248.1z
	"/>
<g>
	<path style="fill:#E2A379;" d="M320.8,280.7c0-3.8-15.8-1.9-20.6-2.9l-5.7,2.6c-34.7-2.5-51.3,0.4-51.3,0.4
		c-20.7-2.4-59.1-1.6-67-0.3c-7.8,1.3-6.9,17.3,1,17.9s15,0.3,22.9,0.3s35.9-4.4,42.9-5.1c1-0.1,51.4-4.7,51.4-4.7s2,0.1,5.3,1.2
		c4.6,1.6,11.5,1.3,15.3-0.4C318.2,288.2,320.8,284.5,320.8,280.7z"/>
	<path style="fill:#E2A379;" d="M305,279.4c0,0,5,0.4,5.5-2.2c0.4-2.2,0.3-3-10.3,0.6C300.2,277.8,300.3,279.3,305,279.4z"/>
</g>
<path style="fill:#3D3C3C;" d="M205.5,184.8c0,0,2.3,31.9,10.8,33.5c1,0.2,2.9,1.1,3.5,1.3c15,6.1,24.5-5.1,27.7-4.9
	c3.4,0.2,3.8-35.9-3-36.3c-12.6-0.7-16.2-0.5-25.4,0.8C213.8,180,205.5,184.8,205.5,184.8z"/>
<path style="fill:#F4B382;" d="M330.4,304c-4-0.9-18.4,0-19.9-0.1c-3.6-0.1-7.1-2.1-6.4-5.5c0.5-2.6,1.8-4.9,1.6-6.5
	c-0.8-8.3-1.7-37.9-2.5-48c-0.2-2.3,21.1-6.8,20.8-3.2c-1,14.4-7.6,48.4-8.6,53.6c0,0,19.3,1.2,18.9,4.9
	C334,301.5,334.4,304.9,330.4,304z"/>
<path style="fill:#3D3C3C;" d="M304.8,211.8c-2.7,10.6-3.1,21.6-1.7,32.1c2.9-1.9,17.6-2.3,20.8-2.1c0.1-3.5,5.5-46.7-3.1-53.3
	c-9-6.9-76.8-10.1-80-10.3c-11.6-0.4-31,12.2-28.5,19.9c0,0,8.9,11.3,21.8,14.6C256.9,218.6,304.8,211.8,304.8,211.8z"/>
<path style="fill:#B3233B;" d="M165.2,271.1c-0.1,12.3,2.6,27,10.6,31c2.7,1.3,10.3,1.6,14.3,1.3c4.4-0.3,8.2-4.3,11-8.3
	c6-8.7-1.6-26,2.3-39.4c1.7-9.4,11.6-37.5,16.4-36.1l-14.3-34.9c-40.5,30.6-36.2,64.6-36.8,77C168.7,261.8,165.2,267.7,165.2,271.1z
	"/>
<path style="fill:#E2A379;" d="M165.6,280.7c0,0-2.5,0.4-8.4-0.8l-3.8,13.8c7.1-3.9,16,1.5,16,1.5
	C167,289.7,166.4,285.3,165.6,280.7z"/>
<path style="fill:#F4B382;" d="M139.7,263.9c-5-3.9-10.2-1.6-13.2,0.1c-9.2,5.4-10.1,11.3-10.2,19c-0.1,10.2,26.6,14.2,31.2,13.4
	c11.7-2.2,16.5-18.4,16.7-25c0.3-7.3-2.3-5.5-5.2-5.3c-0.1,0-0.5-0.4-0.5-0.4c-1,0-2.4,0-3.7-0.7c0,0-0.9,0.2-1.4,0.3
	c-0.3,0-0.5,0-0.7-0.4c-0.4-1.1-0.7-2.1-1.1-2.5C150.2,261.2,142,265.7,139.7,263.9z"/>
<path style="fill:#D6876B;" d="M155.9,269.5c0,0,0.4-0.7,0.5-4c-0.2-0.4-0.6-1.1-1.5-0.5C154.2,265.4,155.7,267.1,155.9,269.5z"/>
<path style="fill:#CC785E;" d="M155.9,269.5c0,0,1.7-0.6,2.5-3.7c0-0.4-0.4-0.8-0.6-0.8c-1-0.4-1.4,0.5-1.4,0.5
	C156.4,268.8,155.9,269.5,155.9,269.5z"/>
<path style="fill:#602F0F;" d="M114.5,283.7c-0.1,12.4,17.6,29.1,38.8,12.4c1.4-1.1,3.1-3.7,0.3-7.6c-2-2.7-4.7-4.6-4.7-4.6
	c-0.8-0.6-1.7-1.1-2.7-1.8c-1-0.7-7.2,0.1-7.4-1.2c-1.8-12.2-8.2-17.4-11.4-17.4C119.6,264.9,114.6,270.5,114.5,283.7z"/>
<path style="fill:#F4B382;" d="M145.3,285.9c5.5-1.8,5.8-4.1,5.5-7.4l-8.6,1.8l-3.4,1.6C139.1,285.2,139.8,287.7,145.3,285.9z"/>
<path style="fill:#4C230C;" d="M133.2,303.3c-2.5,2.9-8.5,1.5-13.3-3.1c-4.9-4.6-6.8-10.6-4.3-13.5s7-1.1,11.9,3.5
	C132.3,294.7,135.7,300.4,133.2,303.3z"/>
<g>
	<path style="fill:#602F0F;" d="M140.2,279.7c-1,0.2-1.9,0.2-2.6,0.1c-1,0-1.7-0.2-1.7-0.2l1.3,3.6c0.5,0,1.1,0,1.6,0
		c0,0-0.1-0.4-0.3-1.1v0.1c0.8-0.5,2.1-1.1,3.9-1.7C142.3,280.6,143.3,279.2,140.2,279.7z"/>
	<path style="fill:#602F0F;" d="M132.8,305.3c-2.6,3-9.1,1.4-14.4-3.6c-5.3-5-7.5-11.6-4.9-14.6s7.5-1.1,12.9,4
		C131.7,296.1,135.5,302.3,132.8,305.3z"/>
</g>
<path style="fill:#4C230C;" d="M121.9,303.2c-0.3,0.3-1.8-0.6-3.5-2.2c-1.6-1.5-2.7-3.1-2.4-3.4c0.3-0.3,1.5,0.5,3.2,2.1
	C120.8,301.2,122.1,302.8,121.9,303.2z"/>
<g>
	<path style="fill:#F4B382;" d="M322.7,288.6c0.2-3.7-15.7-2.6-20.4-3.8l-5.8,2.3c-34.5-3.9-50.9-2.2-50.9-2.2
		c-20.5-3.3-59.4-3.7-67.3-2.7c-7.8,1-7.6,17,0.3,18c7.9,1,15,0.9,22.9,1.3c7.9,0.3,36.5-3.3,43.4-3.7c1-0.1,51.1-2.1,51.1-2.1
		s2,0.1,5.3,1.5c4.5,1.8,11.4,1.8,15.3,0.2C319.8,296,322.5,292.3,322.7,288.6z"/>
	<path style="fill:#F4B382;" d="M307,286.6c0,0,5,0.7,5.6-2c0.5-2.2,0.5-3-10.4,0.2C302.3,284.8,302.4,286.3,307,286.6z"/>
</g>
<g>
</g>
<g>
</g>
<g>
</g>
<g>
</g>
<g>
</g>
<g>
</g>
<g>
</g>
<g>
</g>
<g>
</g>
<g>
</g>
<g>
</g>
<g>
</g>
<g>
</g>
<g>
</g>
<g>
</g>
</svg>
