<?xml version="1.0" encoding="iso-8859-1"?>
<!-- Generator: Adobe Illustrator 19.0.0, SVG Export Plug-In . SVG Version: 6.00 Build 0)  -->
<svg version="1.1" id="Layer_1" xmlns="http://www.w3.org/2000/svg" xmlns:xlink="http://www.w3.org/1999/xlink" x="0px" y="0px"
	 viewBox="0 0 496.2 496.2" style="enable-background:new 0 0 496.2 496.2;" xml:space="preserve">
<path style="fill:#FFEFD6;" d="M0,248.1C0,111.1,111.1,0,248.1,0s248.1,111.1,248.1,248.1S385.1,496.2,248.1,496.2S0,385.1,0,248.1z
	"/>
<g>
	<path style="fill:#D89D75;" d="M330.6,209.3c-9.3-0.2-16-3.7-24-5.5c-5.8-1.3-13.5-1.2-14.5-1.2c-0.2,0.8-0.4,1.5-0.6,2.1
		c-0.9,4,0.1,6.3,0.7,7.3c0,0,1.8,3.4,5.3,3.8c6.8,0.8,35.8,1.4,35.8,1.4L330.6,209.3z"/>
	<path style="fill:#D89D75;" d="M305.9,214c-2.3-4.7-6.7-12.2-6.7-12.2c-3.3-6-4.7-12.1-7.7-17.5c-4.7-9.1-6-11.9-6.8-14.4
		c-1.4-4-4.2-9.4-8.2-10.5c-6.2-1.7-14.9,2-13.6,8.9c1.9,10.1,22.4,39.7,29.6,46.5c3,2.8,5.5,4.3,6.6,4.4c1.2,0.1,3.8-1,5.9-3.8
		C305.3,215,305.6,214.6,305.9,214z"/>
	<path style="fill:#D89D75;" d="M330.6,209.3c-0.2,0.1-0.1,1.4,2.7,7.9c0,0,1.9-0.6,5.5-0.5c4.9,0.1,11.3-2.5,14.3-5.3
		c2.6-2.4,3.8-6.8,2.6-10.4c-1.2-3.6-15.6,3.3-20.4,3.9L330.6,209.3z"/>
	<path style="fill:#D89D75;" d="M340.3,204.9c0,0,4.9-1.2,4.5-3.8c-0.3-2.2-0.6-2.9-9.6,3.9C335.2,204.9,335.9,206.3,340.3,204.9z"
		/>
</g>
<path style="fill:#E2A379;" d="M345.9,195.2c2.5,4.2,8.4,17.5,8.6,19c0.5,3.6-0.8,7.4-4.3,7.3c-2.6-0.1-5.1-0.9-6.7-0.5
	c-8,2.2-32.6,7.3-42.4,8.7c-2.3,0.3-6.5,1.3-8.1,1.3c-9.9,0-4.9-20.7-1.1-20.6c14.4,0.1,47,0.5,52.2,0.5c0,0-11-19.4-7.8-19.9
	C340.8,190.3,343.8,191.6,345.9,195.2z"/>
<path style="fill:#333333;" d="M260.6,230.8c11.5,1.2,22.5,0.8,32.4,0.3c-1.3-3.2-1.9-17.6-1.1-20.6c-3.6-0.2-31.4-1.5-31.4-1.5
	c-8.8-0.9-60.6-7-76.6-4.4c-4.1,0.5-7.8,1.3-10.8,2.2c-5.8,1.7-8.3,32.2-0.2,33.2c17.6-1.5,56.2-8.5,64.2-9.7
	C245.3,229.1,260.6,230.8,260.6,230.8z"/>
<path style="fill:#B3233B;" d="M264.6,204.8c12-2.6,12.5-13.3,23.6-23c1.4-1.2,3.8-9.7,2.9-13.5c-1-4.3-2.8-8.5-7.1-10.9
	c-3.3-1.8-13-4.8-34.3,5c-10.1,3.8-70.1,29.1-70.1,29.1l17.3,32.7c6.4-4.5,45.5-20.2,57.8-21.4C254.8,202.8,261.2,205.6,264.6,204.8
	z"/>
<path style="fill:#E2A379;" d="M291.1,180.5c0,0,8.7-3.7,16.6-6.1l0.2-13.4c-7.8,3.1-18.5,1.6-18.5,1.6c2,12.4-2.2,18-3.4,21.4
	L291.1,180.5z"/>
<path style="fill:#F4B382;" d="M331.4,176.1c6.3-1.2,8-6.6,8.7-10c2.1-10.4-1.7-15.1-7.4-20.3c-7.5-6.8-28.4,10.4-30.7,14.3
	c-6.2,10.2,2.7,24.5,7.5,29.1c5.3,5.1,5.6,2,7.4-0.3c0.1-0.1,0.6-0.2,0.6-0.2c0.7-0.7,1.5-1.8,2.9-2.3c0,0,0.4-0.8,0.7-1.2
	c0.2-0.3,0.4-0.4,0.7-0.2c1,0.4,2,0.9,2.6,0.8C326.4,185.7,328.5,176.6,331.4,176.1z"/>
<path style="fill:#D6876B;" d="M316.4,184.5c0,0,0.2,0.8,2.7,3c0.4,0.1,1.2,0.3,1.4-0.8C320.6,185.9,318.3,185.9,316.4,184.5z"/>
<path style="fill:#CC785E;" d="M316.4,184.5c0,0-0.6,1.7,1.1,4.3c0.4,0.3,0.8,0.2,1,0.1c1-0.5,0.5-1.4,0.5-1.4
	C316.6,185.3,316.4,184.5,316.4,184.5z"/>
<path style="fill:#602F0F;" d="M333.3,144.1c-9.2-8.3-33.4-6.2-35.1,20.7c-0.1,1.8,0.7,4.8,5.5,5.2c3.4,0.3,6.6-0.4,6.6-0.4
	c1-0.2,2-0.5,3.1-0.8c1.2-0.3,4.7-5.4,5.8-4.7c10.3,6.8,18.4,5.5,20.6,3.1C344,160.5,343.1,153,333.3,144.1z"/>
<path style="fill:#F4B382;" d="M311.2,165.6c-2.3,5.3-0.8,7,1.8,9l4.4-7.6l1.1-3.7C315.9,161.4,313.5,160.3,311.2,165.6z"/>
<path style="fill:#4C230C;" d="M306.3,145.1c-0.5-3.8,4.5-7.3,11.2-7.9c6.7-0.6,12.5,2,12.9,5.8c0.5,3.8-3.8,6-10.5,6.6
	C313.3,150.1,306.8,148.8,306.3,145.1z"/>
<g>
	<path style="fill:#602F0F;" d="M319.3,166c0.5-0.9,1.1-1.5,1.7-2.1c0.7-0.8,1.3-1.2,1.3-1.2l-3.5-1.5c-0.4,0.4-0.7,0.8-1.1,1.2
		c0,0,0.4,0.2,1,0.5h-0.1c-0.2,0.9-0.6,2.3-1.3,4C317.2,166.9,317.6,168.6,319.3,166z"/>
	<path style="fill:#602F0F;" d="M305,143.4c-0.5-4,5-7.7,12.3-8.3s13.6,2.1,14.1,6.1s-4.2,6.3-11.5,7
		C312.7,148.7,305.5,147.4,305,143.4z"/>
</g>
<path style="fill:#4C230C;" d="M313.9,136.7c-0.1-0.4,1.7-1,3.9-1.1c2.2-0.2,4.1,0,4.1,0.5c0.1,0.4-1.4,0.8-3.7,1
	C316.1,137.1,314,137.1,313.9,136.7z"/>
<path style="fill:#3D3C3C;" d="M179.7,191.5c-14,7.5-18.9,22.2-19.5,29c-1.2,14,10.1,23.3,10.1,23.3s31.2,5.1,31.7-2.1
	c0.3-5.9,1.3-16.7,0.7-23.2C201.7,209.6,179.7,191.5,179.7,191.5z"/>
<path style="fill:#F4B382;" d="M212.1,389.2c-4-0.9-15.9,0-17.4-0.1c-3.6-0.1-7.1-2.1-6.4-5.5c0.5-2.6,2.1-5,1.6-6.5
	c-2.7-9.1-11.4-34.6-12.2-44.7c-0.2-2.3,19.9-3.7,19.7-0.1c-1,14.4,1.4,40.2,2.4,45.7c0,0,19.1,2.7,18.7,6.4
	C218.3,386.7,216.2,390.1,212.1,389.2z"/>
<path style="fill:#3D3C3C;" d="M174.8,300.6c-0.9,11.5,1.7,23.5,2.9,32.4c3.3-1.2,16.7-1.6,19.7-0.7c0.2-3.6-0.7-31.3-0.7-31.3
	c1.1-8.8,8.2-60.4,5.9-76.5c-0.4-4.1-1.2-7.8-2-10.8c-1.6-5.9-34.1-2.5-35.4,5.6c1.1,17.6,9.5,49.9,10.6,58
	C176.8,285.3,174.8,300.6,174.8,300.6z"/>
<g>
	<path style="fill:#F4B382;" d="M331.2,213.1c-21.7,3.4-28.7,2.7-34.6,2.2s-12.8,0.5-13.9,0.6c-0.2,0.8-0.4,1.5-0.6,2.1
		c-0.9,4,0.1,6.3,0.7,7.3c0,0,1.8,3.4,5.3,3.8c6.8,0.8,46.2-8.2,46.2-8.2L331.2,213.1z"/>
	<path style="fill:#F4B382;" d="M293.7,225.4c-0.9-5.1-3.2-13.3-3.2-13.3c-1.6-6.7-3.2-15.7-4.6-21.7c-2.1-10-2.6-13.1-2.7-15.7
		c-0.2-4.2-1.5-10.2-5.1-12.3c-5.5-3.3-14.9-2.1-15.4,4.9c-0.8,10.2,12.9,46.8,18,55.3c2.1,3.5,4.1,5.6,5.2,6s3.9,0.1,6.7-2
		C292.9,226.2,293.3,225.9,293.7,225.4z"/>
	<path style="fill:#F4B382;" d="M331.2,213.1c-0.2,0.1-0.1,1.4,2.7,7.9c0,0,1.9-0.6,5.5-0.5c4.9,0.1,11.3-2.5,14.3-5.3
		c2.6-2.4,3.8-6.8,2.6-10.4c-1.2-3.6-15.6,3.3-20.4,3.9L331.2,213.1z"/>
	<path style="fill:#F4B382;" d="M340.8,208.7c0,0,4.9-1.2,4.5-3.8c-0.3-2.2-0.6-3-9.6,3.9C335.7,208.7,336.4,210.1,340.8,208.7z"/>
</g>
<g>
</g>
<g>
</g>
<g>
</g>
<g>
</g>
<g>
</g>
<g>
</g>
<g>
</g>
<g>
</g>
<g>
</g>
<g>
</g>
<g>
</g>
<g>
</g>
<g>
</g>
<g>
</g>
<g>
</g>
</svg>
