<?xml version="1.0" encoding="iso-8859-1"?>
<!-- Generator: Adobe Illustrator 19.0.0, SVG Export Plug-In . SVG Version: 6.00 Build 0)  -->
<svg version="1.1" id="Layer_1" xmlns="http://www.w3.org/2000/svg" xmlns:xlink="http://www.w3.org/1999/xlink" x="0px" y="0px"
	 viewBox="0 0 496.2 496.2" style="enable-background:new 0 0 496.2 496.2;" xml:space="preserve">
<path style="fill:#FFEFD6;" d="M0,248.1C0,111.1,111.1,0,248.1,0s248.1,111.1,248.1,248.1S385.1,496.2,248.1,496.2S0,385.1,0,248.1z
	"/>
<path style="fill:#B3233B;" d="M158.5,221.6c-7.5,9.7-5.8,14.4-7.1,29c-0.2,1.8,4,9.6,7.3,11.8c3.7,2.4,7.8,3.7,12.7,2.9
	c9.5-1.6,18.6-28.4,29.9-36.7c7-6.4,24.1-21.2,29.1-19.8c0,0,5.5-32,3.6-31.7c-43.3,8-59.2,30.1-66.9,39.2
	C167,216.3,160.6,218.8,158.5,221.6z"/>
<path style="fill:#E2A379;" d="M156,262.1c0,0-0.9,4.2-3.1,11.2l14.4,8.4c-1.4-8.3,2.2-16.3,2.2-16.3c-11-0.7-12.7-7.2-15.7-9.1
	L156,262.1z"/>
<path style="fill:#F4B382;" d="M160,301.3c2.1,6,7.7,7,11.1,7.2c10.6,0.6,14.7-3.8,19-10.2c5.7-8.4-14.4-26.6-18.6-28.4
	c-11-4.7-23.9,6.2-27.7,11.6c-4.3,5.9-1.1,5.8,1.4,7.3c0.1,0.1,0.3,0.6,0.3,0.6c0.8,0.6,2,1.3,2.7,2.6c0,0,0.9,0.3,1.3,0.5
	c0.3,0.2,0.4,0.3,0.3,0.7c-0.3,1.1-0.6,2.1-0.4,2.7C149.8,297.7,159.1,298.5,160,301.3z"/>
<path style="fill:#D6876B;" d="M149.5,287.6c0,0-0.7,0.3-2.6,3.1c-0.1,0.4-0.1,1.3,1,1.3C148.7,292,148.5,289.7,149.5,287.6z"/>
<path style="fill:#CC785E;" d="M149.5,287.6c0,0-1.8-0.4-4.1,1.7c-0.2,0.4-0.1,0.9,0,1c0.6,0.9,1.5,0.3,1.5,0.3
	C148.8,287.9,149.5,287.6,149.5,287.6z"/>
<path style="fill:#602F0F;" d="M191.9,298.6c6.9-10.3,1.4-34-25.5-31.7c-1.8,0.2-4.6,1.4-4.4,6.2c0.2,3.4,1.4,6.5,1.4,6.5
	c0.4,0.9,0.8,1.9,1.2,2.9c0.5,1.1,6,3.9,5.5,5.1c-5.2,11.1-2.8,19-0.1,20.8C177.3,311.5,184.5,309.6,191.9,298.6z"/>
<path style="fill:#F4B382;" d="M167.5,279.8c-5.6-1.5-7.1,0.2-8.7,3.1l8.1,3.3l3.8,0.5C172.3,283.8,173.1,281.3,167.5,279.8z"/>
<path style="fill:#4C230C;" d="M187.1,272c3.7-1,7.9,3.4,9.4,10s-0.2,12.6-3.9,13.6s-6.5-2.9-8-9.4C183.1,279.6,183.5,273,187.1,272
	z"/>
<g>
	<path style="fill:#602F0F;" d="M168.3,287.8c0.9,0.4,1.7,0.9,2.3,1.3c0.9,0.6,1.3,1.1,1.3,1.1l0.9-3.7c-0.4-0.3-0.9-0.6-1.3-0.9
		c0,0-0.1,0.4-0.3,1.1v-0.1c-0.9,0-2.3-0.2-4.2-0.8C167.1,285.9,165.5,286.5,168.3,287.8z"/>
	<path style="fill:#602F0F;" d="M188.6,270.5c3.9-1.1,8.4,3.8,10,11c1.7,7.1-0.1,13.8-4,14.8c-3.9,1.1-6.9-3.3-8.5-10.4
		C184.4,278.8,184.7,271.5,188.6,270.5z"/>
</g>
<path style="fill:#4C230C;" d="M196.6,278.3c0.4-0.1,1.2,1.6,1.7,3.7c0.5,2.2,0.6,4,0.1,4.2c-0.4,0.1-1-1.3-1.5-3.5
	C196.4,280.6,196.1,278.4,196.6,278.3z"/>
<path style="fill:#F4B382;" d="M351.2,318.2l-31.8,0.2c-7.4,1.4-6.7-6.9-5-9c1-1.3,0.1-18-2.4-46c-0.9-9.9,20.3-8.3,19.9-4.8
	c-3.5,26.9-8.5,40.8-6.3,45.5c0,0,24,6.1,27,8.3C354.4,313.9,356.3,316.3,351.2,318.2z"/>
<path style="fill:#3D3C3C;" d="M311.4,235.1c-0.6,6.7-0.3,14.2,0.6,28.4c4.3-3.2,15.7-4.2,19.9-4.8c0.1-4.3,2-35,2-35
	c-4.2-7.8-33.3-28-43.3-33.3c-9.9-5.3-26.6-11.2-34-12c-11.7-1.3-16.9-1.6-22.7-1.3l-3.6,31.7c0,0,6.6,3.3,15.7,4.3
	c9.8,1.1,16.3-3.3,16.3-3.3C277.9,220.8,311.4,235.1,311.4,235.1z"/>
<g>
	<path style="fill:#F4B382;" d="M159.9,316.8c1.7-4.9,3.8-13.2,3.8-13.2c2-6.6,5-15.2,6.7-21.2c3.1-9.7,4.6-16.8,5.7-19.1
		c1.9-3.8,3.7-9.6,1.7-13.2c-3.1-5.6-11.9-9.2-15.8-3.4c-5.8,8.5-12.3,51.2-12.1,61.1c0.1,4.1,0.8,6.9,1.6,7.8s3.4,2,6.9,1.6
		C158.8,317.1,159.3,317,159.9,316.8z"/>
	<path style="fill:#F4B382;" d="M200.4,308.5c-22,0.6-28.9-1.1-34.6-2.4c-5.8-1.3-12.8-1.1-13.8-1.2c-0.3,0.8-0.6,1.5-0.8,2
		c-1.4,3.9-0.7,6.2-0.3,7.3c0,0,1.3,3.6,4.8,4.4c6.7,1.7,46.9-2.1,46.9-2.1L200.4,308.5z"/>
	<path style="fill:#F4B382;" d="M200.4,308.5c-0.2,0.1-0.3,1.3,1.6,8.2c0,0,2-0.3,5.5,0.2c4.8,0.7,11.5-1,14.9-3.4
		c2.9-2.1,4.6-6.3,3.9-9.9c-0.7-3.7-15.9,1.2-20.7,1.2L200.4,308.5z"/>
	<path style="fill:#F4B382;" d="M210.6,305.3c0,0,5-0.5,5-3.2c0-2.2-0.2-3-10,2.6C205.5,304.7,206,306.2,210.6,305.3z"/>
</g>
<g>
</g>
<g>
</g>
<g>
</g>
<g>
</g>
<g>
</g>
<g>
</g>
<g>
</g>
<g>
</g>
<g>
</g>
<g>
</g>
<g>
</g>
<g>
</g>
<g>
</g>
<g>
</g>
<g>
</g>
</svg>
