<?xml version="1.0" encoding="iso-8859-1"?>
<!-- Generator: Adobe Illustrator 19.0.0, SVG Export Plug-In . SVG Version: 6.00 Build 0)  -->
<svg version="1.1" id="Layer_1" xmlns="http://www.w3.org/2000/svg" xmlns:xlink="http://www.w3.org/1999/xlink" x="0px" y="0px"
	 viewBox="0 0 496.2 496.2" style="enable-background:new 0 0 496.2 496.2;" xml:space="preserve">
<path style="fill:#FFEFD6;" d="M0,248.1C0,111.1,111.1,0,248.1,0s248.1,111.1,248.1,248.1S385.1,496.2,248.1,496.2S0,385.1,0,248.1z
	"/>
<g>
	<path style="fill:#E2A379;" d="M227.1,407.3c4.2-2.6,15.8-2.5,15.6-5c-1.5-20.8,0.3-52,0.3-52c-1.5-20.7-12.3-60.7-10.6-68.5
		c1.7-7.7,17.6-6.1,17.9,1.8c1,9.3,2.2,13.7,3.2,23.3c1.5,11.9,3.3,36.9,2.3,43.8c-0.1,0.9-4.8,52.7-5.6,55.8
		c-0.9,3.5-3.1,2.6-10.2,2.6C233.6,409,223.2,409.6,227.1,407.3z"/>
	<path style="fill:#E2A379;" d="M438,176.8c-0.8,4-18.2,3.2-21.1,4.6c-1.4,0.7-2.7,2.9-6.2,3.2c-4.6,0.4-7.3-3.2-8.9-2.9
		c-8.3,1.1-31,7-41,8.2c-2.3,0.3-5.2,0.5-7.7,0.7c-9.9,0.6-5.5-19.9-1.9-19.7c14.4,0.5,49.8,0.4,55,1.2c0,0,16-0.3,19.7,0
		C428.2,172,438.8,172.8,438,176.8z"/>
</g>
<path style="fill:#333333;" d="M320.7,190.6c11.5,0.8,22.5,0.7,32.4-0.2c-1.4-3.2-2.6-16.7-1.9-19.7c-3.6,0-31.5-1.9-31.5-1.9
	c-8.8-0.6-62.8-4.7-76.7-1.3c-4.6,1.1-7,1.9-10.7,3.4c-5.6,2.3-0.5,33.5,7.7,34.2c17.5-2.2,49.3-12.5,57.3-14
	C305.3,189.5,320.7,190.6,320.7,190.6z"/>
<path style="fill:#F4B382;" d="M46.3,177.2c1.1-4,18.4-1.7,21.4-2.8c1.5-0.6,3-2.7,6.4-2.7c4.6,0,7,3.7,8.6,3.7
	c8.3-0.4,31.5-4.5,41.6-4.8c2.3-0.1,5.2-0.1,7.7,0c9.9,0.2,3.8,20.3,0.3,19.8c-14.3-1.7-49.6-4.5-54.7-5.7c0,0-15.9-1-19.7-1.6
	C55.7,182.8,45.2,181.1,46.3,177.2z"/>
<g>
	<path style="fill:#3D3C3C;" d="M164.3,173c-11.4-1.7-22.4-2.6-32.3-2.5c1.2,3.3,1.2,16.9,0.2,19.8c3.6,0.3,31.2,4.5,31.2,4.5
		c6.9,1,39,4.5,61.4,6.5c5.8,0.5,10.2,1.3,15,1.8c4.2-0.3,7.8-1.6,10.8-2.4c5.9-1.4,2.3-34.2-2.6-33.9c-21.2,1.8-52.3,6.8-60.3,7.7
		C179.6,175.4,164.3,173,164.3,173z"/>
	<path style="fill:#3D3C3C;" d="M251.7,206.6c0,0,6.9-7.3,9-16.2c1.7-7.2-1-14.9-2.6-17.5c-2.9-4.5-8.4-6-14.4-6
		c-14.4,0-19.1,6.9-22.8,12.9c-3.8,6.2-6,13.9-6.5,20.5c-0.1,1.8,12.8,6.5,19.6,7.2S251.7,206.6,251.7,206.6z"/>
</g>
<path style="fill:#B3233B;" d="M213.1,273.2c-0.4,12.3,9.8,15.4,16.5,28.5c0.8,1.6,8.4,6.1,12.4,6.2c4.4,0.1,8.9-0.6,12.3-4.2
	c2.6-2.8,7.8-11.5,3.5-34.5c-1.3-10.7-12-50.7-6.1-62.6c0,0-13.7,1.3-21.7-0.7s-15.3-6.3-15.3-6.3c-2.8,37.3,4.6,52.4,2.8,64.7
	C217.5,264.2,213.2,269.7,213.1,273.2z"/>
<path style="fill:#E2A379;" d="M232.7,307c0,0,3.2,8.9,5.2,16.9l13.4,0.9c-2.6-8-0.7-18.8-0.7-18.8c-12.5,1.3-17.7-3-21-4.3
	L232.7,307z"/>
<path style="fill:#F4B382;" d="M243.7,351.4c3.2,5.5,8.9,5.3,12.3,4.8c10.5-1.5,13.6-6.7,16.6-13.8c3.9-9.4-19.4-23.2-23.9-24.1
	c-11.7-2.4-22.1,10.9-24.9,16.9c-3,6.7,0,5.9,2.8,6.8c0.1,0,0.4,0.5,0.4,0.5c0.9,0.4,2.2,0.9,3.2,2c0,0,0.9,0.1,1.4,0.3
	c0.3,0.1,0.5,0.2,0.5,0.6c-0.1,1.1-0.1,2.2,0.1,2.7C233,350,242.2,348.9,243.7,351.4z"/>
<path style="fill:#D6876B;" d="M230.7,340.1c0,0-0.7,0.5-1.9,3.5c0,0.5,0.2,1.3,1.2,1.1C230.8,344.6,230.1,342.4,230.7,340.1z"/>
<path style="fill:#CC785E;" d="M230.7,340.1c0,0-1.8,0-3.7,2.5c-0.1,0.4,0.1,0.9,0.2,1c0.8,0.7,1.5,0,1.5,0
	C230.1,340.6,230.7,340.1,230.7,340.1z"/>
<path style="fill:#602F0F;" d="M274.5,342.4c4.7-11.5-5.5-33.5-31.4-26c-1.7,0.5-4.3,2.3-3.1,6.9c0.8,3.3,2.6,6.1,2.6,6.1
	c0.5,0.8,1.1,1.7,1.8,2.6c0.7,1,6.7,2.6,6.4,3.9c-2.9,12,1.1,19.2,4.1,20.4C262.7,358,269.4,354.6,274.5,342.4z"/>
<path style="fill:#F4B382;" d="M246.8,328.8c-5.8-0.4-6.9,1.6-7.9,4.8l8.6,1.6l3.8-0.2C252.3,331.8,252.6,329.2,246.8,328.8z"/>
<path style="fill:#4C230C;" d="M264.5,317.3c3.4-1.7,8.4,1.8,11.2,7.9s2.3,12.4-1.1,14.1s-6.9-1.6-9.7-7.6
	C262.1,325.6,261.1,319,264.5,317.3z"/>
<g>
	<path style="fill:#602F0F;" d="M249.2,336.6c1,0.2,1.8,0.6,2.5,0.9c1,0.4,1.5,0.8,1.5,0.8l0.2-3.8c-0.5-0.2-1-0.4-1.5-0.6
		c0,0,0,0.4-0.1,1.1v-0.1c-0.9,0.1-2.3,0.2-4.2,0.1C247.6,334.9,246.1,335.9,249.2,336.6z"/>
	<path style="fill:#602F0F;" d="M265.6,315.5c3.6-1.8,9,2.1,12,8.7c3.1,6.7,2.6,13.5-0.9,15.3c-3.6,1.8-7.4-1.8-10.4-8.5
		C263.1,324.5,262,317.3,265.6,315.5z"/>
</g>
<path style="fill:#4C230C;" d="M274.9,321.6c0.4-0.2,1.5,1.3,2.4,3.3s1.4,3.8,1,4s-1.2-1.1-2.2-3.1S274.5,321.8,274.9,321.6z"/>
<path style="fill:#F4B382;" d="M230.1,410.8c4.2-2.6,15.8-2.5,15.6-5c-1.5-20.8-3-52-3-52c-1.5-20.7-12.3-60.7-10.6-68.5
	c1.7-7.7,17.6-6.1,17.9,1.8c1,9.3,2.2,13.7,3.2,23.3c1.5,11.9,3.3,36.9,2.3,43.8c-0.1,0.9-1.5,52.7-2.3,55.8
	c-0.9,3.5-3.1,2.6-10.2,2.6C236.6,412.5,226.2,413.1,230.1,410.8z"/>
<g>
</g>
<g>
</g>
<g>
</g>
<g>
</g>
<g>
</g>
<g>
</g>
<g>
</g>
<g>
</g>
<g>
</g>
<g>
</g>
<g>
</g>
<g>
</g>
<g>
</g>
<g>
</g>
<g>
</g>
</svg>
