<?xml version="1.0" encoding="iso-8859-1"?>
<!-- Generator: Adobe Illustrator 19.0.0, SVG Export Plug-In . SVG Version: 6.00 Build 0)  -->
<svg version="1.1" id="Layer_1" xmlns="http://www.w3.org/2000/svg" xmlns:xlink="http://www.w3.org/1999/xlink" x="0px" y="0px"
	 viewBox="0 0 496.2 496.2" style="enable-background:new 0 0 496.2 496.2;" xml:space="preserve">
<path style="fill:#FFEFD6;" d="M0,248.1C0,111.1,111.1,0,248.1,0s248.1,111.1,248.1,248.1S385.1,496.2,248.1,496.2S0,385.1,0,248.1z
	"/>
<path style="fill:#3D3C3C;" d="M273.9,209l1.2,20.3c0,0,19.2,6.7,26.5,6.7s26.5-6.7,26.5-6.7l1.2-20.3H273.9z"/>
<path style="fill:#F4B382;" d="M290.4,403.4c4,1.3,8.6,1.2,9.5,0c1.7-2.4-1.6-10-0.5-13.7c0.7-2.4-0.5-9.7-0.5-11.3
	c0.4-8.3,2.2-24.4,2.5-34.5c0.1-2.3,0.1-4.7,0-7.2c-0.2-9.9-20.3-3.2-19.8,0.3c1.7,14.3,6.5,39.2,7.7,44.3c0,0-1.8,10.7-2.4,14.4
	C286.6,398.1,285.7,401.9,290.4,403.4z"/>
<path style="fill:#3D3C3C;" d="M298.1,304.4c2,11.4,3.2,22.3,3.4,32.2c-3.3-1.1-16.9-0.7-19.8,0.3c-0.4-3.6-0.7-6.5-0.9-8.3
	c-0.6-9-1.1-23-1.1-23c-1-8-8.8-63.8-8.2-76c0.6-12.2,2.5-20.7,2.4-20.7H287c2.9,8,12.7,5.8,14.4,13.8c-0.2,17.7-1.5,50.2-2.2,58.3
	C298.6,289.2,298.1,304.4,298.1,304.4z"/>
<path style="fill:#F4B382;" d="M312.8,403.4c-4,1.3-8.6,1.2-9.5,0c-1.7-2.4,1.6-10,0.5-13.7c-0.7-2.4,0.5-9.7,0.5-11.3
	c-0.4-8.3-2.2-24.4-2.5-34.5c-0.1-2.3-0.1-4.7,0-7.2c0.2-9.9,20.3-3.2,19.8,0.3c-1.7,14.3-6.5,39.2-7.7,44.3c0,0,1.8,10.7,2.4,14.4
	C316.6,398.1,317.5,401.9,312.8,403.4z"/>
<path style="fill:#3D3C3C;" d="M305.2,304.4c-2,11.4-3.2,22.3-3.4,32.2c3.3-1.1,16.9-0.7,19.8,0.3c0.4-3.6,0.7-6.5,0.9-8.3
	c0.6-9,1.1-23,1.1-23c1-8,8.8-63.8,8.2-76c-0.6-12.2-2.5-20.7-2.5-20.7h-13c-2.9,8-12.7,5.8-14.4,13.8c0.2,17.7,1.5,50.2,2.2,58.3
	C304.7,289.2,305.2,304.4,305.2,304.4z"/>
<g>
	<path style="fill:#EAA97D;" d="M124.4,126.3l0.3,1.8l9.6,3.5c0.8,2.7,2.7,5.6,5.6,6.8c2.3,0.9,9-1.2,9-1.2
		c9.9,7.4,32,23.9,37.2,27.1c6.6,4.1,43.3,19.4,51.8,21.1c7.7,1.5,30.1-2.8,30.1-2.8c-7.1-3.6-14.2-7-21.5-10
		c-7.3-3-14.7-4.3-22.3-6.5c-3-0.9-26.2-10-29.7-11.6c-7.8-3.7-34.2-18.9-42.9-22.1l-1.3-0.5L124.4,126.3z"/>
	<path style="fill:#EAA97D;" d="M124.4,125.6l1-1.5l10.2,0.7c1.9-2.1,4.8-4,7.9-3.9c2.5,0.1,7.7,4.8,7.7,4.8c12.1-2.7,39-8.6,45-9.5
		c7.7-1,47.4,0,55.9,2c7.7,1.8,26.3,14.9,26.3,14.9c-7.9,0.4-15.8,0.5-23.7,0.3c-7.9-0.2-15.2-2.1-23-3.2
		c-3.1-0.5-27.9-1.6-31.8-1.5c-8.7,0.2-38.9,3.2-48.2,2.6l-1.3-0.1l-15.2-3.3L124.4,125.6z"/>
</g>
<path style="fill:#B3233B;" d="M277.6,131.8c-10.8-4.3-33.3,0.5-33.3,0.5c-1.5,4.3-2.7,8.8-3.4,12.3l-2.6,12.3
	c-0.7,3.5-1.5,8-1.9,12.6c0,0,18.5,13.3,30.1,14.1c4.1,0.3,6.6,7.1,7.2,16.1c0.5,6.4,47.1,1.7,52.7,0.2
	C326.4,199.9,310.3,144.9,277.6,131.8z"/>
<path style="fill:#E2A379;" d="M230.1,140.1l-3.5,16.5c8.3-0.9,11.4,2.2,11.4,2.2s5.2,0.6,6.8-7s-3.4-9.1-3.4-9.1
	S237.4,144.4,230.1,140.1z"/>
<path style="fill:#F4B382;" d="M209.3,126.5c-19.6-4.2-25.8,2.4-27.8,11.8c-2,9.4,0.9,17.9,20.5,22.1c6.6,1.4,12.1,1.4,16.5,0.4
	c9.7-2,14.2-8.1,14.9-11.4c0.7-3.3-0.9-10.7-8.9-16.5C220.9,130.3,215.9,128,209.3,126.5z"/>
<path style="fill:#D6876B;" d="M226.4,143c0,0,0.7,2.4,0.1,5s-2.1,4.5-2.1,4.5c-0.3-0.1-1.7-2-1.6-3c0-0.7,1-2.1,1-2.1
	s-0.3-1.7-0.1-2.3C224,144,226.4,143,226.4,143z"/>
<path style="fill:#CC785E;" d="M226.4,143c0,0,1.5,2.6,0.9,5.2c-0.6,2.6-3,4.4-3,4.4s-0.5-0.6-0.1-3.5c0.1-0.5,0.6-1,0.7-1.4
	c0.1-0.4-0.2-1-0.1-1.4C225.6,143.4,226.4,143,226.4,143z"/>
<ellipse transform="matrix(0.9778 0.2097 -0.2097 0.9778 33.1009 -35.1799)" style="fill:#4C230C;" cx="182.454" cy="138.509" rx="6.2" ry="9.1"/>
<path style="fill:#602F0F;" d="M210.2,126.1c-19.6-4.2-26.1,0-28.7,12.2c-2.6,12.2,1.6,18.7,21.2,22.9c0,0,0-27.3-7.2-28.8
	C202.6,134,210.2,126.1,210.2,126.1z"/>
<g>
	<path style="fill:#F4B382;" d="M208.6,163.6c5.5,0.2,6-0.8,6.1-2.5l-12-0.8C202.6,162,203,163.3,208.6,163.6z"/>
	<path style="fill:#F4B382;" d="M209.8,127l11.3,4.2c0.6-1.6,0.6-2.8-4.5-4.8C211.4,124.3,210.4,125.4,209.8,127z"/>
</g>
<g>
	<path style="fill:#602F0F;" d="M204,159.5c-0.6,0-1.1-0.1-1.5-0.2c-0.6-0.2-1-0.3-1-0.3l0.3,2.2c0.3,0.1,0.6,0.1,0.9,0.2
		c0,0,0-0.2-0.1-0.6c0,0,0,0,0,0.1c0.5-0.2,1.3-0.4,2.4-0.5C205.1,160.2,205.8,159.6,204,159.5z"/>
	<path style="fill:#602F0F;" d="M209.1,127.9c0.4,0.1,0.9,0.2,1.5,0.4c1.7,0.7,1.3-0.2,1.3-0.2c-1-0.6-1.6-1-2-1.4
		c0.2-0.3,0.3-0.5,0.3-0.5c-0.3-0.1-0.6-0.1-0.9-0.2l-1.2,1.8C208.1,127.7,208.5,127.7,209.1,127.9"/>
</g>
<path style="fill:#B3233B;" d="M273.9,209h27.7l0,0h27.7c-1.4-5.2-2-6.7-2.8-9.1l-52.7-0.2C273.9,202.9,274.3,205.3,273.9,209z"/>
<g>
</g>
<g>
</g>
<g>
</g>
<g>
</g>
<g>
</g>
<g>
</g>
<g>
</g>
<g>
</g>
<g>
</g>
<g>
</g>
<g>
</g>
<g>
</g>
<g>
</g>
<g>
</g>
<g>
</g>
</svg>
