<?xml version="1.0" encoding="iso-8859-1"?>
<!-- Generator: Adobe Illustrator 19.0.0, SVG Export Plug-In . SVG Version: 6.00 Build 0)  -->
<svg version="1.1" id="Layer_1" xmlns="http://www.w3.org/2000/svg" xmlns:xlink="http://www.w3.org/1999/xlink" x="0px" y="0px"
	 viewBox="0 0 496.2 496.2" style="enable-background:new 0 0 496.2 496.2;" xml:space="preserve">
<path style="fill:#FFEFD6;" d="M0,248.1C0,111.1,111.1,0,248.1,0s248.1,111.1,248.1,248.1S385.1,496.2,248.1,496.2S0,385.1,0,248.1z
	"/>
<path style="fill:#E2A379;" d="M315.1,338.6c0,0-18.6,0.3-20.6,0.2c-3.6-0.2-7.7,0.2-8.7-3.1c-0.8-2.5,0.4-4.3-0.5-5.7
	c-4.7-6.9-18.6-29.5-24.2-37.9c-1.3-1.9-2.6-4-3.8-6.1c-5.1-8.6,17.5-13.7,19-10.4c6.9,14.9,16.8,47,18.5,52.1c0,0,23.8,2.5,23.8,9
	C318.6,338.8,315.1,338.6,315.1,338.6z"/>
<path style="fill:#333333;" d="M245,256.5c4.3,10.7,7.1,20.9,12.2,29.4c2.3-2.7,15.9-9.8,19-10.4c-1.5-3.3-11.8-29.2-11.8-29.2
	c-3.3-8.2-22-56.8-31.8-69.8c-2.4-3.4-4.8-6.3-7-8.5c-4.2-4.4-31.1,14.3-28.3,21.9c9.5,14.9,32.4,39.1,37.2,45.7
	C239.4,242.2,245,256.5,245,256.5z"/>
<path style="fill:#E2A379;" d="M369.9,337.2c3.3-1.8-6.1-14.7-7.5-19.4l-5-3.7c-14.8-31.4-27.7-41.6-27.7-41.6
	c-8-19.2-20.6-49.7-25.6-55.9c-8.1-10.4-26.2,2.3-16.2,15.1c5,7.5,5.1,6.2,7.4,9.1c3.9,6.9,19.1,32.2,23.1,37.9
	c0.5,0.8,31.5,39.6,31.5,39.6s0.9,1.8,1.5,5.3c0.8,4.8,4.5,10.7,7.8,13.1C362.1,338.7,366.6,339.1,369.9,337.2z"/>
<path style="fill:#B3233B;" d="M269.8,228.3c5.3,7,15.6,7.8,29.3,16.2c1.6,1,12.5-3.9,15.5-6.5c3.1-2.7,5.6-8.9,4.3-13.7
	c-1-3.7-10.6-27.7-24.1-40.7c-11.3-10.8-27.8-17.3-42.9-21.5c-17.8-5-17.1-3.8-17.1-3.8l-8.5,39c15.4,1.2,17.8,0.7,26.2,4.6
	c3.7,1.7,15.5,11.8,14.9,13.9C266,220.4,267.7,225.5,269.8,228.3z"/>
<path style="fill:#E2A379;" d="M296.6,243c0,0,4,7.3,6.1,15.3l13.4,0.8c-2.7-7.9-1.5-21.1-1.5-21.1c-12.3-0.5-18.5,2.5-22.8,2.5
	L296.6,243z"/>
<path style="fill:#F4B382;" d="M293.9,277.5c-2,6.1,1.9,10.2,4.5,12.4c8.1,6.9,14.1,5.8,21.3,3.3c9.6-3.3,4.6-29.9,2.3-33.8
	c-6-10.4-22.8-9.5-29.1-7.5c-7,2.2-4.4,3.9-3.3,6.6c0,0.1-0.2,0.6-0.2,0.6c0.3,1,0.8,2.2,0.6,3.7c0,0,0.5,0.8,0.7,1.2
	c0.1,0.3,0.2,0.5-0.1,0.7c-0.9,0.7-1.7,1.4-2,1.9C287.9,268.5,294.8,274.7,293.9,277.5z"/>
<path style="fill:#D6876B;" d="M293.8,260.3c0,0-0.8-0.2-3.9,0.9c-0.3,0.3-0.9,1,0,1.6C290.5,263.3,291.7,261.3,293.8,260.3z"/>
<path style="fill:#CC785E;" d="M293.8,260.3c0,0-1.2-1.4-4.3-1.1c-0.4,0.2-0.6,0.6-0.6,0.8c-0.1,1.1,1,1.1,1,1.1
	C293,260.1,293.8,260.3,293.8,260.3z"/>
<path style="fill:#602F0F;" d="M321,294.6c11.7-4,21.6-26.2-1.2-40.7c-1.5-1-4.5-1.7-7.2,2.3c-1.9,2.8-2.8,6-2.8,6
	c-0.3,1-0.5,2-0.8,3.1c-0.3,1.2,2.4,6.7,1.3,7.3c-10.9,5.7-13.7,13.5-12.6,16.6C301.5,296.1,308.4,298.9,321,294.6z"/>
<path style="fill:#F4B382;" d="M312.8,264.9c-3.5-4.6-5.8-4.1-8.8-2.8l4.5,7.5l2.7,2.7C314.3,271,316.4,269.5,312.8,264.9z"/>
<path style="fill:#4C230C;" d="M333.2,270.5c3.5,1.4,4.2,7.5,1.5,13.6s-7.8,9.9-11.3,8.5s-3.4-6.2-0.7-12.3
	C325.4,274.2,329.7,269.1,333.2,270.5z"/>
<g>
	<path style="fill:#602F0F;" d="M308.6,271.8c0.5,0.9,0.8,1.7,1,2.4c0.3,1,0.4,1.7,0.4,1.7l3-2.4c-0.2-0.5-0.3-1-0.5-1.5
		c0,0-0.3,0.2-0.9,0.7c0,0,0,0,0.1-0.1c-0.7-0.6-1.7-1.6-2.9-3.1C308.8,269.5,307.2,269,308.6,271.8z"/>
	<path style="fill:#602F0F;" d="M335.3,270.2c3.7,1.5,4.3,8.1,1.4,14.8c-3,6.7-8.4,10.9-12.1,9.4s-3.5-6.7-0.5-13.4
		C326.9,274.3,331.5,268.7,335.3,270.2z"/>
</g>
<path style="fill:#4C230C;" d="M336.9,281.3c0.4,0.2,0,2-0.9,4s-2,3.6-2.4,3.4s0-1.6,0.9-3.7S336.5,281.1,336.9,281.3z"/>
<path style="fill:#E2A379;" d="M356.4,325.9c0,0,1.7,4.7,4.3,4.1c2.2-0.6,2.9-1-4.9-9.1C355.8,320.8,354.5,321.6,356.4,325.9z"/>
<g>
	<path style="fill:#F4B382;" d="M372.5,337.1c3.3-1.7-5.7-14.9-7-19.6l-4.9-3.8c-13.9-31.9-27-41.7-27-41.7
		c-7.4-19.4-18.6-51-23.4-57.4c-7.8-10.6-26.3,1.5-16.6,14.6c4.8,7.6,5,6.3,7.1,9.3c3.7,7,17.6,33.4,21.4,39.2
		c0.5,0.8,30.9,39.7,30.9,39.7s0.9,1.8,1.4,5.3c0.7,4.8,4.2,10.8,7.5,13.3C364.6,338.3,369.1,338.8,372.5,337.1z"/>
	<path style="fill:#F4B382;" d="M366.3,322.5c0,0,1.9,4.6,4.5,3.9c2.2-0.6,2.8-1.1-5.3-8.9C365.5,317.5,364.3,318.3,366.3,322.5z"/>
</g>
<path style="fill:#3D3C3C;" d="M235.8,158.4c-22-3.4-28.2,1.9-34.6,8.4c0,0-5.8,6.4-7.6,13c-3.7,13.6,3.2,23.2,3.2,23.2
	s26.2,3.5,28.5-3.3c0,0,0.7-0.9,1.3-1.3c0.8-0.6,1.9-0.7,1.9-0.7C233.7,179.9,235.8,158.4,235.8,158.4z"/>
<path style="fill:#F4B382;" d="M145.7,338.8c0,0-17.4,0-19.2-0.1c-3.6-0.2-4.3-3.8-2.8-7.1c1.1-2.4,3.1-3.5,4.5-6.2
	c3.7-7.5,13.1-30,17-39.3c0.9-2.2,1.9-4.3,2.9-6.5c4.3-9,21.7,5.8,19.8,8.9c-7.5,12.3-26.9,36.6-30.2,40.8c0,0,17.4,2.7,17.5,6.5
	C155.4,338.8,150.2,339.1,145.7,338.8z"/>
<path style="fill:#3D3C3C;" d="M166.6,252.1c-6.6,9.5-14,18.6-18.4,27.5c3.5,0.4,17.6,6.7,19.8,8.9c1.9-3.1,17.8-26,17.8-26
	c5-7.3,35.1-49.8,40.5-65.1c1.5-3.9,2.5-7.5,3.2-10.5c1.3-5.9-29.1-18-33.9-11.4c-7.1,16.2-14.5,48.7-17.3,56.3
	C175.4,239.4,166.6,252.1,166.6,252.1z"/>
<g>
</g>
<g>
</g>
<g>
</g>
<g>
</g>
<g>
</g>
<g>
</g>
<g>
</g>
<g>
</g>
<g>
</g>
<g>
</g>
<g>
</g>
<g>
</g>
<g>
</g>
<g>
</g>
<g>
</g>
</svg>
