<?xml version="1.0" encoding="iso-8859-1"?>
<!-- Generator: Adobe Illustrator 19.0.0, SVG Export Plug-In . SVG Version: 6.00 Build 0)  -->
<svg version="1.1" id="Layer_1" xmlns="http://www.w3.org/2000/svg" xmlns:xlink="http://www.w3.org/1999/xlink" x="0px" y="0px"
	 viewBox="0 0 496.2 496.2" style="enable-background:new 0 0 496.2 496.2;" xml:space="preserve">
<path style="fill:#FFEFD6;" d="M0,248.1C0,111.1,111.1,0,248.1,0s248.1,111.1,248.1,248.1S385.1,496.2,248.1,496.2S0,385.1,0,248.1z
	"/>
<path style="fill:#F4B382;" d="M374.9,126.2c3.8,1.5,1,17.7,1.8,20.7c0.4,1.5,3.8,4.3,3.5,7.8c-0.4,4.6-6.8,6.4-6.9,8
	c-0.4,8.3-11.3,31.2-15.5,40.4c-1,2.1-1.9,4.3-3.2,6.4c-1.6,2.7-20.2-5.8-18.9-8c7.5-12.3,27.1-39.9,28.8-44.9
	c0,0,2.5-15.8,3.4-19.4C368.4,135,371,124.7,374.9,126.2z"/>
<path style="fill:#B3233B;" d="M211.3,284c-12.3-0.4-18.6,9.8-31.7,16.5c-1.6,0.8-6.1,8.4-6.2,12.4c-0.1,4.4,0.6,8.9,4.2,12.3
	c2.8,2.6,11.5,7.8,34.5,3.5c10.7-1.3,59.3-0.9,69.9-0.4c0,0-8.6-13.7-6.6-21.7s2.4-14.9,0.6-14.8c-31.1,2.7-44.2-1.7-55.8-3.4
	C220.3,288.4,214.8,284.1,211.3,284z"/>
<path style="fill:#E2A379;" d="M174.3,303.7c0,0-4.3-0.2-11.6-1.4l-6.2,15.5c8-2.6,17.2-0.1,17.2-0.1c-1-11,4.5-13.8,5.9-17.1
	L174.3,303.7z"/>
<path style="fill:#F4B382;" d="M142.9,292.6c-5.1-3.9-10.3-1.5-13.2,0.3c-9.1,5.4-10,11.4-10,19.1c0,10.2,26.8,14,31.3,13.1
	c11.7-2.3,16.3-18.5,16.5-25.1c0.2-7.3-2.3-5.5-5.2-5.2c-0.1,0-0.5-0.4-0.5-0.4c-1,0-2.4,0.1-3.7-0.6c0,0-0.9,0.3-1.4,0.3
	c-0.3,0-0.5,0-0.7-0.4c-0.4-1.1-0.7-2.1-1.1-2.5C153.4,289.9,145.3,294.4,142.9,292.6z"/>
<path style="fill:#D6876B;" d="M159.3,298.1c0,0,0.4-0.7,0.5-4c-0.2-0.4-0.6-1.1-1.5-0.5C157.5,294,159,295.7,159.3,298.1z"/>
<path style="fill:#CC785E;" d="M159.3,298.1c0,0,1.7-0.7,2.4-3.7c-0.1-0.4-0.4-0.8-0.6-0.8c-1-0.4-1.4,0.6-1.4,0.6
	C159.7,297.4,159.3,298.1,159.3,298.1z"/>
<path style="fill:#602F0F;" d="M118,312.7c0,12.4,17.9,28.9,38.9,12c1.4-1.1,3.1-3.7,0.2-7.6c-2-2.7-4.7-4.6-4.7-4.6
	c-0.8-0.5-1.7-1.1-2.7-1.7c-1.1-0.7-7.2,0.1-7.4-1.1c-1.9-12.2-8.3-17.3-11.6-17.3C122.9,293.8,118,299.4,118,312.7z"/>
<path style="fill:#F4B382;" d="M148.8,314.6c5.5-1.8,5.8-4.1,5.5-7.4l-8.5,1.8l-3.4,1.7C142.6,314,143.3,316.5,148.8,314.6z"/>
<path style="fill:#4C230C;" d="M136.9,332.1c-2.5,2.9-8.5,1.5-13.4-3s-6.9-10.6-4.4-13.5c2.5-2.9,7-1.2,11.9,3.4
	C135.9,323.5,139.3,329.2,136.9,332.1z"/>
<g>
	<path style="fill:#602F0F;" d="M143.6,308.4c-1,0.2-1.9,0.2-2.6,0.2c-1.1,0-1.7-0.2-1.7-0.2l1.3,3.6c0.5,0,1.1,0,1.6,0
		c0,0-0.1-0.4-0.3-1.1v0.1c0.8-0.5,2-1.1,3.9-1.7C145.7,309.3,146.7,307.9,143.6,308.4z"/>
	<path style="fill:#602F0F;" d="M136.5,334.1c-2.6,3-9.1,1.5-14.5-3.5c-5.4-5-7.6-11.5-5-14.5s7.5-1.1,12.9,3.8
		C135.3,324.9,139.1,331.1,136.5,334.1z"/>
</g>
<path style="fill:#4C230C;" d="M125.5,332.1c-0.3,0.3-1.9-0.6-3.5-2.1s-2.7-3-2.4-3.4c0.3-0.3,1.5,0.5,3.2,2.1
	S125.8,331.7,125.5,332.1z"/>
<path style="fill:#3D3C3C;" d="M339.8,237.1c5.6-10.1,11-18.6,15.4-28.6c-3.5-0.1-17-5.2-19.4-7.1c-1.6,3.2-16.1,27.3-16.1,27.3
	c-3.7,6.8-34.4,58.8-36.4,60c-1.2,0.8-7.3,3.2-7.3,3.2c-3.6,3.5-3.7,8.8-3.6,16.1s7.4,20.3,9.6,20.2c13.8-0.6,20.8-2.8,26.5-7.6
	c8.8-7.2,7.4-15.8,9.2-20.5c1.5-3.8,2.8-7,3.5-9.8c5.5-16.8,6.9-24.1,8.9-32C332.3,250.5,339.8,237.1,339.8,237.1z"/>
<path style="fill:#F4B382;" d="M328.5,325.4c0.4-3.7-26-3.3-26-3.3c-34.2-6.3-51-5.4-51-5.4c-20.3-4.7-58.6-8.3-66.5-7.9
	s-8.8,16.4-1,17.9s14.9,2,22.7,2.9s36.2-0.3,43.2-0.2c1,0,51.6,1.1,51.6,1.1s2,0.3,5.2,1.8C310.9,334.6,328.1,329.2,328.5,325.4z"/>
<g>
</g>
<g>
</g>
<g>
</g>
<g>
</g>
<g>
</g>
<g>
</g>
<g>
</g>
<g>
</g>
<g>
</g>
<g>
</g>
<g>
</g>
<g>
</g>
<g>
</g>
<g>
</g>
<g>
</g>
</svg>
