<?xml version="1.0" encoding="iso-8859-1"?>
<!-- Generator: Adobe Illustrator 19.0.0, SVG Export Plug-In . SVG Version: 6.00 Build 0)  -->
<svg version="1.1" id="Layer_1" xmlns="http://www.w3.org/2000/svg" xmlns:xlink="http://www.w3.org/1999/xlink" x="0px" y="0px"
	 viewBox="0 0 496.2 496.2" style="enable-background:new 0 0 496.2 496.2;" xml:space="preserve">
<path style="fill:#FFEFD6;" d="M0,248.1C0,111.1,111.1,0,248.1,0s248.1,111.1,248.1,248.1S385.1,496.2,248.1,496.2S0,385.1,0,248.1z
	"/>
<path style="fill:#3D3C3C;" d="M283.8,223c0,0,2.8-14.1,2.8-20.9c0-9.7-6.1-17.4-11.8-21.7c-5.5-4.1-17.2-8.5-33.2,4.2
	c-10.7,8.5,6.4,24.7,5.2,31.2c-0.8,4.4,19.8,10.5,19.8,10.5L283.8,223z"/>
<path style="fill:#B3233B;" d="M242.3,278.1c-0.4,12.3,0.4,19,11.4,30.3c1.3,1.3,4.5,3.7,7.7,3.7s10.6,0,14-3.7
	c2.6-2.8,13.1-8.4,8.8-31.4c-1.3-10.7,3-60.2,2.3-74.9L251,222.5c0,0-2.6,35.4-4.3,46.7C246.8,269.1,242.5,274.7,242.3,278.1z"/>
<path style="fill:#E2A379;" d="M243.5,293c-1.7,0.8-2.3,0.2-3.5-1.8l-7.3,14.7c8.4-0.5,21,2.5,21,2.5s-3.2-3.1-6.2-7.5
	C244.5,296.5,243.5,293,243.5,293z"/>
<path style="fill:#F4B382;" d="M216.3,276.3c-5.3-3.6-10.3-0.9-13.2,1c-8.8,6-9.4,12-8.9,19.6c0.6,10.1,27.5,12.4,32,11.3
	c11.6-3,15.2-19.4,15-26.1c-0.2-7.3-2.6-5.3-5.5-4.9c-0.1,0-0.6-0.3-0.6-0.3c-1,0-2.4,0.2-3.7-0.4c0,0-0.9,0.3-1.4,0.4
	c-0.3,0-0.5,0-0.7-0.3c-0.4-1-0.8-2-1.3-2.4C226.6,273,218.7,278,216.3,276.3z"/>
<path style="fill:#D6876B;" d="M232.9,280.9c0,0,0.4-0.7,0.2-4c-0.2-0.4-0.7-1.1-1.6-0.4C230.9,276.9,232.5,278.6,232.9,280.9z"/>
<path style="fill:#CC785E;" d="M232.9,280.9c0,0,1.6-0.8,2.2-3.9c-0.1-0.4-0.5-0.7-0.6-0.8c-1-0.3-1.4,0.6-1.4,0.6
	C233.3,280.2,232.9,280.9,232.9,280.9z"/>
<path style="fill:#602F0F;" d="M192.6,297.8c0.7,12.4,19.5,27.8,39.5,9.7c1.3-1.2,2.9-3.9-0.2-7.6c-2.2-2.6-5-4.3-5-4.3
	c-0.8-0.5-1.8-1-2.8-1.6c-1.1-0.6-7.2,0.5-7.4-0.7c-2.6-12-9.3-16.8-12.6-16.6C196.4,278.7,191.8,284.6,192.6,297.8z"/>
<path style="fill:#F4B382;" d="M223.4,298c5.4-2.2,5.5-4.5,5-7.7l-8.4,2.3l-3.3,1.9C217.2,297.7,218,300.2,223.4,298z"/>
<path style="fill:#4C230C;" d="M212.5,316.1c-2.3,3-8.4,2-13.5-2.2s-7.5-10.2-5.2-13.2s6.9-1.6,12.1,2.7
	C211.1,307.6,214.8,313.1,212.5,316.1z"/>
<g>
	<path style="fill:#602F0F;" d="M217.9,292.1c-1,0.2-1.9,0.3-2.6,0.3c-1.1,0-1.7-0.1-1.7-0.1l1.5,3.5c0.5,0,1.1-0.1,1.6-0.1
		c0,0-0.1-0.4-0.4-1v0.1c0.8-0.5,2-1.2,3.8-1.9C220,292.9,220.9,291.4,217.9,292.1z"/>
	<path style="fill:#602F0F;" d="M212.3,318.2c-2.4,3.2-9,2-14.6-2.6c-5.7-4.7-8.3-11-5.8-14.2c2.4-3.2,7.4-1.6,13.1,3.1
		C210.5,309,214.7,315,212.3,318.2z"/>
</g>
<path style="fill:#4C230C;" d="M201.2,316.8c-0.3,0.4-1.9-0.5-3.6-1.9c-1.7-1.4-2.9-2.9-2.6-3.2c0.3-0.4,1.6,0.4,3.3,1.9
	S201.4,316.4,201.2,316.8z"/>
<path style="fill:#F4B382;" d="M89.4,314.1c-1.5-3.8,13.7-12.5,15.3-15.2c0.8-1.3,0.7-3.9,3.5-6c3.7-2.8,7.8-1.3,9.1-2.3
	c6.4-5.3,22.4-22.6,30.2-28.9c1.8-1.5,4.1-3.2,6.1-4.7c8-5.9,15.3,13.8,12.2,15.6c-12.5,7.3-42.2,26.5-47,28.6
	c0,0-13.3,8.9-16.6,10.6C100.3,312.9,90.9,318,89.4,314.1z"/>
<path style="fill:#3D3C3C;" d="M180.9,239.4c-10.1,5.6-19.4,11.5-27.2,17.6c2.9,1.9,11.2,12.7,12.2,15.6c3-1.9,27.5-15.3,27.5-15.3
	c6.2-3.4,33.7-20,52.8-32c4.9-3.1,9-5.1,13-7.6c3.1-2.8,5.2-6,7.2-8.4c3.8-4.7-21.4-27.5-25.1-24.3c-12.4,11.5-34.9,36-40.9,41.5
	C194.4,232.1,180.9,239.4,180.9,239.4z"/>
<path style="fill:#F4B382;" d="M406.9,306.7c0.5-3.7-26-3.9-26-3.9c-34-7.1-49.9-3-49.9-3c-20.1-5.2-59.4-13.1-67.3-12.8
	c-7.9,0.3-9.2,16.2-1.4,17.9c7.8,1.7,14.8,2.3,22.6,3.4c7.8,1.1,37.2,4,44.1,4.2c1,0,50.6-1.3,50.6-1.3s2,0.3,5.1,1.9
	C389.1,315.4,406.4,310.4,406.9,306.7z"/>
<g>
</g>
<g>
</g>
<g>
</g>
<g>
</g>
<g>
</g>
<g>
</g>
<g>
</g>
<g>
</g>
<g>
</g>
<g>
</g>
<g>
</g>
<g>
</g>
<g>
</g>
<g>
</g>
<g>
</g>
</svg>
