<?xml version="1.0" encoding="iso-8859-1"?>
<!-- Generator: Adobe Illustrator 19.0.0, SVG Export Plug-In . SVG Version: 6.00 Build 0)  -->
<svg version="1.1" id="Layer_1" xmlns="http://www.w3.org/2000/svg" xmlns:xlink="http://www.w3.org/1999/xlink" x="0px" y="0px"
	 viewBox="0 0 496.2 496.2" style="enable-background:new 0 0 496.2 496.2;" xml:space="preserve">
<path style="fill:#FFEFD6;" d="M0,248.1C0,111.1,111.1,0,248.1,0s248.1,111.1,248.1,248.1S385.1,496.2,248.1,496.2S0,385.1,0,248.1z
	"/>
<path style="fill:#E2A379;" d="M194.3,72.6c2.7,3.9,1.9,8.7,6,13.4c2.4,2.7,6.8,8.1,7.1,11.6c0.5,5.8-2.6,8.5-2.8,10.1
	c-1,10,3.1,36.8,3.5,42.8c0.8,9.9-19,8.3-18.7,4.7c1.9-28.6,6-45.1,6.1-50.3c0,0-5.4-23.6-5.6-27.4C189.9,75.3,192,69.2,194.3,72.6z
	"/>
<path style="fill:#333333;" d="M209.2,183.6c-0.4-11.6,0.9-23.3-1-33c-3,1.7-15.6,5.1-18.7,4.7c0.3,3.6-1.9,31.4-1.9,31.4
	c0.3,8.8-5.8,59.3-1,74.8c1.1,4,2.4,7.5,3.7,10.4c2.5,5.5,34.1-2.9,34-11.1c-3.9-17.2-10-46.1-12.3-53.9
	C209.6,199,209.2,183.6,209.2,183.6z"/>
<path style="fill:#3D3C3C;" d="M228,272.9c0,0,2.2-8.4,1.6-15.2c-1.1-14-12.2-20.8-12.2-20.8s-34.2,3.9-33.9,11.1
	c0.5,13.9,5.5,25.7,11.4,33.4c2.8,3.6,17.3-0.9,17.3-0.9L228,272.9z"/>
<g>
	<path style="fill:#E2A379;" d="M240.4,353.1c2-21.9,4.5-28.5,6.4-34.1c2-5.6,2.6-12.6,2.8-13.6c-0.7-0.4-1.4-0.8-1.9-1.1
		c-3.7-1.8-6.1-1.4-7.3-1.2c0,0-3.7,0.9-5,4.2c-2.5,6.4-3.3,44.1-3.3,44.1L240.4,353.1z"/>
	<path style="fill:#E2A379;" d="M259.8,362.2c-4.9-3.3-18.3-6.2-18.6-6.9c-0.4-0.8-0.6-1.7-0.6-3.9c0,0-5.1,0.4-8.4-0.1
		c0,4.5,0,7.6,0.2,8.3c0.8,4.2,3.5,3.2,12,3.7C251.9,363.8,264.2,365.2,259.8,362.2z"/>
</g>
<path style="fill:#B3233B;" d="M255.2,332.3c11.1,5.3,35.2,1.8,41-4c3.1-3.1,9.4-11.1,3.7-19c-9-12.3-14.3-6.7-51.3-24.3
	c-9.7-3.3-17.3-9-19.1-19c0,0-10.5,8.9-18.2,11.8s-16.2,3.6-16.2,3.6c19,32.2,46.3,31.3,53.6,41.3
	C248.5,322.6,247.5,328.6,255.2,332.3z"/>
<path style="fill:#E2A379;" d="M300.2,327.1c0,0,4.2,0.5,11.5,2.1l7.2-15c-8.1,2.1-17.1-1-17.1-1c0.2,11-5.5,13.1-7.1,16.2
	L300.2,327.1z"/>
<path style="fill:#F4B382;" d="M338.4,334.3c6.2,1.5,10-2.8,12-5.5c6.2-8.6,4.6-14.5,1.5-21.5c-4.1-9.3-30.1-2.1-33.9,0.6
	c-9.8,6.8-7.5,23.5-5,29.6c2.7,6.8,4.3,4.1,6.9,2.7c0.1-0.1,0.6,0.1,0.6,0.1c0.9-0.4,2.1-1,3.6-0.9c0,0,0.7-0.6,1.2-0.8
	c0.3-0.2,0.5-0.2,0.8,0.1c0.8,0.8,1.5,1.6,2,1.8C329.8,341,335.5,333.6,338.4,334.3z"/>
<path style="fill:#D6876B;" d="M321.2,335.8c0,0-0.1,0.8,1.2,3.9c0.3,0.3,1,0.8,1.6-0.1C324.4,338.9,322.4,337.9,321.2,335.8z"/>
<path style="fill:#CC785E;" d="M321.2,335.8c0,0-1.3,1.3-0.7,4.4c0.2,0.4,0.7,0.5,0.9,0.5c1.1,0,1.1-1.1,1.1-1.1
	C321.1,336.7,321.2,335.8,321.2,335.8z"/>
<path style="fill:#602F0F;" d="M353.1,305.9c-5-11.4-28-19.3-40.5,4.6c-0.8,1.6-1.3,4.6,2.9,7c3,1.7,6.2,2.3,6.2,2.3
	c1,0.2,2,0.3,3.1,0.5c1.2,0.2,6.5-3,7.2-1.9c6.6,10.4,14.6,12.5,17.6,11.2C356.2,325.2,358.4,318,353.1,305.9z"/>
<path style="fill:#F4B382;" d="M324.2,316.5c-4.3,3.9-3.6,6.1-2,9l7.1-5.1l2.5-2.9C330.1,314.6,328.5,312.6,324.2,316.5z"/>
<path style="fill:#4C230C;" d="M328.1,295.7c1.1-3.6,7.1-4.8,13.4-2.6c6.3,2.2,10.5,6.9,9.4,10.6c-1.1,3.6-5.9,3.9-12.2,1.7
	C332.4,303.2,327,299.4,328.1,295.7z"/>
<g>
	<path style="fill:#602F0F;" d="M331.4,320.1c0.8-0.6,1.7-0.9,2.3-1.2c1-0.4,1.7-0.5,1.7-0.5l-2.6-2.8c-0.5,0.2-1,0.4-1.5,0.6
		c0,0,0.3,0.3,0.7,0.8c0,0,0,0-0.1-0.1c-0.5,0.8-1.4,1.8-2.9,3.1C329.1,320.1,328.8,321.8,331.4,320.1z"/>
	<path style="fill:#602F0F;" d="M327.6,293.7c1.2-3.8,7.7-5,14.6-2.6s11.6,7.5,10.4,11.3s-6.4,4.1-13.3,1.7
		C332.4,301.7,326.4,297.5,327.6,293.7z"/>
</g>
<path style="fill:#4C230C;" d="M338.5,291.1c0.1-0.4,1.9-0.2,4.1,0.6c2.1,0.7,3.7,1.7,3.6,2.1s-1.6,0.1-3.7-0.6
	C340.3,292.5,338.3,291.6,338.5,291.1z"/>
<path style="fill:#F4B382;" d="M186.7,73.2c2.8,3.8,2.2,8.7,6.5,13.2c2.5,2.6,7.1,7.9,7.6,11.3c0.7,5.7-2.3,8.6-2.4,10.2
	c-0.6,10.1,4.4,36.7,5.1,42.6c1.1,9.9-18.7,9-18.6,5.4c0.9-28.6,4.4-45.2,4.3-50.5c0,0-6.2-23.4-6.6-27.2
	C182.4,76,184.3,69.9,186.7,73.2z"/>
<path style="fill:#3D3C3C;" d="M205.6,183.5c-0.8-11.5,0.1-23.3-2.2-33c-3,1.8-15.4,5.7-18.5,5.4c0.5,3.6-0.8,31.5-0.8,31.5
	c0.6,8.8-3.7,59.5,1.7,74.8c1.2,4,2.7,7.4,4.1,10.2c2.7,5.4,34-4.2,33.6-12.3c-4.5-17.1-11.7-45.8-14.3-53.5
	C206.5,198.9,205.6,183.5,205.6,183.5z"/>
<g>
	<path style="fill:#F4B382;" d="M230.1,365.2c0.3-22,2.2-28.8,3.7-34.5s1.6-12.7,1.7-13.8c-0.8-0.4-1.4-0.7-2-0.9
		c-3.8-1.5-6.2-0.9-7.3-0.6c0,0-3.6,1.2-4.6,4.6c-2,6.6,0.2,44.2,0.2,44.2L230.1,365.2z"/>
	<path style="fill:#F4B382;" d="M250.1,372.8c-5.1-3-18.7-4.7-19.1-5.4c-0.5-0.7-0.8-1.6-0.9-3.8c0,0-5.1,0.8-8.4,0.6
		c0.3,4.5,0.6,7.5,0.8,8.3c1.2,4.1,3.8,3,12.2,2.8C242.4,375,254.7,375.5,250.1,372.8z"/>
	<path style="fill:#F4B382;" d="M224.3,326.3c5.2-0.1,13.7-0.9,13.7-0.9c6.9-0.4,16-0.4,22.2-0.9c10.2-0.4,13.3-0.3,15.9,0
		c4.2,0.5,10.3,0.2,13-3c4.2-4.8,4.6-14.3-2.2-16c-9.9-2.6-48.3,4.8-57.5,8.4c-3.8,1.5-6.2,3.1-6.8,4.1s-0.7,3.8,0.9,7
		C223.7,325.3,223.9,325.8,224.3,326.3z"/>
</g>
<g>
</g>
<g>
</g>
<g>
</g>
<g>
</g>
<g>
</g>
<g>
</g>
<g>
</g>
<g>
</g>
<g>
</g>
<g>
</g>
<g>
</g>
<g>
</g>
<g>
</g>
<g>
</g>
<g>
</g>
</svg>
