<?xml version="1.0" encoding="iso-8859-1"?>
<!-- Generator: Adobe Illustrator 19.0.0, SVG Export Plug-In . SVG Version: 6.00 Build 0)  -->
<svg version="1.1" id="Layer_1" xmlns="http://www.w3.org/2000/svg" xmlns:xlink="http://www.w3.org/1999/xlink" x="0px" y="0px"
	 viewBox="0 0 496.2 496.2" style="enable-background:new 0 0 496.2 496.2;" xml:space="preserve">
<path style="fill:#FFEFD6;" d="M0,248.1C0,111.1,111.1,0,248.1,0s248.1,111.1,248.1,248.1S385.1,496.2,248.1,496.2S0,385.1,0,248.1z
	"/>
<g>
	<path style="fill:#E2A379;" d="M211.2,341.9c3,2.3,11.2-11.3,14.9-14.5l1.5-6.1c23.2-25.9,31.3-40.2,31.3-40.2
		c11.2-11.4,25.2-28.8,32.8-39.4c2.3-3.2-7.4-30.7-15.3-16.5c-4.9,7.6-3.7,7.1-5.5,10.3c-4.8,6.2-18.4,31.7-22.1,37.5
		c-0.5,0.8-27.9,42.9-27.9,42.9s-1.3,1.6-4.3,3.5c-4.1,2.6-8.1,8.3-9,12.3C206.8,335.3,208.2,339.6,211.2,341.9z"/>
	<path style="fill:#E2A379;" d="M221.9,330.3c0,0-3.4,3.7-1.6,5.7c1.5,1.7,2.2,2.1,5.9-8.5C226.1,327.4,224.8,326.6,221.9,330.3z"/>
</g>
<path style="fill:#B3233B;" d="M250,233.3c4.9,10.8,9.6,11.3,22.6,17.6c3.5,1.7,21.4,3.2,23.6,0.7c0.8-0.8,1.4-1.8,1.9-2.9
	c1.6-3.4,4-13.3-6.9-33.9c-4.4-9.8-10-35.1-18.7-48.1c-10.3-15.3-17.9-19.5-17.9-19.5l-10.3,7.1l-11.7,8.1
	c8.5,36.5,16.6,47.4,18.6,59.7C251.2,222,248.5,230.2,250,233.3z"/>
<path style="fill:#E2A379;" d="M278.5,254.1c0,0,2.4,6.5,4.1,14.6l13.4,1.5c-2.3-8.1,0.3-18.7,0.3-18.7c-12.5,0.8-14.8-1.5-26.4-1.8
	L278.5,254.1z"/>
<path style="fill:#F4B382;" d="M272.6,284.7c-3.1,5.6,0,10.4,2.2,13c6.7,8.2,12.8,8.3,20.3,7.2c10.1-1.5,10-28.5,8.5-32.8
	c-4-11.3-20.7-13.5-27.3-12.7c-7.2,0.8-5.1,3.1-4.4,5.9c0,0.1-0.3,0.6-0.3,0.6c0.1,1,0.4,2.3-0.1,3.8c0,0,0.4,0.9,0.5,1.3
	c0.1,0.3,0.1,0.5-0.3,0.7c-1,0.5-1.9,1-2.3,1.5C268.4,274.7,274,282.1,272.6,284.7z"/>
<path style="fill:#D6876B;" d="M275.7,267.7c0,0-0.8-0.3-4,0.1c-0.4,0.2-1,0.8-0.3,1.6C271.9,270.1,273.4,268.3,275.7,267.7z"/>
<path style="fill:#CC785E;" d="M275.7,267.7c0,0-0.9-1.6-4-1.9c-0.4,0.1-0.7,0.5-0.7,0.7c-0.3,1,0.8,1.3,0.8,1.3
	C274.9,267.4,275.7,267.7,275.7,267.7z"/>
<path style="fill:#602F0F;" d="M296.1,306.5c12.3-1.8,26-21.9,6.3-40.2c-1.3-1.2-4.1-2.5-7.5,0.9c-2.4,2.4-3.9,5.4-3.9,5.4
	c-0.4,0.9-0.9,1.9-1.3,2.9c-0.5,1.1,1.2,7.1-0.1,7.5c-11.8,3.7-15.9,10.8-15.5,14C276.7,304.3,283,308.4,296.1,306.5z"/>
<path style="fill:#F4B382;" d="M293.5,275.7c-2.6-5.2-4.9-5.1-8.1-4.3l3.1,8.2l2.1,3.2C293.8,282,296.2,280.9,293.5,275.7z"/>
<path style="fill:#4C230C;" d="M312.5,285c3.2,2,2.8,8.1-1,13.7c-3.8,5.5-9.5,8.3-12.7,6.3s-2.2-6.8,1.6-12.3S309.3,283,312.5,285z"
	/>
<g>
	<path style="fill:#602F0F;" d="M288.1,281.7c0.3,1,0.5,1.9,0.5,2.6c0.1,1,0.1,1.7,0.1,1.7l3.4-1.8c-0.1-0.5-0.1-1-0.2-1.6
		c0,0-0.4,0.2-1,0.5h0.1c-0.6-0.7-1.4-1.9-2.2-3.6C288.7,279.5,287.2,278.7,288.1,281.7z"/>
	<path style="fill:#602F0F;" d="M314.6,285.1c3.4,2.1,2.8,8.8-1.4,14.8c-4.2,6-10.3,9.2-13.7,7.1c-3.4-2.1-2.2-7.3,1.9-13.3
		C305.7,287.6,311.2,282.9,314.6,285.1z"/>
</g>
<path style="fill:#4C230C;" d="M314.2,296.2c0.4,0.2-0.3,1.9-1.6,3.8c-1.3,1.8-2.6,3.1-3,2.9s0.3-1.6,1.6-3.4
	C312.4,297.6,313.8,296,314.2,296.2z"/>
<path style="fill:#3D3C3C;" d="M248.2,146.7c-22.3,0.7-27.4,7.1-32.4,14.6c0,0-4.5,7.4-5.1,14.2c-1.2,14,7.5,22.2,7.5,22.2
	s31.2,5.1,31.7-2.1c0.3-5.9,0.7-11.3,1.1-16.1c0.4-4.3,3.7-32.4,3.7-32.4C253.7,146.7,248.2,146.7,248.2,146.7z"/>
<path style="fill:#D89D75;" d="M248.7,346.4c-4-0.9-15.4,0-16.9-0.1c-3.6-0.1-7.1-2.1-6.4-5.5c0.5-2.6,1.8-4.9,1.6-6.5
	c-0.8-8.3-4.5-33.2-5.3-43.2c-0.2-2.3-0.3-4.7-0.4-7.2c-0.3-9.9,20.1-4.3,19.8-0.7c-1,14.4-3.4,48.4-4.4,53.6c0,0,19.3,1.2,18.9,4.9
	C255.4,343.9,252.7,347.3,248.7,346.4z"/>
<path style="fill:#E2A379;" d="M244.2,349.4c-4-0.9-15.4,0-16.9-0.1c-3.6-0.1-7.1-2.1-6.4-5.5c0.5-2.6,1.8-4.9,1.6-6.5
	c-0.8-8.3-0.3-33.2-1.1-43.2c-0.2-2.3-0.3-4.7-0.4-7.2c-0.3-9.9,20.1-4.3,19.8-0.7c-1,14.4-7.6,48.4-8.6,53.6c0,0,19.3,1.2,18.9,4.9
	C250.9,346.9,248.2,350.3,244.2,349.4z"/>
<path style="fill:#3D3C3C;" d="M222.7,254.4c-1.4,11.5-2,22.4-1.7,32.4c3.3-1.2,16.8-1.6,19.8-0.7c0.2-3.6,3.8-31.3,3.8-31.3
	c1.1-8.8,8.2-60.4,5.9-76.5c-0.4-4.1-1.2-7.8-2-10.8c-1.6-5.9-34.1-2.5-35.4,5.6c1.1,17.6,9.5,49.9,10.6,58
	C224.7,239.1,222.7,254.4,222.7,254.4z"/>
<g>
	<path style="fill:#F4B382;" d="M213.7,349.3c3.1,2.1,10.6-11.9,14.1-15.3l1.1-6.1c21.7-27.1,29-41.9,29-41.9
		c13.7-15.6,31.7-41.7,35.1-48.9c5.8-11.9-13.6-22.6-20.7-7.9c-4.5,7.8-3.3,7.3-4.9,10.6c-4.5,6.5-16.6,32.6-20,38.7
		c-0.5,0.8-25.5,44.4-25.5,44.4s-1.2,1.6-4.1,3.7c-3.9,2.8-7.6,8.7-8.3,12.8C209,342.9,210.6,347.1,213.7,349.3z"/>
	<path style="fill:#F4B382;" d="M223.8,337.1c0,0-3.2,3.9-1.3,5.8c1.6,1.6,2.3,2,5.4-8.8C227.8,334,226.5,333.3,223.8,337.1z"/>
</g>
<g>
</g>
<g>
</g>
<g>
</g>
<g>
</g>
<g>
</g>
<g>
</g>
<g>
</g>
<g>
</g>
<g>
</g>
<g>
</g>
<g>
</g>
<g>
</g>
<g>
</g>
<g>
</g>
<g>
</g>
</svg>
