<?xml version="1.0" encoding="iso-8859-1"?>
<!-- Generator: Adobe Illustrator 19.0.0, SVG Export Plug-In . SVG Version: 6.00 Build 0)  -->
<svg version="1.1" id="Layer_1" xmlns="http://www.w3.org/2000/svg" xmlns:xlink="http://www.w3.org/1999/xlink" x="0px" y="0px"
	 viewBox="0 0 496.2 496.2" style="enable-background:new 0 0 496.2 496.2;" xml:space="preserve">
<path style="fill:#FFEFD6;" d="M0,248.1C0,111.1,111.1,0,248.1,0s248.1,111.1,248.1,248.1S385.1,496.2,248.1,496.2S0,385.1,0,248.1z
	"/>
<path style="fill:#E2A379;" d="M341.8,328.3c-6.1-2.1-15.4-2-15.5-4.6c-0.8-20.8-2.5-52-2.5-52c1.5-20.7,12.3-50.7,10.6-58.5
	c-1.7-7.7-17.6-6.1-17.9,1.8c-1,9.3-2.2,13.7-3.2,23.3c-1.5,11.9-3.3,26.9-2.3,33.8c0.1,0.9,6.8,47,6.8,47s0.2,5.7,1,8.8
	c0.9,3.5,3.2,2.7,10.2,3.5C334.2,332.1,346.1,329.7,341.8,328.3z"/>
<path style="fill:#3D3C3C;" d="M236.4,215.1c0,0-8.3,2.4-13.9,6.3c-11.5,8.1-9.8,18.6-9.8,18.6s13.5,28.6,19.4,24.3
	c7.1-5.3,14-9.6,18.3-14c0,0,0.1-1.8,1.4-2.2c1.6-0.6,4.6-1,5.7-1.7c3.7-2.6-6.5-21.5-6.5-21.5L236.4,215.1z"/>
<path style="fill:#B3233B;" d="M315.6,242.4c10.9-0.7,13.2-1.2,22.9-12.3c1.2-1.4,2.5-10.1,1.1-13.8c-1.5-4.1-4.1-7.6-8.5-9.9
	c-8.5-4.3-29,2.7-43,2.7c-10.7,0.5-35.8,4.3-51.7,6c0,0,7.4,8.6,11.5,18.1c3.3,7.6,6.4,14.2,6.4,14.2c0.8-0.1,39.5-4.7,51.3-5.8
	C305.6,241.7,312.1,242.6,315.6,242.4z"/>
<path style="fill:#F4B382;" d="M332,330.2c-4.2-2.6-15.8-3.9-15.6-6.5c1.5-20.8,7.5-52,7.5-52c1.5-20.7,12.3-50.7,10.6-58.5
	c-1.7-7.7-17.6-6.1-17.9,1.8c-1,9.3-2.2,13.7-3.2,23.3c-1.5,11.9-3.3,26.9-2.3,33.8c0.1,0.9-3,52.7-2.2,55.8
	c0.9,3.5,3.2,2.7,10.2,3.5C324.2,332.1,335.8,332.5,332,330.2z"/>
<path style="fill:#E2A379;" d="M342.2,219.5c0,0,3.5-2.4,10.1-5.9l-4.4-16.1c-4.7,6.9-13.6,10.5-13.6,10.5
	c7.4,8.2,4.8,13.8,5.7,17.2L342.2,219.5z"/>
<path style="fill:#F4B382;" d="M369.2,192.2c4.3-4.7,2.3-10.1,0.8-13.2c-4.7-9.5-10.6-11-18.2-11.6c-10.1-0.8-16.2,25.5-15.7,30.1
	c1.3,11.9,17.1,17.8,23.7,18.5c7.2,0.8,5.6-1.8,5.7-4.8c0-0.1,0.4-0.5,0.4-0.5c0.1-1,0.1-2.4,0.9-3.6c0,0-0.2-0.9-0.2-1.4
	c0-0.3,0-0.5,0.4-0.6c1.1-0.3,2.1-0.5,2.6-0.9C371.1,202.9,367.2,194.4,369.2,192.2z"/>
<path style="fill:#D6876B;" d="M362.4,208c0,0,0.7,0.5,4,0.8c0.4-0.2,1.2-0.5,0.6-1.5C366.6,206.6,364.7,207.9,362.4,208z"/>
<path style="fill:#CC785E;" d="M362.4,208c0,0,0.5,1.7,3.5,2.7c0.4,0,0.8-0.3,0.9-0.5c0.5-1-0.4-1.4-0.4-1.4
	C363,208.5,362.4,208,362.4,208z"/>
<path style="fill:#602F0F;" d="M351.2,165.7c-12.4-1-30.3,15.4-15.2,37.8c1,1.5,3.4,3.4,7.5,0.8c2.9-1.8,5-4.4,5-4.4
	c0.6-0.8,1.3-1.6,2-2.5c0.8-1,0.5-7.2,1.7-7.3c12.3-0.9,18-6.9,18.2-10.1C369.7,172.1,364.4,166.8,351.2,165.7z"/>
<path style="fill:#F4B382;" d="M346.8,196.2c1.4,5.6,3.7,6.1,6.9,6.1l-1.1-8.7l-1.4-3.6C347.9,190,345.4,190.5,346.8,196.2z"/>
<path style="fill:#4C230C;" d="M330.4,182.9c-2.7-2.7-0.8-8.6,4.1-13.1s11.1-6,13.8-3.3c2.7,2.7,0.6,7.1-4.3,11.6
	S333,185.6,330.4,182.9z"/>
<g>
	<path style="fill:#602F0F;" d="M353.4,191.5c-0.1-1,0-1.9,0.1-2.6c0.1-1,0.3-1.7,0.3-1.7l-3.7,1c-0.1,0.5-0.1,1.1-0.1,1.6
		c0,0,0.4-0.1,1.1-0.3H351c0.4,0.8,0.9,2.1,1.4,4C352.3,193.6,353.6,194.7,353.4,191.5z"/>
	<path style="fill:#602F0F;" d="M328.4,182.3c-2.8-2.9-0.7-9.2,4.7-14.1c5.4-4.9,12.1-6.6,14.9-3.8c2.8,2.9,0.5,7.6-4.9,12.5
		C337.6,181.9,331.2,185.2,328.4,182.3z"/>
</g>
<path style="fill:#4C230C;" d="M331.3,171.5c-0.3-0.3,0.8-1.8,2.4-3.3c1.7-1.5,3.2-2.5,3.6-2.2c0.3,0.3-0.7,1.5-2.3,3
	C333.3,170.6,331.6,171.9,331.3,171.5z"/>
<path style="fill:#F4B382;" d="M125.1,332.8c0.4-4.1,17.8-5.1,20.5-6.8c1.3-0.8,2.4-3.2,5.8-3.8c4.5-0.8,7.6,2.4,9.2,2
	c8.1-1.9,25.8-4.6,35.7-6.8c2.3-0.5,4.6-1,7-1.4c9.8-1.7,7,19.3,3.4,19.6c-14.4,1-44.3-1-49.5-1.2c0,0-15.8,2-19.6,2.1
	C135.4,336.6,124.7,336.9,125.1,332.8z"/>
<path style="fill:#3D3C3C;" d="M238.9,313.4c-11.6,0.1-25.8,1-35.6,2.7c1.7,3.1,3.9,16.4,3.4,19.5c3.6-0.2,51.5,3.8,58.8-4.3
	c7.7-8.3-16.4-79.2-15-81.9c0,0-9.1-31.4-17.1-29.5c-5.9,2.8-11.3-2.5-18.9,10.4C203.2,249.6,238.9,313.4,238.9,313.4z"/>
<g>
</g>
<g>
</g>
<g>
</g>
<g>
</g>
<g>
</g>
<g>
</g>
<g>
</g>
<g>
</g>
<g>
</g>
<g>
</g>
<g>
</g>
<g>
</g>
<g>
</g>
<g>
</g>
<g>
</g>
</svg>
