<?xml version="1.0" encoding="iso-8859-1"?>
<!-- Generator: Adobe Illustrator 19.0.0, SVG Export Plug-In . SVG Version: 6.00 Build 0)  -->
<svg version="1.1" id="Layer_1" xmlns="http://www.w3.org/2000/svg" xmlns:xlink="http://www.w3.org/1999/xlink" x="0px" y="0px"
	 viewBox="0 0 496.2 496.2" style="enable-background:new 0 0 496.2 496.2;" xml:space="preserve">
<path style="fill:#FFEFD6;" d="M0,248.1C0,111.1,111.1,0,248.1,0s248.1,111.1,248.1,248.1S385.1,496.2,248.1,496.2S0,385.1,0,248.1z
	"/>
<path style="fill:#E2A379;" d="M133.2,285.5c4.2-2.3,15.3-4,20.3-7.7c2.9-2.1,8.8-6,12.3-5.9c5.8,0.1,8.2,3.5,9.8,3.8
	c9.9,2,36.8-5.1,42.8-4.9c9.9,0.2,6.4,19.2,2.8,19.1c-29.4-0.5-44.1-1.8-49.3-2.4c0,0-30.5,3.1-34.2,2.9
	C135.4,290.2,129.6,287.5,133.2,285.5z"/>
<path style="fill:#333333;" d="M237.7,199.3c-15.6,16.6-16.5,49.7-15.6,68.5l26.3,24.8c6-17.7,8.7-56.3,10.9-71.3
	C259.3,221.2,256.8,179,237.7,199.3z"/>
<path style="fill:#B3233B;" d="M243.1,261.3c-0.6,10.3,1.3,20,8,29.5c2.3,3.2,6.7,8.7,13.7,8.7s11.1-3.5,14.1-7.5
	c3.8-5,4-10.9,5.6-24.7c3.1-26.4-0.8-47.2-2.5-60c-0.3-1.8-40-4.3-40-4.3c4.3,20.6,11.5,32.3,8.8,44.5
	C250.6,247.6,243.9,249.1,243.1,261.3z"/>
<g>
	<path style="fill:#F4B382;" d="M409.2,297.1c0.6-3.7-15.3-4.5-19.8-6.3l-6,1.6c-33.8-8.2-49.8-4.7-49.8-4.7
		c-20-5.8-58.9-15.1-66.8-15.1c-7.9,0-9.7,15.9-2,17.9s14.7,2.8,22.5,4.1c7.8,1.3,37,5.2,44,5.7c1,0.1,50.6,0.4,50.6,0.4
		s2,0.4,5.1,2.1c4.2,2.4,11.1,3.2,15.1,2.1C405.4,304,408.6,300.8,409.2,297.1z"/>
	<path style="fill:#F4B382;" d="M393.9,293.2c0,0,4.9,1.3,5.8-1.2c0.8-2.1,0.8-2.9-10.3-1.2C389.4,290.8,389.3,292.3,393.9,293.2z"
		/>
	<path style="fill:#F4B382;" d="M212.6,265.5c-4.4-4.6-9.9-3-13.1-1.8c-9.8,4-11.7,9.7-12.9,17.3c-1.6,10,24.3,17.9,28.9,17.8
		c11.9-0.5,19-15.8,20.2-22.3c1.3-7.2-1.4-5.8-4.3-6c-0.1,0-0.5-0.4-0.5-0.4c-1-0.2-2.4-0.3-3.6-1.2c0,0-0.9,0.1-1.4,0.1
		c-0.3,0-0.5-0.1-0.6-0.5c-0.2-1.1-0.4-2.2-0.8-2.6C223.4,264.4,214.7,267.6,212.6,265.5z"/>
</g>
<path style="fill:#D6876B;" d="M227.9,273.4c0,0,0.5-0.6,1.1-3.9c-0.1-0.4-0.5-1.2-1.4-0.7C226.8,269.1,228,271.1,227.9,273.4z"/>
<path style="fill:#CC785E;" d="M227.9,273.4c0,0,1.8-0.4,3-3.3c0-0.4-0.3-0.8-0.5-0.9c-0.9-0.5-1.5,0.3-1.5,0.3
	C228.4,272.8,227.9,273.4,227.9,273.4z"/>
<path style="fill:#602F0F;" d="M184.9,281.5c-1.9,12.3,13.2,31.3,36.6,17.8c1.6-0.9,3.6-3.2,1.3-7.4c-1.6-3-4-5.3-4-5.3
	c-0.7-0.7-1.5-1.4-2.4-2.1c-0.9-0.8-7.1-1-7.1-2.3c0-12.3-5.6-18.4-8.8-18.9C192.6,263.6,186.9,268.4,184.9,281.5z"/>
<path style="fill:#F4B382;" d="M215,288.1c5.7-1,6.3-3.2,6.5-6.5l-8.7,0.5l-3.6,1.1C208.9,286.6,209.3,289.1,215,288.1z"/>
<path style="fill:#4C230C;" d="M187.8,298.6c-4.2-5.2-5.2-11.5-2.3-14s7.1-0.1,11.2,5.1C200.9,295,191.9,303.8,187.8,298.6z"/>
<g>
	<path style="fill:#602F0F;" d="M210.9,281.2c-1,0-1.9-0.1-2.6-0.2c-1-0.2-1.7-0.4-1.7-0.4l0.7,3.8c0.5,0.1,1,0.2,1.6,0.3
		c0,0-0.1-0.4-0.2-1.1v0.1c0.9-0.4,2.2-0.8,4.1-1.1C212.8,282.4,214,281.2,210.9,281.2z"/>
	<path style="fill:#602F0F;" d="M186.1,299.9c-4.5-5.7-5.8-12.5-2.7-15.1s7.6,0,12.1,5.8C200.1,296.2,190.7,305.6,186.1,299.9z"/>
</g>
<path style="fill:#4C230C;" d="M189.3,301.8c-0.3,0.3-1.7-0.9-3.1-2.7c-1.4-1.8-2.2-3.4-1.9-3.7c0.3-0.3,1.4,0.8,2.8,2.5
	C188.5,299.7,189.7,301.5,189.3,301.8z"/>
<path style="fill:#F4B382;" d="M122.7,300.2c4.2-2.3,15.3-4,20.3-7.7c2.9-2.1,8.8-6,12.3-5.9c5.8,0.1,8.2,3.5,9.8,3.8
	c9.9,2,36.8-5.1,42.8-4.9c9.9,0.2,6.4,19.2,2.8,19.1c-29.4-0.5-44.1-1.8-49.3-2.4c0,0-30.5,3.1-34.2,2.9
	C124.9,304.9,119.1,302.1,122.7,300.2z"/>
<g>
	<path style="fill:#3D3C3C;" d="M230.5,281.7c-5.8,0.5-11.7,1-23.1,3.7c1,3.3,3.9,16.3,2.7,19.2c5.9,0.2,33.2,1.3,42-5
		c9.2-6.6,8.2-62.1,9.3-81c0,0-5-40.3-24-20C215.6,221.8,230.5,281.7,230.5,281.7z"/>
	<path style="fill:#3D3C3C;" d="M258.6,220.8c0,0-17.5-25.9-14.4-27.3c9.7-4.6,35.1-4,37.7,14C282.4,210.7,258.6,220.8,258.6,220.8z
		"/>
</g>
<g>
</g>
<g>
</g>
<g>
</g>
<g>
</g>
<g>
</g>
<g>
</g>
<g>
</g>
<g>
</g>
<g>
</g>
<g>
</g>
<g>
</g>
<g>
</g>
<g>
</g>
<g>
</g>
<g>
</g>
</svg>
