<?xml version="1.0" encoding="iso-8859-1"?>
<!-- Generator: Adobe Illustrator 19.0.0, SVG Export Plug-In . SVG Version: 6.00 Build 0)  -->
<svg version="1.1" id="Layer_1" xmlns="http://www.w3.org/2000/svg" xmlns:xlink="http://www.w3.org/1999/xlink" x="0px" y="0px"
	 viewBox="0 0 496.2 496.2" style="enable-background:new 0 0 496.2 496.2;" xml:space="preserve">
<path style="fill:#FFEFD6;" d="M0,248.1C0,111.1,111.1,0,248.1,0s248.1,111.1,248.1,248.1S385.1,496.2,248.1,496.2S0,385.1,0,248.1z
	"/>
<path style="fill:#E2A379;" d="M378.6,371.9c-4.1-0.2-20.3,0.1-21.8,0.3c-3.6,0.5-7.4-0.9-7.3-4.3c0.1-2.6,0.9-5.1,0.5-6.7
	c-2.2-8.1-9.7-35.7-12.2-45.5c-0.8-3.3,19.5-7.4,19.8-3.8c1.5,14.4,2.5,44.9,2.4,50.1c0,0,21.4,0.9,21.6,4.7
	C381.8,368.8,382.7,372.1,378.6,371.9z"/>
<path style="fill:#333333;" d="M332,295c1.3,5.6,1.5,9.7,5.8,20.6c3.1-1.5,16.8-4.5,19.8-3.8c-0.7-5.8-3.6-33-11.2-40.8
	c-7.9-8.2-80.5,10.9-82.2,8.3c0,0-36.4,24.6-21.3,34.8C261.6,326.5,332,295,332,295z"/>
<path style="fill:#F4B382;" d="M80.4,369.4c0.4-4.1,17.8-5.1,20.5-6.8c1.3-0.8,2.4-3.2,5.8-3.8c4.5-0.8,7.6,2.4,9.2,2
	c8.1-1.9,30.6-4.6,40.5-6.8c2.3-0.5,4.6-1,7-1.4c9.8-1.7,7,19.3,3.4,19.6c-14.4,1-49-1-54.2-1.2c0,0-15.8,2-19.6,2.1
	C90.7,373.2,80,373.5,80.4,369.4z"/>
<path style="fill:#3D3C3C;" d="M195.2,350.1c-11.6,0.1-22.5,1-32.3,2.7c1.7,3.1,3.9,16.4,3.4,19.5c3.6-0.2,31.5-0.5,31.5-0.5
	c7.8-0.1,55.5-46.7,75-70c1.5-1.7,4-6,6.4-10.6c0,0-31.1-18.9-34.6-18.2c-5.8,3-11.5,8.9-13.8,16.4c-1.3,4.1-1,11.5-2.4,13.6
	C215.4,321.5,195.2,350.1,195.2,350.1z"/>
<g>
	<path style="fill:#E2A379;" d="M251,68c-3.8,0-1.8,15.8-2.8,20.6l2.6,5.7c-2.3,34.7,3.9,49.8,3.9,49.8c-2.3,20.7-4.8,60.6-3.4,68.4
		c1.3,7.8,17.3,6.9,17.9-1.1c0.6-7.9,0.3-15,0.2-22.9c0-7.9-1.2-37.4-1.9-44.3c-0.1-0.9-8.2-49.9-8.2-49.9s0.1-2,1.2-5.3
		c1.6-4.6,1.2-11.5-0.5-15.2C258.5,70.6,254.7,68,251,68z"/>
	<path style="fill:#E2A379;" d="M249.7,83.8c0,0,0.4-5-2.2-5.5c-2.2-0.4-3-0.3,0.6,10.3C248.2,88.7,249.7,88.5,249.7,83.8z"/>
</g>
<path style="fill:#B3233B;" d="M286.8,217.3c0.4-12.3-9.8-15.4-16.5-28.5c-0.8-1.6-8.4-6.1-12.4-6.2c-4.4-0.1-8.9,0.6-12.3,4.2
	c-2.6,2.8-7.8,11.5-3.5,34.5c1,8.9,8.8,45.6,1.9,52c0,0,12.2,9.3,20.2,11.3s15.3,6.3,15.3,6.3c8.4-19.7,1-52.4,2.8-64.7
	C282.4,226.3,286.7,220.8,286.8,217.3z"/>
<path style="fill:#E2A379;" d="M266.8,183.7c0,0-3.2-8.9-5.2-16.9l-13.4-0.9c2.6,8,0.7,18.8,0.7,18.8c12.5-1.3,17.7,3,21,4.3
	L266.8,183.7z"/>
<path style="fill:#F4B382;" d="M257.3,138.9c-1.3-6.2-6.8-7.8-10.1-8.4c-10.4-1.9-15.1,2-20.1,7.8c-6.7,7.7,11,28.1,15,30.4
	c10.4,5.9,24.4-3.3,28.9-8.2c4.9-5.4,1.8-5.6-0.5-7.4c-0.1-0.1-0.2-0.6-0.2-0.6c-0.7-0.7-1.8-1.5-2.4-2.9c0,0-0.9-0.4-1.2-0.7
	c-0.3-0.2-0.4-0.3-0.2-0.7c0.4-1.1,0.8-2,0.8-2.6C267,143.7,257.9,141.8,257.3,138.9z"/>
<path style="fill:#D6876B;" d="M266,153.8c0,0,0.8-0.3,3-2.7c0.1-0.4,0.3-1.3-0.8-1.4C267.4,149.6,267.3,151.8,266,153.8z"/>
<path style="fill:#CC785E;" d="M266,153.8c0,0,1.7,0.6,4.3-1.2c0.3-0.4,0.2-0.9,0.1-1c-0.5-0.9-1.4-0.5-1.4-0.5
	C266.8,153.6,266,153.8,266,153.8z"/>
<path style="fill:#602F0F;" d="M225.3,137.8c-8.1,9.4-5.5,33.5,21.5,34.6c1.8,0.1,4.8-0.8,5.1-5.6c0.2-3.4-0.6-6.6-0.6-6.6
	c-0.3-0.9-0.5-2-0.9-3.1c-0.4-1.2-5.5-4.6-4.8-5.7c6.5-10.4,5-18.6,2.6-20.7C241.4,126.7,234,127.8,225.3,137.8z"/>
<path style="fill:#F4B382;" d="M247.3,159.4c5.4,2.2,7.1,0.6,9-2l-7.7-4.2l-3.7-1C243,154.8,241.9,157.2,247.3,159.4z"/>
<path style="fill:#4C230C;" d="M226.8,164.8c-3.8,0.6-7.4-4.4-8.1-11c-0.7-6.6,1.7-12.5,5.5-13.1s6.1,3.7,6.8,10.3
	C231.7,157.7,230.6,164.2,226.8,164.8z"/>
<g>
	<path style="fill:#602F0F;" d="M247.4,151.3c-0.9-0.5-1.6-1.1-2.1-1.6c-0.8-0.7-1.2-1.3-1.2-1.3l-1.4,3.6c0.4,0.4,0.8,0.7,1.2,1.1
		c0,0,0.2-0.4,0.4-1v0.1c0.9,0.2,2.3,0.5,4,1.3C248.4,153.4,250.1,153,247.4,151.3z"/>
	<path style="fill:#602F0F;" d="M225.2,166.1c-4,0.6-7.8-4.8-8.6-12.1s1.8-13.7,5.7-14.3c4-0.6,6.4,4.1,7.2,11.3
		C230.3,158.3,229.2,165.5,225.2,166.1z"/>
</g>
<path style="fill:#4C230C;" d="M218.2,157.3c-0.4,0.1-1-1.7-1.2-3.9s-0.1-4.1,0.4-4.1c0.4-0.1,0.8,1.4,1.1,3.6
	C218.7,155.1,218.7,157.3,218.2,157.3z"/>
<g>
	<path style="fill:#F4B382;" d="M245.5,63c-3.8,0-1.8,15.8-2.8,20.6l2.6,5.7c-2.3,34.7,3.9,49.8,3.9,49.8
		c-2.3,20.7-4.8,60.6-3.4,68.4c1.3,7.8,17.3,6.9,17.9-1.1c0.6-7.9,0.3-15,0.2-22.9c0-7.9-1.2-37.4-1.9-44.3
		c-0.1-0.9-8.2-49.9-8.2-49.9s0.1-2,1.2-5.3c1.6-4.6,1.2-11.5-0.5-15.2C253,65.6,249.2,63,245.5,63z"/>
	<path style="fill:#F4B382;" d="M244.2,78.8c0,0,0.4-5-2.2-5.5c-2.2-0.4-3-0.3,0.6,10.3C242.7,83.7,244.2,83.5,244.2,78.8z"/>
</g>
<g>
</g>
<g>
</g>
<g>
</g>
<g>
</g>
<g>
</g>
<g>
</g>
<g>
</g>
<g>
</g>
<g>
</g>
<g>
</g>
<g>
</g>
<g>
</g>
<g>
</g>
<g>
</g>
<g>
</g>
</svg>
