<?xml version="1.0" encoding="iso-8859-1"?>
<!-- Generator: Adobe Illustrator 19.0.0, SVG Export Plug-In . SVG Version: 6.00 Build 0)  -->
<svg version="1.1" id="Layer_1" xmlns="http://www.w3.org/2000/svg" xmlns:xlink="http://www.w3.org/1999/xlink" x="0px" y="0px"
	 viewBox="0 0 496.2 496.2" style="enable-background:new 0 0 496.2 496.2;" xml:space="preserve">
<path style="fill:#FFEFD6;" d="M0,248.1C0,111.1,111.1,0,248.1,0s248.1,111.1,248.1,248.1S385.1,496.2,248.1,496.2S0,385.1,0,248.1z
	"/>
<path style="fill:#E2A379;" d="M184.8,335.8c-6.1-2.1-15.4-2-15.5-4.6c-0.8-20.8-2.5-52-2.5-52c1.5-20.7,12.3-60.7,10.6-68.5
	c-1.7-7.7-17.6-6.1-17.9,1.8c-1,9.3-2.2,13.7-3.2,23.3c-1.5,11.9-3.3,36.9-2.3,43.8c0.1,0.9,6.8,47,6.8,47s0.2,5.7,1,8.8
	c0.9,3.5,3.2,2.7,10.2,3.5C177.2,339.6,189.1,337.3,184.8,335.8z"/>
<path style="fill:#3D3C3C;" d="M251.4,159c0,0-22.3,23-17.8,30.4c0.5,0.9,1.1,2.9,1.3,3.5c5.4,15.3,17.7,15.1,19.8,17.6
	c1.6,2,18.3-10.8,24.6-19.3c0,0-7-17.7-11.4-23.6C264.6,163.3,251.4,159,251.4,159z"/>
<path style="fill:#B3233B;" d="M164.7,182.4c-9.2,8.1-8.4,13-12.4,27.2c-0.5,1.8,2.1,10.2,4.9,12.9c3.2,3.1,7,5.1,11.9,5.2
	c9.6,0.2,23.6-24.4,36.2-30.4c8.1-5,26.1-12.5,28.3-8l17.8-30.4c-49.8-9.8-67.7,12-77.4,19.8C174,178.8,167.3,180.1,164.7,182.4z"/>
<path style="fill:#E2A379;" d="M154.7,221.7c0,0-1.6,3.9-5.2,10.5l12.5,11c0.2-8.4,5.2-15.6,5.2-15.6c-10.7-2.8-11.1-9.5-13.7-11.8
	L154.7,221.7z"/>
<path style="fill:#F4B382;" d="M151.2,261c0.9,6.3,6.2,8.3,9.5,9.1c10.3,2.6,15.2-1,20.6-6.5c7.2-7.2-9.1-28.8-12.9-31.4
	c-9.9-6.6-24.6,1.6-29.4,6.2c-5.3,5-2.2,5.5,0,7.4c0.1,0.1,0.1,0.6,0.1,0.6c0.7,0.7,1.7,1.6,2.2,3c0,0,0.8,0.5,1.2,0.8
	c0.2,0.2,0.4,0.4,0.2,0.7c-0.5,1-0.9,2-0.9,2.6C141.9,255.6,150.8,258.1,151.2,261z"/>
<path style="fill:#D6876B;" d="M143.5,245.6c0,0-0.8,0.2-3.1,2.5c-0.2,0.4-0.3,1.2,0.7,1.5C141.9,249.7,142.1,247.5,143.5,245.6z"/>
<path style="fill:#CC785E;" d="M143.5,245.6c0,0-1.7-0.7-4.4,0.9c-0.3,0.4-0.2,0.8-0.2,1c0.4,1,1.4,0.6,1.4,0.6
	C142.7,245.8,143.5,245.6,143.5,245.6z"/>
<path style="fill:#602F0F;" d="M183.1,264.4c8.7-8.8,7.7-33.1-19.1-35.9c-1.8-0.2-4.8,0.5-5.5,5.2c-0.5,3.4,0.1,6.6,0.1,6.6
	c0.2,1,0.4,2,0.7,3.1c0.3,1.2,5.2,5,4.4,6c-7.2,10-6.3,18.2-4,20.5C166.3,274.3,173.8,273.7,183.1,264.4z"/>
<path style="fill:#F4B382;" d="M162.6,241.3c-5.2-2.6-7-1.1-9.1,1.4l7.4,4.7l3.6,1.2C166.6,246.1,167.8,243.8,162.6,241.3z"/>
<path style="fill:#4C230C;" d="M183.4,237.3c3.8-0.3,7.1,4.9,7.4,11.5c0.3,6.7-2.6,12.4-6.4,12.7c-3.8,0.3-5.8-4.1-6.1-10.8
	C178,244.1,179.6,237.6,183.4,237.3z"/>
<g>
	<path style="fill:#602F0F;" d="M161.9,249.3c0.8,0.6,1.5,1.2,2,1.7c0.7,0.8,1.1,1.4,1.1,1.4l1.6-3.5c-0.4-0.4-0.7-0.8-1.1-1.1
		c0,0-0.2,0.4-0.5,1v-0.1c-0.9-0.2-2.2-0.7-4-1.5C161.1,247.2,159.4,247.5,161.9,249.3z"/>
	<path style="fill:#602F0F;" d="M185.1,236.1c4-0.3,7.5,5.3,7.8,12.7c0.3,7.3-2.7,13.5-6.7,13.8s-6.1-4.5-6.4-11.8
		C179.4,243.5,181.1,236.4,185.1,236.1z"/>
</g>
<path style="fill:#4C230C;" d="M191.4,245.3c0.4,0,0.9,1.7,1,4c0.1,2.2-0.2,4.1-0.6,4.1c-0.4,0-0.7-1.5-0.8-3.7
	C190.9,247.5,191,245.3,191.4,245.3z"/>
<path style="fill:#3D3C3C;" d="M233.1,191.5c5.4,13,18.3,17.6,18.3,17.6s28.8-5.5,26.8-12.5c-3.8-13.1-8.8-22.6-10.4-29.1l-13.3-5
	C254.5,162.5,230.4,185,233.1,191.5z"/>
<path style="fill:#F4B382;" d="M356.3,339.7l-32.2-0.5c-7.5,0-5.2-8-3.2-9.8c1.2-1.1-19.3-40-21.3-45.7c-3.4-9.3,15.5-12.9,16.8-9.6
	c10.3,27.5,15.2,47.1,16.5,52.2c0,0,23.4,5.2,26,8C360.3,336,361.6,338.8,356.3,339.7z"/>
<path style="fill:#3D3C3C;" d="M283.8,254.6c3.5,11,11.2,20.2,15.6,29.2c2.4-2.5,13.7-9.1,16.8-9.6c-1.3-3.4-12.4-28.4-12.4-28.4
	c-2.7-8.4-29.1-64.2-30.6-67.5c-1.6-3.3-3.2-6.9-5.4-10.8l-31.8,22c8.4,15.6,34.6,36.6,38.9,43.5
	C279.3,239.9,283.8,254.6,283.8,254.6z"/>
<path style="fill:#F4B382;" d="M174.9,337.7c-4.2-2.6-15.8-3.9-15.6-6.5c1.5-20.8,7.5-52,7.5-52c1.5-20.7,12.3-60.7,10.6-68.5
	c-1.7-7.7-17.6-6.1-17.9,1.8c-1,9.3-2.2,13.7-3.2,23.3c-1.5,11.9-3.3,36.9-2.3,43.8c0.1,0.9-3,52.7-2.2,55.8
	c0.9,3.5,3.2,2.7,10.2,3.5C167.2,339.6,178.8,340.1,174.9,337.7z"/>
<g>
</g>
<g>
</g>
<g>
</g>
<g>
</g>
<g>
</g>
<g>
</g>
<g>
</g>
<g>
</g>
<g>
</g>
<g>
</g>
<g>
</g>
<g>
</g>
<g>
</g>
<g>
</g>
<g>
</g>
</svg>
