<?xml version="1.0" encoding="iso-8859-1"?>
<!-- Generator: Adobe Illustrator 19.0.0, SVG Export Plug-In . SVG Version: 6.00 Build 0)  -->
<svg version="1.1" id="Layer_1" xmlns="http://www.w3.org/2000/svg" xmlns:xlink="http://www.w3.org/1999/xlink" x="0px" y="0px"
	 viewBox="0 0 496.2 496.2" style="enable-background:new 0 0 496.2 496.2;" xml:space="preserve">
<path style="fill:#FFEFD6;" d="M0,248.1C0,111.1,111.1,0,248.1,0s248.1,111.1,248.1,248.1S385.1,496.2,248.1,496.2S0,385.1,0,248.1z
	"/>
<g>
	<path style="fill:#E2A379;" d="M350.4,278.4c1.5-3.4-13.7-8.2-17.6-11h-6.2c-30.6-16.4-47-16.9-47-16.9
		c-17.9-10.6-46.5-28.4-54.2-30.4s-13.4,13-6.4,16.8s6.8,5.5,14,8.8c7.2,3.2,34.6,14.3,41.1,16.5c0.9,0.3,48.9,13,48.9,13
		s1.8,0.9,4.4,3.3c3.5,3.3,10,5.9,14.1,5.8C345,284.2,348.8,281.8,350.4,278.4z"/>
	<path style="fill:#E2A379;" d="M336.5,270.8c0,0,4.4,2.5,5.9,0.2c1.3-1.8,1.5-2.6-9.7-3.7C332.8,267.3,332.3,268.8,336.5,270.8z"/>
</g>
<path style="fill:#B3233B;" d="M224.8,268.2c10.3-6.7,7-16.9,13.9-29.9c0.9-1.6,0.1-10.4-2.1-13.7c-2.5-3.7-5.6-7-10.5-7.7
	c-3.8-0.5-13.9,0.2-30.3,16.9c-8,7.2-30.5,20.1-40.2,32.4c-11.5,14.5-11.7,18.4-11.7,18.4l19.7,20.9c32.2-19.1,40.2-30.2,51.3-35.7
	C214.9,269.8,221.9,270.1,224.8,268.2z"/>
<path style="fill:#E2A379;" d="M241.2,232.7c0,0,5.4-7.7,10.8-13.9l-6.9-11.5c-5,6.7-14.9,11.4-14.9,11.4c8.3,9.5,7.7,16.2,8.5,19.7
	L241.2,232.7z"/>
<path style="fill:#F4B382;" d="M272.8,215.1c6.1-1.8,7.3-7.3,7.7-10.8c1.1-10.6-3.2-14.9-9.3-19.5c-8.2-6.1-27.2,13.1-29.2,17.3
	c-5.1,10.8,5.1,24.1,10.3,28.2c5.7,4.5,5.8,1.4,7.3-1.1c0.1-0.1,0.6-0.2,0.6-0.2c0.6-0.8,1.4-1.9,2.7-2.6c0,0,0.3-0.9,0.6-1.3
	c0.2-0.3,0.3-0.4,0.7-0.3c1.1,0.3,2.1,0.7,2.7,0.6C268.8,225.2,270,216,272.8,215.1z"/>
<path style="fill:#D6876B;" d="M258.7,225c0,0,0.3,0.8,3,2.8c0.4,0.1,1.3,0.2,1.3-0.9C263,226,260.7,226.2,258.7,225z"/>
<path style="fill:#CC785E;" d="M258.7,225c0,0-0.5,1.7,1.5,4.2c0.4,0.2,0.9,0.1,1,0c0.9-0.6,0.4-1.5,0.4-1.5
	C259,225.8,258.7,225,258.7,225z"/>
<path style="fill:#602F0F;" d="M271.6,183.2c-10-7.4-33.9-2.9-32.8,24.1c0.1,1.8,1.1,4.7,6,4.7c3.4,0,6.5-1.1,6.5-1.1
	c0.9-0.3,1.9-0.7,3-1.1c1.2-0.4,4.2-5.8,5.3-5.2c10.9,5.7,18.9,3.6,20.8,1C283.8,198.4,282.2,191,271.6,183.2z"/>
<path style="fill:#F4B382;" d="M251.7,206.7c-1.8,5.5-0.1,7.1,2.7,8.8l3.6-8l0.7-3.7C255.9,202.1,253.5,201.2,251.7,206.7z"/>
<path style="fill:#4C230C;" d="M244.8,186.7c-0.8-3.7,3.8-7.7,10.4-8.9s12.6,0.8,13.4,4.5s-3.2,6.3-9.8,7.6
	C252.2,191.1,245.6,190.4,244.8,186.7z"/>
<g>
	<path style="fill:#602F0F;" d="M259.8,206.3c0.5-0.9,1-1.6,1.4-2.2c0.7-0.8,1.2-1.3,1.2-1.3l-3.7-1.1c-0.3,0.4-0.6,0.8-1,1.3
		c0,0,0.4,0.1,1.1,0.4h-0.1c-0.1,0.9-0.3,2.3-0.9,4.1C257.8,207.4,258.3,209.1,259.8,206.3z"/>
	<path style="fill:#602F0F;" d="M243.4,185.2c-0.9-3.9,4.2-8.2,11.4-9.5s13.8,0.7,14.7,4.7c0.9,3.9-3.6,6.7-10.8,8.1
		C251.5,189.8,244.2,189.1,243.4,185.2z"/>
</g>
<path style="fill:#4C230C;" d="M251.6,177.6c-0.1-0.4,1.6-1.1,3.8-1.5c2.2-0.4,4.1-0.4,4.2,0s-1.3,0.9-3.5,1.3
	C253.8,177.9,251.7,178,251.6,177.6z"/>
<path style="fill:#E2A379;" d="M342.1,288.7c-0.9,4,0,15.4-0.1,16.9c-0.1,3.6-2.1,7.1-5.5,6.4c-2.6-0.5-4.9-1.8-6.5-1.6
	c-8.3,0.8-33.2,4.5-43.2,5.3c-2.3,0.2-4.7,0.3-7.2,0.4c-9.9,0.3-4.3-20.1-0.7-19.8c14.4,1,48.4,3.4,53.6,4.4c0,0,1.2-19.3,4.9-18.9
	C339.7,282,343.1,284.6,342.1,288.7z"/>
<g>
	<path style="fill:#F4B382;" d="M345.1,293.2c-0.9,4,0,15.4-0.1,16.9c-0.1,3.6-2.1,7.1-5.5,6.4c-2.6-0.5-4.9-1.8-6.5-1.6
		c-8.3,0.8-33.2,0.3-43.2,1.1c-2.3,0.2-4.7,0.3-7.2,0.4c-9.9,0.3-4.3-20.1-0.7-19.8c14.4,1,48.4,7.6,53.6,8.6c0,0,1.2-19.3,4.9-18.9
		C342.7,286.5,346.1,289.1,345.1,293.2z"/>
	<path style="fill:#F4B382;" d="M353.6,286.9c1.7-3.3-13.2-8.9-17-11.9l-6.2-0.3c-29.8-17.9-46.1-19.3-46.1-19.3
		c-17.3-11.5-51.7-31.9-59.3-34.3c-7.5-2.4-14,12.3-7.2,16.5s13.2,7.1,20.3,10.7c7,3.6,33.8,16,40.3,18.5
		c0.9,0.3,48.2,15.4,48.2,15.4s1.8,1,4.2,3.5c3.3,3.5,9.7,6.4,13.8,6.5C347.9,292.5,351.9,290.3,353.6,286.9z"/>
	<path style="fill:#F4B382;" d="M340.1,278.6c0,0,4.3,2.7,5.9,0.5c1.4-1.8,1.7-2.5-9.5-4.2C336.5,275,336,276.4,340.1,278.6z"/>
</g>
<g>
	<path style="fill:#3D3C3C;" d="M143.9,284.6c-3.2,15.2,1,35.4,21,36.2c17,0.7,22.5-6.6,22.5-6.6s12.7-28.6,5.5-29.3
		c-5.9-0.6-11-1.5-16-1.8c-3.3-0.2-14.1,0.4-22.4,0.8c-0.5,0-8.7-3.7-8.7-3.7C144.7,281.8,143.9,284.6,143.9,284.6z"/>
	<path style="fill:#3D3C3C;" d="M250.6,314.4c11.4,1.9,22.3,1.9,32.3,2c-1.1-3.3-0.9-16.9,0.1-19.8c-3.6-0.4-31.1-3.9-31.1-3.9
		c-8.7-1.4-60-10.6-76.2-9c-4.2,0.3-7.8,0.9-10.9,1.6c-5.9,1.3-10.2,31.6-2.2,33.2c17.7-0.4,56.6-5.1,64.7-5.8
		C235.4,311.8,250.6,314.4,250.6,314.4z"/>
</g>
<g>
</g>
<g>
</g>
<g>
</g>
<g>
</g>
<g>
</g>
<g>
</g>
<g>
</g>
<g>
</g>
<g>
</g>
<g>
</g>
<g>
</g>
<g>
</g>
<g>
</g>
<g>
</g>
<g>
</g>
</svg>
