<?xml version="1.0" encoding="iso-8859-1"?>
<!-- Generator: Adobe Illustrator 19.0.0, SVG Export Plug-In . SVG Version: 6.00 Build 0)  -->
<svg version="1.1" id="Layer_1" xmlns="http://www.w3.org/2000/svg" xmlns:xlink="http://www.w3.org/1999/xlink" x="0px" y="0px"
	 viewBox="0 0 496.2 496.2" style="enable-background:new 0 0 496.2 496.2;" xml:space="preserve">
<path style="fill:#FFEFD6;" d="M0,248.1C0,111.1,111.1,0,248.1,0s248.1,111.1,248.1,248.1S385.1,496.2,248.1,496.2S0,385.1,0,248.1z
	"/>
<g>
	<path style="fill:#E2A379;" d="M231.7,80.9c-3.8,0-1.8,15.8-2.8,20.6l2.6,5.7c-2.3,34.7,3.9,49.8,3.9,49.8
		c-2.3,20.7-4.8,60.6-3.4,68.4c1.3,7.8,17.3,6.9,17.9-1.1c0.6-7.9,0.3-15,0.2-22.9c0-7.9-1.2-37.4-1.9-44.3
		c-0.1-0.9-8.2-49.9-8.2-49.9s0.1-2,1.2-5.3c1.6-4.6,1.2-11.5-0.5-15.2C239.2,83.5,235.4,80.9,231.7,80.9z"/>
	<path style="fill:#E2A379;" d="M230.4,96.7c0,0,0.4-5-2.2-5.5c-2.2-0.4-3-0.3,0.6,10.3C228.8,101.5,230.3,101.4,230.4,96.7z"/>
	<path style="fill:#E2A379;" d="M60,331.7c4.1-2.5,15-4.9,19.8-8.8c2.8-2.3,8.4-6.5,11.9-6.6c5.8-0.2,8.4,3,10,3.2
		c10,1.4,36.5-7.1,42.5-7.3c9.9-0.3,7.4,18.8,3.8,18.9c-29.3,1.1-44.1,0.6-49.3,0.3c0,0-30.2,4.7-34,4.7
		C62.5,336.3,56.5,333.9,60,331.7z"/>
</g>
<path style="fill:#333333;" d="M176.5,311.6c-11.5-0.6-22.5-0.4-32.4,0.6c1.5,3.2,2.8,16.1,2.1,19.1c3.6,0,31.5,2.1,31.5,2.1
	c8.8,0.4,60.8,3.7,76.7,0.3c4.1-0.7,7.7-1.8,10.7-2.8c5.7-2-15-28.8-15-28.8c-15.4,0.2-42.3,7.1-50.2,8.7
	C191.9,312.5,176.5,311.6,176.5,311.6z"/>
<path style="fill:#3D3C3C;" d="M228.5,297c0,0-3.9,7.7-5.3,14.3c-2.3,10.7,2.7,17.1,7.2,20.3c6.3,4.7,30.1,6.1,30.1-0.5
	c0-13.6,4-20.6,5.2-27.1c0.8-4.4-19.8-10.5-19.8-10.5L228.5,297z"/>
<path style="fill:#B3233B;" d="M267.1,230.4c0.4-12.3-9.8-15.4-16.5-28.5c-0.8-1.6-8.4-6.1-12.4-6.2c-4.4-0.1-8.9,0.6-12.3,4.2
	c-2.6,2.8-7.8,11.5-3.5,34.5c1.3,10.7,12,50.7,6.2,62.6c0,0,13.7-1.3,21.7,0.7c8,2,15.3,6.3,15.3,6.3c2.8-37.3-4.7-52.4-2.9-64.7
	C262.7,239.4,267,233.9,267.1,230.4z"/>
<path style="fill:#E2A379;" d="M247.5,196.6c0,0-3.2-8.9-5.2-16.9l-13.4-0.9c2.6,8,0.7,18.8,0.7,18.8c12.5-1.3,17.7,3,21,4.3
	L247.5,196.6z"/>
<path style="fill:#F4B382;" d="M237.9,151.8c-1.3-6.2-6.8-7.8-10.1-8.4c-10.4-1.9-15.1,2-20.1,7.8c-6.7,7.7,11,28.1,15,30.4
	c10.4,5.9,24.4-3.3,28.9-8.2c4.9-5.4,1.8-5.6-0.5-7.4c-0.1-0.1-0.2-0.6-0.2-0.6c-0.7-0.7-1.8-1.5-2.4-2.9c0,0-0.9-0.4-1.2-0.7
	c-0.3-0.2-0.4-0.3-0.2-0.7c0.4-1.1,0.8-2,0.8-2.6C247.7,156.6,238.5,154.7,237.9,151.8z"/>
<path style="fill:#D6876B;" d="M246.7,166.7c0,0,0.8-0.3,3-2.7c0.1-0.4,0.3-1.3-0.8-1.4C248,162.5,248,164.7,246.7,166.7z"/>
<path style="fill:#CC785E;" d="M246.7,166.7c0,0,1.7,0.6,4.3-1.2c0.3-0.4,0.2-0.9,0.1-1c-0.5-0.9-1.4-0.5-1.4-0.5
	C247.5,166.4,246.7,166.7,246.7,166.7z"/>
<path style="fill:#602F0F;" d="M205.9,150.6c-8.1,9.4-5.5,33.5,21.5,34.6c1.8,0.1,4.8-0.8,5.1-5.6c0.2-3.4-0.6-6.6-0.6-6.6
	c-0.3-0.9-0.5-2-0.9-3.1c-0.4-1.2-5.5-4.6-4.8-5.7c6.5-10.4,5-18.6,2.6-20.7C222,139.6,214.6,140.7,205.9,150.6z"/>
<path style="fill:#F4B382;" d="M227.9,172.3c5.4,2.2,7.1,0.6,9-2l-7.7-4.2l-3.7-1C223.6,167.7,222.5,170.1,227.9,172.3z"/>
<path style="fill:#4C230C;" d="M207.5,177.7c-3.8,0.6-7.4-4.4-8.1-11c-0.7-6.6,1.7-12.5,5.5-13.1s6.1,3.7,6.8,10.3
	C212.4,170.6,211.2,177.1,207.5,177.7z"/>
<g>
	<path style="fill:#602F0F;" d="M228.1,164.2c-0.9-0.5-1.6-1.1-2.1-1.6c-0.8-0.7-1.2-1.3-1.2-1.3l-1.4,3.6c0.4,0.4,0.8,0.7,1.2,1.1
		c0,0,0.2-0.4,0.4-1v0.1c0.9,0.2,2.3,0.5,4,1.3C229.1,166.3,230.8,165.9,228.1,164.2z"/>
	<path style="fill:#602F0F;" d="M205.9,179c-4,0.6-7.8-4.8-8.6-12.1s1.8-13.7,5.7-14.3c4-0.6,6.4,4.1,7.2,11.3
		C211,171.2,209.8,178.4,205.9,179z"/>
</g>
<path style="fill:#4C230C;" d="M198.9,170.2c-0.4,0.1-1-1.7-1.2-3.9s-0.1-4.1,0.4-4.1c0.4-0.1,0.8,1.4,1.1,3.6
	S199.3,170.1,198.9,170.2z"/>
<path style="fill:#F4B382;" d="M436,323.3c-4.3,2.1-15.4,3.5-20.6,6.9c-3,2-9,5.7-12.5,5.5c-5.8-0.3-8.1-3.8-9.7-4.1
	c-9.8-2.3-37,3.7-43,3.4c-9.9-0.6-5.7-19.4-2.1-19.2c29.3,1.5,44,3.4,49.1,4.2c0,0,30.5-2,34.3-1.6C434,318.6,439.7,321.5,436,323.3
	z"/>
<path style="fill:#3D3C3C;" d="M318.2,332.7c11.4,1.7,22.4,2.4,32.3,2.3c-1.2-3.3-1.3-16.2-0.4-19.2c-3.6-0.3-31.2-4.9-31.2-4.9
	c-8.8-1.3-60.2-9.3-76.3-7.3c-4.2,0.4-7.8,1-10.9,1.8c-5.9,1.5,12.3,30,12.3,30c15.3,1.2,42.7-3.2,50.8-4.1
	C302.9,330.4,318.2,332.7,318.2,332.7z"/>
<g>
	<path style="fill:#F4B382;" d="M226.2,75.9c-3.8,0-1.8,15.8-2.8,20.6l2.6,5.7c-2.3,34.7,3.9,49.8,3.9,49.8
		c-2.3,20.7-4.8,60.6-3.4,68.4c1.3,7.8,17.3,6.9,17.9-1.1c0.6-7.9,0.3-15,0.2-22.9c0-7.9-1.2-37.4-1.9-44.3
		c-0.1-0.9-8.2-49.9-8.2-49.9s0.1-2,1.2-5.3c1.6-4.6,1.2-11.5-0.5-15.2C233.7,78.5,229.9,75.9,226.2,75.9z"/>
	<path style="fill:#F4B382;" d="M224.9,91.7c0,0,0.4-5-2.2-5.5c-2.2-0.4-3-0.3,0.6,10.3C223.3,96.5,224.8,96.4,224.9,91.7z"/>
</g>
<g>
</g>
<g>
</g>
<g>
</g>
<g>
</g>
<g>
</g>
<g>
</g>
<g>
</g>
<g>
</g>
<g>
</g>
<g>
</g>
<g>
</g>
<g>
</g>
<g>
</g>
<g>
</g>
<g>
</g>
</svg>
