<?xml version="1.0" encoding="iso-8859-1"?>
<!-- Generator: Adobe Illustrator 19.0.0, SVG Export Plug-In . SVG Version: 6.00 Build 0)  -->
<svg version="1.1" id="Layer_1" xmlns="http://www.w3.org/2000/svg" xmlns:xlink="http://www.w3.org/1999/xlink" x="0px" y="0px"
	 viewBox="0 0 496.2 496.2" style="enable-background:new 0 0 496.2 496.2;" xml:space="preserve">
<path style="fill:#FFEFD6;" d="M0,248.1C0,111.1,111.1,0,248.1,0s248.1,111.1,248.1,248.1S385.1,496.2,248.1,496.2S0,385.1,0,248.1z
	"/>
<path style="fill:#3D3C3C;" d="M280.3,238.6c0,0-7.8-3.7-14.6-4.5c-14-1.6-22.4,6.8-22.4,6.8s-6.1,31.1,1.1,31.7
	c13.6,1.2,24.3,2.6,30.9,3.4c4.5,0.6,9.4-20.4,9.4-20.4L280.3,238.6z"/>
<path style="fill:#B3233B;" d="M376.8,270.3c1.2-1.4,5.6-8.8,5.5-12.7c-0.2-4.4-1.1-8.9-4.9-12.1c-2.9-2.4-11.9-7.1-34.6-1.6
	c-10.6,1.9-50.2-0.1-62.5-5.3c0,0,2,13.6,0.5,21.7s-5.5,15.7-5.5,15.7c37.4,0.7,51.7,1.1,64.5,1.1
	C339.8,277.1,369.6,278.3,376.8,270.3z"/>
<path style="fill:#E2A379;" d="M382.6,266.7c0,0,8.7-3.7,16.5-6.1l0.2-13.4c-7.8,3.1-18.7,1.8-18.7,1.8c2,12.4-2,17.8-3.1,21.2
	L382.6,266.7z"/>
<path style="fill:#F4B382;" d="M421.1,254.7c5.7-2.8,5.9-8.5,5.7-11.9c-0.8-10.6-5.7-14.1-12.5-17.6c-9.1-4.6-24.6,17.6-25.8,22
	c-3.2,11.5,9.2,22.9,15,26.1c6.4,3.5,5.9,0.4,7-2.3c0-0.1,0.6-0.3,0.6-0.3c0.5-0.9,1-2.1,2.2-3c0,0,0.2-0.9,0.4-1.4
	c0.1-0.3,0.2-0.5,0.6-0.4c1.1,0.1,2.2,0.3,2.7,0.1C418.8,265.3,418.4,256,421.1,254.7z"/>
<path style="fill:#D6876B;" d="M408.8,266.9c0,0,0.4,0.7,3.4,2.2c0.5,0,1.3-0.1,1.2-1.1C413.3,267.1,411.1,267.7,408.8,266.9z"/>
<path style="fill:#CC785E;" d="M408.8,266.9c0,0-0.2,1.8,2.2,3.9c0.4,0.2,0.9,0,1-0.2c0.8-0.7,0.1-1.5,0.1-1.5
	C409.3,267.5,408.8,266.9,408.8,266.9z"/>
<path style="fill:#602F0F;" d="M414.4,223.4c-11.1-5.6-33.9,2.9-28.2,29.3c0.4,1.8,1.9,4.4,6.7,3.6c3.3-0.6,6.2-2.2,6.2-2.2
	c0.9-0.5,1.8-1,2.8-1.6c1.1-0.6,3.1-6.5,4.3-6.1c11.7,3.8,19.2,0.3,20.7-2.6C429,236.3,426.2,229.4,414.4,223.4z"/>
<path style="fill:#F4B382;" d="M398.8,250c-0.8,5.7,1.1,7,4.2,8.2l2.2-8.5l0.1-3.8C402.2,244.8,399.6,244.3,398.8,250z"/>
<path style="fill:#4C230C;" d="M388.6,231.5c-1.5-3.5,2.4-8.2,8.7-10.6c6.3-2.3,12.5-1.4,14,2.1s-2.1,6.8-8.3,9.1
	C396.7,234.5,390.1,235,388.6,231.5z"/>
<g>
	<path style="fill:#602F0F;" d="M406.7,248.2c0.3-1,0.7-1.8,1-2.4c0.5-0.9,0.9-1.5,0.9-1.5l-3.8-0.5c-0.2,0.5-0.5,0.9-0.7,1.4
		c0,0,0.4,0.1,1.1,0.2h-0.1c0.1,0.9,0.1,2.3-0.2,4.2C404.9,249.7,405.7,251.2,406.7,248.2z"/>
	<path style="fill:#602F0F;" d="M386.9,230.3c-1.5-3.7,2.8-8.8,9.6-11.3c6.9-2.6,13.7-1.6,15.2,2.1c1.5,3.7-2.4,7.2-9.2,9.8
		C395.7,233.4,388.5,234,386.9,230.3z"/>
</g>
<path style="fill:#4C230C;" d="M393.7,221.4c-0.2-0.4,1.4-1.4,3.5-2.2s3.9-1.1,4.1-0.7c0.2,0.4-1.2,1.1-3.3,1.9
	C395.9,221.3,393.9,221.8,393.7,221.4z"/>
<path style="fill:#F4B382;" d="M68.7,270.5c0.7-4.1,18.2-3.5,21-4.9c1.4-0.7,2.7-3,6.2-3.3c4.6-0.4,7.3,3,9,2.8
	c8.3-1.2,30.9-7.5,40.9-8.8c2.3-0.3,4.7-0.5,7.1-0.7c9.9-0.8,6.3,19.8,2.7,19.7c-14.4-0.3-49.8,0.4-55-0.3c0,0-15.9,0.6-19.7,0.3
	C78.6,275.2,68,274.6,68.7,270.5z"/>
<path style="fill:#3D3C3C;" d="M185.8,253.5c-11.5-0.8-22.5,1.2-32.4,2.1c1.4,3.2,2.6,16.7,1.8,19.7c3.6,0,31.5,0,31.5,0
	c8.8,0.6,60.8,1.3,76.7-1.9c4.1-0.7,7.7-1.6,10.7-2.6c5.8-1.9,0.6-34.2-7.6-35c-17.6,2.1-49.3,12.3-57.3,13.8
	C201.2,251.2,185.8,253.5,185.8,253.5z"/>
<g>
	<path style="fill:#F4B382;" d="M226.5,273.3c0,3.8,15.8,2,20.6,3l5.7-2.5c34.6,2.6,49.9-3.5,49.9-3.5c20.6,2.5,60.6-1.2,68.4-2.5
		s7-17.3-0.9-17.9c-7.9-0.7-15-0.4-22.9-0.4s-37.4,7.3-44.3,8c-1,0.1-50,7.8-50,7.8s-2-0.1-5.3-1.3c-4.6-1.6-11.5-1.3-15.3,0.4
		C229.1,265.8,226.5,269.5,226.5,273.3z"/>
	<path style="fill:#F4B382;" d="M242.2,274.6c0,0-5-0.5-5.5,2.2c-0.4,2.2-0.4,3,10.3-0.5C247.1,276.3,246.9,274.8,242.2,274.6z"/>
</g>
<g>
</g>
<g>
</g>
<g>
</g>
<g>
</g>
<g>
</g>
<g>
</g>
<g>
</g>
<g>
</g>
<g>
</g>
<g>
</g>
<g>
</g>
<g>
</g>
<g>
</g>
<g>
</g>
<g>
</g>
</svg>
