<?xml version="1.0" encoding="iso-8859-1"?>
<!-- Generator: Adobe Illustrator 19.0.0, SVG Export Plug-In . SVG Version: 6.00 Build 0)  -->
<svg version="1.1" id="Layer_1" xmlns="http://www.w3.org/2000/svg" xmlns:xlink="http://www.w3.org/1999/xlink" x="0px" y="0px"
	 viewBox="0 0 496.2 496.2" style="enable-background:new 0 0 496.2 496.2;" xml:space="preserve">
<path style="fill:#FFEFD6;" d="M0,248.1C0,111.1,111.1,0,248.1,0s248.1,111.1,248.1,248.1S385.1,496.2,248.1,496.2S0,385.1,0,248.1z
	"/>
<path style="fill:#E2A379;" d="M301.9,279.5c-4,1-8.7-9.5-14-13.7c-2.8-2.2-5.4-4.5-5.7-8c-0.4-4.6,3-6.5,3.2-8.1
	c0.8-8.8-8.6-33.3-7.9-39.8c0,0,21.6-8.2,21.5-4.7c-0.5,14.4-3,43.6-3.8,48.8c0,0,1,6.5,3.3,11.8
	C299.3,268.1,305.4,278.6,301.9,279.5z"/>
<path style="fill:#333333;" d="M278.7,177.9c-1.2,13.9-1.8,18.1-1.2,32.1c8.4-2.1,17-0.1,21.3,0.1c0.8-8.1,1.9-21.1,1.8-33.1
	C300.4,162.9,278.7,177.9,278.7,177.9z"/>
<path style="fill:#3D3C3C;" d="M228.4,225.5c0.8-0.6,2.8-1.4,3.4-1.6c14.7-6.7,9.6-21.2,13-24.1c0,0-14.6-21.7-17.3-23.1
	c-8.5,5.2-18.1,16-24.4,25.8C200.1,207,221.4,230.6,228.4,225.5z"/>
<path style="fill:#F4B382;" d="M303.1,280.3c-4,1.1-7.4-10.4-12.8-14.4c-2.9-2.2-5.5-4.4-5.9-7.8c-0.5-4.6,2.9-6.5,3-8.2
	c0.6-8.8-9.3-33.1-8.8-39.6c0,0,21.4-8.8,21.3-5.2c-0.2,14.4-2,43.7-2.6,48.9c0,0,1.1,6.5,3.5,11.8
	C301.8,267.8,306.7,279.3,303.1,280.3z"/>
<path style="fill:#E2A379;" d="M226.4,341.7c-3.5,0-6-0.9-6.8-1.9c-0.7-0.9-1.3-3.7-1.3-7.8c0.1-9.9,8.1-48.3,14.2-56.6
	c4.2-5.6,15.5,13.5,13.5,17.2c-1.3,2.3-2.5,5.2-6,14.8c-1.9,5.9-5.4,14.4-7.6,20.9c0,0,8.7,0.9,17.3,2.6c6.8,1.4,17.2,5.2,17.5,5.1
	c3.2-0.4,5.4-2.8,8.8-2.3c7.2,1.1,13.4,5.7,13.4,7.9C289.5,341.7,233.8,341.7,226.4,341.7z"/>
<path style="fill:#3D3C3C;" d="M279.1,178.2c-0.9,14-1.4,18.2-0.5,32.1c8.4-2.3,17-0.5,21.3-0.4c1.3-17.7,3.5-58.5-7-61.5
	c-10.9-3.1-56.1,22.3-65.4,28.2s-16.6,19.5-11.4,25.8c0,0,10,3,23.1,1.3C237.3,204,279.1,178.2,279.1,178.2z"/>
<path style="fill:#B3233B;" d="M208.7,302.9c8.5,8.8,16.4,4.6,31,4.2c1.8-0.1,9.1-5,10.9-8.6c2-3.9,2.8-8.2,1.5-12.9
	c-2.6-9.3-24.5-20.2-30.3-41.9c1-6.2,1.8-10.8,5.2-17.8l-24-23.5c-23.4,44.6-4.2,80.2,3.5,90.5C206.5,293,205.1,299.3,208.7,302.9z"
	/>
<path style="fill:#E2A379;" d="M248.9,303.4c0,0,7.8-1,14.8,1.5l5.3-12c-8.3,1.1-16.3-2.7-16.3-2.7c-1.1,11-7.6,12.5-9.6,15.4
	L248.9,303.4z"/>
<path style="fill:#F4B382;" d="M291.8,295c5.5-3.3,5.2-9,4.7-12.3c-1.7-10.5-6.9-13.6-14-16.4c-9.4-3.8-22.9,19.7-23.8,24.2
	c-2.2,11.7,11.1,22,17.2,24.7c6.7,2.9,5.9-0.1,6.8-2.9c0-0.1,0.5-0.4,0.5-0.4c0.4-0.9,0.8-2.2,2-3.2c0,0,0.1-0.9,0.2-1.4
	c0.1-0.3,0.2-0.5,0.6-0.5c1.1,0,2.2,0.1,2.7-0.1C290.5,305.7,289.3,296.5,291.8,295z"/>
<path style="fill:#D6876B;" d="M280.7,308.1c0,0,0.5,0.7,3.6,1.9c0.5,0,1.3-0.2,1.1-1.2C285.1,308,283,308.7,280.7,308.1z"/>
<path style="fill:#CC785E;" d="M280.7,308.1c0,0,0,1.8,2.6,3.7c0.4,0.1,0.9-0.1,1-0.2c0.7-0.8,0-1.5,0-1.5
	C281.2,308.8,280.7,308.1,280.7,308.1z"/>
<path style="fill:#602F0F;" d="M282.5,264.4c-11.5-4.6-33.5,5.8-25.6,31.7c0.5,1.7,2.3,4.2,6.9,3c3.3-0.9,6-2.7,6-2.7
	c0.8-0.6,1.7-1.2,2.6-1.8c1-0.7,2.5-6.7,3.8-6.4c12,2.7,19.2-1.3,20.4-4.3C298.2,276,294.7,269.3,282.5,264.4z"/>
<path style="fill:#F4B382;" d="M269.2,292.2c-0.3,5.8,1.7,6.9,4.9,7.8l1.5-8.6l-0.3-3.8C272.1,286.7,269.5,286.4,269.2,292.2z"/>
<path style="fill:#4C230C;" d="M257.5,274.7c-1.8-3.4,1.7-8.4,7.7-11.3s12.4-2.5,14.1,0.9c1.8,3.4-1.5,6.9-7.5,9.8
	S259.2,278,257.5,274.7z"/>
<g>
	<path style="fill:#602F0F;" d="M276.9,289.7c0.2-1,0.5-1.8,0.8-2.5c0.4-1,0.8-1.5,0.8-1.5l-3.8-0.1c-0.2,0.5-0.4,1-0.6,1.5
		c0,0,0.4,0,1.1,0.1h-0.1c0.2,0.9,0.3,2.3,0.1,4.2C275.3,291.3,276.2,292.8,276.9,289.7z"/>
	<path style="fill:#602F0F;" d="M255.7,273.6c-1.9-3.6,2-9,8.6-12.1s13.5-2.8,15.4,0.8c1.9,3.6-1.7,7.4-8.4,10.5
		C264.7,275.9,257.5,277.1,255.7,273.6z"/>
</g>
<path style="fill:#4C230C;" d="M261.7,264.1c-0.2-0.4,1.3-1.5,3.3-2.5s3.8-1.4,4-1s-1.1,1.2-3.1,2.2S261.9,264.5,261.7,264.1z"/>
<path style="fill:#F4B382;" d="M225.4,348c-3.5,0-6-0.9-6.8-1.9c-0.7-0.9-1.3-3.7-1.3-7.8c0.1-9.9,8.1-48.3,14.2-56.6
	c4.2-5.6,12.8-1.7,15.7,4c1.9,3.8-0.2,9.5-2.2,13.2c-1.3,2.3-2.5,5.2-6,14.8c-1.9,5.9-5.4,14.4-7.6,20.9c0,0,8.7,0.9,17.3,2.6
	c6.8,1.4,17.2,5.2,17.5,5.1c3.2-0.4,5.4-2.8,8.8-2.3c7.2,1.1,13.4,5.7,13.4,7.9C288.5,348,232.8,348,225.4,348z"/>
<g>
</g>
<g>
</g>
<g>
</g>
<g>
</g>
<g>
</g>
<g>
</g>
<g>
</g>
<g>
</g>
<g>
</g>
<g>
</g>
<g>
</g>
<g>
</g>
<g>
</g>
<g>
</g>
<g>
</g>
</svg>
