<?xml version="1.0" encoding="iso-8859-1"?>
<!-- Generator: Adobe Illustrator 19.0.0, SVG Export Plug-In . SVG Version: 6.00 Build 0)  -->
<svg version="1.1" id="Layer_1" xmlns="http://www.w3.org/2000/svg" xmlns:xlink="http://www.w3.org/1999/xlink" x="0px" y="0px"
	 viewBox="0 0 496.2 496.2" style="enable-background:new 0 0 496.2 496.2;" xml:space="preserve">
<path style="fill:#FFEFD6;" d="M0,248.1C0,111.1,111.1,0,248.1,0s248.1,111.1,248.1,248.1S385.1,496.2,248.1,496.2S0,385.1,0,248.1z
	"/>
<path style="fill:#E2A379;" d="M274.7,148.1c-5.8-5.4-27.3-11.5-34.9-15.9c-0.8-0.5,12-18.9,14.1-17c11.5,10.1,27.2,24.7,30.2,27.9
	C284.1,143.1,275.8,149.2,274.7,148.1z"/>
<path style="fill:#333333;" d="M228.4,125.3c3.5,2.3,6.8,4.6,11.4,6.8c0,0,3.3-6,6.4-9.4c2.7-3,7.8-7.6,7.8-7.6
	c-9.9-8.3-15.9-11.3-23.3-15.6c-8.2-4.7-18.8-6-26.2-0.2c-8.9,7,5.1,70.1,7.8,80.8s13.3,21.8,20.9,18.8c0,0,6-8.5,8.5-21.6
	C241.3,179.5,228.4,125.3,228.4,125.3z"/>
<path style="fill:#3D3C3C;" d="M236.9,207.1c0.8-0.6,2.8-1.3,3.4-1.6c14.9-6.4,9.8-21.5,13.2-24.3c0,0-13.9-21.6-16.5-23
	c-8.6,5.1-18.4,15.6-25,25.3C209,188,229.8,212.1,236.9,207.1z"/>
<path style="fill:#E2A379;" d="M247.3,393.9c-4.3-2.5-15.9-2.1-15.7-4.7c1.1-20.8-1.5-52-1.5-52c1-20.8,10.9-61,9.1-68.7
	c-1.8-7.7-17.7-5.8-17.8,2.2c-0.8,9.3-1.9,13.7-2.7,23.4c-1.2,11.9-2.5,37-1.4,43.8c0.2,0.9,6,52.5,6.9,55.7c1,3.4,3.2,2.5,10.3,2.3
	C240.8,395.8,251.2,396.1,247.3,393.9z"/>
<path style="fill:#F4B382;" d="M318.3,256.7c-3.9,1.5-8.3-9.6-14.2-13.1c-3.1-1.9-5.9-3.8-6.6-7.2c-0.9-4.5,2.2-6.8,2.2-8.4
	c-0.3-8.8-12.6-32-12.7-38.5c0,0,20.4-10.8,20.7-7.2c1.3,14.4,2.3,43.7,2.2,48.9c0,0,1.7,6.3,4.7,11.3
	C315.8,244.5,321.8,255.4,318.3,256.7z"/>
<path style="fill:#3D3C3C;" d="M284.4,157.5c0.5,14,0.4,18.2,2.7,32c8.1-3.1,16.9-2.2,21.1-2.4c-0.5-17.8-2.3-58.5-13-60.5
	c-11.1-2-53.6,27.7-62.3,34.5s-14.5,21-8.7,26.7c0,0,10.2,2,23.2-1C245.4,187.3,284.4,157.5,284.4,157.5z"/>
<path style="fill:#B3233B;" d="M204.6,286.9c9.3,8,15.1,5.5,29.6,3.6c1.8-0.2,8.6-5.9,10-9.6c1.6-4.1,1.6-11.8,0.2-13
	c-10.2-8.9-12.8-18-20.7-39c0.4-6.3,7.2-16.5,13.3-21.8l-24.1-24.6c-34.6,41.1-18.1,81.7-11.4,94.6
	C201.4,277.2,200.7,283.6,204.6,286.9z"/>
<path style="fill:#E2A379;" d="M242.9,285.9c0,0,7.6-1.8,14.8,0l4.1-12.5c-8.2,1.9-16.5-1.1-16.5-1.1c0,11-6.4,13.2-8,16.3
	L242.9,285.9z"/>
<path style="fill:#F4B382;" d="M284.9,273.3c5.1-3.8,4.3-9.4,3.4-12.7c-2.7-10.3-8.2-12.8-15.5-15c-9.8-2.8-20.9,21.8-21.3,26.4
	c-1.1,11.9,13.2,20.8,19.6,22.8c6.9,2.2,5.9-0.7,6.5-3.5c0-0.1,0.5-0.4,0.5-0.4c0.3-1,0.6-2.3,1.6-3.4c0,0,0-0.9,0.1-1.4
	c0.1-0.3,0.2-0.5,0.5-0.5c1.1-0.1,2.2-0.1,2.7-0.4C284.6,284.2,282.5,275.1,284.9,273.3z"/>
<path style="fill:#D6876B;" d="M275,287.5c0,0,0.6,0.6,3.7,1.5c0.5-0.1,1.2-0.3,0.9-1.3C279.4,286.9,277.4,287.9,275,287.5z"/>
<path style="fill:#CC785E;" d="M275,287.5c0,0,0.2,1.8,2.9,3.4c0.4,0.1,0.9-0.2,1-0.3c0.7-0.8-0.2-1.5-0.2-1.5
	C275.6,288.1,275,287.5,275,287.5z"/>
<path style="fill:#602F0F;" d="M272.5,243.8c-11.9-3.4-32.7,9.1-22.4,34c0.7,1.7,2.7,4,7.2,2.3c3.2-1.2,5.7-3.3,5.7-3.3
	c0.8-0.6,1.6-1.3,2.4-2.1c0.9-0.8,1.9-6.9,3.1-6.8c12.2,1.5,19-3.2,19.9-6.3C289.3,253.8,285.2,247.4,272.5,243.8z"/>
<path style="fill:#F4B382;" d="M262.1,272.8c0.2,5.8,2.4,6.7,5.6,7.3l0.6-8.7l-0.6-3.8C264.4,267,261.8,267,262.1,272.8z"/>
<path style="fill:#4C230C;" d="M248.6,256.5c-2.1-3.2,0.9-8.6,6.6-12s12.1-3.7,14.2-0.5s-0.8,7.1-6.5,10.5
	C257.1,257.9,250.7,259.7,248.6,256.5z"/>
<g>
	<path style="fill:#602F0F;" d="M269.5,269.6c0.1-1,0.4-1.9,0.6-2.6c0.3-1,0.7-1.6,0.7-1.6l-3.8,0.2c-0.2,0.5-0.3,1-0.5,1.5
		c0,0,0.4,0,1.1,0h-0.1c0.2,0.9,0.5,2.3,0.6,4.2C268,271.3,269.1,272.7,269.5,269.6z"/>
	<path style="fill:#602F0F;" d="M246.8,255.6c-2.2-3.4,1.1-9.1,7.4-12.9c6.3-3.8,13.1-4.1,15.4-0.8c2.2,3.4-1,7.5-7.3,11.3
		C255.9,257,249,258.9,246.8,255.6z"/>
</g>
<path style="fill:#4C230C;" d="M251.8,245.6c-0.2-0.4,1.1-1.6,3-2.8s3.7-1.8,3.9-1.4c0.2,0.4-0.9,1.3-2.9,2.5
	C254,245,252,245.9,251.8,245.6z"/>
<path style="fill:#F4B382;" d="M244.4,397.5c-4.3-2.5-15.9-2.1-15.7-4.7c1.1-20.8,1.8-52,1.8-52c1-20.8,10.9-61,9.1-68.7
	c-1.8-7.7-17.7-5.8-17.8,2.2c-0.8,9.3-1.9,13.7-2.7,23.4c-1.2,11.9-2.5,37-1.4,43.8c0.2,0.9,2.7,52.6,3.6,55.8
	c1,3.4,3.2,2.5,10.3,2.3C237.9,399.4,248.3,399.7,244.4,397.5z"/>
<g>
</g>
<g>
</g>
<g>
</g>
<g>
</g>
<g>
</g>
<g>
</g>
<g>
</g>
<g>
</g>
<g>
</g>
<g>
</g>
<g>
</g>
<g>
</g>
<g>
</g>
<g>
</g>
<g>
</g>
</svg>
