<?xml version="1.0" encoding="iso-8859-1"?>
<!-- Generator: Adobe Illustrator 19.0.0, SVG Export Plug-In . SVG Version: 6.00 Build 0)  -->
<svg version="1.1" id="Layer_1" xmlns="http://www.w3.org/2000/svg" xmlns:xlink="http://www.w3.org/1999/xlink" x="0px" y="0px"
	 viewBox="0 0 496.2 496.2" style="enable-background:new 0 0 496.2 496.2;" xml:space="preserve">
<path style="fill:#FFEFD6;" d="M0,248.1C0,111.1,111.1,0,248.1,0s248.1,111.1,248.1,248.1S385.1,496.2,248.1,496.2S0,385.1,0,248.1z
	"/>
<path style="fill:#E2A379;" d="M363.7,328.9c-4-0.9-20,0.3-21.6,0.2c-3.6-0.1-7.2-2-6.5-5.5c0.5-2.6,1.7-4.9,1.6-6.5
	c-0.9-8.3-5.7-36.7-6.6-46.8c-0.3-3.4,20.5-4.3,20.3-0.7c-0.9,14.4-3.1,44.7-4,49.8c0,0,20.9,0.9,20.6,4.7
	C367.3,326.4,367.7,329.8,363.7,328.9z"/>
<path style="fill:#333333;" d="M329.8,251.4c-0.5,5.7-0.4,7.5,0.8,18.9c3.3-1,17.4-1.8,20.3-0.7c0.3-5.9,3.2-30.6-3-39.6
	c-6.4-9.3-76.6,1.9-77.8-0.9c0,0-41.1,22.4-24.2,34.4C264.4,276.6,329.8,251.4,329.8,251.4z"/>
<path style="fill:#3D3C3C;" d="M257.6,226.9c0,0-8.6-1.1-15.3,0.3c-13.8,2.9-19.1,13.5-19.1,13.5s4.1,31.4,11.1,29.7
	c13.3-3.1,22.9-5.4,29.4-6.8c4.4-0.9,3.4-22.1,3.4-22.1L257.6,226.9z"/>
<path style="fill:#B3233B;" d="M329.3,235.6c11.6-4.1,13.6-16,23.3-27c1.2-1.4,2.5-10.1,1.1-13.8c-1.5-4.1-3.8-8.1-8.5-9.9
	c-3.6-1.4-13.5-3-33.3,9.5c-9.5,5.1-42.1,33.4-55.3,32.4c0,0,6.3,12.3,7.4,20.4c1.1,8.2-0.2,16.6-0.2,16.6
	c35.7-11.2,43.4-26.1,55.5-28.9C319.3,234.9,326,236.8,329.3,235.6z"/>
<path style="fill:#F4B382;" d="M347.8,332.3c2.9-0.3-4.1-13-4.1-16.9c0-20.8,2.6-52.5,2.6-52.5c-0.5-20.8,6.5-61.6,4.1-69.2
	c-2.4-7.5-18.1-4.5-17.6,3.5c-0.1,9.3-0.9,13.8-1,23.5c-0.4,12,0.1,37,1.8,43.8c0.2,0.8,1.5,38.1,2.6,51.3
	c0.2,2.4-3.8,15.2-2.3,15.8c1.7,0.6,1.9-7.7,3.2-7.6c1.1,0.1-1.2,9.2,0.5,9.4c1.5,0.2,2-8.6,2.9-8.8c1.2-0.2-0.1,9.6,2.4,9.4
	c2.1-0.2-0.4-9.8,0.5-10.1S345.8,332.6,347.8,332.3z"/>
<path style="fill:#E2A379;" d="M356.4,203.7c0,0,4-1.4,11.3-3V184c-6.4,5.4-15.9,6.5-15.9,6.5c5,9.8,0.9,14.5,0.9,18.1L356.4,203.7z
	"/>
<path style="fill:#F4B382;" d="M389.5,184c5.5-3.1,5.4-8.8,5-12.2c-1.4-10.5-6.5-13.7-13.6-16.8c-9.3-4-23.5,19-24.4,23.5
	c-2.5,11.7,10.5,22.3,16.6,25.1c6.6,3.1,5.9,0,6.9-2.7c0-0.1,0.5-0.4,0.5-0.4c0.4-0.9,0.9-2.2,2-3.2c0,0,0.1-0.9,0.3-1.4
	c0.1-0.3,0.2-0.5,0.6-0.5c1.1,0.1,2.2,0.2,2.7-0.1C387.8,194.7,386.9,185.4,389.5,184z"/>
<path style="fill:#D6876B;" d="M377.9,196.8c0,0,0.5,0.7,3.5,2c0.5,0,1.3-0.1,1.1-1.2C382.4,196.8,380.2,197.5,377.9,196.8z"/>
<path style="fill:#CC785E;" d="M377.9,196.8c0,0-0.1,1.8,2.5,3.7c0.4,0.1,0.9-0.1,1-0.2c0.8-0.8,0-1.5,0-1.5
	C378.4,197.5,377.9,196.8,377.9,196.8z"/>
<path style="fill:#602F0F;" d="M380.9,153.1c-11.4-4.9-33.6,5-26.4,31c0.5,1.7,2.2,4.3,6.9,3.2c3.3-0.8,6.1-2.5,6.1-2.5
	c0.8-0.5,1.7-1.1,2.7-1.8s2.7-6.6,4-6.3c11.9,3,19.2-0.8,20.5-3.8C396.3,165.1,393,158.3,380.9,153.1z"/>
<path style="fill:#F4B382;" d="M366.9,180.6c-0.5,5.8,1.5,6.9,4.7,8l1.7-8.6l-0.2-3.8C370,175.2,367.4,174.8,366.9,180.6z"/>
<path style="fill:#4C230C;" d="M355.6,162.8c-1.7-3.4,1.9-8.4,8-11.1c6.1-2.7,12.4-2.1,14.1,1.3c1.7,3.4-1.7,6.9-7.8,9.6
	C363.9,165.3,357.3,166.2,355.6,162.8z"/>
<g>
	<path style="fill:#602F0F;" d="M374.7,178.3c0.2-1,0.6-1.8,0.9-2.5c0.4-0.9,0.9-1.5,0.9-1.5l-3.8-0.2c-0.2,0.5-0.4,1-0.6,1.5
		c0,0,0.4,0,1.1,0.1h-0.1c0.1,0.9,0.2,2.3,0,4.2C373,179.9,373.9,181.4,374.7,178.3z"/>
	<path style="fill:#602F0F;" d="M353.9,161.6c-1.8-3.6,2.2-8.9,8.9-11.9c6.7-3,13.6-2.5,15.3,1.2c1.8,3.6-1.9,7.4-8.6,10.3
		C362.8,164.2,355.6,165.2,353.9,161.6z"/>
</g>
<path style="fill:#4C230C;" d="M360.1,152.3c-0.2-0.4,1.3-1.5,3.3-2.4s3.9-1.3,4.1-0.9c0.2,0.4-1.1,1.2-3.1,2.1
	C362.3,152.1,360.3,152.7,360.1,152.3z"/>
<path style="fill:#F4B382;" d="M92.5,325.6c-0.6-4.1-6.8-17.1-7.3-18.5c-1.2-3.4-0.7-7.4,2.7-8c2.6-0.5,5.2-0.2,6.7-0.9
	c7.4-3.8,30.7-12.5,39.8-17c2.1-1,4.3-2,6.5-3c9.1-4,11.4,17.1,8,18.2c-13.8,4.3-47.8,10.7-52.9,11.7c0,0,6,18.4,2.4,19.4
	C96.1,328.1,93.1,329.7,92.5,325.6z"/>
<path style="fill:#3D3C3C;" d="M171.6,267.7c-11.2,2.9-21.6,6.4-30.7,10.4c2.4,2.6,7.7,15,8,18.2c3.4-1.1,30.5-8.1,30.5-8.1
	c8.6-2.2,59.1-14.8,73.2-22.8c3.7-1.9,6.8-4,9.3-5.9c4.9-3.6-10.3-32.6-18.3-30.8c-16,7.6-42.9,27.3-50,31.3
	C186.6,264,171.6,267.7,171.6,267.7z"/>
<g>
</g>
<g>
</g>
<g>
</g>
<g>
</g>
<g>
</g>
<g>
</g>
<g>
</g>
<g>
</g>
<g>
</g>
<g>
</g>
<g>
</g>
<g>
</g>
<g>
</g>
<g>
</g>
<g>
</g>
</svg>
