<?xml version="1.0" encoding="iso-8859-1"?>
<!-- Generator: Adobe Illustrator 19.0.0, SVG Export Plug-In . SVG Version: 6.00 Build 0)  -->
<svg version="1.1" id="Layer_1" xmlns="http://www.w3.org/2000/svg" xmlns:xlink="http://www.w3.org/1999/xlink" x="0px" y="0px"
	 viewBox="0 0 496.2 496.2" style="enable-background:new 0 0 496.2 496.2;" xml:space="preserve">
<path style="fill:#FFEFD6;" d="M0,248.1C0,111.1,111.1,0,248.1,0s248.1,111.1,248.1,248.1S385.1,496.2,248.1,496.2S0,385.1,0,248.1z
	"/>
<path style="fill:#3D3C3C;" d="M311.1,270.8c18.7,0,21.4-6.7,21.4-6.7s8.8-27.3,1.6-28.4c-13.5-2-24.1-5.7-30.7-6.9
	c-4.4-0.8-10,5.4-10.5,21.6C292.5,266.5,304.3,270.8,311.1,270.8z"/>
<path style="fill:#B3233B;" d="M233,223.3c-12.3-0.4-18.6,13.5-31.7,20.2c-1.6,0.8-6.6,7.2-6.2,12.4c0.3,4.4,0.6,8.9,4.2,12.3
	c2.8,2.6,13.2,6.8,34.5-0.2c6.2-0.7,22-8.8,36.6-9.2c10.8-0.3,20.7-1.5,24.6,2.3c0,0-1.5-7.6,0.5-15.6s8-16.8,8-16.8
	c-14.6-3.3-25.5-5.4-38-5.4c-9,0-15.7,5.6-23.5,4.4C242,227.7,236.5,223.4,233,223.3z"/>
<g>
	<path style="fill:#E2A379;" d="M75.4,264.1c-0.1,3.7,15.8,2.4,20.5,3.6l5.8-2.4c34.6,3.7,49.9-2,49.9-2c20.6,3.1,60.4,7.1,68.2,6.1
		s7.5-17-0.4-18c-7.9-0.9-15-0.8-22.9-1.1c-7.9-0.3-37.4-0.2-44.3,0.2c-1,0.1-50.2,6.3-50.2,6.3s-2-0.1-5.3-1.4
		c-4.5-1.8-11.4-1.7-15.3-0.1C78.2,256.7,75.5,260.3,75.4,264.1z"/>
	<path style="fill:#E2A379;" d="M91.1,265.9c0,0-5-0.6-5.6,2c-0.5,2.2-0.4,3,10.3-0.2C95.8,267.7,95.7,266.2,91.1,265.9z"/>
	<path style="fill:#E2A379;" d="M197.4,243.7c0,0-4.2-0.7-11.3-2.8l-8.1,14.6c8.2-1.6,17.1,2,17.1,2c0.4-11,7.3-13.4,9.2-15.7
		L197.4,243.7z"/>
</g>
<path style="fill:#F4B382;" d="M164.6,228.8c-5.1-3.9-10.3-1.5-13.2,0.3c-9.1,5.4-10,11.4-10,19.1c0,10.2,26.8,14,31.3,13.1
	c11.7-2.3,16.3-18.5,16.5-25.1c0.2-7.3-2.3-5.5-5.2-5.2c-0.1,0-0.5-0.4-0.5-0.4c-1,0-2.4,0.1-3.7-0.6c0,0-0.9,0.3-1.4,0.3
	c-0.3,0-0.5,0-0.7-0.4c-0.4-1.1-0.7-2.1-1.1-2.5C175.1,226.1,167,230.6,164.6,228.8z"/>
<path style="fill:#D6876B;" d="M181,234.3c0,0,0.4-0.7,0.5-4c-0.2-0.4-0.6-1.1-1.5-0.5C179.2,230.2,180.7,232,181,234.3z"/>
<path style="fill:#CC785E;" d="M181,234.3c0,0,1.7-0.7,2.4-3.7c-0.1-0.4-0.4-0.8-0.6-0.8c-1-0.4-1.4,0.6-1.4,0.6
	C181.4,233.6,181,234.3,181,234.3z"/>
<path style="fill:#602F0F;" d="M139.7,248.9c0,12.4,17.9,28.9,38.9,12c1.4-1.1,3.1-3.7,0.2-7.6c-2-2.7-4.7-4.6-4.7-4.6
	c-0.8-0.5-1.7-1.1-2.7-1.7c-1.1-0.7-7.2,0.1-7.4-1.1c-1.9-12.2-8.3-17.3-11.6-17.3C144.6,230,139.7,235.7,139.7,248.9z"/>
<path style="fill:#F4B382;" d="M170.5,250.8c5.5-1.8,5.8-4.1,5.5-7.4l-8.5,1.8l-3.4,1.7C164.2,250.2,165,252.7,170.5,250.8z"/>
<path style="fill:#4C230C;" d="M158.5,268.3c-2.5,2.9-8.5,1.5-13.4-3s-6.9-10.6-4.4-13.5s7-1.2,11.9,3.4
	C157.6,259.7,161,265.4,158.5,268.3z"/>
<g>
	<path style="fill:#602F0F;" d="M165.3,244.6c-1,0.2-1.9,0.2-2.6,0.2c-1.1,0-1.7-0.2-1.7-0.2l1.3,3.6c0.5,0,1.1,0,1.6,0
		c0,0-0.1-0.4-0.3-1.1v0.1c0.8-0.5,2-1.1,3.9-1.7C167.4,245.5,168.4,244.1,165.3,244.6z"/>
	<path style="fill:#602F0F;" d="M158.2,270.3c-2.6,3-9.1,1.5-14.5-3.5s-7.6-11.5-5-14.5s7.5-1.1,12.9,3.8
		C157,261.1,160.8,267.3,158.2,270.3z"/>
</g>
<path style="fill:#4C230C;" d="M147.2,268.3c-0.3,0.3-1.9-0.6-3.5-2.1s-2.7-3-2.4-3.4c0.3-0.3,1.5,0.5,3.2,2.1
	C146.1,266.3,147.5,267.9,147.2,268.3z"/>
<g>
	<path style="fill:#F4B382;" d="M75.6,264.9c0,3.8,15.8,1.8,20.6,2.8l5.7-2.6c34.7,2.3,49.8-3.9,49.8-3.9
		c20.7,2.3,60.6,4.8,68.4,3.4c7.8-1.3,6.9-17.3-1.1-17.9c-7.9-0.6-15-0.3-22.9-0.2c-7.9,0-37.4,1.2-44.3,1.9
		c-0.9,0.1-49.9,8.2-49.9,8.2s-2-0.1-5.3-1.2c-4.6-1.6-11.5-1.2-15.2,0.5C78.1,257.4,75.6,261.2,75.6,264.9z"/>
	<path style="fill:#F4B382;" d="M91.3,266.2c0,0-5-0.4-5.5,2.2c-0.4,2.2-0.3,3,10.3-0.6C96.2,267.8,96,266.3,91.3,266.2z"/>
</g>
<path style="fill:#3D3C3C;" d="M376.9,271.9c13.3,0.9,34.9-1.1,38.9-2.5c3.7-1.3,8.5-7.2,1.6-16c-4.7-6-8.7-10.9-26.5-18.2
	c-17.2-7-59.5-3.9-75.5-1.6c-4.1,0.4-7.8,1.2-10.8,2c-5.9,1.6,14,27.8,22.1,29.1c17.6-1.1,42.9-12.6,51-13.7
	C377.5,251.2,375.9,271.9,376.9,271.9z"/>
<path style="fill:#F4B382;" d="M299.1,270c0-4.1,16-5.6,18.5-7.5c1.2-1,2.6-3,5.9-4c5.4-1,8.5,3.8,10,3.2c5.9,0,27.6-9.6,43.9-10.6
	c1.2-0.1,0.7,20.9-0.6,20.8c-15.5-1.9-40.7,0-45.6,0.3c0,0-15.5-0.3-19.3,0.2C309.7,272.7,299.2,274.2,299.1,270z"/>
<path style="fill:#303030;" d="M371.9,251.7c0,0,10.6-4.4,23.9-1.6C395.9,250.1,377.9,251,371.9,251.7z"/>
<g>
</g>
<g>
</g>
<g>
</g>
<g>
</g>
<g>
</g>
<g>
</g>
<g>
</g>
<g>
</g>
<g>
</g>
<g>
</g>
<g>
</g>
<g>
</g>
<g>
</g>
<g>
</g>
<g>
</g>
</svg>
