<?xml version="1.0" encoding="iso-8859-1"?>
<!-- Generator: Adobe Illustrator 19.0.0, SVG Export Plug-In . SVG Version: 6.00 Build 0)  -->
<svg version="1.1" id="Layer_1" xmlns="http://www.w3.org/2000/svg" xmlns:xlink="http://www.w3.org/1999/xlink" x="0px" y="0px"
	 viewBox="0 0 496.2 496.2" style="enable-background:new 0 0 496.2 496.2;" xml:space="preserve">
<path style="fill:#FFEFD6;" d="M0,248.1C0,111.1,111.1,0,248.1,0s248.1,111.1,248.1,248.1S385.1,496.2,248.1,496.2S0,385.1,0,248.1z
	"/>
<path style="fill:#E2A379;" d="M172.3,315c0.2-3.2-16.8-3.9-17-6.5c-1.6-20.8-0.4-52.5-0.4-52.5c-1.7-20.7,4.3-49.1,1.5-56.6
	c-2.8-7.4-18.3-3.4-17.4,4.5c0.4,9.3,0,11,0.5,20.6c0.3,12,0.8,27.1,2.8,33.7c0.3,0.9,5,52.5,6.3,55.5c1.4,3.3,7,2.4,11.9,2.7
	C164.9,316.8,172.1,318.5,172.3,315z"/>
<path style="fill:#3D3C3C;" d="M221.6,222.4c0,0,5.2,7.7,11.2,10.9c12.3,6.8,23.9,1,23.9,1s16.6-24.7,10.6-28.7
	c-11.3-7.6-21.1-12.7-26.9-16c-3.9-2.2-19.9,14.1-19.9,14.1L221.6,222.4z"/>
<path style="fill:#B3233B;" d="M152.3,179.4c-11.4,4.4-15.5,15.8-22.2,29.7c-0.6,1.8,1.3,9.9,4,12.8c3.1,3.2,7.1,5.7,11.6,5
	c3.8-0.2,24.6-4,54.9-11.8c2.6-0.7,8.6,1.1,21,7.5c0,0,0.6-11.1,4.3-18.5c3.5-7.1,14.5-14.2,14.5-14.2c-45.8-12.8-59.9-9.3-75.3-7.8
	C165,181.9,156.1,177.9,152.3,179.4z"/>
<path style="fill:#E2A379;" d="M119.5,205.1l-1.9,23.8c6.5-5.3,19.7-4.2,19.7-4.2c-7.5-11.2-4.9-17.2-4.8-20.7
	C132.6,204,126.7,205.7,119.5,205.1z"/>
<path style="fill:#F4B382;" d="M94.9,222c-4.3,4.7-2.4,10.1-0.9,13.2c4.6,9.6,10.5,11,18.2,11.7c10.1,0.9,16.3-25.5,15.8-30
	c-1.3-11.9-17-17.9-23.6-18.6c-7.2-0.8-5.6,1.8-5.7,4.7c0,0.1-0.4,0.5-0.4,0.5c-0.1,1-0.2,2.4-0.9,3.6c0,0,0.2,0.9,0.2,1.4
	c0,0.3,0,0.5-0.4,0.6c-1.1,0.3-2.1,0.5-2.6,0.9C93.1,211.3,96.9,219.8,94.9,222z"/>
<path style="fill:#D6876B;" d="M101.8,206.1c0,0-0.7-0.5-4-0.8c-0.4,0.2-1.2,0.5-0.6,1.5C97.6,207.6,99.5,206.2,101.8,206.1z"/>
<path style="fill:#CC785E;" d="M101.8,206.1c0,0-0.5-1.7-3.5-2.8c-0.4,0-0.8,0.3-0.9,0.5c-0.5,0.9,0.4,1.4,0.4,1.4
	C101.2,205.7,101.8,206.1,101.8,206.1z"/>
<path style="fill:#602F0F;" d="M112.8,248.5c12.4,1.1,30.3-15.3,15.3-37.7c-1-1.5-3.4-3.4-7.5-0.8c-2.9,1.8-5,4.3-5,4.3
	c-0.6,0.8-1.3,1.6-2,2.5c-0.8,1-0.5,7.2-1.8,7.2c-12.3,0.9-18,6.8-18.3,10.1C94.4,242,99.6,247.4,112.8,248.5z"/>
<path style="fill:#F4B382;" d="M117.4,218c-1.4-5.6-3.6-6.1-6.9-6.1l1.1,8.7l1.4,3.6C116.2,224.2,118.7,223.7,117.4,218z"/>
<path style="fill:#4C230C;" d="M133.7,231.4c2.7,2.7,0.8,8.6-4.1,13.1c-5,4.5-11.1,5.9-13.8,3.2c-2.7-2.7-0.6-7.1,4.4-11.6
	C125.1,231.6,131.1,228.7,133.7,231.4z"/>
<g>
	<path style="fill:#602F0F;" d="M110.7,222.7c0.1,1,0,1.9-0.1,2.6c-0.1,1-0.3,1.7-0.3,1.7l3.7-1c0.1-0.5,0.1-1.1,0.1-1.6
		c0,0-0.4,0.1-1.1,0.2h0.1c-0.4-0.8-0.9-2.1-1.4-4C111.8,220.6,110.5,219.5,110.7,222.7z"/>
	<path style="fill:#602F0F;" d="M135.7,232c2.8,2.9,0.7,9.2-4.7,14.1c-5.4,4.9-12.1,6.6-14.9,3.7s-0.5-7.6,4.9-12.5
		C126.4,232.4,132.9,229.1,135.7,232z"/>
</g>
<path style="fill:#4C230C;" d="M132.7,242.8c0.3,0.3-0.8,1.8-2.4,3.3c-1.7,1.5-3.3,2.5-3.6,2.1c-0.3-0.3,0.7-1.5,2.3-3
	C130.7,243.7,132.4,242.4,132.7,242.8z"/>
<g>
	<path style="fill:#F4B382;" d="M175.3,313.9c0-3.2-17-3-17.3-5.5c-2.7-20.6-3.3-52.4-3.3-52.4c-2.8-20.6,1.6-49.3-1.6-56.6
		c-3.2-7.2-18.5-2.4-17.1,5.5c1,9.3,0.6,11,1.6,20.6c1,12,2.2,27,4.6,33.5c0.3,0.9,7.9,52.1,9.4,55.1c1.6,3.2,7.1,2.1,12.1,2.1
		C168.1,316.1,175.3,317.4,175.3,313.9z"/>
	<path style="fill:#F4B382;" d="M403.3,314.6c-3,2.8-16.9,0.2-20-0.4c-1.5-0.3-3.9,0.7-6.9-1.1c-3.9-2.4-4-6.9-5.4-7.6
		c-7.3-4-26.6-14.6-35.4-19.6c-2-1.2-4.1-2.4-6.1-3.7c-8.4-5.4,7.3-22.2,10.1-20c11.3,9,37,34.4,40.7,38.1c0,0,7.1,4.1,12,6.4
		C396.2,308.4,406.4,311.8,403.3,314.6z"/>
</g>
<path style="fill:#3D3C3C;" d="M307,261.5c9.3,6.9,14.1,14.5,24,21.7c0.5-3.4,7.7-17.9,9.9-20.1c-3-2-22.9-20.4-22.9-20.4
	c-3.7-3.5-56.4-43.9-67.6-46.1c-4.1-0.9-7.8-1.4-10.9-1.6c-6-0.4-13.5,31.4-6.3,35.2c17,4.7,45.8,18.4,53.8,22.2
	C294.5,255.8,307,261.5,307,261.5z"/>
<g>
</g>
<g>
</g>
<g>
</g>
<g>
</g>
<g>
</g>
<g>
</g>
<g>
</g>
<g>
</g>
<g>
</g>
<g>
</g>
<g>
</g>
<g>
</g>
<g>
</g>
<g>
</g>
<g>
</g>
</svg>
