<?xml version="1.0" encoding="iso-8859-1"?>
<!-- Generator: Adobe Illustrator 19.0.0, SVG Export Plug-In . SVG Version: 6.00 Build 0)  -->
<svg version="1.1" id="Layer_1" xmlns="http://www.w3.org/2000/svg" xmlns:xlink="http://www.w3.org/1999/xlink" x="0px" y="0px"
	 viewBox="0 0 496.2 496.2" style="enable-background:new 0 0 496.2 496.2;" xml:space="preserve">
<path style="fill:#FFEFD6;" d="M0,248.1C0,111.1,111.1,0,248.1,0s248.1,111.1,248.1,248.1S385.1,496.2,248.1,496.2S0,385.1,0,248.1z
	"/>
<g>
	<path style="fill:#E2A379;" d="M438.8,214.3c-34.4-5.1-51.2-3.5-51.2-3.5c-20.4-4-58.8-6.1-66.7-5.4c-7.9,0.7-8.2,16.7-0.3,18
		c7.8,1.2,14.9,1.4,22.8,2.1c7.9,0.6,36.2-1.7,43.1-1.8c1,0,51.6-0.8,51.6-0.8L438.8,214.3z"/>
	<path style="fill:#E2A379;" d="M438.8,214.3c0,0,3.4-2.2,7.4-1.9s6.4,2.2,6.4,2.2l10.5,1.8l0.7,1.4l-10.6,0.9
		c-1.7,2.3-4,6.6-7.1,6.7c-2.5,0.1-8-2.6-8-2.6L438.8,214.3z"/>
</g>
<path style="fill:#333333;" d="M150.9,207.4c-11.2-2.8-22.4-2.7-32.3-3.6c0.8,3.4-0.4,16.9-1.6,19.8c3.5,0.7,31,5.5,31,5.5
	c8.6,2.1,59.6,11.9,75.8,11.5c4.2,0.1,7.9-0.3,11-0.7c6-0.9-0.2-36.6-0.2-36.5c-4.7-1.9-12.4-2.8-19.2-2.2
	c-10.5,0.9-16.6,4.4-18.1,4.5c-12.1,1.1-18.4,2-22.6,2.1C166.5,207.8,150.9,207.4,150.9,207.4z"/>
<path style="fill:#E2A379;" d="M32.6,203.8c1.4-3.9,18.5-0.2,21.6-1.1c1.5-0.5,3.2-2.5,6.6-2.2c4.6,0.4,6.7,4.3,8.3,4.3
	c8.3,0.3,31.7-2,41.8-1.5c2.3,0.1,4.7,0.3,7.2,0.5c9.9,1,2.8,20.5-0.8,19.8c-14.2-2.8-49.1-8.3-54.1-9.9c0,0-15.8-2.2-19.5-3.1
	C41.5,210.1,31.2,207.7,32.6,203.8z"/>
<path style="fill:#B3233B;" d="M307.1,243.6c12.3,0.7,16-6.8,29.8-12c1.7-0.7,6.9-7.8,7.4-11.7c0.6-4.4,0.4-8.9-2.9-12.7
	c-2.5-2.9-21.3-6.8-34-6.1s-26.8,3.5-45.3,4.3c-16.2,0.7-27.5-2.1-27.5-2.1l1.5,38.1c30.3,0.7,45.8-3.6,58-2.7
	C294.1,238.7,301.1,243.3,307.1,243.6z"/>
<path style="fill:#E2A379;" d="M342.5,229c0,0,9.2-2.2,17.3-3.4l2.3-13.2c-8.2,1.8-18.7-1.2-18.7-1.2c0,12.6-4.8,17.3-6.5,20.4
	L342.5,229z"/>
<path style="fill:#F4B382;" d="M378.4,230.6c6,2.1,10.2-1.8,12.5-4.3c7-8,6-14,3.6-21.3c-3.2-9.7-29.8-5-33.8-2.8
	c-10.4,5.8-9.8,22.7-7.9,29c2.1,7,3.9,4.5,6.6,3.4c0.1,0,0.6,0.2,0.6,0.2c1-0.3,2.2-0.8,3.7-0.6c0,0,0.8-0.5,1.2-0.7
	c0.3-0.1,0.5-0.2,0.7,0.2c0.7,0.9,1.3,1.7,1.9,2C369.3,236.5,375.6,229.7,378.4,230.6z"/>
<path style="fill:#D6876B;" d="M361.2,230.5c0,0-0.2,0.8,0.8,4c0.3,0.3,0.9,0.9,1.6,0C364.1,233.8,362.2,232.6,361.2,230.5z"/>
<path style="fill:#CC785E;" d="M361.2,230.5c0,0-1.4,1.2-1.2,4.3c0.2,0.4,0.6,0.6,0.8,0.6c1.1,0.1,1.2-1,1.2-1
	C361,231.3,361.2,230.5,361.2,230.5z"/>
<path style="fill:#602F0F;" d="M395.9,203.8c-3.9-11.8-26-21.9-40.7,0.6c-1,1.5-1.8,4.5,2.2,7.2c2.8,2,5.9,2.9,5.9,2.9
	c0.9,0.3,2,0.5,3.1,0.8c1.2,0.3,6.8-2.3,7.4-1.2c5.6,11,13.3,13.9,16.4,12.9C397.1,223.3,400,216.4,395.9,203.8z"/>
<path style="fill:#F4B382;" d="M366,211.5c-4.7,3.5-4.2,5.7-2.9,8.8l7.5-4.4l2.7-2.7C372.2,210.2,370.7,208,366,211.5z"/>
<path style="fill:#4C230C;" d="M372,191.2c1.5-3.5,7.6-4.1,13.6-1.3c6.1,2.8,9.8,7.9,8.4,11.4c-1.5,3.5-6.3,3.3-12.4,0.5
	C375.5,199.1,370.5,194.7,372,191.2z"/>
<g>
	<path style="fill:#602F0F;" d="M372.9,215.8c0.9-0.5,1.8-0.8,2.5-1c1-0.3,1.7-0.4,1.7-0.4l-2.3-3c-0.5,0.2-1,0.3-1.5,0.5
		c0,0,0.2,0.3,0.7,0.9c0,0,0-0.1-0.1-0.1c-0.6,0.7-1.6,1.7-3.2,2.8C370.6,215.6,370.1,217.3,372.9,215.8z"/>
	<path style="fill:#602F0F;" d="M371.7,189.2c1.5-3.7,8.2-4.2,14.8-1.2c6.7,3.1,10.8,8.6,9.3,12.3s-6.8,3.4-13.4,0.3
		C375.7,197.6,370.1,192.9,371.7,189.2z"/>
</g>
<path style="fill:#4C230C;" d="M382.8,187.7c0.2-0.4,2,0,4,1c2,0.9,3.5,2,3.4,2.4c-0.2,0.4-1.6,0-3.7-1
	C384.4,189.2,382.6,188.1,382.8,187.7z"/>
<g>
	<path style="fill:#F4B382;" d="M438.7,210.5c-34.5-3.8-51.3-1.6-51.3-1.6c-20.6-3.2-59-3.9-66.9-2.9c-7.8,1-7.6,17,0.3,18
		c7.9,0.9,15,0.9,22.9,1.2s36.1-3,43-3.5c1-0.1,51.5-2.8,51.5-2.8L438.7,210.5z"/>
	<path style="fill:#F4B382;" d="M438.7,210.5c0,0,3.3-2.3,7.3-2.1s6.4,1.9,6.4,1.9l10.6,1.4l0.7,1.4l-10.5,1.3
		c-1.6,2.3-3.7,6.7-6.8,7c-2.5,0.2-8.1-2.3-8.1-2.3L438.7,210.5z"/>
</g>
<path style="fill:#3D3C3C;" d="M234.6,203.4c-18.9-3.7-27.4-0.9-32.4,6.7c0,0-4.5,7.4-5.1,14.2c-1.2,14,7.5,22.2,7.5,22.2
	s31.2,13.1,31.7,5.9c0.3-5.9,0.7-11.3,1.1-16.1C237.8,230.6,234.6,203.4,234.6,203.4z"/>
<path style="fill:#F4B382;" d="M231.1,406c-4-0.9-15.9,0-17.4-0.1c-3.6-0.1-7.1-2.1-6.4-5.5c0.5-2.6,1.8-4.9,1.6-6.5
	c-0.8-8.3-0.3-33.2-1.1-43.2c-0.2-2.3-0.3-4.7-0.4-7.2c-0.3-9.9,20.1-4.3,19.8-0.7c-1,14.4-7.6,48.4-8.6,53.6c0,0,19.3,1.2,18.9,4.9
	C237.3,403.6,235.2,407,231.1,406z"/>
<path style="fill:#3D3C3C;" d="M209.1,311.1c-1.4,11.5-2,22.4-1.7,32.4c3.3-1.2,16.8-1.6,19.8-0.7c0.2-3.6,3.8-31.3,3.8-31.3
	c1.1-8.8,8.2-60.4,5.9-76.5c-0.4-4.2-1.2-7.8-2-10.8c-1.6-5.9-34.1-2.5-35.4,5.6c1.1,17.6,9.5,49.9,10.6,58
	C211.2,295.8,209.1,311.1,209.1,311.1z"/>
<g>
</g>
<g>
</g>
<g>
</g>
<g>
</g>
<g>
</g>
<g>
</g>
<g>
</g>
<g>
</g>
<g>
</g>
<g>
</g>
<g>
</g>
<g>
</g>
<g>
</g>
<g>
</g>
<g>
</g>
</svg>
