<?xml version="1.0" encoding="iso-8859-1"?>
<!-- Generator: Adobe Illustrator 19.0.0, SVG Export Plug-In . SVG Version: 6.00 Build 0)  -->
<svg version="1.1" id="Layer_1" xmlns="http://www.w3.org/2000/svg" xmlns:xlink="http://www.w3.org/1999/xlink" x="0px" y="0px"
	 viewBox="0 0 496.2 496.2" style="enable-background:new 0 0 496.2 496.2;" xml:space="preserve">
<path style="fill:#FFEFD6;" d="M0,248.1C0,111.1,111.1,0,248.1,0s248.1,111.1,248.1,248.1S385.1,496.2,248.1,496.2S0,385.1,0,248.1z
	"/>
<g>
	<path style="fill:#E2A379;" d="M359.3,275.5c1.5-3.4-13.7-8.2-17.6-11h-6.2c-30.6-16.4-47-16.9-47-16.9
		c-17.9-10.6-46.5-28.4-54.2-30.4s-13.4,13-6.4,16.8s6.8,5.5,14,8.8c7.2,3.2,34.6,14.3,41.1,16.5c0.9,0.3,48.9,13,48.9,13
		s1.8,0.9,4.4,3.3c3.5,3.3,10,5.9,14.1,5.8C353.9,281.2,357.7,278.9,359.3,275.5z"/>
	<path style="fill:#E2A379;" d="M345.4,267.8c0,0,4.4,2.5,5.9,0.2c1.3-1.8,1.5-2.6-9.7-3.7C341.7,264.4,341.2,265.8,345.4,267.8z"/>
</g>
<path style="fill:#B3233B;" d="M217.9,262c12.2-1.6,13.6-12.2,25.4-20.9c1.5-1.1,4.6-9.3,4.1-13.2c-0.6-4.4-2-8.7-6.1-11.5
	c-3.2-2.1-12.6-5.8-34.6,2.1c-10.4,3-29.9,7.9-48.2,14.3c-17.4,6-23.9,12.5-23.9,12.5l12,23.9c37.3-3.3,49.3-9.8,61.7-10
	C208.3,259.1,214.4,262.5,217.9,262z"/>
<path style="fill:#E2A379;" d="M245.7,239.5c0,0,9-2.7,17.1-4.3l1.6-13.3c-8.1,2.2-18.8-0.2-18.8-0.2c0.7,12.6-3.9,17.5-5.4,20.7
	L245.7,239.5z"/>
<path style="fill:#F4B382;" d="M275,249.1c4.8,4.2,10.1,2.2,13.2,0.6c9.5-4.8,10.8-10.7,11.3-18.4c0.7-10.1-25.8-15.8-30.3-15.2
	c-11.9,1.5-17.5,17.4-18.1,24c-0.7,7.3,1.9,5.6,4.9,5.6c0.1,0,0.5,0.4,0.5,0.4c1,0.1,2.4,0.1,3.7,0.9c0,0,0.9-0.2,1.4-0.2
	c0.3,0,0.5,0,0.6,0.4c0.3,1.1,0.6,2.1,1,2.5C264.4,251.2,272.8,247.2,275,249.1z"/>
<path style="fill:#D6876B;" d="M259.1,242.5c0,0-0.5,0.7-0.7,4c0.2,0.4,0.6,1.2,1.5,0.6C260.6,246.7,259.2,244.9,259.1,242.5z"/>
<path style="fill:#CC785E;" d="M259.1,242.5c0,0-1.7,0.5-2.7,3.6c0,0.4,0.4,0.8,0.5,0.9c1,0.5,1.4-0.5,1.4-0.5
	C258.6,243.2,259.1,242.5,259.1,242.5z"/>
<path style="fill:#602F0F;" d="M301.2,230.7c0.8-12.4-15.9-30-38-14.6c-1.5,1-3.3,3.5-0.7,7.5c1.9,2.8,4.4,4.9,4.4,4.9
	c0.8,0.6,1.6,1.2,2.6,1.9s7.2,0.4,7.3,1.6c1.1,12.3,7.2,17.8,10.4,18.1C295.1,249.3,300.4,243.9,301.2,230.7z"/>
<path style="fill:#F4B382;" d="M270.7,226.8c-5.6,1.5-6,3.7-5.9,7l8.6-1.3l3.5-1.4C276.8,227.8,276.3,225.3,270.7,226.8z"/>
<path style="fill:#4C230C;" d="M283.7,210.1c2.7-2.7,8.5-1,13.1,3.9s6.2,11,3.5,13.7s-7.1,0.7-11.7-4.1
	C284.1,218.7,281.1,212.9,283.7,210.1z"/>
<g>
	<path style="fill:#602F0F;" d="M275.4,233.3c1-0.1,1.9-0.1,2.6,0c1,0.1,1.7,0.3,1.7,0.3l-1-3.7c-0.5,0-1.1-0.1-1.6-0.1
		c0,0,0.1,0.4,0.3,1.1v-0.1c-0.8,0.4-2.1,1-4,1.4C273.4,232.3,272.3,233.6,275.4,233.3z"/>
	<path style="fill:#602F0F;" d="M284.2,208.1c2.8-2.9,9.2-0.9,14.2,4.4c5,5.3,6.8,12,4,14.8c-2.8,2.9-7.6,0.6-12.6-4.7
		C284.8,217.4,281.4,211,284.2,208.1z"/>
</g>
<path style="fill:#4C230C;" d="M295,210.9c0.3-0.3,1.8,0.7,3.3,2.4c1.5,1.6,2.5,3.2,2.2,3.5s-1.5-0.6-3-2.3
	C296,212.9,294.7,211.2,295,210.9z"/>
<path style="fill:#3D3C3C;" d="M134.6,245.2c-3.2,15.2,0.9,35.7,20.9,36.5c17,0.7,22.5-6.6,22.5-6.6s12.7-28.6,5.5-29.3
	c-5.9-0.6-11.3-1.2-16-1.8c-2.1-0.3-7.5-0.1-13.4,0.2c-0.8,0-4.9-7.9-4.9-7.9C139.2,240.2,134.6,245.2,134.6,245.2z"/>
<path style="fill:#E2A379;" d="M357.4,274.7c-1,4-18.4,2.2-21.3,3.5c-1.4,0.6-2.9,2.8-6.4,2.9c-4.6,0.1-7.1-3.5-8.7-3.4
	c-8.3,0.6-30.9-0.2-41,0.4c-2.3,0.1-4.7,0.2-7.2,0.3c-9.9,0.1-3.9-20.2-0.3-19.8c14.4,1.3,48.2,8.6,53.4,9.7c0,0,15.9,0.5,19.7,1
	C347.9,269.3,358.4,270.7,357.4,274.7z"/>
<path style="fill:#3D3C3C;" d="M241.2,275.3c11.4,1.9,22.3,2.9,32.3,3c-1.1-3.3-0.9-16.9,0.1-19.8c-3.6-0.4-31.1-5-31.1-5
	c-8.7-1.4-60-10.6-76.2-9c-4.2,0.3-7.8,0.9-10.9,1.6c-5.9,1.3-10.2,31.6-2.2,33.2c17.7-0.4,56.6-5.1,64.7-5.8
	C226,272.7,241.2,275.3,241.2,275.3z"/>
<g>
	<path style="fill:#F4B382;" d="M362.5,284c1.7-3.3-13.3-8.9-17-11.9l-6.2-0.3c-29.8-17.9-46.1-19.3-46.1-19.3
		c-17.3-11.5-51.7-31.9-59.3-34.3c-7.5-2.4-14,12.3-7.2,16.5s13.2,7.1,20.3,10.7c7,3.6,33.8,16,40.3,18.5
		c0.9,0.3,48.2,15.4,48.2,15.4s1.8,1,4.2,3.5c3.3,3.5,9.7,6.4,13.8,6.5C356.8,289.5,360.8,287.3,362.5,284z"/>
	<path style="fill:#F4B382;" d="M349,275.7c0,0,4.3,2.7,5.9,0.5c1.4-1.8,1.7-2.5-9.5-4.2C345.4,272.1,344.9,273.5,349,275.7z"/>
</g>
<g>
</g>
<g>
</g>
<g>
</g>
<g>
</g>
<g>
</g>
<g>
</g>
<g>
</g>
<g>
</g>
<g>
</g>
<g>
</g>
<g>
</g>
<g>
</g>
<g>
</g>
<g>
</g>
<g>
</g>
</svg>
