<?xml version="1.0" encoding="iso-8859-1"?>
<!-- Generator: Adobe Illustrator 19.0.0, SVG Export Plug-In . SVG Version: 6.00 Build 0)  -->
<svg version="1.1" id="Layer_1" xmlns="http://www.w3.org/2000/svg" xmlns:xlink="http://www.w3.org/1999/xlink" x="0px" y="0px"
	 viewBox="0 0 496.2 496.2" style="enable-background:new 0 0 496.2 496.2;" xml:space="preserve">
<path style="fill:#FFEFD6;" d="M0,248.1C0,111.1,111.1,0,248.1,0s248.1,111.1,248.1,248.1S385.1,496.2,248.1,496.2S0,385.1,0,248.1z
	"/>
<path style="fill:#E2A379;" d="M452,195.8c-0.8,4-18.2,3.2-21.1,4.6c-1.4,0.7-2.7,2.9-6.2,3.2c-4.6,0.4-7.3-3.2-8.9-2.9
	c-8.3,1.1-31,7-41,8.2c-2.3,0.3-5.2,0.5-7.7,0.7c-9.9,0.6-5.5-19.9-1.9-19.7c14.4,0.5,49.8,0.4,55,1.2c0,0,16-0.3,19.7,0
	C442.2,190.9,452.8,191.7,452,195.8z"/>
<g>
	<path style="fill:#333333;" d="M334.7,209.6c11.5,0.8,22.5,0.7,32.4-0.2c-1.4-3.2-2.6-16.7-1.9-19.7c-3.6,0-31.5-1.9-31.5-1.9
		c-8.8-0.6-62.8-4.7-76.7-1.3c-4.6,1.1-7,1.9-10.7,3.4c-5.6,2.3-0.5,33.5,7.7,34.2c17.5-2.2,49.3-12.5,57.3-14
		C319.3,208.5,334.7,209.6,334.7,209.6z"/>
	<path style="fill:#333333;" d="M265.7,225.5c0,0,4.2-7.6,5.3-14.3c2.4-13.9-24.6-21.4-24.6-21.4s-7.6,3.8-11.3,9.8
		c-3.8,6.2-5.3,12.4-6.5,18.9c-0.8,4.4,19.8,10.5,19.8,10.5L265.7,225.5z"/>
</g>
<path style="fill:#B3233B;" d="M224.3,289.3c-0.4,12.3,0.4,19,11.4,30.3c1.3,1.3,4.5,3.7,7.7,3.7s10.6,0,14-3.7
	c2.6-2.8,13.1-8.4,8.8-31.4c-1.3-10.7-6.3-50.7-0.4-62.6c0,0-13.7,1.3-21.7-0.7s-15.3-6.3-15.3-6.3c-2.8,37.3,1.8,49.5,0,61.8
	C228.7,280.3,224.4,285.8,224.3,289.3z"/>
<path style="fill:#F4B382;" d="M60.2,196.1c1.1-4,18.4-1.7,21.4-2.8c1.5-0.6,3-2.7,6.4-2.7c4.6,0,7,3.7,8.6,3.7
	c8.3-0.4,31.5-4.5,41.6-4.8c2.3-0.1,5.2-0.1,7.7,0c9.9,0.2,3.8,20.3,0.3,19.8c-14.3-1.7-49.6-4.5-54.7-5.7c0,0-15.9-1-19.7-1.6
	C69.6,201.7,59.1,200.1,60.2,196.1z"/>
<g>
	<path style="fill:#3D3C3C;" d="M178.3,192c-11.4-1.7-22.4-2.6-32.3-2.5c1.2,3.3,1.2,16.9,0.2,19.8c3.6,0.3,31.2,4.5,31.2,4.5
		c6.9,1,39,4.5,61.4,6.5c5.8,0.5,10.2,1.3,15,1.8c4.2-0.3,7.8-1.6,10.8-2.4c5.9-1.4,2.3-34.2-2.6-33.9c-21.2,1.8-52.3,6.8-60.3,7.7
		C193.6,194.4,178.3,192,178.3,192z"/>
	<path style="fill:#3D3C3C;" d="M265.7,225.5c0,0,6.9-7.3,9-16.2c1.7-7.2-1-14.9-2.6-17.5c-2.9-4.5-8.4-6-14.4-6
		c-14.4,0-19.1,6.9-22.8,12.9c-3.8,6.2-6,13.9-6.5,20.5c-0.1,1.8,12.8,6.5,19.6,7.2S265.7,225.5,265.7,225.5z"/>
</g>
<path style="fill:#E2A379;" d="M225.5,304.2c-1.7,0.8-2.3,0.2-3.5-1.8l-7.3,14.7c8.4-0.5,21,2.5,21,2.5s-3.2-3.1-6.2-7.5
	S225.5,304.2,225.5,304.2z"/>
<path style="fill:#F4B382;" d="M198.2,287.5c-5.3-3.6-10.3-0.9-13.2,1c-8.8,6-9.4,12-8.9,19.6c0.6,10.1,27.5,12.4,32,11.3
	c11.6-3,15.2-19.4,15-26.1c-0.2-7.3-2.6-5.3-5.5-4.9c-0.1,0-0.6-0.3-0.6-0.3c-1,0-2.4,0.2-3.7-0.4c0,0-0.9,0.3-1.4,0.4
	c-0.3,0-0.5,0-0.7-0.3c-0.4-1-0.8-2-1.3-2.4C208.5,284.1,200.7,289.1,198.2,287.5z"/>
<path style="fill:#D6876B;" d="M214.9,292c0,0,0.4-0.7,0.2-4c-0.2-0.4-0.7-1.1-1.6-0.4C212.9,288.1,214.4,289.7,214.9,292z"/>
<path style="fill:#CC785E;" d="M214.9,292c0,0,1.6-0.8,2.2-3.9c-0.1-0.4-0.5-0.7-0.6-0.8c-1-0.3-1.4,0.6-1.4,0.6
	C215.2,291.3,214.9,292,214.9,292z"/>
<path style="fill:#602F0F;" d="M174.5,309c0.7,12.4,19.5,27.8,39.5,9.7c1.3-1.2,2.9-3.9-0.2-7.6c-2.2-2.6-5-4.3-5-4.3
	c-0.8-0.5-1.8-1-2.8-1.6c-1.1-0.6-7.2,0.5-7.4-0.7c-2.6-12-9.3-16.8-12.6-16.6C178.3,289.8,173.7,295.8,174.5,309z"/>
<path style="fill:#F4B382;" d="M205.3,309.1c5.4-2.2,5.5-4.5,5-7.7l-8.4,2.3l-3.3,1.9C199.1,308.9,199.9,311.3,205.3,309.1z"/>
<path style="fill:#4C230C;" d="M194.4,327.2c-2.3,3-8.4,2-13.5-2.2s-7.5-10.2-5.2-13.2s6.9-1.6,12.1,2.7
	C193,318.8,196.7,324.2,194.4,327.2z"/>
<g>
	<path style="fill:#602F0F;" d="M199.8,303.2c-1,0.2-1.9,0.3-2.6,0.3c-1.1,0-1.7-0.1-1.7-0.1l1.5,3.5c0.5,0,1.1-0.1,1.6-0.1
		c0,0-0.1-0.4-0.4-1v0.1c0.8-0.5,2-1.2,3.8-1.9C202,304,202.9,302.5,199.8,303.2z"/>
	<path style="fill:#602F0F;" d="M194.2,329.3c-2.4,3.2-9,2-14.6-2.6c-5.7-4.7-8.3-11-5.8-14.2c2.4-3.2,7.4-1.6,13.1,3.1
		C192.5,320.2,196.6,326.1,194.2,329.3z"/>
</g>
<path style="fill:#4C230C;" d="M183.1,327.9c-0.3,0.4-1.9-0.5-3.6-1.9c-1.7-1.4-2.9-2.9-2.6-3.2c0.3-0.4,1.6,0.4,3.3,1.9
	C181.9,326,183.4,327.6,183.1,327.9z"/>
<g>
	<path style="fill:#F4B382;" d="M316.9,312.4c-5.1-1.2-13.5-2.5-13.5-2.5c-6.8-1.3-17-3.5-23.2-4.6c-10-2.1-26.7-6.1-31.5-4.1
		c-5.9,2.5-7.9,12.7-1.8,16.1c2.5,1.3,6.9,2.8,13.2,2.9c17.1,0.5,41.7,3.8,48.8,2.9c4.1-0.5,6.8-1.5,7.6-2.4c0.8-0.9,1.6-3.5,0.9-7
		C317.3,313.5,317.1,313,316.9,312.4z"/>
	<path style="fill:#F4B382;" d="M264,281c4.3,8.9,31.1,24.8,34.8,29.4c3.7,4.6,10.6,11.4,11.4,12.1c0.7-0.4,1.4-0.7,1.9-1.1
		c3.5-2.1,4.5-4.4,4.8-5.5c0,0,0.7-1.5,0.1-3.2c-2.8-8.2-44.6-31.6-44.6-31.6L264,281z"/>
	<path style="fill:#F4B382;" d="M264,281c0,0.2,2.4,0.8,9.5,0.6c0,0-0.7-0.4-1.1-1c-0.7-0.9-1.4-9.9-1.6-12.1
		c-0.2-2-2.5-4.7-3.1-6.1c-1.2-2.8-2.3-4.7-3.4-6.7c-0.2-0.3-0.8-1.9-1.1-1.9c0,0,0.4,8.9,0.6,14.7c0.1,1.9-1.3,2.2-1.3,2.2
		c-0.2,1.8-0.4,3.3-0.7,4.3L264,281z"/>
	<path style="fill:#F4B382;" d="M262.3,270.7c0,0-0.9-5-3.6-4.8c-2.2,0.2-3,0.4,3.2,9.8C262,275.8,263.4,275.3,262.3,270.7z"/>
</g>
<g>
</g>
<g>
</g>
<g>
</g>
<g>
</g>
<g>
</g>
<g>
</g>
<g>
</g>
<g>
</g>
<g>
</g>
<g>
</g>
<g>
</g>
<g>
</g>
<g>
</g>
<g>
</g>
<g>
</g>
</svg>
