<?xml version="1.0" encoding="iso-8859-1"?>
<!-- Generator: Adobe Illustrator 19.0.0, SVG Export Plug-In . SVG Version: 6.00 Build 0)  -->
<svg version="1.1" id="Layer_1" xmlns="http://www.w3.org/2000/svg" xmlns:xlink="http://www.w3.org/1999/xlink" x="0px" y="0px"
	 viewBox="0 0 496.2 496.2" style="enable-background:new 0 0 496.2 496.2;" xml:space="preserve">
<path style="fill:#FFEFD6;" d="M0,248.1C0,111.1,111.1,0,248.1,0s248.1,111.1,248.1,248.1S385.1,496.2,248.1,496.2S0,385.1,0,248.1z
	"/>
<g>
	<path style="fill:#E2A379;" d="M238.5,47.5c-3.8,0-1.8,15.8-2.8,20.6l2.6,5.7c-2.3,34.7,3.9,49.8,3.9,49.8
		c-2.3,20.7-4.8,60.6-3.4,68.4c1.3,7.8,17.3,6.9,17.9-1.1c0.6-7.9,0.3-15,0.2-22.9c0-7.9-1.2-37.4-1.9-44.3
		c-0.1-0.9-8.2-49.9-8.2-49.9s0.1-2,1.2-5.3c1.6-4.6,1.2-11.5-0.5-15.2C246,50.1,242.2,47.5,238.5,47.5z"/>
	<path style="fill:#E2A379;" d="M237.2,63.3c0,0,0.4-5-2.2-5.5c-2.2-0.4-3-0.3,0.6,10.3C235.6,68.1,237.1,68,237.2,63.3z"/>
</g>
<path style="fill:#3D3C3C;" d="M229.6,263.6c0,0-4.2,7.6-5.3,14.3c-2.4,13.9,5.5,22.8,5.5,22.8s30.7,7.8,31.7,0.7
	c2-13.5,4-24.1,5.2-30.7c0.8-4.4-19.8-10.5-19.8-10.5L229.6,263.6z"/>
<path style="fill:#B3233B;" d="M273.9,197c0.4-12.3-9.8-15.4-16.5-28.5c-0.8-1.6-8.4-6.1-12.4-6.2c-4.4-0.1-8.9,0.6-12.3,4.2
	c-2.6,2.8-7.8,11.5-3.5,34.5c1.3,10.7,6.3,50.7,0.4,62.6c0,0,13.7-1.3,21.7,0.7s15.3,6.3,15.3,6.3c2.8-37.3,1-52.4,2.8-64.7
	C269.5,206,273.8,200.5,273.9,197z"/>
<path style="fill:#E2A379;" d="M254.3,163.2c0,0-3.2-8.9-5.2-16.9l-13.4-0.9c2.6,8,0.7,18.8,0.7,18.8c12.5-1.3,17.7,3,21,4.3
	L254.3,163.2z"/>
<path style="fill:#F4B382;" d="M244.8,118.4c-1.3-6.2-6.8-7.8-10.1-8.4c-10.4-1.9-15.1,2-20.1,7.8c-6.7,7.7,11,28.1,15,30.4
	c10.4,5.9,24.4-3.3,28.9-8.2c4.9-5.4,1.8-5.6-0.5-7.4c-0.1-0.1-0.2-0.6-0.2-0.6c-0.7-0.7-1.8-1.5-2.4-2.9c0,0-0.9-0.4-1.2-0.7
	c-0.3-0.2-0.4-0.3-0.2-0.7c0.4-1.1,0.8-2,0.8-2.6C254.5,123.2,245.4,121.3,244.8,118.4z"/>
<path style="fill:#D6876B;" d="M253.5,133.3c0,0,0.8-0.3,3-2.7c0.1-0.4,0.3-1.3-0.8-1.4C254.8,129,254.8,131.3,253.5,133.3z"/>
<path style="fill:#CC785E;" d="M253.5,133.3c0,0,1.7,0.6,4.3-1.2c0.3-0.4,0.2-0.9,0.1-1c-0.5-0.9-1.4-0.5-1.4-0.5
	C254.3,133,253.5,133.3,253.5,133.3z"/>
<path style="fill:#602F0F;" d="M212.8,117.2c-8.1,9.4-5.5,33.5,21.5,34.6c1.8,0.1,4.8-0.8,5.1-5.6c0.2-3.4-0.6-6.6-0.6-6.6
	c-0.3-0.9-0.5-2-0.9-3.1c-0.4-1.2-5.5-4.6-4.8-5.7c6.5-10.4,5-18.6,2.6-20.7C228.9,106.2,221.4,107.3,212.8,117.2z"/>
<path style="fill:#F4B382;" d="M234.7,138.9c5.4,2.2,7.1,0.6,9-2l-7.7-4.2l-3.7-1C230.5,134.3,229.4,136.7,234.7,138.9z"/>
<path style="fill:#4C230C;" d="M214.3,144.3c-3.8,0.6-7.4-4.4-8.1-11c-0.7-6.6,1.7-12.5,5.5-13.1c3.8-0.6,6.1,3.7,6.8,10.3
	C219.2,137.2,218,143.7,214.3,144.3z"/>
<g>
	<path style="fill:#602F0F;" d="M234.9,130.8c-0.9-0.5-1.6-1.1-2.1-1.6c-0.8-0.7-1.2-1.3-1.2-1.3l-1.4,3.6c0.4,0.4,0.8,0.7,1.2,1.1
		c0,0,0.2-0.4,0.4-1v0.1c0.9,0.2,2.3,0.5,4,1.3C235.9,132.9,237.6,132.5,234.9,130.8z"/>
	<path style="fill:#602F0F;" d="M212.7,145.6c-4,0.6-7.8-4.8-8.6-12.1c-0.8-7.3,1.8-13.7,5.7-14.3c4-0.6,6.4,4.1,7.2,11.3
		C217.8,137.8,216.7,145,212.7,145.6z"/>
</g>
<path style="fill:#4C230C;" d="M205.7,136.8c-0.4,0.1-1-1.7-1.2-3.9s-0.1-4.1,0.4-4.1c0.4-0.1,0.8,1.4,1.1,3.6
	C206.1,134.6,206.1,136.7,205.7,136.8z"/>
<path style="fill:#F4B382;" d="M260.2,453.5c-4-0.9-18.4,0-19.9-0.1c-3.6-0.1-7.1-2.1-6.4-5.5c0.5-2.6,1.8-4.9,1.6-6.5
	c-0.8-8.3-0.3-33.2-1.1-43.2c-0.2-2.3-0.3-4.7-0.4-7.2c-0.3-9.9,20.1-4.3,19.8-0.7c-1,14.4-7.6,48.4-8.6,53.6c0,0,19.3,1.2,18.9,4.9
	C263.9,451,264.2,454.4,260.2,453.5z"/>
<path style="fill:#3D3C3C;" d="M235.7,358.6c-1.4,11.5-2,22.4-1.7,32.4c3.3-1.2,16.8-1.6,19.8-0.7c0.2-3.6,3.8-31.3,3.8-31.3
	c1.1-8.8,8.2-60.4,5.9-76.5c-0.4-4.1-1.2-7.8-2-10.8c-1.6-5.9-34.1-2.5-35.4,5.6c1.1,17.6,9.5,49.9,10.6,58
	C237.7,343.3,235.7,358.6,235.7,358.6z"/>
<g>
	<path style="fill:#F4B382;" d="M233,42.5c-3.8,0-1.8,15.8-2.8,20.6l2.6,5.7c-2.3,34.7,3.9,49.8,3.9,49.8
		c-2.3,20.7-4.8,60.6-3.4,68.4c1.3,7.8,17.3,6.9,17.9-1.1c0.6-7.9,0.3-15,0.2-22.9c0-7.9-1.2-37.4-1.9-44.3
		c-0.1-0.9-8.2-49.9-8.2-49.9s0.1-2,1.2-5.3c1.6-4.6,1.2-11.5-0.5-15.2C240.5,45.1,236.7,42.5,233,42.5z"/>
	<path style="fill:#F4B382;" d="M231.7,58.3c0,0,0.4-5-2.2-5.5c-2.2-0.4-3-0.3,0.6,10.3C230.1,63.1,231.6,63,231.7,58.3z"/>
</g>
<g>
</g>
<g>
</g>
<g>
</g>
<g>
</g>
<g>
</g>
<g>
</g>
<g>
</g>
<g>
</g>
<g>
</g>
<g>
</g>
<g>
</g>
<g>
</g>
<g>
</g>
<g>
</g>
<g>
</g>
</svg>
