<?xml version="1.0" encoding="iso-8859-1"?>
<!-- Generator: Adobe Illustrator 19.0.0, SVG Export Plug-In . SVG Version: 6.00 Build 0)  -->
<svg version="1.1" id="Layer_1" xmlns="http://www.w3.org/2000/svg" xmlns:xlink="http://www.w3.org/1999/xlink" x="0px" y="0px"
	 viewBox="0 0 496.2 496.2" style="enable-background:new 0 0 496.2 496.2;" xml:space="preserve">
<path style="fill:#FFEFD6;" d="M0,248.1C0,111.1,111.1,0,248.1,0s248.1,111.1,248.1,248.1S385.1,496.2,248.1,496.2S0,385.1,0,248.1z
	"/>
<path style="fill:#3D3C3C;" d="M295.4,266.8c0,0-7.5-3-14.5-3c-14.1,0-23.2,10.2-23.2,10.2s-5.9,28.8,1.3,29.5
	c13.6,1.5,24.3,0.5,30.8,1.5l9.7-10.4L295.4,266.8z"/>
<path style="fill:#E2A379;" d="M372.7,304.2c0-3.4-16.9-5.1-17.4-7.7c-4.4-27.4-4.9-42.2-4.9-42.2c25.4-4.7,33.9,1.5,39.7-8.8
	c1-7.8-10.1-11.4-19.5-8.7c-13.7,0.3-36.7,3.2-38,10c-0.2,0.9,14.2,51.8,14.2,55.1C346.8,305.9,372.7,308.7,372.7,304.2z"/>
<path style="fill:#B3233B;" d="M368.2,289.9c7.3-0.5,12.1-8.1,16.4-15.1c2.9-4.7,5.2-9.5,6.8-13.2c2.8-6.8,1.7-13.8,1-17.7
	c-0.8-4.3-2.8-10.3-14-9c-5.3,0.7-9.9,2.9-29.7,15.2c-8.6,8.5-37.3,19.4-53.3,16.7c0,0,1.8,17.1,0.1,25.2
	c-1.7,8.1-5.7,13.1-5.7,13.1c34.6-5.2,56.5-16.4,68.8-17.1C358.6,287.9,363.1,290.2,368.2,289.9z"/>
<path style="fill:#F4B382;" d="M360.4,307.2c0-3.2-16.2-4.4-16.3-7c-2-27.7-3.9-45.2-3.9-45.2c25.7-2.5,43,1.3,49.7-8.4
	c1.7-7.7-8.7-10.4-18.7-10.4s-44.4,5.9-46.4,12.5c-0.3,0.9,10.8,54.2,10.8,57.5C335.5,309.6,360.4,311.7,360.4,307.2z"/>
<path style="fill:#E2A379;" d="M394.7,245c0,0,2.4-7.1,6.4-13.1l-13.3-9.3c-3.5,7.6-7.3,12.2-7.3,12.2c13.9,1.6,12.4,13.4,12.8,16.3
	L394.7,245z"/>
<path style="fill:#F4B382;" d="M407.1,205.8c2.1-6-1.8-10.2-4.3-12.5c-8-7-14-6-21.3-3.6c-9.7,3.1-5,29.8-2.8,33.8
	c5.8,10.4,22.6,9.8,29,7.9c7-2.1,4.5-3.9,3.4-6.6c0-0.1,0.2-0.6,0.2-0.6c-0.3-1-0.8-2.2-0.6-3.7c0,0-0.5-0.8-0.7-1.2
	c-0.1-0.3-0.2-0.5,0.2-0.7c0.9-0.7,1.7-1.3,2-1.9C413,214.9,406.2,208.6,407.1,205.8z"/>
<path style="fill:#D6876B;" d="M407,223c0,0,0.8,0.2,4-0.8c0.3-0.3,0.9-0.9,0-1.6C410.3,220.1,409.1,222,407,223z"/>
<path style="fill:#CC785E;" d="M407,223c0,0,1.2,1.4,4.3,1.2c0.4-0.2,0.6-0.6,0.6-0.8c0.1-1.1-1-1.2-1-1.2
	C407.8,223.2,407,223,407,223z"/>
<path style="fill:#602F0F;" d="M380.3,188.3c-11.8,3.8-22,25.9,0.6,40.7c1.5,1,4.5,1.8,7.2-2.2c2-2.8,2.9-5.9,2.9-5.9
	c0.3-0.9,0.5-2,0.8-3.1c0.3-1.2-2.3-6.8-1.2-7.4c11-5.6,13.9-13.3,12.9-16.4C399.8,187.1,392.9,184.2,380.3,188.3z"/>
<path style="fill:#F4B382;" d="M388,218.2c3.5,4.7,5.7,4.2,8.8,2.9l-4.4-7.6l-2.7-2.7C386.7,212.1,384.6,213.5,388,218.2z"/>
<path style="fill:#4C230C;" d="M367.7,212.2c-3.5-1.5-4.1-7.6-1.3-13.6c2.8-6.1,7.9-9.8,11.4-8.4c3.5,1.5,3.3,6.3,0.5,12.4
	C375.6,208.7,371.2,213.7,367.7,212.2z"/>
<g>
	<path style="fill:#602F0F;" d="M392.3,211.3c-0.5-0.9-0.8-1.8-1-2.5c-0.3-1-0.4-1.7-0.4-1.7l-3,2.3c0.2,0.5,0.3,1,0.5,1.5
		c0,0,0.3-0.2,0.9-0.7c0,0-0.1,0-0.1,0.1c0.7,0.6,1.7,1.6,2.8,3.2C392.1,213.6,393.8,214.1,392.3,211.3z"/>
	<path style="fill:#602F0F;" d="M365.7,212.5c-3.7-1.5-4.2-8.2-1.2-14.8c3.1-6.6,8.6-10.8,12.3-9.3c3.7,1.5,3.4,6.8,0.3,13.4
		C374.1,208.5,369.4,214.1,365.7,212.5z"/>
</g>
<path style="fill:#4C230C;" d="M364.2,201.4c-0.4-0.2,0-2,1-4c0.9-2,2-3.5,2.4-3.4c0.4,0.2,0,1.6-1,3.7
	C365.7,199.8,364.6,201.6,364.2,201.4z"/>
<path style="fill:#F4B382;" d="M84.9,303.1c4.2-2.2,15.3-3.8,20.4-7.3c3-2.1,8.9-5.8,12.4-5.7c5.8,0.2,8.1,3.6,9.7,4
	c9.8,2.2,36.9-4.4,42.9-4.2c9.9,0.4,6,19.3,2.4,19.2c-29.3-1-44-2.6-49.2-3.3c0,0-30.5,2.5-34.3,2.3C87,307.8,81.2,305,84.9,303.1z"
	/>
<path style="fill:#3D3C3C;" d="M203.2,286.6c-11.5-1-23,2.6-32.9,3.3c1.4,3.2,3.2,16.1,2.4,19.2c3.6,0.1,31-0.6,31-0.6
	c8.8,0.7,70.4-2.3,74.1-2.5s7.6-0.3,12-0.9l-8.2-37.8c-17.6,1.8-47,18-55,19.4C218.6,288,203.2,286.6,203.2,286.6z"/>
<g>
</g>
<g>
</g>
<g>
</g>
<g>
</g>
<g>
</g>
<g>
</g>
<g>
</g>
<g>
</g>
<g>
</g>
<g>
</g>
<g>
</g>
<g>
</g>
<g>
</g>
<g>
</g>
<g>
</g>
</svg>
