<?xml version="1.0" encoding="iso-8859-1"?>
<!-- Generator: Adobe Illustrator 19.0.0, SVG Export Plug-In . SVG Version: 6.00 Build 0)  -->
<svg version="1.1" id="Layer_1" xmlns="http://www.w3.org/2000/svg" xmlns:xlink="http://www.w3.org/1999/xlink" x="0px" y="0px"
	 viewBox="0 0 496.2 496.2" style="enable-background:new 0 0 496.2 496.2;" xml:space="preserve">
<path style="fill:#FFEFD6;" d="M0,248.1C0,111.1,111.1,0,248.1,0s248.1,111.1,248.1,248.1S385.1,496.2,248.1,496.2S0,385.1,0,248.1z
	"/>
<path style="fill:#3D3C3C;" d="M229.6,232.5c0,0-4.2,7.6-5.3,14.3c-2.4,13.9,5.5,22.8,5.5,22.8s30.7,7.8,31.7,0.7
	c2-13.5,4-24.1,5.2-30.7c0.8-4.4-19.8-10.5-19.8-10.5L229.6,232.5z"/>
<path style="fill:#B3233B;" d="M273.9,169c0.4-12.3-9.8-18.6-16.5-31.7c-0.8-1.6-8.4-6.1-12.4-6.2c-4.4-0.1-8.9,0.6-12.3,4.2
	c-2.6,2.8-7.8,11.5-3.5,34.5c1.3,10.7,6.3,50.7,0.4,62.6c0,0,13.7-1.3,21.7,0.7s15.3,6.3,15.3,6.3c2.8-37.3,1-49.2,2.8-61.5
	C269.5,178,273.8,172.5,273.9,169z"/>
<path style="fill:#E2A379;" d="M254.3,132.1c0,0,0.2-4.3,1.4-11.6l-15.5-6.2c2.6,8,0.1,17.2,0.1,17.2c11-1,13.8,4.5,17.1,5.9
	L254.3,132.1z"/>
<path style="fill:#F4B382;" d="M265.3,100.7c3.9-5.1,1.5-10.3-0.3-13.2c-5.4-9.1-11.4-10-19.1-10c-10.2,0-14,26.8-13.1,31.3
	c2.3,11.7,18.5,16.3,25.1,16.5c7.3,0.2,5.5-2.3,5.2-5.2c0-0.1,0.4-0.5,0.4-0.5c0-1-0.1-2.4,0.6-3.7c0,0-0.3-0.9-0.3-1.4
	c0-0.3,0-0.5,0.4-0.7c1.1-0.4,2.1-0.7,2.5-1.1C268.1,111.2,263.6,103,265.3,100.7z"/>
<path style="fill:#D6876B;" d="M259.8,117c0,0,0.7,0.4,4,0.5c0.4-0.2,1.1-0.6,0.5-1.5C263.9,115.2,262.2,116.7,259.8,117z"/>
<path style="fill:#CC785E;" d="M259.8,117c0,0,0.7,1.7,3.7,2.4c0.4-0.1,0.8-0.4,0.8-0.6c0.4-1-0.6-1.4-0.6-1.4
	C260.5,117.4,259.8,117,259.8,117z"/>
<path style="fill:#602F0F;" d="M245.3,75.7c-12.4,0-28.9,17.9-12,38.9c1.1,1.4,3.7,3.1,7.6,0.2c2.7-2,4.6-4.7,4.6-4.7
	c0.5-0.8,1.1-1.7,1.7-2.7c0.7-1.1-0.1-7.2,1.1-7.4c12.2-1.9,17.3-8.3,17.3-11.6C264.1,80.7,258.5,75.7,245.3,75.7z"/>
<path style="fill:#F4B382;" d="M243.3,106.5c1.8,5.5,4.1,5.8,7.4,5.5l-1.8-8.5l-1.7-3.4C244,100.3,241.5,101,243.3,106.5z"/>
<path style="fill:#4C230C;" d="M225.9,94.6c-2.9-2.5-1.5-8.5,3-13.4s10.6-6.9,13.5-4.4s1.2,7-3.4,11.9
	C234.4,93.6,228.8,97,225.9,94.6z"/>
<g>
	<path style="fill:#602F0F;" d="M249.5,101.3c-0.2-1-0.2-1.9-0.2-2.6c0-1.1,0.2-1.7,0.2-1.7l-3.6,1.3c0,0.5,0,1.1,0,1.6
		c0,0,0.4-0.1,1.1-0.3h-0.1c0.5,0.8,1.1,2,1.7,3.9C248.6,103.4,250,104.4,249.5,101.3z"/>
	<path style="fill:#602F0F;" d="M223.8,94.2c-3-2.6-1.5-9.1,3.5-14.5s11.5-7.6,14.5-5s1.1,7.5-3.8,12.9
		C233,93,226.9,96.8,223.8,94.2z"/>
</g>
<path style="fill:#4C230C;" d="M225.9,83.2c-0.3-0.3,0.6-1.9,2.1-3.5s3-2.7,3.4-2.4c0.3,0.3-0.5,1.5-2.1,3.2
	C227.8,82.1,226.2,83.5,225.9,83.2z"/>
<path style="fill:#F4B382;" d="M260.2,422.4c-4-0.9-18.4,0-19.9-0.1c-3.6-0.1-7.1-2.1-6.4-5.5c0.5-2.6,1.8-4.9,1.6-6.5
	c-0.8-8.3-0.3-33.2-1.1-43.2c-0.2-2.3-0.3-4.7-0.4-7.2c-0.3-9.9,20.1-4.3,19.8-0.7c-1,14.4-7.6,48.4-8.6,53.6c0,0,19.3,1.2,18.9,4.9
	C263.9,419.9,264.2,423.3,260.2,422.4z"/>
<path style="fill:#3D3C3C;" d="M235.7,327.4c-1.4,11.5-2,22.4-1.7,32.4c3.3-1.2,16.8-1.6,19.8-0.7c0.2-3.6,3.8-31.3,3.8-31.3
	c1.1-8.8,8.2-60.4,5.9-76.5c-0.4-4.1-1.2-7.8-2-10.8c-1.6-5.9-34.1-2.5-35.4,5.6c1.1,17.6,9.5,49.9,10.6,58
	C237.7,312.1,235.7,327.4,235.7,327.4z"/>
<g>
	<path style="fill:#F4B382;" d="M251.2,283.3c3.8,0,1.8-15.8,2.8-20.6l-2.6-5.7c2.3-34.7-3.9-49.8-3.9-49.8
		c2.3-20.7,4.8-60.6,3.4-68.4c-1.3-7.8-17.3-6.9-17.9,1.1c-0.6,7.9-0.3,15-0.2,22.9c0,7.9,1.2,37.4,1.9,44.3
		c0.1,0.9,8.2,49.9,8.2,49.9s-0.1,2-1.2,5.3c-1.6,4.6-1.2,11.5,0.5,15.2C243.7,280.7,247.4,283.3,251.2,283.3z"/>
	<path style="fill:#F4B382;" d="M252.4,267.5c0,0-0.4,5,2.2,5.5c2.2,0.4,3,0.3-0.6-10.3C254,262.7,252.5,262.8,252.4,267.5z"/>
</g>
<g>
</g>
<g>
</g>
<g>
</g>
<g>
</g>
<g>
</g>
<g>
</g>
<g>
</g>
<g>
</g>
<g>
</g>
<g>
</g>
<g>
</g>
<g>
</g>
<g>
</g>
<g>
</g>
<g>
</g>
</svg>
