<?xml version="1.0" encoding="iso-8859-1"?>
<!-- Generator: Adobe Illustrator 19.0.0, SVG Export Plug-In . SVG Version: 6.00 Build 0)  -->
<svg version="1.1" id="Layer_1" xmlns="http://www.w3.org/2000/svg" xmlns:xlink="http://www.w3.org/1999/xlink" x="0px" y="0px"
	 viewBox="0 0 496.2 496.2" style="enable-background:new 0 0 496.2 496.2;" xml:space="preserve">
<path style="fill:#FFEFD6;" d="M0,248.1C0,111.1,111.1,0,248.1,0s248.1,111.1,248.1,248.1S385.1,496.2,248.1,496.2S0,385.1,0,248.1z
	"/>
<path style="fill:#3D3C3C;" d="M262,288.1c0,0,4.2-7.6,5.3-14.3c2.4-13.9-5.5-22.8-5.5-22.8s-30.7-7.8-31.7-0.7
	c-2,13.5-4,24.1-5.2,30.7c-0.8,4.4,19.8,10.5,19.8,10.5L262,288.1z"/>
<path style="fill:#B3233B;" d="M220.6,351.8c-0.4,12.3,0.4,19,11.4,30.3c1.3,1.3,4.5,3.7,7.7,3.7s10.6,0,14-3.7
	c2.6-2.8,13.1-8.4,8.8-31.4c-1.3-10.7-6.3-50.7-0.4-62.6c0,0-13.7,1.3-21.7-0.7s-15.3-6.3-15.3-6.3c-2.8,37.3,1.8,49.5,0,61.8
	C225,342.8,220.7,348.3,220.6,351.8z"/>
<path style="fill:#E2A379;" d="M221.8,366.7c-1.7,0.8-2.3,0.2-3.5-1.8l-7.3,14.7c8.4-0.5,21,2.5,21,2.5s-3.2-3.1-6.2-7.5
	S221.8,366.7,221.8,366.7z"/>
<path style="fill:#F4B382;" d="M194.5,350c-5.3-3.6-10.3-0.9-13.2,1c-8.8,6-9.4,12-8.9,19.6c0.6,10.1,27.5,12.4,32,11.3
	c11.6-3,15.2-19.4,15-26.1c-0.2-7.3-2.6-5.3-5.5-4.9c-0.1,0-0.6-0.3-0.6-0.3c-1,0-2.4,0.2-3.7-0.4c0,0-0.9,0.3-1.4,0.4
	c-0.3,0-0.5,0-0.7-0.3c-0.4-1-0.8-2-1.3-2.4C204.8,346.7,197,351.7,194.5,350z"/>
<path style="fill:#D6876B;" d="M211.2,354.6c0,0,0.4-0.7,0.2-4c-0.2-0.4-0.7-1.1-1.6-0.4C209.1,350.6,210.7,352.2,211.2,354.6z"/>
<path style="fill:#CC785E;" d="M211.2,354.6c0,0,1.6-0.8,2.2-3.9c-0.1-0.4-0.5-0.7-0.6-0.8c-1-0.3-1.4,0.6-1.4,0.6
	C211.5,353.8,211.2,354.6,211.2,354.6z"/>
<path style="fill:#602F0F;" d="M170.8,371.5c0.7,12.4,19.5,27.8,39.5,9.7c1.3-1.2,2.9-3.9-0.2-7.6c-2.2-2.6-5-4.3-5-4.3
	c-0.8-0.5-1.8-1-2.8-1.6c-1.1-0.6-7.2,0.5-7.4-0.7c-2.6-12-9.3-16.8-12.6-16.6C174.6,352.4,170,358.3,170.8,371.5z"/>
<path style="fill:#F4B382;" d="M201.6,371.7c5.4-2.2,5.5-4.5,5-7.7l-8.4,2.3l-3.3,1.9C195.4,371.4,196.2,373.8,201.6,371.7z"/>
<path style="fill:#4C230C;" d="M190.7,389.8c-2.3,3-8.4,2-13.5-2.2s-7.5-10.2-5.2-13.2s6.9-1.6,12.1,2.7
	C189.3,381.3,193,386.8,190.7,389.8z"/>
<g>
	<path style="fill:#602F0F;" d="M196.1,365.8c-1,0.2-1.9,0.3-2.6,0.3c-1.1,0-1.7-0.1-1.7-0.1l1.5,3.5c0.5,0,1.1-0.1,1.6-0.1
		c0,0-0.1-0.4-0.4-1v0.1c0.8-0.5,2-1.2,3.8-1.9C198.2,366.5,199.2,365.1,196.1,365.8z"/>
	<path style="fill:#602F0F;" d="M190.5,391.8c-2.4,3.2-9,2-14.6-2.6c-5.7-4.7-8.3-11-5.8-14.2c2.4-3.2,7.4-1.6,13.1,3.1
		C188.8,382.7,192.9,388.6,190.5,391.8z"/>
</g>
<path style="fill:#4C230C;" d="M179.4,390.4c-0.3,0.4-1.9-0.5-3.6-1.9c-1.7-1.4-2.9-2.9-2.6-3.2c0.3-0.4,1.6,0.4,3.3,1.9
	C178.2,388.6,179.7,390.1,179.4,390.4z"/>
<g>
	<path style="fill:#F4B382;" d="M313.2,375c-5.1-1.2-13.5-2.5-13.5-2.5c-6.8-1.3-17-3.5-23.2-4.6c-10-2.1-26.7-6.1-31.5-4.1
		c-5.9,2.5-7.9,12.7-1.8,16.1c2.5,1.3,6.9,2.8,13.2,2.9c17.1,0.5,41.7,3.8,48.8,2.9c4.1-0.5,6.8-1.5,7.6-2.4c0.8-0.9,1.6-3.5,0.9-7
		C313.6,376,313.4,375.5,313.2,375z"/>
	<path style="fill:#F4B382;" d="M260.3,343.5c4.3,8.9,31.1,24.8,34.8,29.4c3.7,4.6,10.6,11.4,11.4,12.1c0.7-0.4,1.4-0.7,1.9-1.1
		c3.5-2.1,4.5-4.4,4.8-5.5c0,0,0.7-1.5,0.1-3.2c-2.8-8.2-44.6-31.6-44.6-31.6L260.3,343.5z"/>
	<path style="fill:#F4B382;" d="M260.3,343.5c0,0.2,2.4,0.8,9.5,0.6c0,0-0.7-0.4-1.1-1c-0.7-0.9-1.4-9.9-1.6-12.1
		c-0.2-2-2.5-4.7-3.1-6.1c-1.2-2.8-2.3-4.7-3.4-6.7c-0.2-0.3-0.8-1.9-1.1-1.9c0,0,0.4,8.9,0.6,14.7c0.1,1.9-1.3,2.2-1.3,2.2
		c-0.2,1.8-0.4,3.3-0.7,4.3L260.3,343.5z"/>
	<path style="fill:#F4B382;" d="M258.6,333.3c0,0-0.9-5-3.6-4.8c-2.2,0.2-3,0.4,3.2,9.8C258.3,338.3,259.7,337.8,258.6,333.3z"/>
	<path style="fill:#F4B382;" d="M249,75.2c4,1,2.1,18.4,3.3,21.3c0.6,1.5,2.8,2.9,2.8,6.4c0.1,4.6-3.6,7.1-3.5,8.7
		c0.6,8.3,5.2,31.4,5.7,41.4c0.1,2.3,0.2,5.2,0.2,7.7c0,9.9-20.2,4.3-19.8,0.7c1.4-14.4,3.3-49.7,4.4-54.8c0,0,0.6-15.9,1.1-19.7
		C243.6,84.7,245,74.1,249,75.2z"/>
</g>
<path style="fill:#3D3C3C;" d="M255.9,193.1c1.4-11.5,2-22.4,1.7-32.4c-3.3,1.2-16.8,1.6-19.8,0.7c-0.2,3.6-3.8,31.3-3.8,31.3
	c-1.1,8.8-8.2,60.4-5.9,76.5c0.4,4.2,1.2,7.8,2,10.8c1.6,5.9,34.1,2.5,35.4-5.6c-1.1-17.6-9.5-49.9-10.6-58
	C253.9,208.4,255.9,193.1,255.9,193.1z"/>
<g>
</g>
<g>
</g>
<g>
</g>
<g>
</g>
<g>
</g>
<g>
</g>
<g>
</g>
<g>
</g>
<g>
</g>
<g>
</g>
<g>
</g>
<g>
</g>
<g>
</g>
<g>
</g>
<g>
</g>
</svg>
