<?xml version="1.0" encoding="iso-8859-1"?>
<!-- Generator: Adobe Illustrator 19.0.0, SVG Export Plug-In . SVG Version: 6.00 Build 0)  -->
<svg version="1.1" id="Layer_1" xmlns="http://www.w3.org/2000/svg" xmlns:xlink="http://www.w3.org/1999/xlink" x="0px" y="0px"
	 viewBox="0 0 496.2 496.2" style="enable-background:new 0 0 496.2 496.2;" xml:space="preserve">
<path style="fill:#FFEFD6;" d="M0,248.1C0,111.1,111.1,0,248.1,0s248.1,111.1,248.1,248.1S385.1,496.2,248.1,496.2S0,385.1,0,248.1z
	"/>
<path style="fill:#E2A379;" d="M341.8,328.3c-6.1-2.1-15.4-2-15.5-4.6c-0.8-20.8-2.5-52-2.5-52c1.5-20.7,12.3-50.7,10.6-58.5
	c-1.7-7.7-17.6-6.1-17.9,1.8c-1,9.3-2.2,13.7-3.2,23.3c-1.5,11.9-3.3,26.9-2.3,33.8c0.1,0.9,6.8,47,6.8,47s0.2,5.7,1,8.8
	c0.9,3.5,3.2,2.7,10.2,3.5C334.2,332.1,346.1,329.7,341.8,328.3z"/>
<path style="fill:#3D3C3C;" d="M245.6,208.9c0,0-8.6-1.1-15.3,0.3c-13.8,2.9-16.3,13.3-16.3,13.3s1.3,31.6,8.3,30
	c13.3-3.1,23.9-5.2,30.4-6.5c4.4-0.9,2.4-22.3,2.4-22.3L245.6,208.9z"/>
<path style="fill:#B3233B;" d="M315.6,249.3c11.6-4.1,13.2-8.1,22.9-19.1c1.2-1.4,2.5-10.1,1.1-13.8c-1.5-4.1-4.1-7.6-8.5-9.9
	c-8.6-4.4-29.1,13.1-43.1,13.1c-9.5,1-29.2-9.7-42.5-10.7c0,0,6.3,12.3,7.4,20.4c1.1,8.2-0.2,16.6-0.2,16.6
	c31.8,3.4,40.8,5.5,52.8,2.6C305.6,248.5,312.3,250.4,315.6,249.3z"/>
<path style="fill:#F4B382;" d="M332,330.2c-4.2-2.6-15.8-3.9-15.6-6.5c1.5-20.8,7.5-52,7.5-52c1.5-20.7,12.3-50.7,10.6-58.5
	c-1.7-7.7-17.6-6.1-17.9,1.8c-1,9.3-2.2,13.7-3.2,23.3c-1.5,11.9-3.3,26.9-2.3,33.8c0.1,0.9-3,52.7-2.2,55.8
	c0.9,3.5,3.2,2.7,10.2,3.5C324.2,332.1,335.8,332.5,332,330.2z"/>
<path style="fill:#E2A379;" d="M341.7,217c0,0,3.1-2.9,9-7.4l-6.9-15.2c-3.6,7.6-11.8,12.5-11.8,12.5c8.6,6.9,6.9,12.8,8.3,16.1
	L341.7,217z"/>
<path style="fill:#F4B382;" d="M364.5,184c2.4-5.9-1.2-10.3-3.7-12.7c-7.6-7.4-13.6-6.7-21.1-4.7c-9.8,2.6-6.6,29.5-4.6,33.6
	c5.3,10.7,22.1,11,28.6,9.4c7.1-1.7,4.7-3.6,3.7-6.4c0-0.1,0.2-0.6,0.2-0.6c-0.2-1-0.7-2.3-0.4-3.7c0,0-0.5-0.8-0.6-1.3
	c-0.1-0.3-0.1-0.5,0.2-0.7c0.9-0.6,1.8-1.2,2.1-1.8C369.8,193.4,363.4,186.8,364.5,184z"/>
<path style="fill:#D6876B;" d="M363.4,201.2c0,0,0.8,0.2,4-0.6c0.3-0.3,0.9-0.9,0.1-1.6C366.9,198.5,365.6,200.4,363.4,201.2z"/>
<path style="fill:#CC785E;" d="M363.4,201.2c0,0,1.1,1.5,4.2,1.4c0.4-0.2,0.6-0.6,0.7-0.8c0.1-1.1-0.9-1.2-0.9-1.2
	C364.2,201.5,363.4,201.2,363.4,201.2z"/>
<path style="fill:#602F0F;" d="M338.6,165.2c-12,3.2-23.3,24.8-1.5,40.7c1.5,1.1,4.4,2,7.3-1.8c2.1-2.7,3.2-5.8,3.2-5.8
	c0.3-0.9,0.6-1.9,1-3c0.4-1.2-2-6.9-0.8-7.4c11.2-5,14.6-12.6,13.7-15.7C358.1,165,351.4,161.7,338.6,165.2z"/>
<path style="fill:#F4B382;" d="M344.7,195.4c3.2,4.8,5.5,4.5,8.6,3.4l-4-7.8l-2.5-2.9C343.7,189.2,341.5,190.5,344.7,195.4z"/>
<path style="fill:#4C230C;" d="M324.8,188.4c-3.4-1.6-3.7-7.8-0.6-13.7s8.4-9.4,11.9-7.8c3.4,1.6,3,6.4-0.1,12.4
	C332.8,185.2,328.2,190,324.8,188.4z"/>
<g>
	<path style="fill:#602F0F;" d="M349.4,188.8c-0.4-0.9-0.7-1.8-0.8-2.5c-0.2-1-0.3-1.7-0.3-1.7l-3.1,2.2c0.1,0.5,0.3,1,0.4,1.5
		c0,0,0.3-0.2,0.9-0.6c0,0-0.1,0-0.1,0.1c0.7,0.7,1.6,1.7,2.7,3.3C349.1,191,350.7,191.6,349.4,188.8z"/>
	<path style="fill:#602F0F;" d="M322.7,188.6c-3.6-1.7-3.8-8.4-0.4-14.9s9.1-10.3,12.7-8.6s3,7-0.4,13.4
		C331.3,185,326.3,190.3,322.7,188.6z"/>
</g>
<path style="fill:#4C230C;" d="M321.8,177.4c-0.4-0.2,0.1-2,1.2-3.9c1-2,2.2-3.4,2.6-3.2s-0.1,1.6-1.2,3.6
	C323.4,175.8,322.2,177.6,321.8,177.4z"/>
<path style="fill:#F4B382;" d="M124.4,329.4c0.4-4.1,17.8-5.1,20.5-6.8c1.3-0.8,2.4-3.2,5.8-3.8c4.5-0.8,7.6,2.4,9.2,2
	c8.1-1.9,25.8-4.6,35.7-6.8c2.3-0.5,4.6-1,7-1.4c9.8-1.7,7,19.3,3.4,19.6c-14.4,1-44.3-1-49.5-1.2c0,0-15.8,2-19.6,2.1
	C134.7,333.2,124,333.5,124.4,329.4z"/>
<path style="fill:#3D3C3C;" d="M238.2,310c-11.6,0.1-25.8,1-35.6,2.7c1.7,3.1,3.9,16.4,3.4,19.5c3.6-0.2,51.5,3.8,58.8-4.3
	c7.7-8.3-17.5-84.7-15-86.5c4.9-3.6-10.3-32.6-18.3-30.8c-5.9,2.8-8.5-4-17.7,11.6C202.6,241.6,238.2,310,238.2,310z"/>
<g>
</g>
<g>
</g>
<g>
</g>
<g>
</g>
<g>
</g>
<g>
</g>
<g>
</g>
<g>
</g>
<g>
</g>
<g>
</g>
<g>
</g>
<g>
</g>
<g>
</g>
<g>
</g>
<g>
</g>
</svg>
