<?xml version="1.0" encoding="iso-8859-1"?>
<!-- Generator: Adobe Illustrator 19.0.0, SVG Export Plug-In . SVG Version: 6.00 Build 0)  -->
<svg version="1.1" id="Layer_1" xmlns="http://www.w3.org/2000/svg" xmlns:xlink="http://www.w3.org/1999/xlink" x="0px" y="0px"
	 viewBox="0 0 496.2 496.2" style="enable-background:new 0 0 496.2 496.2;" xml:space="preserve">
<path style="fill:#FFEFD6;" d="M0,248.1C0,111.1,111.1,0,248.1,0s248.1,111.1,248.1,248.1S385.1,496.2,248.1,496.2S0,385.1,0,248.1z
	"/>
<path style="fill:#E2A379;" d="M262.9,348.1c-4-0.9-15.4,0-16.9-0.1c-3.6-0.1-7.1-2.1-6.4-5.5c0.5-2.6,1.3-4.9,1.6-6.5
	c1.9-9.4-5.7-48-5.8-50.4c-0.3-9.9,21.7-4.3,21.5-0.7c-1,14.4-5,48.4-6,53.6c0,0,19.3,1.2,18.9,4.9
	C269.6,345.7,266.9,349.1,262.9,348.1z"/>
<path style="fill:#F4B382;" d="M258.4,350.6c-4-0.9-15.4,0-16.9-0.1c-3.6-0.1-7.1-2.1-6.4-5.5c0.5-2.6,1.3-4.9,1.6-6.5
	c1.9-9.4-1.9-48-1.9-50.4c-0.3-9.9,22.4-4.3,22.2-0.7c-1,14.4-9.6,48.4-10.5,53.6c0,0,19.3,1.2,18.9,4.9
	C265.1,348.2,262.4,351.6,258.4,350.6z"/>
<g>
	<path style="fill:#E2A379;" d="M381.4,148.5c-2.3-3-13.7,8.2-18,10.3l-2.9,5.5c-28.9,19.3-40.3,31.2-40.3,31.2
		c-17.8,10.8-42.8,30.2-48.2,36.1c-9.1,9.6,6.2,25.6,17.3,13.8c6.6-6.1,5.3-6,7.9-8.7c6.2-4.8,25.7-26.1,30.7-30.9
		c0.7-0.7,37.7-34.7,37.7-34.7s1.6-1.2,5-2.3c4.6-1.5,9.9-6,11.8-9.7C384,156,383.7,151.5,381.4,148.5z"/>
	<path style="fill:#E2A379;" d="M368.1,157.1c0,0,4.2-2.7,3-5.1c-1-2-1.6-2.6-7.8,6.8C363.3,158.8,364.4,159.9,368.1,157.1z"/>
</g>
<path style="fill:#B3233B;" d="M250.6,239.6c6.9,9.7,11.6,9.3,25.5,13c3.8,1,21.6-0.9,23.3-3.8c0.6-1,1-2,1.4-3.2
	c1-3.7,1.4-13.8-13.2-32c-6.2-8.8-16.2-32.9-27.4-43.8c-8.3-8-22.6-8.1-22.6-8.1l-17.3,11.4c15.2,34.2,25.2,43.5,29.4,55.1
	C249.7,228.3,248.6,236.8,250.6,239.6z"/>
<g>
	<path style="fill:#F4B382;" d="M380.9,145.9c-2.2-3-13.9,7.8-18.3,9.8l-3.1,5.4c-29.4,18.5-41.2,30-41.2,30
		c-18.1,10.3-43.7,29-49.2,34.6c-9.3,9.3,5.4,25.8,16.9,14.3c6.8-5.9,5.5-5.9,8.1-8.4c6.4-4.7,26.4-25.4,31.6-30
		c0.7-0.6,38.7-33.5,38.7-33.5s1.7-1.1,5-2.2c4.6-1.4,10-5.7,12-9.4C383.2,153.5,383.1,149,380.9,145.9z"/>
	<path style="fill:#F4B382;" d="M367.4,154.2c0,0,4.3-2.6,3.2-5c-1-2-1.5-2.6-8,6.6C362.5,155.7,363.5,156.9,367.4,154.2z"/>
</g>
<path style="fill:#E2A379;" d="M277.4,254.8c0,0,0.8,6.1,1.1,14.4l13.4,0.9c0.7-8.5,3.1-19.1,3.1-19.1c-12.5,1.4-14.9-0.5-26.5-0.2
	L277.4,254.8z"/>
<path style="fill:#F4B382;" d="M265.1,284.5c-2.8,5.8,0.6,10.3,2.9,12.9c7.2,7.8,13.2,7.5,20.7,6c9.9-2.1,8.3-29,6.5-33.3
	c-4.6-11-21.4-12.2-27.9-11.1c-7.2,1.3-4.9,3.4-4.1,6.2c0,0.1-0.2,0.6-0.2,0.6c0.2,1,0.5,2.3,0.1,3.8c0,0,0.4,0.8,0.6,1.3
	c0.1,0.3,0.1,0.5-0.2,0.7c-1,0.6-1.9,1.1-2.2,1.6C260.3,274.8,266.4,281.8,265.1,284.5z"/>
<path style="fill:#D6876B;" d="M267.2,267.4c0,0-0.8-0.3-4,0.4c-0.4,0.3-1,0.8-0.2,1.6C263.6,269.9,265,268.1,267.2,267.4z"/>
<path style="fill:#CC785E;" d="M267.2,267.4c0,0-1-1.5-4.1-1.6c-0.4,0.1-0.7,0.6-0.7,0.8c-0.2,1,0.8,1.3,0.8,1.3
	C266.4,267.1,267.2,267.4,267.2,267.4z"/>
<path style="fill:#602F0F;" d="M289.8,304.9c12.1-2.5,24.7-23.3,3.9-40.5c-1.4-1.1-4.3-2.3-7.4,1.3c-2.3,2.5-3.5,5.6-3.5,5.6
	c-0.4,0.9-0.8,1.9-1.2,3c-0.4,1.2,1.6,7,0.4,7.4c-11.5,4.3-15.3,11.7-14.6,14.9C270.3,303.9,276.9,307.5,289.8,304.9z"/>
<path style="fill:#F4B382;" d="M285.5,274.3c-2.9-5-5.2-4.8-8.4-3.9l3.5,8l2.3,3C286.1,280.6,288.4,279.4,285.5,274.3z"/>
<path style="fill:#4C230C;" d="M305,282.5c3.3,1.8,3.2,8-0.2,13.7c-3.5,5.7-9,8.9-12.3,7c-3.3-1.8-2.6-6.6,0.9-12.3
	C296.8,285.2,301.7,280.7,305,282.5z"/>
<g>
	<path style="fill:#602F0F;" d="M280.5,280.6c0.4,0.9,0.6,1.8,0.7,2.6c0.2,1,0.2,1.7,0.2,1.7l3.3-2c-0.1-0.5-0.2-1-0.3-1.6
		c0,0-0.4,0.2-1,0.6c0,0,0.1,0,0.1-0.1c-0.6-0.7-1.5-1.8-2.5-3.5C280.9,278.4,279.3,277.7,280.5,280.6z"/>
	<path style="fill:#602F0F;" d="M307.1,282.4c3.5,1.9,3.3,8.6-0.5,14.9s-9.7,9.8-13.2,7.8c-3.5-1.9-2.6-7.1,1.2-13.4
		C298.3,285.5,303.6,280.5,307.1,282.4z"/>
</g>
<path style="fill:#4C230C;" d="M307.3,293.6c0.4,0.2-0.2,1.9-1.4,3.9c-1.2,1.9-2.4,3.3-2.8,3.1c-0.4-0.2,0.2-1.6,1.4-3.5
	C305.6,295.1,306.9,293.4,307.3,293.6z"/>
<g>
	<path style="fill:#3D3C3C;" d="M237.9,161.8c-22.3,0.7-30.3,7.1-33.6,20.4c-3.4,13.7,2.6,23.9,4.6,28.1c3.5,7.5,30.2,7.6,30.7,0.4
		c0.3-5.9,0.7-11.3,1.1-16.1c0-0.3,1.9-1.6,2-1.9C245.2,182.6,237.9,161.8,237.9,161.8z"/>
	<path style="fill:#3D3C3C;" d="M237.6,260c-4.2,10.3-3.1,18.1-2.8,28.1c3.3-1.2,19.2-1.6,22.2-0.7c0.2-3.6,2.5-27,2.5-27
		c1.1-8.8-16.9-50.9-19.2-66.9c-0.4-4.1-1.2-7.8-2-10.8c-1.6-5.9-32.6,4.8-33.9,12.9c3.3,17.7,10.4,28.9,18.1,40.5
		C226.9,242.9,237.6,260,237.6,260z"/>
</g>
<g>
</g>
<g>
</g>
<g>
</g>
<g>
</g>
<g>
</g>
<g>
</g>
<g>
</g>
<g>
</g>
<g>
</g>
<g>
</g>
<g>
</g>
<g>
</g>
<g>
</g>
<g>
</g>
<g>
</g>
</svg>
