<?xml version="1.0" encoding="iso-8859-1"?>
<!-- Generator: Adobe Illustrator 19.0.0, SVG Export Plug-In . SVG Version: 6.00 Build 0)  -->
<svg version="1.1" id="Layer_1" xmlns="http://www.w3.org/2000/svg" xmlns:xlink="http://www.w3.org/1999/xlink" x="0px" y="0px"
	 viewBox="0 0 496.2 496.2" style="enable-background:new 0 0 496.2 496.2;" xml:space="preserve">
<path style="fill:#FFEFD6;" d="M0,248.1C0,111.1,111.1,0,248.1,0s248.1,111.1,248.1,248.1S385.1,496.2,248.1,496.2S0,385.1,0,248.1z
	"/>
<path style="fill:#F4B382;" d="M354.6,364.4c-4-0.9-15.4,0-16.9-0.1c-3.6-0.1-7.1-2.1-6.4-5.5c0.5-2.6,1-4.9,0.6-6.5
	c-2.3-9.5-8.7-32.5-10-42.5c-0.2-2-0.6-3.7-0.5-5c0.6-9.9,20-1.6,20.2,2c0.7,14.8,0.5,27.5,1.1,47.9c0,0,19.3,1.2,18.9,4.9
	C361.3,361.9,358.6,365.3,354.6,364.4z"/>
<g>
	<path style="fill:#3D3C3C;" d="M316.6,274.8c2,12.9,4.8,29.9,4.8,29.9c10-0.8,17.4,0.5,20.2,2c-1.3-26.7-3.9-41.3-6-50
		c-2.7-11-78.3-13.8-79.1-16.8c-1.7-5.8-34.2-1.8-35.2,6.4c0.6,6.5-7.1,2.6,5,16.1C240.2,278.1,316.6,274.8,316.6,274.8z"/>
	<path style="fill:#3D3C3C;" d="M237.8,232.6c0,0-9.3,0.3-19.8,6.2c-10.2,5.7-11.2,13.8-14.5,16.5s12.1,29.5,18.3,25.8
		c11.8-6.9,42.9-19.6,38-25.7S237.8,232.6,237.8,232.6z"/>
</g>
<path style="fill:#E2A379;" d="M356.4,355.2c3.7-0.8-5.1-25.7-5.1-25.7c-4.8-34.4-11.1-50.1-11.1-50.1c-2-20.7-9.8-67.2-12.8-74.6
	c-2.9-7.4-16.8,3.5-15.8,11.5c1,7.9,8.1,44.6,16.6,65.9c0.5,1.2,14.6,49,14.6,49s0.4,2-0.1,5.5C342.2,341.4,352.7,356,356.4,355.2z"
	/>
<path style="fill:#B3233B;" d="M315.7,228.4c6.1-2.1,6.8-6.8,7.8-10.5c0.8-2.8,4.5-9,4.7-10c1.1-5.3-6.1-10.9-8.9-16.6
	c-0.3-1.8-5.8-8.1-9.6-9.3c-4.2-1.3-9-1.6-12.6,1.2c-3.3,1.9-8.5,6.9-21.5,26c-3.1,4.5-25.3,18.4-35.2,22.6
	c-1.9,0.8-4.4,0.9-5.3,1.1c0,0,0.4,8.4,10.1,13.7c22.5,12.2,40.9-2.5,40.9-2.5c3.2-1.7,14.1-9.5,22.6-14.8
	C308.7,229.3,311.9,229.8,315.7,228.4z"/>
<path style="fill:#E2A379;" d="M321.1,192.4c0,0,3.5-8.1,9.2-14l-9.6-9.4c-3.2,7.8-13.9,12.3-13.9,12.3
	c4.2,20.2,11.8,17.3,12.7,16.8L321.1,192.4z"/>
<path style="fill:#F4B382;" d="M341.9,159.4c0-20.1-7.8-24.7-17.3-24.7s-17.3,4.6-17.3,24.7c0,6.8,1.2,12.1,3,16.2
	c4,9,10.9,12.2,14.3,12.2s10.3-3.2,14.3-12.2C340.6,171.5,341.9,166.2,341.9,159.4z"/>
<path style="fill:#D6876B;" d="M329.4,179.6c0,0-2.2,1.1-4.9,1.1s-4.9-1.1-4.9-1.1c0-0.3,1.6-2.1,2.6-2.2c0.6-0.1,2.3,0.5,2.3,0.5
	s1.6-0.6,2.3-0.5C327.8,177.5,329.4,179.6,329.4,179.6z"/>
<path style="fill:#CC785E;" d="M329.4,179.6c0,0-2.2,2-4.9,2s-4.9-2-4.9-2s0.5-0.6,3.4-0.8c0.5,0,1.1,0.4,1.5,0.4s0.9-0.4,1.3-0.4
	C328.8,178.9,329.4,179.6,329.4,179.6z"/>
<g>
	<ellipse style="fill:#602F0F;" cx="324.5" cy="135.6" rx="9.1" ry="6.2"/>
	<path style="fill:#602F0F;" d="M342.5,160.2c0-20.1-5.5-25.5-18-25.5s-18,5.5-18,25.5c0,0,26.7-5.8,26.7-13.1
		C333.2,154.4,342.5,160.2,342.5,160.2z"/>
</g>
<g>
	<path style="fill:#F4B382;" d="M305.5,166.4c0.9,5.5,2.1,5.7,3.8,5.4l-1.8-11.9C305.8,160.2,304.6,161,305.5,166.4z"/>
	<path style="fill:#F4B382;" d="M341.6,160l-1.8,11.9c1.7,0.3,2.8,0,3.8-5.4C344.5,161,343.2,160.2,341.6,160z"/>
</g>
<g>
	<path style="fill:#602F0F;" d="M308.6,161.1c-0.1-0.6-0.1-1.1-0.1-1.6c0-0.6,0.1-1,0.1-1l-2,0.8c0,0.3,0,0.6,0,0.9
		c0,0,0.2-0.1,0.6-0.2c0,0,0,0-0.1,0c0.3,0.5,0.6,1.2,1,2.3C308.1,162.3,308.9,162.9,308.6,161.1z"/>
	<path style="fill:#602F0F;" d="M340.6,159.5c0,0.4,0,1-0.1,1.5c-0.3,1.8,0.5,1.2,0.5,1.2c0.3-1.1,0.7-1.8,1-2.3
		c0.3,0.1,0.6,0.2,0.6,0.2c0-0.3,0-0.6,0-0.9l-2-0.8C340.5,158.5,340.5,158.9,340.6,159.5"/>
</g>
<g>
	<path style="fill:#F4B382;" d="M239.1,57.5c3.3-1.7,8.8,13.3,11.9,17.1l0.3,6.2c17.8,29.8,23,45.4,23,45.4
		c11.5,17.4,26.1,47.3,28.4,54.9c1.5,4.5-15.3,20.5-18,15.3l0.9-1.2c-3.1-8-7.1-18.7-8.2-22c-3.6-7-12-34.6-14.5-41.1
		c-0.3-0.9-19.2-47.5-19.2-47.5s-1-1.8-3.5-4.2c-3.5-3.4-6.3-9.7-6.5-13.8C233.6,63.2,235.8,59.2,239.1,57.5z"/>
	<path style="fill:#F4B382;" d="M247.4,71c0,0-2.7-4.3-0.5-5.9c1.8-1.4,2.5-1.7,4.1,9.5C251,74.6,249.6,75.2,247.4,71z"/>
	<path style="fill:#F4B382;" d="M87.1,374.7c-1.6-3.8,1.8-7.6,1.8-10.2c0-2.5-0.6-6.7,2.2-8.8c2-1.5,4.1-2.6,5.3-3.7
		c6.3-5.5,15.5-18.7,23.2-25.3c1.8-1.5,2.4-2.3,4.3-3.8c7.9-6.1,15.8,15.2,12.8,17.1c-12.2,7.7-31.8,19.1-36.5,21.3
		c0,0,3.6,15.6,0.4,17.5C98.5,379.9,88.7,378.5,87.1,374.7z"/>
</g>
<path style="fill:#3D3C3C;" d="M161.4,318.9c-8.3,8.1-16.6,15.2-24.7,21c-1-3.3-10.3-15.1-12.8-17c2.7-2.4,4.9-4.3,6.4-5.4
	c7.1-5.6,19.8-13.1,19.8-13.1c6.1-5.3,46.1-44.4,55.9-51.9c10.5-6.4,20.5-7.1,20.5-7.1s22.5,18.7,16.8,24.6
	c-14.7,9.8-54.8,32.6-61.8,36.6C174.3,310.7,161.4,318.9,161.4,318.9z"/>
<g>
</g>
<g>
</g>
<g>
</g>
<g>
</g>
<g>
</g>
<g>
</g>
<g>
</g>
<g>
</g>
<g>
</g>
<g>
</g>
<g>
</g>
<g>
</g>
<g>
</g>
<g>
</g>
<g>
</g>
</svg>
