<?xml version="1.0" encoding="iso-8859-1"?>
<!-- Generator: Adobe Illustrator 19.0.0, SVG Export Plug-In . SVG Version: 6.00 Build 0)  -->
<svg version="1.1" id="Layer_1" xmlns="http://www.w3.org/2000/svg" xmlns:xlink="http://www.w3.org/1999/xlink" x="0px" y="0px"
	 viewBox="0 0 496.2 496.2" style="enable-background:new 0 0 496.2 496.2;" xml:space="preserve">
<path style="fill:#FFEFD6;" d="M0,248.1C0,111.1,111.1,0,248.1,0s248.1,111.1,248.1,248.1S385.1,496.2,248.1,496.2S0,385.1,0,248.1z
	"/>
<path style="fill:#E2A379;" d="M140.1,361.9c-12.3,0-15.3-1.7-21.1-1.5c-2.3,0.1-8.7,3-11.4-1c-1.4-2.1-1.9-6.4,0.3-9.1
	c1.6-1.9,3.5-3.4,4.4-4.7c5-6.7,10.9-22.2,16.3-30.8c1.3-2.1,1.9-2.9,3.3-4.9c5.7-7.6,19.2,10.5,16.6,13
	c-10.4,10.1-21.1,23.8-25.2,27c0,0,22.6,1.2,26.4,4.3C153.4,357.3,145.6,361.9,140.1,361.9z"/>
<path style="fill:#333333;" d="M169.6,300.6c-8.4,9.3-14.3,15.1-21.1,22.4c-1.7-3.1-13.8-11.7-16.6-13c2.2-2.9,4.4-5,5.6-6.4
	c8.5-9.2,17.2-15.6,17.2-15.6c4.8-6.5,37-41,47.5-61.8c1.2-2.7,6.1-7.2,9.6-5.9c0,0,33.5,12.3,29.2,19.2
	c-12.4,12.6-42,35.7-52.2,44.4C182.6,289.2,169.6,300.6,169.6,300.6z"/>
<g>
	<path style="fill:#E2A379;" d="M377.3,135.8c-3-2.3-11,11.5-14.7,14.7l-1.4,6.1c-22.8,26.2-27,42.1-27,42.1
		c-14.3,15.1-38.1,39-41.7,46.1c-3.6,7,9.7,15.9,15,10s6.9-5.4,11.7-11.7c4.7-6.3,21.6-30.5,25.2-36.4c0.5-0.8,23.6-44.7,23.6-44.7
		s1.3-1.6,4.2-3.5c4-2.7,7.9-8.4,8.8-12.5C381.8,142.3,380.3,138,377.3,135.8z"/>
	<path style="fill:#E2A379;" d="M366.8,147.6c0,0,3.4-3.7,1.6-5.7c-1.5-1.7-2.2-2.1-5.7,8.6C362.6,150.5,363.9,151.3,366.8,147.6z"
		/>
</g>
<path style="fill:#B3233B;" d="M270.7,270.8c10.5,6.3,18.2-1.1,32.9-0.6c1.8,0.1,9.4-4.4,11.4-7.9c2.2-3.8,3.8-8.1,2.3-12.8
	c-1.2-3.6-6.3-12.4-28.4-19.8c-10-4.1-56.5-15.5-56.5-15.5l-22,17.9c31.3,20.6,44.8,22.9,54.6,30.4C265,262.6,267.7,269,270.7,270.8
	z"/>
<path style="fill:#E2A379;" d="M306.4,270.4c0,0,8.8,3.4,16.1,7.2l9.5-9.5c-7.7-3.3-14.6-11.8-14.6-11.8
	c-7.2,10.3-13.5,12.3-16.7,13.9L306.4,270.4z"/>
<path style="fill:#F4B382;" d="M323.5,296.1c1.2,6.3,6.6,8,10,8.6c10.4,2.1,15.1-1.7,20.3-7.4c6.8-7.5-10.5-28.3-14.4-30.7
	c-10.2-6.2-24.5,2.8-29.1,7.6c-5,5.3-1.9,5.6,0.4,7.4c0.1,0.1,0.2,0.6,0.2,0.6c0.7,0.7,1.8,1.5,2.3,2.9c0,0,0.8,0.4,1.2,0.7
	c0.3,0.2,0.4,0.4,0.2,0.7c-0.4,1-0.9,2-0.8,2.6C313.9,291.1,323,293.2,323.5,296.1z"/>
<path style="fill:#D6876B;" d="M315.1,281.1c0,0-0.8,0.2-3,2.7c-0.1,0.4-0.3,1.2,0.8,1.4C313.7,285.3,313.7,283,315.1,281.1z"/>
<path style="fill:#CC785E;" d="M315.1,281.1c0,0-1.7-0.6-4.3,1.1c-0.3,0.4-0.2,0.8-0.1,1c0.5,1,1.4,0.5,1.4,0.5
	C314.3,281.3,315.1,281.1,315.1,281.1z"/>
<path style="fill:#602F0F;" d="M355.5,297.9c8.3-9.2,6.1-33.4-20.8-35c-1.8-0.1-4.8,0.7-5.2,5.5c-0.3,3.4,0.4,6.6,0.4,6.6
	c0.2,1,0.5,2,0.8,3.1c0.3,1.2,5.4,4.7,4.7,5.8c-6.7,10.3-5.4,18.5-3,20.6C339.2,308.6,346.6,307.7,355.5,297.9z"/>
<path style="fill:#F4B382;" d="M334,275.8c-5.3-2.3-7-0.8-9,1.8l7.6,4.4l3.7,1.1C338.1,280.5,339.3,278.2,334,275.8z"/>
<path style="fill:#4C230C;" d="M354.5,270.9c3.8-0.5,7.3,4.5,7.9,11.2s-2,12.5-5.8,12.9c-3.8,0.5-6-3.8-6.6-10.5
	C349.5,277.9,350.7,271.4,354.5,270.9z"/>
<g>
	<path style="fill:#602F0F;" d="M333.6,283.9c0.8,0.5,1.5,1.1,2.1,1.6c0.8,0.7,1.2,1.3,1.2,1.3l1.5-3.5c-0.4-0.4-0.8-0.7-1.2-1.1
		c0,0-0.2,0.4-0.5,1v-0.1c-0.9-0.2-2.3-0.5-4-1.3C332.7,281.9,331,282.2,333.6,283.9z"/>
	<path style="fill:#602F0F;" d="M356.1,269.6c4-0.5,7.7,5,8.4,12.3c0.6,7.3-2.1,13.6-6,14.1c-4,0.5-6.3-4.2-7-11.5
		C350.8,277.2,352.1,270.1,356.1,269.6z"/>
</g>
<path style="fill:#4C230C;" d="M362.9,278.5c0.4-0.1,1,1.7,1.2,3.9c0.2,2.2,0,4.1-0.4,4.1c-0.4,0.1-0.8-1.4-1-3.7
	C362.5,280.7,362.5,278.6,362.9,278.5z"/>
<path style="fill:#3D3C3C;" d="M215.3,213.8c-12,3.2-22.4,22.2-5.8,38.9c6.5,6.5,22,7.7,22,7.7s30.2-15.1,24.5-19.6
	c-4.6-3.7-8.8-7.1-12.5-10.2c-1.7-1.4-6.3-4.2-11.3-7.1c-0.7-0.4,0.1-9.3,0.1-9.3C228.6,213.4,221.4,212.1,215.3,213.8z"/>
<path style="fill:#E2A379;" d="M386.4,359.5c-3,2.8-16.6-8.1-19.8-8.7c-1.5-0.3-3.9,0.8-6.9-1c-3.9-2.4-4.1-6.8-5.5-7.6
	c-7.3-4-25.9-17-34.7-21.9c-2-1.1-4.1-2.4-6.2-3.7c-8.4-5.3,7.7-19,10.5-16.8c11.4,8.9,35.8,33.4,39.6,37.1c0,0,13.1,9.1,16,11.5
	C381.3,349.9,389.4,356.7,386.4,359.5z"/>
<path style="fill:#3D3C3C;" d="M288.5,296.9c8.5,7.8,17.1,14.6,25.4,20.1c0.9-3.4,8.4-14.7,10.9-16.6c-2.8-2.3-23.4-21.1-23.4-21.1
	c-6.5-6-44.6-41.5-59.1-48.9c-3.6-2-7.1-3.5-10-4.6c-5.7-2.1-25.7,21-19.8,26.7c15.1,9.2,50.3,26.4,57.5,30.2
	C277.1,286.4,288.5,296.9,288.5,296.9z"/>
<g>
	<path style="fill:#F4B382;" d="M386.4,134.5c-2.9-2.4-11.6,10.9-15.4,13.9l-1.7,6c-24.1,25.1-29,40.7-29,40.7
		c-15.1,14.3-42.6,43.3-46.6,50.2c-4,6.8,8.8,16.4,14.4,10.7c5.6-5.7,9.8-11.3,14.9-17.4c5.1-6.1,23.1-29.4,27-35.1
		c0.5-0.8,25.8-43.5,25.8-43.5s1.3-1.5,4.4-3.3c4.2-2.5,8.4-8,9.4-12C390.5,141.3,389.3,137,386.4,134.5z"/>
	<path style="fill:#F4B382;" d="M375.3,145.8c0,0,3.5-3.6,1.8-5.6c-1.4-1.7-2.1-2.2-6.2,8.3C371,148.5,372.2,149.3,375.3,145.8z"/>
</g>
<g>
</g>
<g>
</g>
<g>
</g>
<g>
</g>
<g>
</g>
<g>
</g>
<g>
</g>
<g>
</g>
<g>
</g>
<g>
</g>
<g>
</g>
<g>
</g>
<g>
</g>
<g>
</g>
<g>
</g>
</svg>
