<?xml version="1.0" encoding="iso-8859-1"?>
<!-- Generator: Adobe Illustrator 19.0.0, SVG Export Plug-In . SVG Version: 6.00 Build 0)  -->
<svg version="1.1" id="Layer_1" xmlns="http://www.w3.org/2000/svg" xmlns:xlink="http://www.w3.org/1999/xlink" x="0px" y="0px"
	 viewBox="0 0 496.2 496.2" style="enable-background:new 0 0 496.2 496.2;" xml:space="preserve">
<path style="fill:#FFEFD6;" d="M0,248.1C0,111.1,111.1,0,248.1,0s248.1,111.1,248.1,248.1S385.1,496.2,248.1,496.2S0,385.1,0,248.1z
	"/>
<path style="fill:#E2A379;" d="M357.3,326.7c-6.1-2.1-15.4-2-15.5-4.6c-0.8-20.8-2.5-52-2.5-52c1.5-20.7,12.3-60.7,10.6-68.5
	c-1.7-7.7-17.6-6.1-17.9,1.8c-1,9.3-2.2,13.7-3.2,23.3c-1.5,11.9-3.3,36.9-2.3,43.8c0.1,0.9,6.8,47,6.8,47s0.2,5.7,1,8.8
	c0.9,3.5,3.2,2.7,10.2,3.5C349.6,330.5,361.5,328.2,357.3,326.7z"/>
<path style="fill:#3D3C3C;" d="M266.1,252.4c0,0-8.6-1.1-15.3,0.3c-13.8,2.9-19.1,13.5-19.1,13.5s4.1,31.4,11.1,29.7
	c13.3-3.1,23.9-5.2,30.4-6.5c4.4-0.9,2.4-22.3,2.4-22.3L266.1,252.4z"/>
<path style="fill:#B3233B;" d="M341.1,246.1c11.3-4.8,12-19,15.1-28.5c0.6-1.7,2.5-10.1,1.1-13.8c-1.5-4.1-3.8-7.2-8.4-9
	c-3.6-1.4-16.3-0.3-33.7,15.3c-8.5,6.7-36,43.3-49.2,42.3c0,0,6.3,12.3,7.4,20.4c1.1,8.2-0.2,16.6-0.2,16.6
	c35.7-11.2,46.8-37.1,58.2-42C331.4,247.4,336.4,248.1,341.1,246.1z"/>
<path style="fill:#F4B382;" d="M347.4,328.6c-4.2-2.6-15.8-3.9-15.6-6.5c1.5-20.8,7.5-52,7.5-52c1.5-20.7,12.3-60.7,10.6-68.5
	c-1.7-7.7-17.6-6.1-17.9,1.8c-1,9.3-2.2,13.7-3.2,23.3c-1.5,11.9-3.3,36.9-2.3,43.8c0.1,0.9-3,52.7-2.2,55.8
	c0.9,3.5,3.2,2.7,10.2,3.5C339.6,330.5,351.2,331,347.4,328.6z"/>
<path style="fill:#E2A379;" d="M357.1,200c0,0,1.9-3.8,5.8-10.1l-11.7-11.8c-0.7,8.3-6.7,15.9-6.7,15.9c10.5,3.5,10.9,9.6,13.4,12.2
	L357.1,200z"/>
<path style="fill:#F4B382;" d="M372.8,165.2c2.7-5.8-0.8-10.3-3.1-12.8c-7.3-7.7-13.3-7.4-20.8-5.7c-9.9,2.2-7.9,29.2-6.1,33.4
	c4.8,11,21.6,11.9,28.1,10.7c7.2-1.4,4.8-3.4,4-6.2c0-0.1,0.2-0.6,0.2-0.6c-0.2-1-0.6-2.3-0.2-3.7c0,0-0.4-0.8-0.6-1.3
	c-0.1-0.3-0.1-0.5,0.2-0.7c1-0.6,1.9-1.1,2.2-1.7C377.7,174.8,371.5,167.9,372.8,165.2z"/>
<path style="fill:#D6876B;" d="M370.9,182.3c0,0,0.8,0.3,4-0.4c0.4-0.3,1-0.9,0.2-1.6C374.5,179.7,373.2,181.6,370.9,182.3z"/>
<path style="fill:#CC785E;" d="M370.9,182.3c0,0,1,1.5,4.2,1.6c0.4-0.1,0.7-0.6,0.7-0.8c0.2-1.1-0.8-1.2-0.8-1.2
	C371.7,182.6,370.9,182.3,370.9,182.3z"/>
<path style="fill:#602F0F;" d="M347.8,145.2c-12.1,2.7-24.4,23.7-3.4,40.6c1.4,1.1,4.3,2.2,7.4-1.4c2.2-2.6,3.5-5.6,3.5-5.6
	c0.4-0.9,0.7-1.9,1.1-3c0.4-1.2-1.7-7-0.5-7.4c11.5-4.5,15.1-11.9,14.4-15.1C367.3,145.9,360.7,142.3,347.8,145.2z"/>
<path style="fill:#F4B382;" d="M352.5,175.6c3,5,5.3,4.7,8.4,3.7l-3.6-7.9l-2.4-3C351.8,169.4,349.5,170.7,352.5,175.6z"/>
<path style="fill:#4C230C;" d="M332.9,167.7c-3.4-1.8-3.3-7.9,0-13.7c3.4-5.8,8.8-9,12.2-7.2c3.4,1.8,2.7,6.6-0.7,12.3
	C341.1,165,336.3,169.5,332.9,167.7z"/>
<g>
	<path style="fill:#602F0F;" d="M357.5,169.3c-0.4-0.9-0.6-1.8-0.7-2.5c-0.2-1-0.2-1.7-0.2-1.7l-3.2,2c0.1,0.5,0.2,1,0.3,1.6
		c0,0,0.4-0.2,1-0.6c0,0-0.1,0-0.1,0.1c0.7,0.7,1.5,1.8,2.5,3.4C357.1,171.5,358.6,172.2,357.5,169.3z"/>
	<path style="fill:#602F0F;" d="M330.8,167.8c-3.5-1.9-3.4-8.5,0.3-14.9c3.7-6.3,9.6-9.9,13.1-8s2.7,7.1-1,13.4
		C339.6,164.7,334.4,169.7,330.8,167.8z"/>
</g>
<path style="fill:#4C230C;" d="M330.5,156.7c-0.4-0.2,0.2-1.9,1.3-3.9c1.1-1.9,2.4-3.3,2.8-3.1s-0.2,1.6-1.3,3.6
	C332.1,155.1,330.9,156.9,330.5,156.7z"/>
<path style="fill:#F4B382;" d="M75.1,324.3c3.2-3.5,8.1-3.7,11.8-8.8c2.1-2.9,6.4-8.4,9.8-9.5c5.5-1.8,8.9,0.7,10.5,0.5
	c10-1.2,35.2-11,41-12.8c9.5-2.9,12.2,16.7,8.7,17.3c-28.3,4.3-45.3,4-50.4,5c0,0-21.9,10.4-25.5,11.4
	C78.6,328.1,72.3,327.4,75.1,324.3z"/>
<path style="fill:#3D3C3C;" d="M180.1,285.7c-11.2,2.9-22.9,4.2-32,8.2c2.4,2.6,8.4,14.1,8.7,17.2c3.4-1.1,31.1-5,31.1-5
	c8.6-2.2,59.1-7.3,73.2-15.3c3.7-1.9,6.8-4,9.3-5.9c4.9-3.6-10.3-32.6-18.3-30.8c-16,7.6-42.9,19.8-50,23.8
	C195.1,281.9,180.1,285.7,180.1,285.7z"/>
<g>
</g>
<g>
</g>
<g>
</g>
<g>
</g>
<g>
</g>
<g>
</g>
<g>
</g>
<g>
</g>
<g>
</g>
<g>
</g>
<g>
</g>
<g>
</g>
<g>
</g>
<g>
</g>
<g>
</g>
</svg>
