<?xml version="1.0" encoding="iso-8859-1"?>
<!-- Generator: Adobe Illustrator 19.0.0, SVG Export Plug-In . SVG Version: 6.00 Build 0)  -->
<svg version="1.1" id="Layer_1" xmlns="http://www.w3.org/2000/svg" xmlns:xlink="http://www.w3.org/1999/xlink" x="0px" y="0px"
	 viewBox="0 0 496.2 496.2" style="enable-background:new 0 0 496.2 496.2;" xml:space="preserve">
<path style="fill:#FFEFD6;" d="M0,248.1C0,111.1,111.1,0,248.1,0s248.1,111.1,248.1,248.1S385.1,496.2,248.1,496.2S0,385.1,0,248.1z
	"/>
<path style="fill:#3D3C3C;" d="M220.4,235l1.2,20.3c0,0,16.9,6.7,24.2,6.7s28.8-6.7,28.8-6.7l1.2-20.3L220.4,235L220.4,235z"/>
<g>
	<path style="fill:#F4B382;" d="M86,134.2c0-3.7,15.8-1.7,20.6-2.7l5.6,2.6c34.7-2.1,50.9,0.5,50.9,0.5c20.7-2.2,57.9-0.9,65.7,0.5
		c4.7,0.8,0.4,21.4-5.5,21.4c-9-0.9-53.3-8.3-60.2-9.1c-0.9-0.1-51-4.8-51-4.8s-2,0-5.4,1.2c-4.6,1.6-11.5,1.2-15.2-0.6
		C88.5,141.8,86,138,86,134.2z"/>
	<path style="fill:#F4B382;" d="M101.7,133.9c0,0-5,0.4-5.5-2.2c-0.4-2.2-0.3-3,10.3,0.7C106.5,132.4,106.3,133.9,101.7,133.9z"/>
	<path style="fill:#F4B382;" d="M410.2,134.2c0-3.7-15.8-1.7-20.6-2.7l-5.6,2.6c-34.7-2.1-50.9,0.5-50.9,0.5
		c-20.7-2.2-57.9-0.9-65.7,0.5c-4.7,0.8-0.4,21.4,5.5,21.4c9-0.9,53.3-8.3,60.2-9.1c0.9-0.1,51-4.8,51-4.8s2,0,5.4,1.2
		c4.6,1.6,11.5,1.2,15.2-0.6C407.7,141.8,410.2,138,410.2,134.2z"/>
	<path style="fill:#F4B382;" d="M394.5,133.9c0,0,5,0.4,5.5-2.2c0.4-2.2,0.3-3-10.3,0.7C389.7,132.4,389.9,133.9,394.5,133.9z"/>
</g>
<path style="fill:#B3233B;" d="M274.6,167.8c1.9-11.5-7.5-32.4-7.5-32.4c-4.5-0.6-9.2-0.8-12.7-0.8h-12.6c-3.6,0-8.2,0.2-12.7,0.8
	c0,0-9.4,21-7.5,32.4c1.8,10.7,4.8,26.4-1.2,67.3h27.7l0,0h27.7C269.8,194.2,272.8,178.5,274.6,167.8z"/>
<path style="fill:#E2A379;" d="M256.5,123h-16.9c2.6,8,0.2,11.6,0.2,11.6s0.5,5.2,8.3,5.2c7.7,0,8.2-5.2,8.2-5.2
	S253.9,131,256.5,123z"/>
<path style="fill:#F4B382;" d="M265.4,99.8c0-20.1-7.8-24.7-17.3-24.7c-9.6,0-17.3,4.6-17.3,24.7c0,6.8,1.2,12.1,3,16.2
	c4,9,10.9,12.2,14.3,12.2s10.3-3.2,14.3-12.2C264.2,111.9,265.4,106.6,265.4,99.8z"/>
<path style="fill:#D6876B;" d="M253,120c0,0-2.2,1.1-4.9,1.1c-2.7,0-4.9-1.1-4.9-1.1c0-0.3,1.6-2.1,2.6-2.2c0.6-0.1,2.3,0.5,2.3,0.5
	s1.6-0.6,2.3-0.5C251.4,117.9,253,120,253,120z"/>
<path style="fill:#CC785E;" d="M253,120c0,0-2.2,2-4.9,2c-2.7,0-4.9-2-4.9-2s0.5-0.6,3.4-0.8c0.5,0,1.1,0.4,1.5,0.4s0.9-0.4,1.3-0.4
	C252.4,119.4,253,120,253,120z"/>
<ellipse style="fill:#4C230C;" cx="248.1" cy="76.1" rx="9.1" ry="6.2"/>
<path style="fill:#602F0F;" d="M266.1,100.6c0-20.1-5.5-25.5-18-25.5s-18,5.5-18,25.5c0,0,26.7-5.8,26.7-13.1
	C256.8,94.9,266.1,100.6,266.1,100.6z"/>
<g>
	<path style="fill:#F4B382;" d="M229.1,106.9c0.9,5.5,2.1,5.7,3.8,5.4l-1.8-11.9C229.4,100.7,228.1,101.4,229.1,106.9z"/>
	<path style="fill:#F4B382;" d="M265.1,100.4l-1.8,11.9c1.7,0.3,2.8,0,3.8-5.4C268.1,101.4,266.8,100.7,265.1,100.4z"/>
</g>
<g>
	<path style="fill:#602F0F;" d="M232.1,101.5c-0.1-0.6-0.1-1.1-0.1-1.6c0-0.6,0.1-1,0.1-1l-2,0.8c0,0.3,0,0.6,0,0.9
		c0,0,0.2-0.1,0.6-0.2c0,0,0,0-0.1,0c0.3,0.5,0.6,1.2,1,2.3C231.6,102.7,232.4,103.3,232.1,101.5z"/>
	<path style="fill:#602F0F;" d="M264.1,100c0,0.4,0,1-0.1,1.5c-0.3,1.8,0.5,1.2,0.5,1.2c0.3-1.1,0.7-1.8,1-2.3
		c0.4,0.1,0.6,0.2,0.6,0.2c0-0.3,0-0.6,0-0.9l-2-0.8C264,98.9,264.1,99.3,264.1,100"/>
</g>
<path style="fill:#F4B382;" d="M268.9,426.2c-4-1-13.5-8.7-14.8-9.3c-2.2-1.1-5.5-2.1-5.5-5.6c0-2.5,0.4-4.9,0.2-6.5
	c-0.6-8.3-4.1-24.3-4.8-34.4c-0.1-2.3-0.2-4.7-0.3-7.2c-0.1-9.9,20.2-3.9,19.8-0.3c-1.2,14.4-4,39.4-5.1,44.5
	c0,0,14.8,10.4,14.3,14.2C272.6,423.8,272.9,427.2,268.9,426.2z"/>
<g>
	<path style="fill:#3D3C3C;" d="M246.2,330.8c-1.7,11.4-2.4,22.4-2.3,32.3c3.3-1.2,16.8-1.3,19.8-0.3c0.3-3.6,0.5-6.5,0.6-8.3
		c0.3-9,0.3-23,0.3-23c0.7-8.1,15.5-64,14.4-76.2c-1.1-12.2-3.2-20.2-3.2-20.2h-13c-2.6,8-16.7,6.2-18.1,14.3
		c0.8,17.7,2,44.3,1.4,57.8C245.7,315.2,246.2,330.8,246.2,330.8z"/>
	<path style="fill:#3D3C3C;" d="M217.6,264.3c-10,1.4-17.8,1.9-28.7,2.8c-1.7,3-3,16.4-2.5,19.5c-6.1,1.1-36.6,9-36.6-7.5
		c0-24.2,73.1-42.2,70.6-44.1c0,0,31,16,15.2,25C235.6,260,227.6,263,217.6,264.3z"/>
</g>
<path style="fill:#282828;" d="M175.6,269.6c0,0,9.9-2.8,18.8-4.8C194.3,264.9,188.2,263.9,175.6,269.6z"/>
<path style="fill:#E2A379;" d="M246.5,288.5c-0.2-4.1,0.2-20.3,0.5-21.8c0.5-3.6-0.9-6.4-4.3-7.3c-2.6-0.7-5.2-0.2-6.7,0.5
	c-9.4,4-32.2,2.1-47.1,6.3c-2.3,0.7-3.6,20.8-2.5,20.4c19.7-6.8,42.9-14.2,50.2-16.7c0,0,0.7,21.4,4.5,21.6
	C243.4,291.7,246.7,292.6,246.5,288.5z"/>
<g>
</g>
<g>
</g>
<g>
</g>
<g>
</g>
<g>
</g>
<g>
</g>
<g>
</g>
<g>
</g>
<g>
</g>
<g>
</g>
<g>
</g>
<g>
</g>
<g>
</g>
<g>
</g>
<g>
</g>
</svg>
