<?xml version="1.0" encoding="iso-8859-1"?>
<!-- Generator: Adobe Illustrator 19.0.0, SVG Export Plug-In . SVG Version: 6.00 Build 0)  -->
<svg version="1.1" id="Layer_1" xmlns="http://www.w3.org/2000/svg" xmlns:xlink="http://www.w3.org/1999/xlink" x="0px" y="0px"
	 viewBox="0 0 496.2 496.2" style="enable-background:new 0 0 496.2 496.2;" xml:space="preserve">
<path style="fill:#FFEFD6;" d="M0,248.1C0,111.1,111.1,0,248.1,0s248.1,111.1,248.1,248.1S385.1,496.2,248.1,496.2S0,385.1,0,248.1z
	"/>
<path style="fill:#F4B382;" d="M374.7,387c-4-0.9-15.4,0-16.9-0.1c-3.6-0.1-7.1-2.1-6.4-5.5c0.5-2.6,1-4.9,0.6-6.5
	c-2.3-9.5-8.7-32.5-10-42.5c-0.2-2-0.6-3.7-0.5-5c0.6-9.9,20-1.6,20.2,2c0.7,14.8,0.5,27.5,1.1,47.9c0,0,19.3,1.2,18.9,4.9
	C381.4,384.6,378.8,388,374.7,387z"/>
<g>
	<path style="fill:#3D3C3C;" d="M336.7,297.5c2,12.9,4.8,29.9,4.8,29.9c10-0.8,17.4,0.5,20.2,2c-1.3-26.7-3.9-41.3-6-50
		c-2.7-11-78.3-13.8-79.1-16.8c-1.7-5.8-34.2-1.8-35.2,6.4c0.6,6.5-7.1,2.6,5,16.1C260.4,300.8,336.7,297.5,336.7,297.5z"/>
	<path style="fill:#3D3C3C;" d="M258,255.3c0,0-9.3,0.3-19.8,6.2c-10.2,5.7-11.2,13.8-14.5,16.5s12.1,29.5,18.3,25.8
		c11.8-6.9,42.9-19.6,38-25.7S258,255.3,258,255.3z"/>
</g>
<path style="fill:#F4B382;" d="M107.3,397.4c-1.6-3.8,1.8-7.6,1.8-10.2c0-2.5-0.6-6.7,2.2-8.8c2-1.5,4.1-2.6,5.3-3.7
	c6.3-5.5,15.5-18.7,23.2-25.3c1.8-1.5,2.4-2.3,4.3-3.8c7.9-6.1,15.8,15.2,12.8,17.1c-12.2,7.7-31.8,19.1-36.5,21.3
	c0,0,3.6,15.6,0.4,17.5C118.7,402.6,108.9,401.2,107.3,397.4z"/>
<path style="fill:#3D3C3C;" d="M181.6,341.6c-8.3,8.1-16.6,15.2-24.7,21c-1-3.3-10.3-15.1-12.8-17c2.7-2.4,4.9-4.3,6.4-5.4
	c7.1-5.6,19.8-13.1,19.8-13.1c6.1-5.3,46.1-44.4,55.9-51.9c10.5-6.4,20.5-7.1,20.5-7.1s22.5,18.7,16.8,24.6
	c-14.7,9.8-54.8,32.6-61.8,36.6C194.5,333.4,181.6,341.6,181.6,341.6z"/>
<g>
	<path style="fill:#F4B382;" d="M101.5,165c0-3.7,15.8-1.7,20.6-2.7l5.6,2.6c34.7-2.1,50.9,0.5,50.9,0.5c20.7-2.2,57.9-0.9,65.7,0.5
		c4.7,0.8,0.4,21.4-5.5,21.4c-9-0.9-53.3-8.3-60.2-9.1c-0.9-0.1-51-4.8-51-4.8s-2,0-5.4,1.2c-4.6,1.6-11.5,1.2-15.2-0.6
		C104,172.5,101.5,168.7,101.5,165z"/>
	<path style="fill:#F4B382;" d="M117.2,163.9c0,0-5,0.4-5.5-2.2c-0.4-2.2-0.3-3,10.3,0.7C122,162.4,121.8,163.9,117.2,163.9z"/>
	<path style="fill:#F4B382;" d="M425.7,165c0-3.7-15.8-1.7-20.6-2.7l-5.6,2.6c-34.7-2.1-50.9,0.5-50.9,0.5
		c-20.7-2.2-57.9-0.9-65.7,0.5c-4.7,0.8-0.4,21.4,5.5,21.4c9-0.9,53.3-8.3,60.2-9.1c0.9-0.1,51-4.8,51-4.8s2,0,5.4,1.2
		c4.6,1.6,11.5,1.2,15.2-0.6C423.2,172.5,425.7,168.7,425.7,165z"/>
	<path style="fill:#F4B382;" d="M410,163.9c0,0,5,0.4,5.5-2.2c0.4-2.2,0.3-3-10.3,0.7C405.2,162.4,405.4,163.9,410,163.9z"/>
</g>
<path style="fill:#B3233B;" d="M290.1,198.4c1.9-11.5-7.5-32.4-7.5-32.4c-4.5-0.6-9.2-0.8-12.7-0.8h-12.6c-3.6,0-8.2,0.2-12.7,0.8
	c0,0-9.4,21-7.5,32.4c1.8,10.7,4.8,26.4-1.2,67.3c0,0,12.7,3.4,27.7,3.4s27.7-3.4,27.7-3.4C285.3,224.8,288.3,209.1,290.1,198.4z"/>
<path style="fill:#E2A379;" d="M272,153.7h-16.9c2.6,8,0.2,11.6,0.2,11.6s0.5,5.2,8.3,5.2s8.2-5.2,8.2-5.2S269.4,161.6,272,153.7z"
	/>
<path style="fill:#F4B382;" d="M280.9,130.4c0-20.1-7.8-24.7-17.3-24.7s-17.3,4.6-17.3,24.7c0,6.8,1.2,12.1,3,16.2
	c4,9,10.9,12.2,14.3,12.2s10.3-3.2,14.3-12.2C279.7,142.5,280.9,137.2,280.9,130.4z"/>
<path style="fill:#D6876B;" d="M268.5,150.6c0,0-2.2,1.1-4.9,1.1s-4.9-1.1-4.9-1.1c0-0.3,1.6-2.1,2.6-2.2c0.6-0.1,2.3,0.5,2.3,0.5
	s1.6-0.6,2.3-0.5C266.9,148.5,268.5,150.6,268.5,150.6z"/>
<path style="fill:#CC785E;" d="M268.5,150.6c0,0-2.2,2-4.9,2s-4.9-2-4.9-2s0.5-0.6,3.4-0.8c0.5,0,1.1,0.4,1.5,0.4s0.9-0.4,1.3-0.4
	C267.9,150,268.5,150.6,268.5,150.6z"/>
<ellipse style="fill:#4C230C;" cx="263.6" cy="106.7" rx="9.1" ry="6.2"/>
<path style="fill:#602F0F;" d="M281.6,131.3c0-20.1-5.5-25.5-18-25.5s-18,5.5-18,25.5c0,0,26.7-5.8,26.7-13.1
	C272.3,125.5,281.6,131.3,281.6,131.3z"/>
<g>
	<path style="fill:#F4B382;" d="M244.6,137.5c0.9,5.5,2.1,5.7,3.8,5.4l-1.8-11.9C244.9,131.3,243.6,132,244.6,137.5z"/>
	<path style="fill:#F4B382;" d="M280.6,131l-1.8,11.9c1.7,0.3,2.8,0,3.8-5.4C283.6,132,282.3,131.3,280.6,131z"/>
</g>
<g>
	<path style="fill:#602F0F;" d="M247.6,132.1c-0.1-0.6-0.1-1.1-0.1-1.6c0-0.6,0.1-1,0.1-1l-2,0.8c0,0.3,0,0.6,0,0.9
		c0,0,0.2-0.1,0.6-0.2c0,0,0,0-0.1,0c0.3,0.5,0.6,1.2,1,2.3C247.1,133.4,247.9,134,247.6,132.1z"/>
	<path style="fill:#602F0F;" d="M279.6,130.6c0,0.4,0,1-0.1,1.5c-0.3,1.8,0.5,1.2,0.5,1.2c0.3-1.1,0.7-1.8,1-2.3
		c0.3,0.1,0.6,0.2,0.6,0.2c0-0.3,0-0.6,0-0.9l-2-0.8C279.5,129.6,279.6,130,279.6,130.6"/>
</g>
<g>
</g>
<g>
</g>
<g>
</g>
<g>
</g>
<g>
</g>
<g>
</g>
<g>
</g>
<g>
</g>
<g>
</g>
<g>
</g>
<g>
</g>
<g>
</g>
<g>
</g>
<g>
</g>
<g>
</g>
</svg>
