<?xml version="1.0" encoding="iso-8859-1"?>
<!-- Generator: Adobe Illustrator 19.0.0, SVG Export Plug-In . SVG Version: 6.00 Build 0)  -->
<svg version="1.1" id="Layer_1" xmlns="http://www.w3.org/2000/svg" xmlns:xlink="http://www.w3.org/1999/xlink" x="0px" y="0px"
	 viewBox="0 0 496.2 496.2" style="enable-background:new 0 0 496.2 496.2;" xml:space="preserve">
<path style="fill:#FFEFD6;" d="M0,248.1C0,111.1,111.1,0,248.1,0s248.1,111.1,248.1,248.1S385.1,496.2,248.1,496.2S0,385.1,0,248.1z
	"/>
<path style="fill:#B3233B;" d="M182.6,264.9c1.3,8.7,1.2,7.1,0,21.8c-0.2,1.8,0.5,5.9,3,9.7c2.7,4.1,10.3,3.9,15.7,3.2
	c10-1.2,12.3-10.2,17-42.8c6.5-10,16.7-24,21.7-22.7c0,0-1.2-32.8-3-32c-38,17-38.3,39.8-46,48.8C191,250.9,180.8,253,182.6,264.9z"
	/>
<path style="fill:#E2A379;" d="M183,282.2c0,0-3.4,0.1-10.8-0.7l-5.5,15.7c7.8-3,21,1.1,21,1.1C181.4,291.9,183,282.2,183,282.2z"/>
<path style="fill:#F4B382;" d="M156.6,262.5c-5-4-10.2-1.8-13.2-0.1c-9.3,5.2-10.4,11.1-10.6,18.8c-0.3,10.2,26.3,14.8,30.9,14.1
	c11.8-1.9,16.9-18,17.3-24.6c0.4-7.3-2.1-5.5-5-5.4c-0.1,0-0.5-0.4-0.5-0.4c-1-0.1-2.4,0-3.7-0.7c0,0-0.9,0.2-1.4,0.2
	c-0.3,0-0.5,0-0.6-0.4c-0.4-1.1-0.7-2.1-1.1-2.5C167.2,260.1,158.9,264.4,156.6,262.5z"/>
<path style="fill:#D6876B;" d="M172.3,267.5c0,0,0.4-0.7,0.6-4c-0.2-0.4-0.6-1.1-1.5-0.6C170.6,263.4,172.1,265.2,172.3,267.5z"/>
<path style="fill:#CC785E;" d="M172.3,267.5c0,0,1.7-0.6,2.6-3.7c0-0.4-0.4-0.8-0.6-0.9c-1-0.4-1.4,0.5-1.4,0.5
	C172.7,266.8,172.3,267.5,172.3,267.5z"/>
<path style="fill:#602F0F;" d="M131.1,281.8c-0.4,12.4,17,29.5,38.5,13.2c1.4-1.1,3.2-3.6,0.4-7.6c-2-2.8-4.6-4.7-4.6-4.7
	c-0.8-0.6-1.7-1.2-2.6-1.8c-1-0.7-7.2-0.1-7.3-1.4c-1.5-12.2-7.8-17.6-11.1-17.7C136.6,263.1,131.5,268.6,131.1,281.8z"/>
<path style="fill:#F4B382;" d="M161.8,284.7c5.6-1.7,5.9-4,5.7-7.2l-8.6,1.6l-3.5,1.6C155.6,283.9,156.2,286.4,161.8,284.7z"/>
<path style="fill:#4C230C;" d="M149.3,301.8c-2.6,2.8-8.5,1.3-13.3-3.4c-4.8-4.7-6.5-10.8-4-13.6c2.6-2.8,7-1,11.8,3.7
	C148.6,293.2,151.9,299,149.3,301.8z"/>
<g>
	<path style="fill:#602F0F;" d="M156.8,278.3c-1,0.1-1.9,0.1-2.6,0.1c-1-0.1-1.7-0.2-1.7-0.2l1.2,3.6c0.5,0,1.1,0,1.6,0.1
		c0,0-0.1-0.4-0.3-1.1v0.1c0.8-0.5,2.1-1.1,3.9-1.6C158.9,279.3,159.9,277.9,156.8,278.3z"/>
	<path style="fill:#602F0F;" d="M148.9,303.8c-2.7,3-9.1,1.2-14.3-3.9s-7.3-11.7-4.5-14.7c2.7-3,7.5-0.9,12.8,4.2
		C148,294.6,151.6,300.8,148.9,303.8z"/>
</g>
<path style="fill:#4C230C;" d="M138,301.4c-0.3,0.3-1.8-0.7-3.4-2.2c-1.6-1.6-2.6-3.1-2.3-3.4s1.5,0.6,3.1,2.2
	C136.9,299.4,138.3,301.1,138,301.4z"/>
<path style="fill:#E2A379;" d="M364.1,300.2l-31.8,0.2c-7.4,1.4-6.7-6.9-5-9c1-1.3,0.1-18-2.4-46c-0.9-9.9,20.3-8.3,19.9-4.8
	c-3.5,26.9-8.5,40.8-6.3,45.5c0,0,24,6.1,27,8.3C367.3,295.9,369.2,298.3,364.1,300.2z"/>
<path style="fill:#3D3C3C;" d="M324.3,217.1c-0.6,6.7-0.3,14.2,0.6,28.4c4.3-3.2,15.7-4.2,19.9-4.8c0.1-4.3,2-39.6,2-39.6
	c-4.2-7.8-63.8-12-77.3-9.3c-11.5,2.3-26.7,10.1-32.5,10.3l3,32c0,0,12,2,22-1s14-10,14-10L324.3,217.1z"/>
<g>
	<path style="fill:#F4B382;" d="M338.5,287.1c0.1-3.7-15.8-2.4-20.5-3.6l-5.8,2.4c-34.6-3.6-49.9,2.1-49.9,2.1
		c-20.6-3.1-60.4-6.9-68.3-5.9c-7.8,1.1-7.5,17.1,0.4,18s15,0.8,22.9,1.1c7.9,0.3,37.4,0.1,44.3-0.3c1-0.1,50.2-6.5,50.2-6.5
		s2,0.1,5.3,1.4c4.5,1.8,11.4,1.7,15.3,0C335.7,294.5,338.3,290.9,338.5,287.1z"/>
	<path style="fill:#F4B382;" d="M322.8,285.3c0,0,5,0.6,5.6-2c0.5-2.2,0.4-3-10.3,0.3C318,283.6,318.1,285.1,322.8,285.3z"/>
</g>
<g>
</g>
<g>
</g>
<g>
</g>
<g>
</g>
<g>
</g>
<g>
</g>
<g>
</g>
<g>
</g>
<g>
</g>
<g>
</g>
<g>
</g>
<g>
</g>
<g>
</g>
<g>
</g>
<g>
</g>
</svg>
