<?xml version="1.0" encoding="iso-8859-1"?>
<!-- Generator: Adobe Illustrator 19.0.0, SVG Export Plug-In . SVG Version: 6.00 Build 0)  -->
<svg version="1.1" id="Layer_1" xmlns="http://www.w3.org/2000/svg" xmlns:xlink="http://www.w3.org/1999/xlink" x="0px" y="0px"
	 viewBox="0 0 496.2 496.2" style="enable-background:new 0 0 496.2 496.2;" xml:space="preserve">
<path style="fill:#FFEFD6;" d="M0,248.1C0,111.1,111.1,0,248.1,0s248.1,111.1,248.1,248.1S385.1,496.2,248.1,496.2S0,385.1,0,248.1z
	"/>
<path style="fill:#333333;" d="M268.9,196.9l-21-3.2c0,0-9,0.6-16,8.1s-10,15.6-11.5,23.5c-1.3,7.1,33.5,15.8,33.5,15.8L268.9,196.9
	z"/>
<path style="fill:#F4B382;" d="M98.2,93c-3.9-1.5-11.8,3.3-10.5,6.5c1,2.5,11.4,7.8,15.1,10.9c2.4,1.9,3.2,6,5.4,7.9
	c3.5,3,7.2,0.2,10.2,2.3c6.9,4.6,28.7,24.8,30.8,26.1c8.5,5.2,14.8-14.9,11.7-16.7c-12.6-6.9-34.8-17.4-39.8-19.1
	c0,0-8-7.4-10.8-9.8C108.5,99.4,104.2,95.2,98.2,93z"/>
<path style="fill:#E2A379;" d="M251.1,402.8c-4-0.9-19.1,0-20.6-0.1c-3.6-0.1-7.1-2.1-6.4-5.5c0.5-2.6,1.8-4.9,1.6-6.5
	c-0.8-8.3-3.2-33.2-4-43.2c-0.2-2.3-0.3-4.7-0.4-7.2c-0.3-9.9,20.1-4.3,19.8-0.7c-1,14.4-4.7,48.4-5.7,53.6c0,0,24.7,1.2,24.3,4.9
	C259.5,400.3,255.1,403.7,251.1,402.8z"/>
<path style="fill:#333333;" d="M224.1,307.8c-1.4,11.5-3.1,22.4-2.8,32.4c3.3-1.2,16.8-1.6,19.8-0.7c0.2-3.6,4.8-31.3,4.8-31.3
	c1.1-8.8,10-60.4,7.7-76.5c-0.4-4.1-1.2-7.8-2-10.8c-1.6-5.9-30-2.5-31.2,5.6c-2.5,17.7-0.3,44.6,1.2,57.6
	C222.6,293.1,224.1,307.8,224.1,307.8z"/>
<path style="fill:#3D3C3C;" d="M149.2,146.6c2.7-2.2,11-13.6,11.7-16.7c3.2,1.6,33.7,22.7,38.7,27.7c2.1,2.1,25,12.7,43.8,23.2
	c13.8,7.6,25.5,16.2,25.5,16.2l-15.7,36c-12.5-8-21.8-17.2-31.3-25.2c-15.8-13.3-33-32.8-40-37C171.9,164.7,157.8,154.5,149.2,146.6
	z"/>
<g>
	<path style="fill:#F4B382;" d="M354.5,400.9c-4.6-2-16.2-3.8-16.4-6.4c-1.3-20.8,0.4-51.4,0.4-51.4c-1.3-20.8,2.5-52.5,1.6-60
		c-2.7-7.4-18.5-13-17.8-5.1c0.3,9.3-0.4,13.9,0,23.5c0.1,12,1.7,37,3.6,43.7c0.3,0.9,4.1,52.6,5.4,55.6c1.4,3.3,3.5,2.7,10.6,2.6
		C347,403.3,358.6,402.7,354.5,400.9z"/>
	<path style="fill:#F4B382;" d="M357.2,104.9c3.7,0.1,1.6,15.9,2.5,20.6l-2.7,5.6c1.7,34.7-1,50.9-1,50.9c2,20.7,0.3,57.9-1.1,65.7
		c-0.8,4.7-21.4,0.1-21.4-5.7c0.9-8.9,2.6-13.4,3.2-17c0.2-7.9,5.6-36.2,6.4-43.1c0.1-0.9,5.3-50.9,5.3-50.9s0-2-1.1-5.4
		c-1.5-4.6-1.1-11.5,0.8-15.2C349.6,107.3,353.4,104.9,357.2,104.9z"/>
	<path style="fill:#F4B382;" d="M358.1,120.7c0,0-0.3-5,2.3-5.5c2.2-0.4,3-0.3-0.8,10.3C359.6,125.6,358.2,125.4,358.1,120.7z"/>
</g>
<path style="fill:#B3233B;" d="M307.2,277.1c9.8,6.3,32.7,6,32.7,6c2.3-3.9,4.3-8.1,5.8-11.4l5-11.5c1.4-3.3,3.1-7.6,4.3-11.9
	c0,0-15.5-16.9-26.8-19.8c-10.5-2.7-24.2-9.8-59.4-31.6c0,0-6.7,10.8-11.5,25.3l-4.2,10.7c0.4,0.3,0.7,8.1,0.7,8.1
	C264.2,249.6,299.3,272,307.2,277.1z"/>
<path style="fill:#E2A379;" d="M355.4,278.3l6.7-15.5c-8.3-0.7-10.7-4.4-10.7-4.4s-5-1.6-8.1,5.5s1.5,9.6,1.5,9.6
	S349.2,272.7,355.4,278.3z"/>
<path style="fill:#F4B382;" d="M373.2,295.7c18.4,8,25.7,2.7,29.6-6.1c3.8-8.8,2.7-17.7-15.8-25.7c-6.2-2.7-11.6-3.7-16.1-3.7
	c-9.9,0.1-15.6,5.2-16.9,8.3c-1.3,3.1-1.2,10.7,5.5,18C362.6,289.8,367,293,373.2,295.7z"/>
<path style="fill:#D6876B;" d="M359.7,276.3c0,0-0.2-2.5,0.9-4.9c1.1-2.5,3-4,3-4c0.3,0.1,1.3,2.3,1,3.3c-0.2,0.6-1.4,1.9-1.4,1.9
	s-0.1,1.7-0.4,2.3C362.2,275.7,359.7,276.3,359.7,276.3z"/>
<path style="fill:#CC785E;" d="M359.7,276.3c0,0-0.9-2.8,0.1-5.3s3.8-3.7,3.8-3.7s0.4,0.7-0.6,3.4c-0.2,0.5-0.8,0.9-0.9,1.3
	c-0.1,0.3,0,1-0.2,1.4C360.5,276,359.7,276.3,359.7,276.3z"/>
<ellipse transform="matrix(-0.9176 -0.3976 0.3976 -0.9176 655.6352 714.3474)" style="fill:#4C230C;" cx="401.873" cy="289.204" rx="6.2" ry="9.1"/>
<path style="fill:#602F0F;" d="M372.2,296c18.4,8,25.6,5.1,30.6-6.3s2.1-18.7-16.3-26.7c0,0-5.3,26.8,1.4,29.7
	C381.2,289.7,372.2,296,372.2,296z"/>
<g>
	<path style="fill:#F4B382;" d="M381.2,259.6c-5.4-1.3-6.1-0.4-6.5,1.3l11.6,3.1C386.8,262.3,386.6,260.9,381.2,259.6z"/>
	<path style="fill:#F4B382;" d="M372.8,295.2l-10.2-6.4c-0.9,1.4-1.2,2.6,3.5,5.6C370.7,297.5,371.9,296.6,372.8,295.2z"/>
</g>
<g>
	<path style="fill:#602F0F;" d="M384.9,264.5c0.6,0.1,1.1,0.3,1.5,0.5c0.6,0.3,0.9,0.5,0.9,0.5l0.1-2.2c-0.3-0.1-0.6-0.3-0.9-0.4
		c0,0,0,0.2-0.1,0.6c0,0,0,0,0-0.1c-0.5,0.1-1.4,0.1-2.5,0C384,263.5,383.1,264,384.9,264.5z"/>
	<path style="fill:#602F0F;" d="M373.6,294.5c-0.4-0.2-0.9-0.4-1.4-0.7c-1.6-1-1.3,0-1.3,0c0.9,0.7,1.4,1.3,1.7,1.8
		c-0.2,0.3-0.4,0.4-0.4,0.4c0.3,0.1,0.6,0.2,0.9,0.4l1.5-1.6C374.6,294.8,374.2,294.7,373.6,294.5"/>
</g>
<g>
</g>
<g>
</g>
<g>
</g>
<g>
</g>
<g>
</g>
<g>
</g>
<g>
</g>
<g>
</g>
<g>
</g>
<g>
</g>
<g>
</g>
<g>
</g>
<g>
</g>
<g>
</g>
<g>
</g>
</svg>
