<?xml version="1.0" encoding="iso-8859-1"?>
<!-- Generator: Adobe Illustrator 19.0.0, SVG Export Plug-In . SVG Version: 6.00 Build 0)  -->
<svg version="1.1" id="Layer_1" xmlns="http://www.w3.org/2000/svg" xmlns:xlink="http://www.w3.org/1999/xlink" x="0px" y="0px"
	 viewBox="0 0 496.2 496.2" style="enable-background:new 0 0 496.2 496.2;" xml:space="preserve">
<path style="fill:#FFEFD6;" d="M0,248.1C0,111.1,111.1,0,248.1,0s248.1,111.1,248.1,248.1S385.1,496.2,248.1,496.2S0,385.1,0,248.1z
	"/>
<path style="fill:#E2A379;" d="M256,154.1c1.8-4,8.4-13.3,8.4-16.9c0-10.4-6.6-18.9-16-19.2c-0.1,0-0.2,0-0.3,0H248h-0.1
	c-0.1,0-0.2,0-0.3,0c-9.4,0.3-15.5,8.8-15.5,19.2c0,3.6,6.2,12.9,8,16.9s-0.2,11.1-0.2,11.1s0.5,9.2,8,9.3h0.1h0.1h0.1h0.1
	c7.5-0.1,8-9.3,8-9.3S254.2,158.1,256,154.1z"/>
<path style="fill:#EAA97D;" d="M265.4,131.3c0-10.6-3.5-20.2-17.3-20.2c-14.2,0-17.3,9.6-17.3,20.2c0,1.9,5,12.7,8.5,16
	c1.5,0.8,5.2-1.2,9-1.2c3.5,0,7,2,8.6,1.2C260.3,144,265.4,133.2,265.4,131.3z"/>
<path style="fill:#D6876B;" d="M253,136.7c0,0-2.2,0.7-4.9,0.7c-2.7,0-4.9-0.7-4.9-0.7c0-0.2,1.6-1.4,2.6-1.5
	c0.6-0.1,2.3,0.4,2.3,0.4s1.6-0.4,2.3-0.4C251.4,135.3,253,136.7,253,136.7z"/>
<path style="fill:#CC785E;" d="M253,136.7c0,0-2.2,2-4.9,2c-2.7,0-4.9-2-4.9-2s0.5-0.6,3.4-0.8c0.5,0,1.1,0.4,1.5,0.4
	s0.9-0.4,1.3-0.4C252.4,136,253,136.7,253,136.7z"/>
<path style="fill:#602F0F;" d="M262.1,118.6c0-7.2-11.3-7.8-14-7.8s-14,0.6-14,7.8c0,0,20.8-3.7,20.8-6.3
	C254.9,114.9,262.1,118.6,262.1,118.6z"/>
<g>
	<path style="fill:#F4B382;" d="M247.9,45.6l-1.7,0.6c0,0-3.8,11.1-4.7,15.1c-0.6,2.6,0.9,12.2,0.9,12.2
		c-5.1,11.3-16.6,36.3-18.7,42c-2.6,7.3-9.9,46.4-9.8,55.1c0.2,7.9,9,28.8,9,28.8c2.1-7.7,3.8-15.4,5.3-23.1
		c1.5-7.8,1.1-15.3,1.7-23.2c0.2-3.1,4.3-27.7,5.2-31.4c2-8.4,11.3-37.4,12.6-46.6l0.2-1.3V45.6z"/>
	<path style="fill:#F4B382;" d="M248.6,45.6l1.7,0.6c0,0,3.8,11.1,4.7,15.1c0.6,2.6-0.9,12.2-0.9,12.2c5.1,11.3,16.6,36.3,18.7,42
		c2.6,7.3,9.9,46.4,9.8,55.1c-0.2,7.9-9,28.8-9,28.8c-2.1-7.7-3.8-15.4-5.3-23.1c-1.5-7.8-1.1-15.3-1.7-23.2
		c-0.2-3.1-4.3-27.7-5.2-31.4c-2-8.4-11.3-37.4-12.6-46.6l-0.2-1.3V45.6z"/>
</g>
<path style="fill:#3D3C3C;" d="M220.4,265.7l1.2,20.3c0,0,19.2,6.7,26.5,6.7c7.3,0,26.5-6.7,26.5-6.7l1.2-20.3H220.4z"/>
<path style="fill:#B3233B;" d="M274.6,198.4c1.9-11.5-7.5-32.4-7.5-32.4c-4.5-0.6-9.2-0.8-12.7-0.8h-12.6c-3.6,0-8.2,0.2-12.7,0.8
	c0,0-9.4,21-7.5,32.4c1.8,10.7,4.8,26.4-1.2,67.3h27.7l0,0h27.7C269.8,224.8,272.8,209.1,274.6,198.4z"/>
<path style="fill:#E2A379;" d="M247.9,163.5c-2.6,0-8,1.7-8,1.7s0.5,5.2,8.3,5.2c7.8,0,8.2-5.2,8.2-5.2S250.6,163.5,247.9,163.5z"/>
<g>
	<path style="fill:#F4B382;" d="M229.1,129.5c0.9,2.9,2.1,3,3.8,2.9l-1.8-6.3C229.4,126.3,228.1,126.6,229.1,129.5z"/>
	<path style="fill:#F4B382;" d="M265.1,126.1l-1.8,6.3c1.7,0.1,2.8,0,3.8-2.9C268.1,126.6,266.8,126.3,265.1,126.1z"/>
	<path style="fill:#F4B382;" d="M236.9,460.1c4,1.3,8.6,1.2,9.5,0c1.7-2.4-1.6-10-0.5-13.7c0.7-2.4-0.5-9.7-0.5-11.3
		c0.4-8.3,2.2-24.4,2.5-34.5c0.1-2.3,0.1-4.7,0-7.2c-0.2-9.9-20.3-3.2-19.8,0.3c1.7,14.3,6.5,39.2,7.7,44.3c0,0-1.8,10.7-2.4,14.4
		C233.1,454.8,232.2,458.5,236.9,460.1z"/>
</g>
<path style="fill:#3D3C3C;" d="M244.6,361.1c2,11.4,3.2,22.3,3.4,32.2c-3.3-1.1-16.9-0.7-19.8,0.3c-0.4-3.6-0.7-6.5-0.9-8.3
	c-0.6-9-1.1-23-1.1-23c-1-8-8.8-63.8-8.2-76s2.5-20.7,2.4-20.7h13.1c2.9,8,12.7,5.8,14.4,13.8c-0.2,17.7-1.5,50.2-2.2,58.3
	C245.1,345.8,244.6,361.1,244.6,361.1z"/>
<path style="fill:#F4B382;" d="M259.3,460.1c-4,1.3-8.6,1.2-9.5,0c-1.7-2.4,1.6-10,0.5-13.7c-0.7-2.4,0.5-9.7,0.5-11.3
	c-0.4-8.3-2.2-24.4-2.5-34.5c-0.1-2.3-0.1-4.7,0-7.2c0.2-9.9,20.3-3.2,19.8,0.3c-1.7,14.3-6.5,39.2-7.7,44.3c0,0,1.8,10.7,2.4,14.4
	C263.1,454.8,264,458.5,259.3,460.1z"/>
<path style="fill:#3D3C3C;" d="M251.7,361.1c-2,11.4-3.2,22.3-3.4,32.2c3.3-1.1,16.9-0.7,19.8,0.3c0.4-3.6,0.7-6.5,0.9-8.3
	c0.6-9,1.1-23,1.1-23c1-8,8.8-63.8,8.2-76c-0.6-12.2-2.5-20.7-2.5-20.7h-13c-2.9,8-12.7,5.8-14.4,13.8c0.2,17.7,1.5,50.2,2.2,58.3
	C251.2,345.8,251.7,361.1,251.7,361.1z"/>
<g>
</g>
<g>
</g>
<g>
</g>
<g>
</g>
<g>
</g>
<g>
</g>
<g>
</g>
<g>
</g>
<g>
</g>
<g>
</g>
<g>
</g>
<g>
</g>
<g>
</g>
<g>
</g>
<g>
</g>
</svg>
