<?xml version="1.0" encoding="iso-8859-1"?>
<!-- Generator: Adobe Illustrator 19.0.0, SVG Export Plug-In . SVG Version: 6.00 Build 0)  -->
<svg version="1.1" id="Layer_1" xmlns="http://www.w3.org/2000/svg" xmlns:xlink="http://www.w3.org/1999/xlink" x="0px" y="0px"
	 viewBox="0 0 496.2 496.2" style="enable-background:new 0 0 496.2 496.2;" xml:space="preserve">
<path style="fill:#FFEFD6;" d="M0,248.1C0,111.1,111.1,0,248.1,0s248.1,111.1,248.1,248.1S385.1,496.2,248.1,496.2S0,385.1,0,248.1z
	"/>
<path style="fill:#333333;" d="M300.6,337.9c13.3,0.9,34.9-1.1,38.9-2.5c3.7-1.3,8.5-7.2,1.6-16c-4.7-6-8.6-9.9-26.4-17.2
	c-17.2-7-59.6-4.9-75.6-2.6c-4.1,0.4-7.8,1.2-10.8,2c-5.9,1.6,14,27.8,22.1,29.1c17.6-1.1,42.9-12.6,51-13.7
	C301.2,317.1,299.7,337.8,300.6,337.9z"/>
<path style="fill:#282828;" d="M295.6,317.7c0,0,10.6-4.4,23.9-1.6C319.6,316,301.6,316.9,295.6,317.7z"/>
<path style="fill:#3D3C3C;" d="M271.8,318.3c0,0-13-30.6-21.7-30.3c-1,0-3.1-0.4-3.7-0.5c-16-2.7-21.8,8.2-25,8.7
	c-3.4,0.6,6.2,35.4,13,35.2c13.4-0.4,16.6-1.4,25.4-4.7C264.8,324.8,271.8,318.3,271.8,318.3z"/>
<g>
	<path style="fill:#E2A379;" d="M222.9,336c0-4.1,16-5.6,18.5-7.5c1.2-1,2.6-3,5.9-4c5.4-1,8.5,3.8,10,3.2c5.9,0,27.6-9.6,43.9-10.6
		c1.2-0.1,0.7,20.9-0.6,20.8c-15.5-1.9-40.7,0-45.6,0.3c0,0-15.5-0.3-19.3,0.2C233.5,338.7,222.9,340.1,222.9,336z"/>
	<path style="fill:#E2A379;" d="M190.4,188.1c3.7,1.9-2,18.4-1.5,21.5c0.3,1.5,2.1,3.4,1.3,6.9c-0.9,4.5-4.7,6.2-5.3,7.7
		c-3.2,8.2-3.2,37.9-3.6,42.8c-0.8,9.9-23-0.5-21.9-4c4.5-13.7,15.1-41,17.3-45.8c0,0,4.1-15.4,5.5-18.9
		C183.1,196.2,186.8,186.2,190.4,188.1z"/>
</g>
<path style="fill:#3D3C3C;" d="M174.2,301.7c3-13.7,5.9-20.9,7.2-34.8c-8.6,1-17.5-1.9-22-3.5c-4,17.3-13.2,60.9-3.4,65.5
	c10.3,4.8,79.4,2.7,82.4,2.1c11.4-2.1,23.8-18.7,19.6-25.7c0,0-11.2-9.1-24.4-9.4C210.2,295.3,174.2,301.7,174.2,301.7z"/>
<path style="fill:#B3233B;" d="M281.6,224.4c-4-11.6-11-13-23.4-20.8c-1.6-1-10.4-0.9-13.8,1c-3.8,2.2-6.9,5.2-8.4,9.9
	c-3,9.2,16.6,29.6,18.7,43.4c2.5,9.2,0.4,29.4-4.6,30.1l21.7,30.3c28.6-47.7,14.3-73.6,9.7-85.1C281.5,233.2,283,228.4,281.6,224.4z
	"/>
<path style="fill:#E2A379;" d="M245.9,202.4c0,0-3.3-2.7-8.5-7.9l-14.1,8.8c8,2.6,13.5,9.5,13.5,9.5c5.7-9.4,12.3-7.9,15.3-9.8
	L245.9,202.4z"/>
<path style="fill:#F4B382;" d="M209.3,187.8c-6.3-1-9.7,3.6-11.5,6.5c-5.4,9.1-3.4,14.8,0.3,21.6c4.8,8.9,30.2-0.4,33.7-3.4
	c9.2-7.6,5.5-24,2.5-30c-3.3-6.5-4.6-3.7-7.1-2.1c-0.1,0.1-0.6-0.1-0.6-0.1c-0.9,0.5-2.1,1.2-3.6,1.2c0,0-0.7,0.7-1.1,0.9
	c-0.3,0.2-0.5,0.2-0.8,0c-0.8-0.8-1.6-1.5-2.2-1.6C217.2,180.3,212.2,188.2,209.3,187.8z"/>
<path style="fill:#D6876B;" d="M226.3,184.8c0,0,0-0.8-1.5-3.7c-0.4-0.3-1.1-0.7-1.6,0.3C222.8,182.1,224.9,182.9,226.3,184.8z"/>
<path style="fill:#CC785E;" d="M226.3,184.8c0,0,1.2-1.4,0.4-4.4c-0.3-0.4-0.7-0.5-0.9-0.5c-1.1,0.1-1,1.2-1,1.2
	C226.3,184,226.3,184.8,226.3,184.8z"/>
<path style="fill:#602F0F;" d="M196.9,217.3c5.9,10.9,29.5,16.9,39.9-8c0.7-1.7,0.9-4.7-3.4-6.7c-3.1-1.4-6.4-1.8-6.4-1.8
	c-1-0.1-2-0.2-3.2-0.3s-6.2,3.5-7,2.5c-7.5-9.8-15.6-11.3-18.5-9.7C192.3,198.3,190.6,205.7,196.9,217.3z"/>
<path style="fill:#F4B382;" d="M224.9,204.3c4-4.2,3.1-6.4,1.3-9.1l-6.6,5.7l-2.2,3.1C219.2,206.7,221,208.6,224.9,204.3z"/>
<path style="fill:#4C230C;" d="M222.8,225.4c-0.8,3.7-6.7,5.4-13.2,3.7s-11.1-6-10.3-9.7s5.6-4.4,12.1-2.7
	C217.8,218.3,223.6,221.6,222.8,225.4z"/>
<g>
	<path style="fill:#602F0F;" d="M217.4,201.3c-0.8,0.6-1.6,1.1-2.2,1.4c-0.9,0.5-1.6,0.7-1.6,0.7l2.8,2.5c0.5-0.2,0.9-0.5,1.4-0.8
		c0,0-0.3-0.3-0.8-0.8c0,0,0,0,0.1,0.1c0.5-0.8,1.3-2,2.6-3.4C219.7,201.1,219.9,199.4,217.4,201.3z"/>
	<path style="fill:#602F0F;" d="M223.4,227.3c-0.8,3.9-7.3,5.6-14.4,3.8c-7.1-1.8-12.2-6.5-11.3-10.4c0.8-3.9,6.1-4.6,13.2-2.8
		C218,219.8,224.3,223.4,223.4,227.3z"/>
</g>
<path style="fill:#4C230C;" d="M212.8,230.8c-0.1,0.4-1.9,0.3-4.1-0.2c-2.2-0.6-3.8-1.4-3.8-1.8c0.1-0.4,1.6-0.3,3.8,0.3
	C210.9,229.6,212.9,230.3,212.8,230.8z"/>
<g>
	<path style="fill:#F4B382;" d="M193.2,177.9c0,0,30-15,35.8-18.8c3-1.9,5.8-2.1,6.8-1.6c1.1,0.5,2.9,2.7,4.9,6.3
		c4.6,8.7,16,46.3,14.6,56.5c-1,6.9-10.4,7.6-15.7,4c-3.5-2.4-4.4-8.4-4.4-12.6c0-2.6-0.3-5.7-1.8-15.8c-1.1-6.1-2.1-15.2-3.3-22
		c0,0-14.3,1.1-31,10.3L193.2,177.9z"/>
	<path style="fill:#F4B382;" d="M199,184.2c1.4-1.2-5.8-6.2-5.8-6.2s-1.5,1.4-4.7,2.8c-4.4,2-9.2,7.1-10.6,10.9
		c-1.3,3.3-0.5,7.8,2.1,10.5s12.7-9.7,16.8-12.2L199,184.2z"/>
	<path style="fill:#F4B382;" d="M192.1,192.1c0,0-3.9,3.2-2.4,5.4c1.2,1.9,1.8,2.4,7-7.6C196.7,189.9,195.6,189,192.1,192.1z"/>
</g>
<g>
</g>
<g>
</g>
<g>
</g>
<g>
</g>
<g>
</g>
<g>
</g>
<g>
</g>
<g>
</g>
<g>
</g>
<g>
</g>
<g>
</g>
<g>
</g>
<g>
</g>
<g>
</g>
<g>
</g>
</svg>
