<?xml version="1.0" encoding="iso-8859-1"?>
<!-- Generator: Adobe Illustrator 19.0.0, SVG Export Plug-In . SVG Version: 6.00 Build 0)  -->
<svg version="1.1" id="Layer_1" xmlns="http://www.w3.org/2000/svg" xmlns:xlink="http://www.w3.org/1999/xlink" x="0px" y="0px"
	 viewBox="0 0 496.2 496.2" style="enable-background:new 0 0 496.2 496.2;" xml:space="preserve">
<path style="fill:#FFEFD6;" d="M0,248.1C0,111.1,111.1,0,248.1,0s248.1,111.1,248.1,248.1S385.1,496.2,248.1,496.2S0,385.1,0,248.1z
	"/>
<path style="fill:#3D3C3C;" d="M245.4,190c0,0-6-0.2-14.8,5c-12,7-16.7,28.7-6.3,38.3c8.6,8,28.2,1.6,29-5.1
	c0.5-3.8,1.6-4.1,2.4-4.7c3.6-2.9,1.5-19.1,1.5-19.1L245.4,190z"/>
<path style="fill:#E2A379;" d="M289.3,249.9c0,0,1.5,6-3.2,11.5l16,4.7c-2.3-6.7,6.1-20.5,6.1-20.5c-7.7,3.4-19.1,0.7-22.5-0.3
	L289.3,249.9z"/>
<path style="fill:#B3233B;" d="M276.9,243.5c8.4,6.1,7.4,7.4,18.9,8.4c1.4,0.1,3.5-0.2,5.1-0.9c2.7-1.1,5.9-2.6,7.7-6.2
	c2-3.9,5-10.4,4-15.3c-1.2-5.8-2.6-22.5-16.9-31.3c-20.7-12.7-30.7-8.7-50.3-8.3c0,0,0.1,7,2.6,16c2.9,10.3,7.6,17.5,7.6,17.5
	c2.2-1.6,14.1,0.1,16.7,2.2C272.4,225.6,267,236.3,276.9,243.5z"/>
<path style="fill:#F4B382;" d="M272.8,273.8c-5,3.9-4.1,9.5-3.1,12.8c2.9,10.2,8.4,12.6,15.9,14.6c9.8,2.6,20.4-22.3,20.7-26.8
	c0.8-11.9-13.7-20.5-20-22.4c-7-2.1-5.9,0.8-6.4,3.7c0,0.1-0.5,0.4-0.5,0.4c-0.3,1-0.6,2.3-1.6,3.4c0,0,0,0.9-0.1,1.4
	c-0.1,0.3-0.1,0.5-0.5,0.5c-1.1,0.1-2.2,0.2-2.7,0.5C272.8,263,275.1,272,272.8,273.8z"/>
<path style="fill:#D6876B;" d="M282.3,259.5c0,0-0.6-0.6-3.8-1.5c-0.4,0.1-1.2,0.3-0.9,1.4C277.9,260.1,279.9,259.1,282.3,259.5z"/>
<path style="fill:#CC785E;" d="M282.3,259.5c0,0-0.2-1.8-3-3.3c-0.4-0.1-0.8,0.2-1,0.4c-0.6,0.9,0.2,1.5,0.2,1.5
	C281.7,258.9,282.3,259.5,282.3,259.5z"/>
<path style="fill:#602F0F;" d="M285.7,303.1c12,3.2,32.5-9.8,21.6-34.5c-0.7-1.6-2.8-3.9-7.3-2.1c-3.1,1.3-5.7,3.4-5.7,3.4
	c-0.7,0.6-1.5,1.4-2.4,2.1c-0.9,0.8-1.7,7-3,6.8c-12.2-1.3-18.9,3.6-19.7,6.8C268.8,293.5,273,299.7,285.7,303.1z"/>
<path style="fill:#F4B382;" d="M295.5,273.9c-0.4-5.8-2.5-6.6-5.8-7.2l-0.4,8.7l0.7,3.7C293.3,279.7,295.9,279.7,295.5,273.9z"/>
<path style="fill:#4C230C;" d="M309.3,289.9c2.2,3.1-0.7,8.6-6.3,12.1c-5.7,3.6-12,3.9-14.1,0.8c-2.2-3.1,0.6-7.1,6.3-10.6
	C300.8,288.6,307.2,286.8,309.3,289.9z"/>
<g>
	<path style="fill:#602F0F;" d="M288.2,277.3c-0.1,1-0.3,1.9-0.5,2.6c-0.3,1-0.6,1.6-0.6,1.6l3.8-0.3c0.1-0.5,0.3-1,0.4-1.5
		c0,0-0.4,0-1.1,0.1h0.1c-0.3-0.9-0.5-2.3-0.7-4.2C289.6,275.5,288.5,274.1,288.2,277.3z"/>
	<path style="fill:#602F0F;" d="M311.2,290.7c2.3,3.3-0.9,9.2-7.1,13.1s-13.1,4.4-15.3,1.1c-2.3-3.3,0.8-7.6,7-11.5
		C302,289.5,308.9,287.4,311.2,290.7z"/>
</g>
<path style="fill:#4C230C;" d="M306.4,300.9c0.2,0.4-1.1,1.6-3,2.8c-1.9,1.2-3.6,1.9-3.9,1.5s0.9-1.4,2.8-2.5
	C304.3,301.4,306.2,300.5,306.4,300.9z"/>
<path style="fill:#E2A379;" d="M126.4,302.9c0.4-4.1,17.8-5.1,20.5-6.8c1.3-0.8,2.4-3.2,5.8-3.8c4.5-0.8,7.6,2.4,9.2,2
	c8.1-1.9,25.8-4.6,35.7-6.8c2.3-0.5,4.6-1,7-1.4c9.8-1.7,7,19.3,3.4,19.6c-14.4,1-44.3-1-49.5-1.2c0,0-15.8,2-19.6,2.1
	C136.6,306.6,126,307,126.4,302.9z"/>
<path style="fill:#3D3C3C;" d="M241.2,283.5c-11.6,0.1-25.8,1-35.6,2.7c1.7,3.1,3.9,16.4,3.4,19.5c3.6-0.2,51.5,3.7,58.8-4.3
	c7.7-8.3-16.5-72.3-13.7-76.5l-33.2-13.5C216.1,233,241.2,283.5,241.2,283.5z"/>
<g>
	<path style="fill:#F4B382;" d="M172,302.6c1.5,3.4,15.3-4.6,20-5.6l4.2-4.6c32.7-11.6,46.7-20.3,46.7-20.3
		c19.9-6.1,55-22.7,61.6-27.1c6.6-4.3-0.6-18.6-8.1-16s-13.9,5.7-21.1,8.9s-31.3,19-37.4,22.4c-0.8,0.5-45,24.3-45,24.3
		s-1.9,0.8-5.4,1c-4.8,0.3-11,3.4-13.8,6.5C171.3,294.7,170.5,299.2,172,302.6z"/>
	<path style="fill:#F4B382;" d="M186.9,297.5c0,0-4.8,1.6-4.2,4.2c0.5,2.2,0.9,2.9,9.2-4.7C192,297,191.3,295.7,186.9,297.5z"/>
</g>
<g>
</g>
<g>
</g>
<g>
</g>
<g>
</g>
<g>
</g>
<g>
</g>
<g>
</g>
<g>
</g>
<g>
</g>
<g>
</g>
<g>
</g>
<g>
</g>
<g>
</g>
<g>
</g>
<g>
</g>
</svg>
