<?xml version="1.0" encoding="iso-8859-1"?>
<!-- Generator: Adobe Illustrator 19.0.0, SVG Export Plug-In . SVG Version: 6.00 Build 0)  -->
<svg version="1.1" id="Layer_1" xmlns="http://www.w3.org/2000/svg" xmlns:xlink="http://www.w3.org/1999/xlink" x="0px" y="0px"
	 viewBox="0 0 496.2 496.2" style="enable-background:new 0 0 496.2 496.2;" xml:space="preserve">
<path style="fill:#FFEFD6;" d="M0,248.1C0,111.1,111,0,248.1,0c137,0,248.1,111.1,248.1,248.1S385.1,496.2,248.1,496.2
	C111,496.2,0,385.1,0,248.1z"/>
<path style="fill:#E2A379;" d="M248.4,357.6c-2.4-3.2,1.4-12.1,4.3-18.8c0.8-1.9,1-6.5,2.9-8c3.2-2.5,6.1-0.9,7-2.2
	c11.6-15.5,15.2-19.7,21.3-25.3c7.3-6.8,22.4,9.3,19.3,11.2c-14.4,9.2-32.1,20.9-36.2,24.2c0,0-3.1,6.2-7.4,15.3
	c-0.5,1,3.9,5.4,3.1,7.7C262.1,364.1,249.7,359.2,248.4,357.6z"/>
<path style="fill:#333333;" d="M284.1,313.9c-4.9,6.8-8.4,10.2-15.1,21.6c3.5,0.1,19.4,2.8,21.8,4.8c3-4.2,21.5-25,18.6-30.9
	c-10-20-53-31.6-53-31.6c-0.3-4.2-44.3,3.5-34.4,15.5C231.9,305.4,284.1,313.9,284.1,313.9z"/>
<path style="fill:#F4B382;" d="M276.2,388.5c-5.4,0-21.3-0.6-22.7-1.2c-3.3-1.5-5.1-4.4-3.1-7.3c1.5-2.2,2.8-4.2,3.3-5.7
	c6.3-18.3,11.2-31.5,15.3-38.7c4.9-8.7,24.1,2.1,21.8,4.8c-10.9,13.2-25.3,34-28.2,38.4c0,0,30.5,3.2,22.1,8.1
	C282.8,387.9,280.3,388.4,276.2,388.5z"/>
<path style="fill:#E2A379;" d="M267.1,338.7c0,0-5.8-9.2-5.9-9.5c-1.4,0.1-3.4-0.1-5.6,1.6c-2,1.5-2.1,6.1-2.9,8
	c-2.9,6.7-6.7,15.6-4.3,18.8c1.2,1.6,13.7,6.5,14.4,4.1c0.7-2.3-3.6-6.6-3.1-7.7C264.1,344.9,267.1,338.7,267.1,338.7z"/>
<path style="fill:#3D3C3C;" d="M247.1,247.2c-13.6,3.1-22.2,9.5-26.8,16.8c-2.8,4.4-5.1,11.9-4,18.7c1.5,9.4,6,11.9,7.7,12.8
	c3.2,1.8,34.2-0.6,34.2-0.6c-0.8-5.9-0.7-19.7-1.2-24.4C256.4,264.9,247.1,247.2,247.1,247.2z"/>
<path style="fill:#E2A379;" d="M285.4,162.5c0,0,3.2,0.5,4.6,3.9c4.2,10.2,0.9,21,0.9,21s-3.6,27.4-7,33.4c-1.8,3-4.5,4.2-5.6,4.3
	c-1.2,0.1-3.6-0.8-6.9-3.2c-8-5.7-44.8-32.1-48.1-41.8c-2.2-6.6,5.9-11.5,12.2-10.6c4.2,0.6,7.7,5.5,9.6,9.3c1.2,2.3,4.2,7,10,12.4
	c5.5,5.3,14.5,12.3,21.2,17.1l10.6-21l-2.5-18.4L285.4,162.5z"/>
<path style="fill:#B3233B;" d="M264.6,203.1c0.4-12.3-9.8-18.6-16.5-31.7c-0.8-1.6-8.4-6.1-12.4-6.2c-4.4-0.1-8.9,0.6-12.3,4.2
	c-2.6,2.8-7.8,11.5-3.5,34.5c1.3,10.7,6.3,48.2,0.4,60.1c0,0,13.7-1.3,21.7,0.7s14.9,6.2,14.9,6.2c2.8-37.3,1.5-46.6,3.3-58.9
	C260.2,212.1,264.5,206.5,264.6,203.1z"/>
<path style="fill:#F4B382;" d="M287.1,186.6c0,0-12.4,38.5-16.6,44c-2.2,2.8-4.8,3.8-6,3.7s-3.6-1.6-6.6-4.4
	c-7.2-6.8-30.2-38.6-32.1-48.7c-1.3-6.9,7.4-10.6,13.6-8.8c4,1.1,6.9,6.5,8.2,10.5c0.8,2.5,2.1,5.3,6.8,14.4c3,5.4,7,13.7,10.3,19.7
	c0,0,6.8-13.8,14.1-31.8L287.1,186.6z"/>
<path style="fill:#3D3C3C;" d="M291.8,292.7c0,0,4.9,3.1,8.6,6.2c4.4,3.7,6.2,6.1,6.2,6.1s11.8-10.6,10.9-15.9c-0.3-2-2.7-5-6.8-6.8
	c-21.2-9.2-58.7-12.6-58.7-12.6c-1.5-2.9-28.8,8.1-32.8,17.9c-1.2,2.9,3.4,7.3,5,8.1C238.2,302.5,272,291.7,291.8,292.7z"/>
<path style="fill:#333333;" d="M309.4,309.5c-2.5-5-7-9.4-12.5-13.3c-0.4,0.1-35,4.6-51.6,8.8c17.8,5.5,38.7,9,38.7,9
	c-4.9,6.8-8.4,10.2-15.1,21.6c3.5,0.1,19.4,2.8,21.8,4.8C293.9,336.2,312.4,315.3,309.4,309.5z"/>
<path style="fill:#E2A379;" d="M245,166.1c0,0,0.2-4.3,1.4-11.6l-15.5-6.2c2.6,8,0.1,17.2,0.1,17.2c11-1,13.8,4.5,17.1,5.9
	L245,166.1z"/>
<path style="fill:#F4B382;" d="M256,134.7c3.9-5.1,1.5-10.3-0.3-13.2c-5.4-9.1-11.4-10-19.1-10c-10.2,0-14,26.8-13.1,31.3
	c2.3,11.7,18.5,16.3,25.1,16.5c7.3,0.2,5.5-2.3,5.2-5.2c0-0.1,0.4-0.5,0.4-0.5c0-1-0.1-2.4,0.6-3.7c0,0-0.3-0.9-0.3-1.4
	c0-0.3,0-0.5,0.4-0.7c1.1-0.4,2.1-0.7,2.5-1.1C258.8,145.2,254.2,137.1,256,134.7z"/>
<path style="fill:#D6876B;" d="M250.5,151.1c0,0,0.7,0.4,4,0.5c0.4-0.2,1.1-0.6,0.5-1.5C254.6,149.3,252.9,150.8,250.5,151.1z"/>
<path style="fill:#CC785E;" d="M250.5,151.1c0,0,0.7,1.7,3.7,2.4c0.4-0.1,0.8-0.4,0.8-0.6c0.4-1-0.6-1.4-0.6-1.4
	C251.2,151.5,250.5,151.1,250.5,151.1z"/>
<path style="fill:#602F0F;" d="M236,109.8c-12.4,0-28.9,17.9-12,38.9c1.1,1.4,3.7,3.1,7.6,0.2c2.7-2,4.6-4.7,4.6-4.7
	c0.5-0.8,1.1-1.7,1.7-2.7c0.7-1.1-0.1-7.2,1.1-7.4c12.2-1.9,17.3-8.3,17.3-11.6C254.8,114.7,249.2,109.8,236,109.8z"/>
<path style="fill:#F4B382;" d="M234,140.5c1.8,5.5,4.1,5.8,7.4,5.5l-1.8-8.5l-1.7-3.4C234.6,134.3,232.1,135,234,140.5z"/>
<path style="fill:#4C230C;" d="M216.5,128.6c-2.9-2.5-1.5-8.5,3-13.4s10.6-6.9,13.5-4.4s1.2,7-3.4,11.9
	C225.1,127.7,219.4,131.1,216.5,128.6z"/>
<g>
	<path style="fill:#602F0F;" d="M240.2,135.4c-0.2-1-0.2-1.9-0.2-2.6c0-1.1,0.2-1.7,0.2-1.7l-3.6,1.3c0,0.5,0,1.1,0,1.6
		c0,0,0.4-0.1,1.1-0.3h-0.1c0.5,0.8,1.1,2,1.7,3.9C239.3,137.5,240.7,138.5,240.2,135.4z"/>
	<path style="fill:#602F0F;" d="M214.5,128.3c-3-2.6-1.5-9.1,3.5-14.5s11.5-7.6,14.5-5s1.1,7.5-3.8,12.9S217.6,130.9,214.5,128.3z"
		/>
</g>
<path style="fill:#4C230C;" d="M216.6,117.3c-0.3-0.3,0.6-1.9,2.1-3.5s3-2.7,3.4-2.4c0.3,0.3-0.5,1.5-2.1,3.2
	C218.5,116.1,216.9,117.6,216.6,117.3z"/>
<path style="fill:#F4B382;" d="M278.6,185.9c-0.2,1.9,8.5,0.6,8.5,0.6s0.2-2,1.6-5.3c1.9-4.5,2-11.4,0.5-15.3
	c-1.3-3.3-4.9-6.1-8.6-6.3s-2.8,15.7-4.1,20.4L278.6,185.9z"/>
<path style="fill:#E2A379;" d="M286.9,187.1l-10.6,21c-2-1.5-4.3-3.1-6.5-4.9c-1.8,4.4-5.1,13.7-5.1,13.7c2.9,2.1,5.3,3.8,6.7,4.8
	c3.4,2.4,5.7,3.3,6.9,3.2c1.2-0.1,3.9-1.2,5.6-4.3c3.4-5.8,6.8-31.8,7-33.3C289.5,187.3,286.9,187.1,286.9,187.1z"/>
<path style="fill:#F4B382;" d="M278.2,175.4c0,0,0.7-5-1.9-5.6c-2.2-0.6-3-0.5,0,10.4C276.4,180.1,277.9,180.1,278.2,175.4z"/>
<g>
</g>
<g>
</g>
<g>
</g>
<g>
</g>
<g>
</g>
<g>
</g>
<g>
</g>
<g>
</g>
<g>
</g>
<g>
</g>
<g>
</g>
<g>
</g>
<g>
</g>
<g>
</g>
<g>
</g>
</svg>
