<?xml version="1.0" encoding="iso-8859-1"?>
<!-- Generator: Adobe Illustrator 19.0.0, SVG Export Plug-In . SVG Version: 6.00 Build 0)  -->
<svg version="1.1" id="Layer_1" xmlns="http://www.w3.org/2000/svg" xmlns:xlink="http://www.w3.org/1999/xlink" x="0px" y="0px"
	 viewBox="0 0 496.2 496.2" style="enable-background:new 0 0 496.2 496.2;" xml:space="preserve">
<path style="fill:#FFEFD6;" d="M0,248.1C0,111.1,111.1,0,248.1,0s248.1,111.1,248.1,248.1S385.1,496.2,248.1,496.2S0,385.1,0,248.1z
	"/>
<path style="fill:#E2A379;" d="M227.5,243.3c0,0-2-6-8.3-11.3l-10.5,8.8c4.8,5.5,10.7,13.1,10.7,13.1c9.3-8.4,12.1-8,15.5-8.9
	L227.5,243.3z"/>
<path style="fill:#333333;" d="M311.4,220.7c-22.7,0-47.5,22-60.5,35.5v36.1c17-7.7,47-32.2,59.4-40.9
	C310.3,251.5,339.2,220.7,311.4,220.7z"/>
<path style="fill:#B3233B;" d="M246.5,243.1c-10.2,1.8-15.5,0.3-24.2,7.9c-1.1,0.9-2.3,2.6-3,4.3c-1.1,2.7-2.2,6.1-0.9,9.8
	c1.4,4.2,4,10.8,8.2,13.5c5,3.1,14.1,9.3,30.8,7.4c30.1-3.4,43.5-8,57-13.6l-10.2-37.9c-19,9-29.4,15.8-41.9,16
	C262.3,250.5,258.6,241,246.5,243.1z"/>
<path style="fill:#F4B382;" d="M164.3,237.9c2.3-3.4,12.6-12.4,16.3-18c2-3,8-0.7,9.9,2.2c1.4,2.2,2.2,4.8,3.4,5.8
	c6.4,5.4,28.3,23.8,36,30.4c2.6,2.2-11.8,17.2-14.1,14.5c-9.4-11-26.9-33.9-29.8-38.3c0,0-5.2,1.5-11.1,8.2c-2.9,3.4-4.5,7.2-7.1,11
	C165,257.7,160.5,243.4,164.3,237.9z"/>
<path style="fill:#E2A379;" d="M193.9,220.3c1.6-1.9,3.3-3.6,5-5.4c-1.4-0.8-2.5-1.5-3.4-2c-1.4-0.8-2.5-3.2-4.3-5.2
	c-2.3-2.6-8.7-3.9-10.2-0.6c-2.7,6.1-11.4,16.7-13.2,20.4c-2.8,6,3.9,19.4,5.9,15c2-4.2,2.9-8.2,5.3-12c4.8-7.6,9.6-9.9,9.6-9.9
	c0.6,0.7,1.8,1.9,3.4,3.4C192.3,222.7,192.9,221.4,193.9,220.3z"/>
<path style="fill:#F4B382;" d="M230.2,217.8c2.9-5.7-0.4-10.3-2.7-12.9c-7-8-13.1-7.8-20.6-6.3c-10,1.9-8.8,28.9-7.1,33.2
	c4.4,11.1,21.2,12.6,27.7,11.6c7.2-1.1,4.9-3.3,4.2-6.1c0-0.1,0.3-0.6,0.3-0.6c-0.2-1-0.5-2.3-0.1-3.8c0,0-0.4-0.8-0.5-1.3
	c-0.1-0.3-0.1-0.5,0.2-0.7c1-0.6,1.9-1.1,2.2-1.6C234.8,227.6,228.9,220.5,230.2,217.8z"/>
<path style="fill:#D6876B;" d="M227.8,234.9c0,0,0.8,0.3,4-0.3c0.4-0.3,1-0.8,0.2-1.6C231.5,232.4,230.1,234.2,227.8,234.9z"/>
<path style="fill:#CC785E;" d="M227.8,234.9c0,0,1,1.5,4.1,1.7c0.4-0.1,0.7-0.5,0.7-0.7c0.2-1-0.8-1.3-0.8-1.3
	C228.6,235.2,227.8,234.9,227.8,234.9z"/>
<path style="fill:#602F0F;" d="M205.9,197c-12.2,2.3-25.1,22.9-4.6,40.5c1.4,1.2,4.2,2.3,7.5-1.2c2.3-2.5,3.6-5.5,3.6-5.5
	c0.4-0.9,0.8-1.9,1.2-3c0.5-1.2-1.4-7-0.2-7.4c11.6-4.1,15.5-11.4,14.9-14.6C225.3,198.4,218.8,194.6,205.9,197z"/>
<path style="fill:#F4B382;" d="M209.6,227.6c2.8,5.1,5.1,4.9,8.3,4l-3.4-8.1l-2.3-3.1C209.1,221.4,206.8,222.6,209.6,227.6z"/>
<path style="fill:#4C230C;" d="M190.3,219.1c-3.3-1.9-3.1-8,0.5-13.7s9.1-8.7,12.4-6.8c3.3,1.9,2.5,6.7-1.1,12.3
	C198.5,216.6,193.6,221,190.3,219.1z"/>
<g>
	<path style="fill:#602F0F;" d="M214.8,221.4c-0.3-0.9-0.5-1.8-0.6-2.6c-0.2-1-0.1-1.7-0.1-1.7l-3.3,1.9c0.1,0.5,0.2,1,0.3,1.6
		c0,0,0.4-0.2,1-0.5H212c0.6,0.7,1.5,1.8,2.4,3.5C214.3,223.6,215.8,224.3,214.8,221.4z"/>
	<path style="fill:#602F0F;" d="M188.2,219.2c-3.5-2-3.1-8.6,0.8-14.8c3.9-6.2,9.9-9.6,13.4-7.6s2.5,7.2-1.4,13.4
		C197,216.3,191.7,221.2,188.2,219.2z"/>
</g>
<path style="fill:#4C230C;" d="M188.2,208c-0.4-0.2,0.3-1.9,1.5-3.8c1.2-1.9,2.5-3.3,2.9-3c0.4,0.2-0.2,1.6-1.4,3.5
	C189.9,206.5,188.6,208.2,188.2,208z"/>
<g>
	<path style="fill:#3D3C3C;" d="M246.4,271.9c-4.3-3.9-6.8-7.1-16.5-13.6c-1.7,3-11.2,13.3-14.1,14.5c3.9,4.4,21.8,25.1,32.4,27.2
		c11.1,2.2,50.8-36.6,65.4-48.7c0,0,26-31.2-1.8-31.2C279.9,220,246.4,271.9,246.4,271.9z"/>
	<path style="fill:#3D3C3C;" d="M314.4,272.4l-7.8-18.2c0,0,10.4-34.1,13.5-32.8c10,3.9,14,11.1,13.1,23.8
		C332.8,250.6,332.4,261,314.4,272.4z"/>
</g>
<path style="fill:#F4B382;" d="M328.2,260.3c-5.4,7.2-13.8,12.2-13.8,12.2c-23.3,7-41.1,3.9-41.1,3.9
	c-20.9-17.3-32.3-36.1-41.2-30.3s-2.5,12.9,5.8,18.5c8.2,5.6,28.8,30.1,35.4,28.2c5.3-1.6,35.7-9.3,44.2-14c1.1-0.6,3.4-1.1,5.8-2.5
	c3.1-1.8,4.8-7.3,5-8.9C328.7,265.4,328.2,260.3,328.2,260.3z"/>
<g>
</g>
<g>
</g>
<g>
</g>
<g>
</g>
<g>
</g>
<g>
</g>
<g>
</g>
<g>
</g>
<g>
</g>
<g>
</g>
<g>
</g>
<g>
</g>
<g>
</g>
<g>
</g>
<g>
</g>
</svg>
