<?xml version="1.0" encoding="iso-8859-1"?>
<!-- Generator: Adobe Illustrator 19.0.0, SVG Export Plug-In . SVG Version: 6.00 Build 0)  -->
<svg version="1.1" id="Layer_1" xmlns="http://www.w3.org/2000/svg" xmlns:xlink="http://www.w3.org/1999/xlink" x="0px" y="0px"
	 viewBox="0 0 496.2 496.2" style="enable-background:new 0 0 496.2 496.2;" xml:space="preserve">
<path style="fill:#FFEFD6;" d="M0,248.1C0,111.1,111.1,0,248.1,0s248.1,111.1,248.1,248.1S385.1,496.2,248.1,496.2S0,385.1,0,248.1z
	"/>
<path style="fill:#3D3C3C;" d="M298.5,269.9c0,0-7.7-5.2-14.4-6.1c-14-1.8-22.6,7.8-22.6,7.8s-6.4,29,0.6,30.6
	c13.3,3,24.3,4.1,30.9,5c4.5,0.6,13.4-20.4,13.4-20.4L298.5,269.9z"/>
<g>
	<path style="fill:#E2A379;" d="M245.7,205c-1.5,3.4,13.8,8,17.8,10.8l6.2-0.1c30.9,15.9,47.3,19.8,47.3,19.8
		c18,10.3,53.7,24.8,61.4,26.7c7.7,1.9,13.2-13.2,6.1-16.9c-7-3.7-13.7-6.2-20.9-9.3c-7.3-3.1-34.8-10.1-41.4-12.2
		c-0.9-0.3-49.1-15.9-49.1-15.9s-1.8-0.9-4.4-3.2c-3.6-3.3-10.1-5.7-14.2-5.6C251,199.1,247.1,201.6,245.7,205z"/>
	<path style="fill:#E2A379;" d="M259.6,212.4c0,0-4.4-2.4-5.9-0.2c-1.3,1.9-1.5,2.6,9.7,3.5C263.4,215.8,263.9,214.3,259.6,212.4z"
		/>
</g>
<path style="fill:#B3233B;" d="M383.6,285.2c9-8.3,3.8-20.8,5-36.2c-0.1-1.8-4.8-8.8-8.4-10.4c-4-1.8-8.7-2.7-12.6-0.4
	c-3.5,1.5-9.5,5.6-24.6,23.2c-1.8,2-4.2,5.7-8.3,9.1c-10.3,8.4-25.7,3.3-36.2-0.5c0,0,3.5,10.6,2.8,18.8c-0.7,7.9-8.3,18.5-8.3,18.5
	c48.7,2,69-11,77.8-19.8C370.8,287.5,380.6,288,383.6,285.2z"/>
<path style="fill:#E2A379;" d="M388.4,243.1c0,0,1-8.8,4.7-16.1l-11.9-6.2c-0.7,8.3-9.6,16-9.6,16c12,3.7,14.5,9.6,17,12.1
	L388.4,243.1z"/>
<path style="fill:#F4B382;" d="M398.7,208.6c2.3-6-1.5-10.3-4-12.6c-7.8-7.2-13.8-6.4-21.2-4.2c-9.7,2.9-5.9,29.6-3.7,33.7
	c5.5,10.6,22.4,10.4,28.8,8.7c7.1-1.9,4.6-3.8,3.5-6.5c0-0.1,0.2-0.6,0.2-0.6c-0.3-1-0.7-2.3-0.4-3.7c0,0-0.5-0.8-0.7-1.2
	c-0.1-0.3-0.1-0.5,0.2-0.7c0.9-0.7,1.8-1.3,2-1.8C404.3,217.9,397.7,211.4,398.7,208.6z"/>
<path style="fill:#D6876B;" d="M398.1,225.8c0,0,0.8,0.2,4-0.7c0.3-0.3,0.9-0.9,0.1-1.6C401.5,223,400.3,224.9,398.1,225.8z"/>
<path style="fill:#CC785E;" d="M398.1,225.8c0,0,1.1,1.4,4.3,1.3c0.4-0.2,0.6-0.6,0.6-0.8c0.1-1.1-0.9-1.2-0.9-1.2
	C398.9,226,398.1,225.8,398.1,225.8z"/>
<path style="fill:#602F0F;" d="M372.4,190.3c-11.9,3.5-22.7,25.3-0.5,40.7c1.5,1,4.4,1.9,7.3-2c2-2.7,3.1-5.9,3.1-5.9
	c0.3-0.9,0.6-2,0.9-3.1c0.3-1.2-2.1-6.8-1-7.4c11.1-5.3,14.3-12.9,13.3-16C391.9,189.7,385.1,186.6,372.4,190.3z"/>
<path style="fill:#F4B382;" d="M379.3,220.4c3.3,4.8,5.6,4.3,8.7,3.1l-4.2-7.7l-2.6-2.8C378.1,214.3,375.9,215.7,379.3,220.4z"/>
<path style="fill:#4C230C;" d="M359.2,213.9c-3.5-1.6-3.9-7.7-0.9-13.7s8.2-9.6,11.7-8s3.1,6.4,0.2,12.4
	C367.1,210.6,362.6,215.5,359.2,213.9z"/>
<g>
	<path style="fill:#602F0F;" d="M383.8,213.7c-0.4-0.9-0.7-1.8-0.9-2.5c-0.3-1-0.3-1.7-0.3-1.7l-3.1,2.3c0.1,0.5,0.3,1,0.4,1.5
		c0,0,0.3-0.2,0.9-0.6c0,0-0.1,0-0.1,0.1c0.7,0.6,1.6,1.6,2.7,3.2C383.5,216,385.1,216.5,383.8,213.7z"/>
	<path style="fill:#602F0F;" d="M357.1,214.1c-3.7-1.6-4-8.3-0.7-14.8c3.3-6.6,8.9-10.5,12.5-8.9c3.7,1.6,3.2,6.9,0,13.4
		C365.6,210.4,360.8,215.8,357.1,214.1z"/>
</g>
<path style="fill:#4C230C;" d="M355.9,203c-0.4-0.2,0.1-2,1.1-4s2.1-3.5,2.5-3.3s-0.1,1.6-1.1,3.6
	C357.5,201.4,356.4,203.2,355.9,203z"/>
<g>
	<path style="fill:#F4B382;" d="M236.2,225.2c-1,3.6,14.7,6.2,19,8.5l6.2-0.9c32.6,11.9,48.9,14.1,48.9,14.1
		c19.2,8,56.9,17.5,64.7,18.4c7.9,0.9,11.4-14.7,4-17.5c-7.4-2.8-14.3-4.4-21.9-6.6c-7.6-2.2-36.2-5.3-43.1-6.6
		c-0.9-0.2-50.2-10-50.2-10s-1.9-0.6-4.8-2.7c-4-2.8-10.7-4.4-14.8-3.8C240.8,218.7,237.3,221.6,236.2,225.2z"/>
	<path style="fill:#F4B382;" d="M251,230.8c0,0-4.7-1.8-5.9,0.6c-1,2-1.2,2.8,10.1,2.3C255.2,233.6,255.5,232.1,251,230.8z"/>
	<path style="fill:#F4B382;" d="M92.9,242.5c1.8-3.7,18.5,1.6,21.6,1c1.5-0.3,3.4-2.1,6.8-1.5c4.5,0.8,6.2,4.9,7.9,5.1
		c8.3,1.1,30.2,6.6,40.2,8c2.3,0.3,4.7,0.7,7.1,1.2c9.8,1.9,1.2,20.7-2.3,19.7c-13.8-4.2-47-18.5-51.8-20.6c0,0-15.5-3.8-19.1-5
		C101.1,249.7,91.1,246.2,92.9,242.5z"/>
</g>
<path style="fill:#3D3C3C;" d="M204.7,264.7c-11.2-3-18.2-5.8-30.1-8.8c0.8,3.4-0.7,16.9-2.1,19.7c3.5,0.7,28.8,10.6,28.8,10.6
	c4.7,1.9,68.6,20.3,79.7,18.2c4.1-0.6,7.8-1.5,10.7-2.4c5.8-1.8,1.1-34.2-7-35.1c-17.6,1.9-49.4-0.5-58.2-1
	C218.4,265.5,204.7,264.7,204.7,264.7z"/>
<g>
</g>
<g>
</g>
<g>
</g>
<g>
</g>
<g>
</g>
<g>
</g>
<g>
</g>
<g>
</g>
<g>
</g>
<g>
</g>
<g>
</g>
<g>
</g>
<g>
</g>
<g>
</g>
<g>
</g>
</svg>
