<?xml version="1.0" encoding="iso-8859-1"?>
<!-- Generator: Adobe Illustrator 19.0.0, SVG Export Plug-In . SVG Version: 6.00 Build 0)  -->
<svg version="1.1" id="Layer_1" xmlns="http://www.w3.org/2000/svg" xmlns:xlink="http://www.w3.org/1999/xlink" x="0px" y="0px"
	 viewBox="0 0 496.2 496.2" style="enable-background:new 0 0 496.2 496.2;" xml:space="preserve">
<path style="fill:#FFEFD6;" d="M0,248.1C0,111.1,111.1,0,248.1,0s248.1,111.1,248.1,248.1S385.1,496.2,248.1,496.2S0,385.1,0,248.1z
	"/>
<g>
	<path style="fill:#E2A379;" d="M186.3,394.5c-6.1-2.1-15.4-2-15.5-4.6c-0.8-20.8-2.5-52-2.5-52c1.5-20.7,12.3-60.7,10.6-68.5
		c-1.7-7.7-17.6-6.1-17.9,1.8c-1,9.3-2.2,13.7-3.2,23.3c-1.5,11.9-3.3,36.9-2.3,43.8c0.1,0.9,6.8,47,6.8,47s0.2,5.7,1,8.8
		c0.9,3.5,3.2,2.7,10.2,3.5C178.7,398.3,190.6,396,186.3,394.5z"/>
	<path style="fill:#E2A379;" d="M299.9,59c3.7,1.8-1.6,18.5-1,21.6c0.3,1.5,2.1,3.4,1.5,6.8c-0.8,4.5-4.9,6.2-5.1,7.9
		c-1.1,8.3-6.6,30.2-8,40.2c-0.3,2.3-0.7,4.7-1.2,7.1c-1.9,9.8-20.7,1.2-19.7-2.3c4.2-13.8,18.5-47,20.6-51.8c0,0,3.8-15.5,5-19.1
		C292.8,67.3,296.2,57.2,299.9,59z"/>
</g>
<path style="fill:#333333;" d="M277.7,170.9c3-11.2,5.8-18.2,8.8-30.1c-3.4,0.8-16.9-0.7-19.7-2.1c-0.7,3.5-10.6,28.8-10.6,28.8
	c-1.9,4.7-20.3,68.6-18.2,79.7c0.6,4.1,1.5,7.8,2.4,10.7c1.8,5.8,34.2,1.1,35.1-7c-1.9-17.6,0.5-49.4,1-58.2
	C276.9,184.6,277.7,170.9,277.7,170.9z"/>
<path style="fill:#3D3C3C;" d="M245.4,216.5c0,0-14.7,24.2-10.3,31.7c0.5,0.9,1.1,2.9,1.3,3.5c5.4,15.3,17.7,15.1,19.8,17.6
	c1.6,2,18.3-10.8,24.6-19.3c0,0-7.8-19.9-13.7-24.3C258.1,218.9,245.4,216.5,245.4,216.5z"/>
<path style="fill:#B3233B;" d="M166.2,241.2c-9.2,8.1-8.4,13-12.4,27.2c-0.5,1.8,2.1,10.2,4.9,12.9c3.2,3.1,7,5.1,11.9,5.2
	c9.6,0.2,23.6-24.4,36.2-30.4c8.1-5,26.1-12.5,28.3-8c0,0,12.7-31.3,10.3-31.7c-44.1-6.3-60.7,13.7-69.9,21.1
	C175.5,237.5,168.8,238.9,166.2,241.2z"/>
<path style="fill:#E2A379;" d="M156.2,280.5c0,0-1.6,3.9-5.2,10.5l12.5,11c0.2-8.4,5.2-15.6,5.2-15.6c-10.7-2.8-11.1-9.5-13.7-11.8
	L156.2,280.5z"/>
<path style="fill:#F4B382;" d="M152.7,319.7c0.9,6.3,6.2,8.3,9.5,9.1c10.3,2.6,15.2-1,20.6-6.5c7.2-7.2-9.1-28.8-12.9-31.4
	c-9.9-6.6-24.6,1.6-29.4,6.2c-5.3,5-2.2,5.5,0,7.4c0.1,0.1,0.1,0.6,0.1,0.6c0.7,0.7,1.7,1.6,2.2,3c0,0,0.8,0.5,1.2,0.8
	c0.2,0.2,0.4,0.4,0.2,0.7c-0.5,1-0.9,2-0.9,2.6C143.4,314.3,152.3,316.8,152.7,319.7z"/>
<path style="fill:#D6876B;" d="M145,304.3c0,0-0.8,0.2-3.1,2.5c-0.2,0.4-0.3,1.2,0.7,1.5C143.4,308.5,143.6,306.2,145,304.3z"/>
<path style="fill:#CC785E;" d="M145,304.3c0,0-1.7-0.7-4.4,0.9c-0.3,0.4-0.2,0.8-0.2,1c0.4,1,1.4,0.6,1.4,0.6
	C144.2,304.5,145,304.3,145,304.3z"/>
<path style="fill:#602F0F;" d="M184.6,323.1c8.7-8.8,7.7-33.1-19.1-35.9c-1.8-0.2-4.8,0.5-5.5,5.2c-0.5,3.4,0.1,6.6,0.1,6.6
	c0.2,1,0.4,2,0.7,3.1c0.3,1.2,5.2,5,4.4,6c-7.2,10-6.3,18.2-4,20.5C167.8,333,175.3,332.5,184.6,323.1z"/>
<path style="fill:#F4B382;" d="M164.1,300c-5.2-2.6-7-1.1-9.1,1.4l7.4,4.7l3.6,1.2C168.1,304.9,169.3,302.6,164.1,300z"/>
<path style="fill:#4C230C;" d="M184.9,296c3.8-0.3,7.1,4.9,7.4,11.5c0.3,6.7-2.6,12.4-6.4,12.7c-3.8,0.3-5.8-4.1-6.1-10.8
	C179.5,302.8,181.1,296.3,184.9,296z"/>
<g>
	<path style="fill:#602F0F;" d="M163.4,308.1c0.8,0.6,1.5,1.2,2,1.7c0.7,0.8,1.1,1.4,1.1,1.4l1.6-3.5c-0.4-0.4-0.7-0.8-1.1-1.1
		c0,0-0.2,0.4-0.5,1v-0.1c-0.9-0.2-2.2-0.7-4-1.5C162.6,306,160.9,306.2,163.4,308.1z"/>
	<path style="fill:#602F0F;" d="M186.6,294.8c4-0.3,7.5,5.3,7.8,12.7c0.3,7.3-2.7,13.5-6.7,13.8s-6.1-4.5-6.4-11.8
		C180.9,302.2,182.6,295.2,186.6,294.8z"/>
</g>
<path style="fill:#4C230C;" d="M192.9,304c0.4,0,0.9,1.7,1,4c0.1,2.2-0.2,4.1-0.6,4.1c-0.4,0-0.7-1.5-0.8-3.7
	C192.4,306.2,192.5,304.1,192.9,304z"/>
<path style="fill:#F4B382;" d="M357.8,398.4l-32.2-0.5c-7.5,0-5.2-8-3.2-9.8c1.2-1.1-19.3-40-21.3-45.7c-3.4-9.3,15.5-12.9,16.8-9.6
	c10.3,27.5,15.2,47.1,16.5,52.2c0,0,23.4,5.2,26,8C361.8,394.8,363.1,397.5,357.8,398.4z"/>
<path style="fill:#3D3C3C;" d="M285.3,313.3c3.5,11,11.2,20.2,15.6,29.2c2.4-2.5,13.7-9.1,16.8-9.6c-1.3-3.4-12.4-28.4-12.4-28.4
	c-2.7-8.4-29.1-64.2-30.6-67.5c-1.6-3.3-3.6-5.8-5.9-9.7l-31.3,20.9c8.4,15.6,34.6,36.6,38.9,43.5
	C280.8,298.6,285.3,313.3,285.3,313.3z"/>
<path style="fill:#F4B382;" d="M176.4,396.5c-4.2-2.6-15.8-3.9-15.6-6.5c1.5-20.8,7.5-52,7.5-52c1.5-20.7,12.3-60.7,10.6-68.5
	c-1.7-7.7-17.6-6.1-17.9,1.8c-1,9.3-2.2,13.7-3.2,23.3c-1.5,11.9-3.3,36.9-2.3,43.8c0.1,0.9-3,52.7-2.2,55.8
	c0.9,3.5,3.2,2.7,10.2,3.5C168.7,398.3,180.3,398.8,176.4,396.5z"/>
<g>
</g>
<g>
</g>
<g>
</g>
<g>
</g>
<g>
</g>
<g>
</g>
<g>
</g>
<g>
</g>
<g>
</g>
<g>
</g>
<g>
</g>
<g>
</g>
<g>
</g>
<g>
</g>
<g>
</g>
</svg>
