<?xml version="1.0" encoding="iso-8859-1"?>
<!-- Generator: Adobe Illustrator 19.0.0, SVG Export Plug-In . SVG Version: 6.00 Build 0)  -->
<svg version="1.1" id="Layer_1" xmlns="http://www.w3.org/2000/svg" xmlns:xlink="http://www.w3.org/1999/xlink" x="0px" y="0px"
	 viewBox="0 0 496.2 496.2" style="enable-background:new 0 0 496.2 496.2;" xml:space="preserve">
<path style="fill:#FFEFD6;" d="M0,248.1C0,111.1,111.1,0,248.1,0s248.1,111.1,248.1,248.1S385.1,496.2,248.1,496.2S0,385.1,0,248.1z
	"/>
<path style="fill:#E2A379;" d="M310.4,390.1c0,0-18.6,0.3-20.6,0.2c-3.6-0.2-7.7,0.2-8.7-3.1c-0.8-2.5,0.4-4.3-0.5-5.7
	c-4.7-6.9-18.6-29.5-24.2-37.9c-1.3-1.9-2.6-4-3.8-6.1c-5.1-8.6,17.5-13.7,19-10.4c6.9,14.9,16.8,47,18.5,52.1c0,0,23.8,2.5,23.8,9
	C313.8,390.2,310.4,390.1,310.4,390.1z"/>
<path style="fill:#333333;" d="M240.3,308c4.3,10.7,7.1,20.9,12.2,29.4c2.3-2.7,15.9-9.8,19-10.4c-1.5-3.3-11.8-29.2-11.8-29.2
	c-3.3-8.2-22-56.8-31.8-69.8c-2.4-3.4-4.8-6.3-7-8.5c-4.2-4.4-31.1,14.3-28.3,21.9c9.5,14.9,32.4,39.1,37.2,45.7
	C234.7,293.6,240.3,308,240.3,308z"/>
<path style="fill:#3D3C3C;" d="M231.1,209.8c-22-3.4-28.2,1.9-34.6,8.4c0,0-5.8,6.4-7.6,13c-3.7,13.6,3.2,23.2,3.2,23.2
	s26.2,3.5,28.5-3.3c0,0,0.7-0.9,1.3-1.3c0.8-0.6,1.9-0.7,1.9-0.7C229,231.3,231.1,209.8,231.1,209.8z"/>
<g>
	<path style="fill:#F4B382;" d="M361.7,103.2c3.6,0.9-2.2,15.8-2.4,20.6l-3.9,4.8c-6.4,34.1-12.9,49.3-12.9,49.3
		c-2.9,20.6-13.2,56.4-16.5,63.6c-1.9,4.4-20.9-4.9-19.5-10.5c3-8.5,5.7-12.4,7.1-15.8c2-7.6,13.9-33.9,16.3-40.4
		c0.3-0.9,17.1-48.3,17.1-48.3s0.5-2,0.2-5.5c-0.4-4.8,1.7-11.4,4.3-14.6C353.8,103.7,358.1,102.2,361.7,103.2z"/>
	<path style="fill:#F4B382;" d="M359,118.7c0,0,0.8-5,3.5-4.8c2.2,0.1,3,0.4-3.2,9.8C359.3,123.8,357.9,123.3,359,118.7z"/>
	<path style="fill:#F4B382;" d="M265.3,393c-3.6-1,2.5-15.7,2.8-20.6l4-4.8c7.1-34,13.8-49,13.8-49c3.3-20.5,14.3-56.1,17.7-63.3
		c2-4.4,18.5,12.8,16.9,18.4c0,0-1.8,3.7-4.2,8.4c-3.3,8.7-15.5,33.3-18,39.8c-0.3,0.9-18,47.9-18,47.9s-0.5,2-0.3,5.5
		c0.3,4.8-1.9,11.4-4.6,14.6C273.2,392.6,268.9,394,265.3,393z"/>
	<path style="fill:#F4B382;" d="M268.3,377.6c0,0-0.9,4.9-3.6,4.7c-2.2-0.2-3-0.5,3.4-9.8C268.1,372.5,269.5,373.1,268.3,377.6z"/>
</g>
<path style="fill:#A31937;" d="M287.3,275.2c10.9,3.9,33.3-1.5,33.3-1.5c1.4-4.4,2.4-8.9,3.1-12.4L326,249c0.6-3.5,1.3-8.1,1.5-12.6
	c0,0-18.9-13.1-30.5-13.3c-10.9-0.2-26.8-0.1-65.9-13.4l-5.1,27.2l0,0l-2.1,12C263.3,257.3,277.1,271.5,287.3,275.2z"/>
<path style="fill:#B3233B;" d="M287.3,275.2c10.9,3.9,33.3-1.5,33.3-1.5c1.4-4.4,2.4-8.9,3.1-12.4L326,249c0.6-3.5,1.3-8.1,1.5-12.6
	c0,0-18.9-13.1-30.5-13.3c-10.9-0.2-60.4,15.5-65.5,19.4s-7.6,6.4-7.6,6.4C263.3,257.3,277.1,271.5,287.3,275.2z"/>
<path style="fill:#E2A379;" d="M334.6,265.6l3.1-16.6c-8.3,1.1-11.4-1.9-11.4-1.9s-5.2-0.5-6.6,7.2c-1.4,7.6,3.6,9,3.6,9
	S327.2,261.6,334.6,265.6z"/>
<path style="fill:#F4B382;" d="M361.4,248.3c6.3-1,9.8,3.5,11.5,6.4c5.5,9.1,3.6,14.8,0,21.6c-4.7,9-30.2-0.1-33.8-3
	c-9.3-7.5-5.8-24-2.9-29.9c3.2-6.5,4.6-3.8,7.1-2.2c0.1,0.1,0.6-0.1,0.6-0.1c0.9,0.5,2.1,1.2,3.6,1.2c0,0,0.7,0.7,1.1,0.9
	c0.3,0.2,0.5,0.2,0.8,0c0.8-0.8,1.6-1.5,2.2-1.7C353.4,241,358.4,248.8,361.4,248.3z"/>
<path style="fill:#D6876B;" d="M344.3,245.6c0,0-0.1-0.8,1.5-3.8c0.4-0.3,1.1-0.7,1.6,0.3C347.8,242.8,345.7,243.6,344.3,245.6z"/>
<path style="fill:#CC785E;" d="M344.3,245.6c0,0-1.2-1.4-0.4-4.4c0.3-0.4,0.7-0.5,0.9-0.5c1.1,0.1,1,1.1,1,1.1
	C344.3,244.8,344.3,245.6,344.3,245.6z"/>
<path style="fill:#602F0F;" d="M374.1,277.7c-5.8,11-29.3,17.3-40-7.5c-0.7-1.7-1-4.7,3.4-6.8c3.1-1.5,6.3-1.8,6.3-1.8
	c1-0.1,2-0.2,3.2-0.3c1.2-0.1,6.3,3.5,7,2.4c7.4-9.9,15.5-11.4,18.3-9.9C378.5,258.7,380.2,266,374.1,277.7z"/>
<path style="fill:#F4B382;" d="M345.9,265.1c-4-4.2-3.2-6.3-1.4-9.1l6.7,5.6l2.3,3.1C351.7,267.4,349.9,269.3,345.9,265.1z"/>
<path style="fill:#4C230C;" d="M348.4,286.1c0.8,3.7,6.8,5.3,13.2,3.6c6.5-1.7,11-6.2,10.2-9.9c-0.8-3.7-5.6-4.3-12.1-2.6
	C353.2,279,347.5,282.4,348.4,286.1z"/>
<g>
	<path style="fill:#602F0F;" d="M351.1,261.8c1.3,1.4,2.2,2.5,2.6,3.3c0,0,0,0,0.1-0.1c-0.5,0.5-0.8,0.8-0.8,0.8
		c0.5,0.2,0.9,0.5,1.4,0.7l2.8-2.6c0,0-0.7-0.2-1.6-0.6c-0.7-0.3-1.5-0.8-2.3-1.4C350.9,260.1,351.1,261.8,351.1,261.8z"/>
	<path style="fill:#602F0F;" d="M347.7,288.1c0.9,3.9,7.3,5.5,14.4,3.6s12.1-6.6,11.2-10.5s-6.1-4.5-13.2-2.6
		C353.1,280.5,346.8,284.2,347.7,288.1z"/>
</g>
<path style="fill:#4C230C;" d="M358.4,291.4c0.1,0.4,1.9,0.3,4.1-0.3c2.2-0.6,3.8-1.4,3.7-1.8c-0.1-0.4-1.6-0.2-3.8,0.3
	C360.3,290.2,358.3,291,358.4,291.4z"/>
<path style="fill:#F4B382;" d="M141,390.2c0,0-17.4,0-19.2-0.1c-3.6-0.2-4.3-3.8-2.8-7.1c1.1-2.4,3.1-3.5,4.5-6.2
	c3.7-7.5,13.1-30,17-39.3c0.9-2.2,1.9-4.3,2.9-6.5c4.3-9,21.7,5.8,19.8,8.9c-7.5,12.3-26.9,36.6-30.2,40.8c0,0,17.4,2.7,17.5,6.5
	C150.7,390.2,145.5,390.6,141,390.2z"/>
<path style="fill:#3D3C3C;" d="M161.9,303.5c-6.6,9.5-14,18.6-18.4,27.5c3.5,0.4,17.6,6.7,19.8,8.9c1.9-3.1,17.8-26,17.8-26
	c5-7.3,35.1-49.8,40.5-65.1c1.5-3.9,2.5-7.5,3.2-10.5c1.3-5.9-29.1-18-33.9-11.4c-7.1,16.2-14.5,48.7-17.3,56.3
	C170.7,290.9,161.9,303.5,161.9,303.5z"/>
<g>
</g>
<g>
</g>
<g>
</g>
<g>
</g>
<g>
</g>
<g>
</g>
<g>
</g>
<g>
</g>
<g>
</g>
<g>
</g>
<g>
</g>
<g>
</g>
<g>
</g>
<g>
</g>
<g>
</g>
</svg>
