<?xml version="1.0" encoding="iso-8859-1"?>
<!-- Generator: Adobe Illustrator 19.0.0, SVG Export Plug-In . SVG Version: 6.00 Build 0)  -->
<svg version="1.1" id="Layer_1" xmlns="http://www.w3.org/2000/svg" xmlns:xlink="http://www.w3.org/1999/xlink" x="0px" y="0px"
	 viewBox="0 0 496.2 496.2" style="enable-background:new 0 0 496.2 496.2;" xml:space="preserve">
<path style="fill:#FFEFD6;" d="M0,248.1C0,111.1,111.1,0,248.1,0s248.1,111.1,248.1,248.1S385.1,496.2,248.1,496.2S0,385.1,0,248.1z
	"/>
<path style="fill:#3D3C3C;" d="M269.5,223.7c0,0-8.6-1.1-15.3,0.3c-13.8,2.9-19.1,13.5-19.1,13.5s4.1,31.4,11.1,29.7
	c13.3-3.1,23.9-5.2,30.4-6.5c4.4-0.9,2.4-22.3,2.4-22.3L269.5,223.7z"/>
<path style="fill:#F4B382;" d="M78.7,287.5c0.4-4.1,17.8-5.1,20.5-6.8c1.3-0.8,2.4-3.2,5.8-3.8c4.5-0.8,7.6,2.4,9.2,2
	c8.1-1.9,30.6-4.6,40.5-6.8c2.3-0.5,4.6-1,7-1.4c9.8-1.7,7,19.3,3.4,19.6c-14.4,1-49-1-54.2-1.2c0,0-15.8,2-19.6,2.1
	C89,291.3,78.3,291.6,78.7,287.5z"/>
<path style="fill:#3D3C3C;" d="M194,268c-11.6,0.1-22.5,1-32.3,2.7c1.7,3.1,3.9,16.4,3.4,19.5c3.6-0.2,31.5-0.5,31.5-0.5
	c8.8-0.1,53.8-19.6,67.9-27.6c3.7-1.9,6.8-4,9.3-5.9c4.9-3.6-10.3-32.6-18.3-30.8c-5.9,2.8-15.9,5.7-20.5,11.9
	C226.1,249.3,194,268,194,268z"/>
<path style="fill:#E2A379;" d="M356.1,279.1c-4.5-2.2-14.7-3-16.1-5.1c-15.4-23.1-17.3-26.2-17.3-26.2
	c21.1-14.8,31.5-12.7,32.5-24.5c-2.3-7.6-13.9-6.2-21.4,0.2c-12.3,5.9-32,18.1-30.4,24.9c0.2,0.9,28.4,27.4,29.5,30.5
	c1.2,3.4,3.4,2.4,10.5,2.7C348.5,281.7,360.2,281.2,356.1,279.1z"/>
<path style="fill:#B3233B;" d="M323.8,260c12.3-0.1,15.9-9.2,28.6-16.4c5-3.2,8-10.2,7.9-14.1c-0.1-4.4-1-8.9-4.7-12.1
	c-10.4-9.8-67.1,7.4-86.1,6.3c0,0,6.3,12.3,7.4,20.4c1.1,8.2-0.2,16.6-0.2,16.6c17.6-1.7,25.6-6,37.9-4.8
	C314.6,256,320.3,260,323.8,260z"/>
<path style="fill:#E2A379;" d="M361.7,233.4c0,0,4.1-1.1,11.4-2.3l1.1-16.6c-6.7,5-16.3,5.5-16.3,5.5c4.3,10.1,0,14.6-0.2,18.1
	L361.7,233.4z"/>
<path style="fill:#F4B382;" d="M396.8,221c5.9-2.4,6.5-8.1,6.5-11.5c0-10.6-4.7-14.5-11.3-18.4c-8.7-5.2-25.7,15.9-27.2,20.2
	c-4,11.3,7.6,23.5,13.2,27c6.2,3.9,5.9,0.8,7.2-1.8c0.1-0.1,0.6-0.3,0.6-0.3c0.5-0.9,1.2-2.1,2.4-2.9c0,0,0.2-0.9,0.5-1.3
	c0.1-0.3,0.3-0.5,0.7-0.4c1.1,0.2,2.1,0.4,2.7,0.3C393.9,231.5,394.1,222.2,396.8,221z"/>
<path style="fill:#D6876B;" d="M383.8,232.3c0,0,0.4,0.7,3.2,2.4c0.5,0,1.3,0,1.2-1.1C388.2,232.9,386,233.3,383.8,232.3z"/>
<path style="fill:#CC785E;" d="M383.8,232.3c0,0-0.3,1.8,2,4c0.4,0.2,0.9,0,1-0.1c0.8-0.6,0.2-1.5,0.2-1.5
	C384.2,233,383.8,232.3,383.8,232.3z"/>
<path style="fill:#602F0F;" d="M392.3,189.3c-10.7-6.3-34,0.6-30.2,27.4c0.3,1.8,1.6,4.5,6.4,4c3.4-0.4,6.4-1.7,6.4-1.7
	c0.9-0.4,1.8-0.9,2.9-1.4c1.1-0.6,3.5-6.2,4.7-5.8c11.4,4.5,19.2,1.6,20.8-1.2C406,203.2,403.7,196.1,392.3,189.3z"/>
<path style="fill:#F4B382;" d="M374.9,214.8c-1.2,5.7,0.6,7.1,3.6,8.5l2.8-8.3l0.3-3.8C378.6,209.8,376.1,209.2,374.9,214.8z"/>
<path style="fill:#4C230C;" d="M366,195.7c-1.2-3.6,3-8.1,9.4-10s12.6-0.5,13.8,3.1c1.2,3.6-2.5,6.6-8.9,8.5
	C373.8,199.2,367.2,199.3,366,195.7z"/>
<g>
	<path style="fill:#602F0F;" d="M382.9,213.6c0.4-0.9,0.8-1.7,1.2-2.3c0.6-0.9,1-1.4,1-1.4l-3.8-0.7c-0.3,0.4-0.5,0.9-0.8,1.4
		c0,0,0.4,0.1,1.1,0.2h-0.1c0,0.9-0.1,2.3-0.5,4.2C381.1,214.9,381.8,216.5,382.9,213.6z"/>
	<path style="fill:#602F0F;" d="M364.4,194.3c-1.3-3.8,3.3-8.6,10.4-10.7c7-2.1,13.8-0.7,15.1,3.1c1.3,3.8-2.9,7-9.9,9.1
		C372.9,198,365.7,198.1,364.4,194.3z"/>
</g>
<path style="fill:#4C230C;" d="M371.8,185.9c-0.1-0.4,1.5-1.3,3.6-1.9c2.1-0.6,4-0.8,4.1-0.4c0.1,0.4-1.2,1.1-3.4,1.7
	C374,185.9,371.9,186.3,371.8,185.9z"/>
<path style="fill:#F4B382;" d="M346.9,288.5c-4.2-2.6-14.4-4.2-15.6-6.5c-13.3-24.4-17.7-29.4-17.7-29.4
	c22.3-13,39.7-16.6,41.7-28.3c-1.7-7.7-13.3-7.3-21.3-1.7c-12.8,4.8-38,23.8-37,30.7c0.1,0.9,26,29.7,26.8,32.9
	c0.9,3.5,3.2,2.7,10.2,3.5C339.2,290.3,350.8,290.8,346.9,288.5z"/>
<g>
</g>
<g>
</g>
<g>
</g>
<g>
</g>
<g>
</g>
<g>
</g>
<g>
</g>
<g>
</g>
<g>
</g>
<g>
</g>
<g>
</g>
<g>
</g>
<g>
</g>
<g>
</g>
<g>
</g>
</svg>
